<?xml version="1.0" encoding="UTF-8" standalone="no"?>
<!-- Created with Inkscape (http://www.inkscape.org/) -->

<svg
   xmlns:ns0="http://www.iki.fi/pav/software/textext/"
   xmlns:dc="http://purl.org/dc/elements/1.1/"
   xmlns:cc="http://creativecommons.org/ns#"
   xmlns:rdf="http://www.w3.org/1999/02/22-rdf-syntax-ns#"
   xmlns:svg="http://www.w3.org/2000/svg"
   xmlns="http://www.w3.org/2000/svg"
   xmlns:xlink="http://www.w3.org/1999/xlink"
   xmlns:sodipodi="http://sodipodi.sourceforge.net/DTD/sodipodi-0.dtd"
   xmlns:inkscape="http://www.inkscape.org/namespaces/inkscape"
   width="212.59842"
   height="212.59842"
   id="svg2"
   version="1.1"
   inkscape:version="0.48.0 r9654"
   sodipodi:docname="6.eps">
  <sodipodi:namedview
     id="base"
     pagecolor="#ffffff"
     bordercolor="#666666"
     borderopacity="1.0"
     inkscape:pageopacity="0.0"
     inkscape:pageshadow="2"
     inkscape:zoom="4.5753125"
     inkscape:cx="58.478457"
     inkscape:cy="134.03519"
     inkscape:document-units="px"
     inkscape:current-layer="layer1"
     showgrid="false"
     units="cm"
     inkscape:window-width="1360"
     inkscape:window-height="687"
     inkscape:window-x="0"
     inkscape:window-y="27"
     inkscape:window-maximized="1"
     borderlayer="true"
     showguides="true"
     inkscape:guide-bbox="true">
    <inkscape:grid
       snapvisiblegridlinesonly="true"
       enabled="true"
       visible="true"
       empspacing="5"
       id="grid2985"
       type="xygrid" />
    <sodipodi:guide
       orientation="-0.70710678,0.70710678"
       position="309.14007,829.8278"
       id="guide3313" />
  </sodipodi:namedview>
  <defs
     id="defs4" />
  <metadata
     id="metadata7">
    <rdf:RDF>
      <cc:Work
         rdf:about="">
        <dc:format>image/svg+xml</dc:format>
        <dc:type
           rdf:resource="http://purl.org/dc/dcmitype/StillImage" />
        <dc:title></dc:title>
      </cc:Work>
    </rdf:RDF>
  </metadata>
  <g
     transform="translate(0,-839.76323)"
     id="layer1"
     inkscape:groupmode="layer"
     inkscape:label="Layer 1">
    <text
       transform="scale(1.0429144,0.95885147)"
       sodipodi:linespacing="125%"
       id="text3001"
       y="1019.3782"
       x="48.259224"
       style="font-size:9.39944553px;font-style:normal;font-variant:normal;font-weight:normal;font-stretch:normal;line-height:125%;letter-spacing:0px;word-spacing:0px;fill:#000000;fill-opacity:1;stroke:none;font-family:LMRoman10;-inkscape-font-specification:Sans"
       xml:space="preserve"><tspan
         y="1019.3782"
         x="48.259224"
         id="tspan3003"
         sodipodi:role="line" /></text>
    <text
       transform="translate(0,910.62992)"
       sodipodi:linespacing="125%"
       id="text3029"
       y="96.584312"
       x="82.014366"
       style="font-size:14px;font-style:normal;font-variant:normal;font-weight:normal;font-stretch:normal;line-height:125%;letter-spacing:0px;word-spacing:0px;fill:#000000;fill-opacity:1;stroke:none;font-family:LMRoman10;-inkscape-font-specification:Sans"
       xml:space="preserve"><tspan
         y="96.584312"
         x="82.014366"
         id="tspan3031"
         sodipodi:role="line" /></text>
    <flowRoot
       style="font-size:8px;font-style:normal;font-variant:normal;font-weight:normal;font-stretch:normal;line-height:125%;letter-spacing:0px;word-spacing:0px;fill:#000000;fill-opacity:1;stroke:none;font-family:LMRoman10;-inkscape-font-specification:Sans"
       id="flowRoot3011"
       xml:space="preserve"><flowRegion
         id="flowRegion3013"><rect
           y="70.070854"
           x="72.718384"
           height="11.837876"
           width="0"
           id="rect3015" /></flowRegion><flowPara
         id="flowPara3017" /></flowRoot>    <text
       transform="translate(0,910.62958)"
       sodipodi:linespacing="125%"
       id="text3026"
       y="84.868202"
       x="104.84976"
       style="font-size:8px;font-style:normal;font-variant:normal;font-weight:normal;font-stretch:normal;line-height:125%;letter-spacing:0px;word-spacing:0px;fill:#000000;fill-opacity:1;stroke:none;font-family:LMRoman10;-inkscape-font-specification:Sans"
       xml:space="preserve"><tspan
         y="84.868202"
         x="104.84976"
         id="tspan3028"
         sodipodi:role="line" /><tspan
         y="94.868202"
         x="104.84976"
         id="tspan3030"
         sodipodi:role="line" /><tspan
         y="104.8682"
         x="104.84976"
         id="tspan3032"
         sodipodi:role="line" /><tspan
         y="114.8682"
         x="104.84976"
         id="tspan3034"
         sodipodi:role="line" /></text>
    <text
       sodipodi:linespacing="125%"
       id="text3089"
       y="937.2652"
       x="62.0271"
       style="font-size:8px;font-style:normal;font-variant:normal;font-weight:normal;font-stretch:normal;line-height:125%;letter-spacing:0px;word-spacing:0px;fill:#000000;fill-opacity:1;stroke:none;font-family:LMRoman10;-inkscape-font-specification:Sans"
       xml:space="preserve"><tspan
         y="937.2652"
         x="62.0271"
         id="tspan3091"
         sodipodi:role="line">       </tspan></text>
    <text
       sodipodi:linespacing="125%"
       id="text3093"
       y="936.14209"
       x="62.775837"
       style="font-size:8px;font-style:normal;font-variant:normal;font-weight:normal;font-stretch:normal;line-height:125%;letter-spacing:0px;word-spacing:0px;fill:#000000;fill-opacity:1;stroke:none;font-family:LMRoman10;-inkscape-font-specification:Sans"
       xml:space="preserve"><tspan
         y="936.14209"
         x="62.775837"
         id="tspan3095"
         sodipodi:role="line">  </tspan></text>
    <text
       transform="translate(0,839.76324)"
       sodipodi:linespacing="125%"
       id="text3139"
       y="79.205902"
       x="40.677387"
       style="font-size:8px;font-style:normal;font-variant:normal;font-weight:normal;font-stretch:normal;line-height:125%;letter-spacing:0px;word-spacing:0px;fill:#000000;fill-opacity:1;stroke:none;font-family:LMRoman10;-inkscape-font-specification:Sans"
       xml:space="preserve"><tspan
         y="79.205902"
         x="40.677387"
         id="tspan3141"
         sodipodi:role="line" /></text>
    <text
       transform="translate(0,839.76324)"
       sodipodi:linespacing="125%"
       id="text3935"
       y="53.848419"
       x="32"
       style="font-size:8px;font-style:normal;font-variant:normal;font-weight:normal;font-stretch:normal;line-height:125%;letter-spacing:0px;word-spacing:0px;fill:#000000;fill-opacity:1;stroke:none;font-family:LMRoman10;-inkscape-font-specification:Sans"
       xml:space="preserve"><tspan
         y="53.848419"
         x="32"
         id="tspan3937"
         sodipodi:role="line" /></text>
    <flowRoot
       style="font-size:20px;font-style:normal;font-variant:normal;font-weight:normal;font-stretch:normal;line-height:125%;letter-spacing:0px;word-spacing:0px;fill:#000000;fill-opacity:1;stroke:none;font-family:LMRoman10;-inkscape-font-specification:Sans"
       id="flowRoot3945"
       xml:space="preserve"><flowRegion
         id="flowRegion3947"><rect
           style="font-size:20px"
           y="49.348419"
           x="37"
           height="17.5"
           width="11.75"
           id="rect3949" /></flowRegion><flowPara
         id="flowPara3951" /></flowRoot>    <flowRoot
       style="font-size:4px;font-style:normal;font-variant:normal;font-weight:normal;font-stretch:normal;line-height:125%;letter-spacing:0px;word-spacing:0px;fill:#000000;fill-opacity:1;stroke:none;font-family:LMRoman10;-inkscape-font-specification:Sans"
       id="flowRoot3115"
       xml:space="preserve"><flowRegion
         id="flowRegion3117"><rect
           y="185.09428"
           x="110.28099"
           height="5.818182"
           width="27.768595"
           id="rect3119" /></flowRegion><flowPara
         id="flowPara3121" /></flowRoot>    <flowRoot
       style="font-size:8px;font-style:normal;font-variant:normal;font-weight:normal;font-stretch:normal;line-height:125%;letter-spacing:0px;word-spacing:0px;fill:#000000;fill-opacity:1;stroke:none;font-family:LMRoman10;-inkscape-font-specification:Sans"
       id="flowRoot3123"
       xml:space="preserve"><flowRegion
         id="flowRegion3125"><rect
           style="font-size:8px"
           y="184.03644"
           x="110.01653"
           height="8.4628096"
           width="30.942148"
           id="rect3127" /></flowRegion><flowPara
         id="flowPara3129" /></flowRoot>    <flowRoot
       style="font-size:8px;font-style:normal;font-variant:normal;font-weight:normal;font-stretch:normal;line-height:125%;letter-spacing:0px;word-spacing:0px;fill:#000000;fill-opacity:1;stroke:none;font-family:LMRoman10;-inkscape-font-specification:Sans"
       id="flowRoot3131"
       xml:space="preserve"><flowRegion
         id="flowRegion3133"><rect
           style="font-size:8px"
           y="171.60669"
           x="104.46281"
           height="6.0826445"
           width="13.223141"
           id="rect3135" /></flowRegion><flowPara
         id="flowPara3137" /></flowRoot>    <text
       sodipodi:linespacing="125%"
       id="text3158"
       y="889.10547"
       x="14.809917"
       style="font-size:10px;font-style:normal;font-variant:normal;font-weight:normal;font-stretch:normal;line-height:125%;letter-spacing:0px;word-spacing:0px;fill:#000000;fill-opacity:1;stroke:none;font-family:LMRoman10;-inkscape-font-specification:Sans"
       xml:space="preserve"><tspan
         y="889.10547"
         x="14.809917"
         id="tspan3160"
         sodipodi:role="line" /></text>
    <text
       sodipodi:linespacing="125%"
       id="text3164"
       y="921.86578"
       x="29.537189"
       style="font-size:10px;font-style:normal;font-variant:normal;font-weight:normal;font-stretch:normal;line-height:125%;letter-spacing:0px;word-spacing:0px;fill:#000000;fill-opacity:1;stroke:none;font-family:LMRoman10;-inkscape-font-specification:Sans"
       xml:space="preserve"><tspan
         y="921.86578"
         x="29.537189"
         id="tspan3166"
         sodipodi:role="line">3</tspan></text>
    <text
       sodipodi:linespacing="125%"
       id="text3168"
       y="922.13025"
       x="45.504131"
       style="font-size:10px;font-style:normal;font-variant:normal;font-weight:normal;font-stretch:normal;line-height:125%;letter-spacing:0px;word-spacing:0px;fill:#000000;fill-opacity:1;stroke:none;font-family:LMRoman10;-inkscape-font-specification:Sans"
       xml:space="preserve"><tspan
         y="922.13025"
         x="45.504131"
         id="tspan3170"
         sodipodi:role="line">8</tspan></text>
    <text
       sodipodi:linespacing="125%"
       id="text3172"
       y="922.64264"
       x="64.049591"
       style="font-size:10px;font-style:normal;font-variant:normal;font-weight:normal;font-stretch:normal;line-height:125%;letter-spacing:0px;word-spacing:0px;fill:#000000;fill-opacity:1;stroke:none;font-family:LMRoman10;-inkscape-font-specification:Sans"
       xml:space="preserve"><tspan
         y="922.64264"
         x="64.049591"
         id="tspan3174"
         sodipodi:role="line">7</tspan></text>
    <text
       xml:space="preserve"
       style="font-size:10px;font-style:normal;font-variant:normal;font-weight:normal;font-stretch:normal;line-height:125%;letter-spacing:0px;word-spacing:0px;fill:#000000;fill-opacity:1;stroke:none;font-family:LMRoman10;-inkscape-font-specification:Sans"
       x="85.504135"
       y="922.13025"
       id="text3182"
       sodipodi:linespacing="125%"><tspan
         sodipodi:role="line"
         id="tspan3184"
         x="85.504135"
         y="922.13025">5</tspan></text>
    <path
       inkscape:connector-curvature="0"
       id="path3190"
       d="m 79,913.36166 0,10"
       style="fill:none;stroke:#000000;stroke-width:1px;stroke-linecap:butt;stroke-linejoin:miter;stroke-opacity:1" />
    <text
       sodipodi:linespacing="125%"
       id="text3200"
       y="922.89056"
       x="103.52066"
       style="font-size:10px;font-style:normal;font-variant:normal;font-weight:normal;font-stretch:normal;line-height:125%;letter-spacing:0px;word-spacing:0px;fill:#000000;fill-opacity:1;stroke:none;font-family:LMRoman10;-inkscape-font-specification:Sans"
       xml:space="preserve"><tspan
         y="922.89056"
         x="103.52066"
         id="tspan3202"
         sodipodi:role="line">0)</tspan></text>
    <text
       sodipodi:linespacing="125%"
       id="text3204"
       y="923.22119"
       x="113.43802"
       style="font-size:10px;font-style:normal;font-variant:normal;font-weight:normal;font-stretch:normal;line-height:125%;letter-spacing:0px;word-spacing:0px;fill:#000000;fill-opacity:1;stroke:none;font-family:LMRoman10;-inkscape-font-specification:Sans"
       xml:space="preserve"><tspan
         y="923.22119"
         x="113.43802"
         id="tspan3206"
         sodipodi:role="line">29725</tspan></text>
    <text
       sodipodi:linespacing="125%"
       id="text3212"
       y="889.60132"
       x="144.57851"
       style="font-size:10px;font-style:normal;font-variant:normal;font-weight:normal;font-stretch:normal;line-height:125%;letter-spacing:0px;word-spacing:0px;fill:#000000;fill-opacity:1;stroke:none;font-family:LMRoman10;-inkscape-font-specification:Sans"
       xml:space="preserve"><tspan
         y="889.60132"
         x="144.57851"
         id="tspan3214"
         sodipodi:role="line" /></text>
    <text
       sodipodi:linespacing="125%"
       id="text3220"
       y="936.54346"
       x="114.71075"
       style="font-size:10px;font-style:normal;font-variant:normal;font-weight:normal;font-stretch:normal;line-height:125%;letter-spacing:0px;word-spacing:0px;fill:#000000;fill-opacity:1;stroke:none;font-family:LMRoman10;-inkscape-font-specification:Sans"
       xml:space="preserve"><tspan
         y="936.54346"
         x="114.71075"
         id="tspan3222"
         sodipodi:role="line">27125</tspan></text>
    <path
       sodipodi:nodetypes="cc"
       inkscape:connector-curvature="0"
       id="path3224"
       d="m 111,943.36166 30,0"
       style="fill:none;stroke:#000000;stroke-width:1px;stroke-linecap:butt;stroke-linejoin:miter;stroke-opacity:1" />
    <text
       sodipodi:linespacing="125%"
       id="text3226"
       y="955.96497"
       x="115.47107"
       style="font-size:10px;font-style:normal;font-variant:normal;font-weight:normal;font-stretch:normal;line-height:125%;letter-spacing:0px;word-spacing:0px;fill:#000000;fill-opacity:1;stroke:none;font-family:LMRoman10;-inkscape-font-specification:Sans"
       xml:space="preserve"><tspan
         y="955.96497"
         x="115.47107"
         id="tspan3228"
         sodipodi:role="line"> .2600</tspan></text>
    <text
       sodipodi:linespacing="125%"
       id="text3230"
       y="967.20465"
       x="116.19835"
       style="font-size:10px;font-style:normal;font-variant:normal;font-weight:normal;font-stretch:normal;line-height:125%;letter-spacing:0px;word-spacing:0px;fill:#000000;fill-opacity:1;stroke:none;font-family:LMRoman10;-inkscape-font-specification:Sans"
       xml:space="preserve"><tspan
         y="967.20465"
         x="116.19835"
         id="tspan3232"
         sodipodi:role="line">  2325</tspan></text>
    <path
       style="fill:none;stroke:#000000;stroke-width:1px;stroke-linecap:butt;stroke-linejoin:miter;stroke-opacity:1"
       d="m 116,973.36166 27,0"
       id="path3234"
       inkscape:connector-curvature="0"
       sodipodi:nodetypes="cc" />
    <text
       sodipodi:linespacing="125%"
       id="text3236"
       y="985.65094"
       x="121.96694"
       style="font-size:10px;font-style:normal;font-variant:normal;font-weight:normal;font-stretch:normal;line-height:125%;letter-spacing:0px;word-spacing:0px;fill:#000000;fill-opacity:1;stroke:none;font-family:LMRoman10;-inkscape-font-specification:Sans"
       xml:space="preserve"><tspan
         y="985.65094"
         x="121.96694"
         id="tspan3238"
         sodipodi:role="line">  275</tspan></text>
    <text
       sodipodi:linespacing="125%"
       id="text3240"
       y="997.46912"
       x="122.59504"
       style="font-size:10px;font-style:normal;font-variant:normal;font-weight:normal;font-stretch:normal;line-height:125%;letter-spacing:0px;word-spacing:0px;fill:#000000;fill-opacity:1;stroke:none;font-family:LMRoman10;-inkscape-font-specification:Sans"
       xml:space="preserve"><tspan
         y="997.46912"
         x="122.59504"
         id="tspan3242"
         sodipodi:role="line">  271</tspan></text>
    <path
       sodipodi:nodetypes="cc"
       inkscape:connector-curvature="0"
       id="path3244"
       d="m 126,1003.3617 21,0"
       style="fill:none;stroke:#000000;stroke-width:1px;stroke-linecap:butt;stroke-linejoin:miter;stroke-opacity:1" />
    <text
       sodipodi:linespacing="125%"
       id="text3246"
       y="1014.1468"
       x="134.95868"
       style="font-size:10px;font-style:normal;font-variant:normal;font-weight:normal;font-stretch:normal;line-height:125%;letter-spacing:0px;word-spacing:0px;fill:#000000;fill-opacity:1;stroke:none;font-family:LMRoman10;-inkscape-font-specification:Sans"
       xml:space="preserve"><tspan
         y="1014.1468"
         x="134.95868"
         id="tspan3248"
         sodipodi:role="line">  4</tspan></text>
    <text
       sodipodi:linespacing="125%"
       id="text3250"
       y="1025.1055"
       x="135.05785"
       style="font-size:10px;font-style:normal;font-variant:normal;font-weight:normal;font-stretch:normal;line-height:125%;letter-spacing:0px;word-spacing:0px;fill:#000000;fill-opacity:1;stroke:none;font-family:LMRoman10;-inkscape-font-specification:Sans"
       xml:space="preserve"><tspan
         y="1025.1055"
         x="135.05785"
         id="tspan3252"
         sodipodi:role="line">  4</tspan></text>
    <path
       style="fill:none;stroke:#000000;stroke-width:1px;stroke-linecap:butt;stroke-linejoin:miter;stroke-opacity:1"
       d="m 138,1027.3617 13,0"
       id="path3254"
       inkscape:connector-curvature="0"
       sodipodi:nodetypes="cc" />
    <text
       sodipodi:linespacing="125%"
       id="text3258"
       y="1039.1221"
       x="138.64462"
       style="font-size:10px;font-style:normal;font-variant:normal;font-weight:normal;font-stretch:normal;line-height:125%;letter-spacing:0px;word-spacing:0px;fill:#000000;fill-opacity:1;stroke:none;font-family:LMRoman10;-inkscape-font-specification:Sans"
       xml:space="preserve"><tspan
         y="1039.1221"
         x="138.64462"
         id="tspan3260"
         sodipodi:role="line"> 0</tspan></text>
    <path
       sodipodi:nodetypes="cs"
       inkscape:connector-curvature="0"
       id="path3074"
       d="m 84,900.36166 c -6.984372,-2.53331 -4.540796,8.64931 -5,11"
       style="fill:none;stroke:#000000;stroke-width:1px;stroke-linecap:butt;stroke-linejoin:miter;stroke-opacity:1" />
    <path
       style="fill:none;stroke:#000000;stroke-width:1px;stroke-linecap:butt;stroke-linejoin:miter;stroke-opacity:1"
       d="m 99,914.36166 c 0,0 0,10 0,9"
       id="path3076"
       inkscape:connector-curvature="0"
       sodipodi:nodetypes="cc" />
    <path
       style="fill:none;stroke:#000000;stroke-width:1px;stroke-linecap:butt;stroke-linejoin:miter;stroke-opacity:1"
       d="m 104,900.36166 c -6.984372,-2.53331 -4.540796,8.64931 -5,11"
       id="path3075"
       inkscape:connector-curvature="0"
       sodipodi:nodetypes="cs" />
    <path
       inkscape:connector-curvature="0"
       id="path3081"
       d="m 59,913.36166 0,10"
       style="fill:none;stroke:#000000;stroke-width:1px;stroke-linecap:butt;stroke-linejoin:miter;stroke-opacity:1" />
    <path
       sodipodi:nodetypes="cs"
       inkscape:connector-curvature="0"
       id="path3083"
       d="m 64,900.36166 c -6.984372,-2.53331 -4.540796,8.64931 -5,11"
       style="fill:none;stroke:#000000;stroke-width:1px;stroke-linecap:butt;stroke-linejoin:miter;stroke-opacity:1" />
    <path
       inkscape:connector-curvature="0"
       id="path3085"
       d="m 39,913.36166 0,10"
       style="fill:none;stroke:#000000;stroke-width:1px;stroke-linecap:butt;stroke-linejoin:miter;stroke-opacity:1" />
    <path
       sodipodi:nodetypes="cs"
       inkscape:connector-curvature="0"
       id="path3087"
       d="m 44,900.36166 c -6.984372,-2.53331 -4.540796,8.64931 -5,11"
       style="fill:none;stroke:#000000;stroke-width:1px;stroke-linecap:butt;stroke-linejoin:miter;stroke-opacity:1" />
    <text
       transform="translate(0,839.76324)"
       sodipodi:linespacing="125%"
       id="text3090"
       y="47.008835"
       x="194.07098"
       style="font-size:10px;font-style:normal;font-variant:normal;font-weight:normal;font-stretch:normal;line-height:125%;letter-spacing:0px;word-spacing:0px;fill:#000000;fill-opacity:1;stroke:none;font-family:LMRoman10;-inkscape-font-specification:Sans"
       xml:space="preserve"><tspan
         y="47.008835"
         x="194.07098"
         id="tspan3092"
         sodipodi:role="line" /></text>
    <g
       id="g3159"
       ns0:preamble="/home/sriranga/Desktop/Ganitarnava/svg.tex"
       ns0:text="sheVSa."
       transform="translate(-68,904)">
      <defs
         id="defs3161">
        <g
           id="g3163">
          <symbol
             id="textext-e0c8aa84-0"
             overflow="visible"
             style="overflow:visible">
            <path
               id="path3166"
               d="m 0.484375,-4.234375 0,0.640625 0.984375,0 c -0.078125,0.0625 -0.140625,0.109375 -0.1875,0.1875 -0.109375,0.21875 -0.078125,0.546875 0.109375,0.71875 0.21875,0.21875 0.6875,0.21875 0.875,-0.0625 C 2.390625,-2.953125 2.28125,-3.25 2.0625,-3.328125 1.828125,-3.40625 1.546875,-3.28125 1.4375,-3.0625 l -0.015625,0 c 0,-0.0625 -0.03125,-0.109375 -0.015625,-0.171875 0.015625,-0.078125 0.078125,-0.171875 0.15625,-0.21875 0.15625,-0.125 0.34375,-0.15625 0.546875,-0.15625 0.25,0 0.5,0.125 0.625,0.34375 C 2.84375,-3.109375 2.875,-2.90625 2.84375,-2.71875 2.828125,-2.609375 2.796875,-2.515625 2.734375,-2.4375 2.609375,-2.234375 2.375,-2.078125 2.125,-2.0625 c -0.15625,0 -0.296875,-0.046875 -0.453125,-0.078125 -0.3125,-0.03125 -0.6875,-0.03125 -0.9375,0.1875 -0.0625,0.0625 -0.109375,0.140625 -0.15625,0.21875 C 0.40625,-1.375 0.453125,-0.859375 0.6875,-0.53125 0.8125,-0.375 1,-0.25 1.203125,-0.171875 c 0.21875,0.078125 0.46875,0.109375 0.703125,0.125 0.1875,0.015625 0.359375,0.015625 0.53125,0 0.484375,-0.015625 1,-0.109375 1.390625,-0.421875 0.4375,-0.34375 0.609375,-0.890625 0.609375,-1.4375 0,-0.28125 -0.046875,-0.5625 -0.15625,-0.8125 -0.171875,-0.34375 -0.421875,-0.609375 -0.75,-0.796875 -0.125,-0.078125 -0.265625,-0.15625 -0.40625,-0.1875 l 0,-0.53125 z M 2.6875,-3.59375 c 0.0625,-0.015625 0.125,0 0.1875,0.015625 0.109375,0.015625 0.203125,0.046875 0.3125,0.09375 C 3.703125,-3.28125 4,-2.765625 4.046875,-2.21875 4.0625,-2.03125 4.0625,-1.84375 4,-1.671875 3.9375,-1.453125 3.78125,-1.28125 3.609375,-1.140625 3.1875,-0.78125 2.578125,-0.65625 2.03125,-0.65625 c -0.171875,0 -0.328125,-0.03125 -0.5,-0.0625 C 1.40625,-0.734375 1.265625,-0.75 1.140625,-0.828125 1.03125,-0.890625 0.921875,-0.984375 0.875,-1.109375 c -0.03125,-0.09375 -0.03125,-0.171875 -0.015625,-0.25 0.03125,-0.234375 0.171875,-0.421875 0.40625,-0.5 C 1.5,-1.9375 1.71875,-1.90625 1.953125,-1.890625 c 0.265625,0 0.5625,-0.046875 0.765625,-0.21875 0.234375,-0.171875 0.328125,-0.46875 0.328125,-0.734375 0,-0.1875 -0.03125,-0.359375 -0.125,-0.5 -0.0625,-0.109375 -0.125,-0.1875 -0.234375,-0.25 z m 0,0"
               style="stroke:none"
               inkscape:connector-curvature="0" />
          </symbol>
          <symbol
             id="textext-e0c8aa84-1"
             overflow="visible"
             style="overflow:visible">
            <path
               id="path3169"
               d="M 0.484375,-4.96875 C 0.421875,-5 0.375,-5.046875 0.34375,-5.09375 0.21875,-5.296875 0.296875,-5.578125 0.5,-5.6875 c 0.203125,-0.140625 0.5,-0.109375 0.71875,0 0.09375,0.03125 0.171875,0.09375 0.25,0.171875 0.171875,0.1875 0.21875,0.484375 0.125,0.71875 C 1.53125,-4.640625 1.390625,-4.5 1.25,-4.40625 0.984375,-4.25 0.703125,-4.234375 0.40625,-4.234375 l -0.578125,0 0,0.640625 0.640625,0 c 0.359375,0 0.765625,-0.015625 1.078125,-0.234375 0.09375,-0.0625 0.1875,-0.15625 0.25,-0.265625 0.25,-0.3125 0.3125,-0.6875 0.234375,-1.0625 -0.046875,-0.234375 -0.140625,-0.453125 -0.296875,-0.609375 -0.21875,-0.21875 -0.515625,-0.3125 -0.8125,-0.3125 -0.109375,-0.015625 -0.1875,-0.015625 -0.28125,0 C 0.28125,-6 0.015625,-5.65625 0.046875,-5.296875 0.0625,-5.0625 0.203125,-4.8125 0.40625,-4.71875 0.5625,-4.640625 0.75,-4.640625 0.90625,-4.6875 0.984375,-4.71875 1.078125,-4.75 1.125,-4.828125 1.28125,-5 1.265625,-5.34375 1.0625,-5.484375 0.984375,-5.53125 0.890625,-5.546875 0.796875,-5.53125 c -0.0625,0 -0.125,0.015625 -0.171875,0.03125 -0.09375,0.0625 -0.15625,0.171875 -0.171875,0.28125 -0.03125,0.078125 0,0.171875 0.03125,0.25 z m 0,0"
               style="stroke:none"
               inkscape:connector-curvature="0" />
          </symbol>
          <symbol
             id="textext-e0c8aa84-2"
             overflow="visible"
             style="overflow:visible">
            <path
               id="path3172"
               d="m 2.609375,-0.015625 0,0 C 2.40625,-0.140625 2.21875,-0.296875 2.03125,-0.421875 1.453125,-0.84375 0.859375,-1.328125 0.6875,-2.046875 0.671875,-2.15625 0.640625,-2.265625 0.640625,-2.375 c 0,-0.140625 0.03125,-0.28125 0.0625,-0.421875 0.03125,-0.15625 0.09375,-0.3125 0.1875,-0.453125 C 1,-3.4375 1.171875,-3.609375 1.34375,-3.734375 1.109375,-3.3125 1.140625,-2.65625 1.609375,-2.40625 c 0.0625,0.03125 0.125,0.046875 0.1875,0.0625 0.09375,0.015625 0.203125,0.015625 0.28125,-0.015625 0.078125,0 0.171875,-0.046875 0.25,-0.078125 C 2.84375,-2.734375 2.890625,-3.46875 2.625,-3.953125 2.546875,-4.09375 2.46875,-4.203125 2.34375,-4.28125 2.1875,-4.390625 2.015625,-4.421875 1.828125,-4.421875 1.6875,-4.421875 1.546875,-4.375 1.421875,-4.3125 1,-4.125 0.75,-3.734375 0.609375,-3.3125 0.5,-2.953125 0.46875,-2.59375 0.484375,-2.21875 c 0.015625,0.25 0.046875,0.5 0.140625,0.734375 0.078125,0.265625 0.21875,0.53125 0.375,0.75 0.109375,0.203125 0.25,0.359375 0.421875,0.53125 0.046875,0.046875 0.109375,0.125 0.171875,0.15625 0.078125,0.0625 0.21875,0.03125 0.3125,0.03125 0.234375,0 0.46875,0 0.703125,0 z M 1.4375,-3.296875 c -0.015625,-0.046875 -0.015625,-0.109375 0,-0.15625 0.09375,-0.375 0.5625,-0.484375 0.875,-0.328125 0.140625,0.078125 0.265625,0.1875 0.28125,0.359375 0,0.046875 0,0.09375 -0.015625,0.140625 -0.03125,0.265625 -0.328125,0.375 -0.5625,0.390625 C 1.796875,-2.875 1.578125,-2.9375 1.46875,-3.125 1.453125,-3.1875 1.4375,-3.234375 1.4375,-3.296875 z m 0,0"
               style="stroke:none"
               inkscape:connector-curvature="0" />
          </symbol>
          <symbol
             id="textext-e0c8aa84-3"
             overflow="visible"
             style="overflow:visible">
            <path
               id="path3175"
               d="m 0.53125,-4.234375 0,0.640625 3.671875,0 0,-0.640625 z M 2.921875,-3.3125 c -0.078125,0 -0.125,0.015625 -0.1875,0.0625 C 2.671875,-3.203125 2.625,-3.15625 2.578125,-3.09375 2.546875,-3.046875 2.515625,-3 2.515625,-2.9375 2.4375,-2.609375 2.734375,-2.28125 3.09375,-2.34375 3.15625,-2.359375 3.234375,-2.375 3.296875,-2.40625 3.34375,-2.453125 3.40625,-2.5 3.421875,-2.546875 3.46875,-2.59375 3.484375,-2.640625 3.515625,-2.703125 3.59375,-3.0625 3.28125,-3.375 2.921875,-3.3125 z m 0.5,0.8125 L 3.4375,-2.203125 3.546875,-2.03125 3.78125,-1.671875 4.40625,-0.75 C 4.234375,-0.734375 4.0625,-0.703125 3.890625,-0.734375 3.59375,-0.78125 3.375,-0.984375 3.21875,-1.21875 3.140625,-1.359375 3.09375,-1.484375 3.015625,-1.609375 2.921875,-1.421875 2.8125,-1.25 2.65625,-1.109375 2.296875,-0.78125 1.78125,-0.640625 1.328125,-0.75 1.03125,-0.828125 0.734375,-1 0.671875,-1.3125 0.65625,-1.375 0.65625,-1.4375 0.671875,-1.5 0.75,-2 1.5,-2.140625 1.796875,-1.75 1.90625,-1.578125 1.78125,-1.40625 1.65625,-1.296875 c -0.046875,0.03125 -0.109375,0.078125 -0.125,0.125 0,0.03125 0,0.046875 0,0.078125 0.1875,0 0.359375,-0.0625 0.484375,-0.203125 0.09375,-0.109375 0.125,-0.234375 0.125,-0.375 0,-0.203125 -0.0625,-0.40625 -0.234375,-0.53125 -0.109375,-0.0625 -0.234375,-0.09375 -0.359375,-0.125 -0.21875,-0.03125 -0.453125,0 -0.640625,0.109375 C 0.734375,-2.109375 0.625,-1.9375 0.546875,-1.75 0.484375,-1.5625 0.46875,-1.359375 0.484375,-1.171875 0.515625,-0.8125 0.65625,-0.46875 0.953125,-0.25 1.21875,-0.046875 1.5625,0.015625 1.875,-0.015625 c 0.25,-0.03125 0.484375,-0.078125 0.671875,-0.25 C 2.78125,-0.4375 2.9375,-0.703125 3,-0.984375 l 0.015625,0 c 0.109375,0.5625 0.65625,0.96875 1.21875,0.96875 0.09375,0 0.1875,0 0.28125,-0.03125 C 4.625,-0.0625 4.71875,-0.125 4.8125,-0.1875 4.875,-0.078125 4.953125,0.015625 5.03125,0.125 c 0.015625,0.046875 0.0625,0.109375 0.109375,0.140625 0.0625,0.03125 0.125,0 0.171875,-0.03125 0.109375,-0.0625 0.1875,-0.140625 0.25,-0.25 C 5.59375,-0.046875 5.625,-0.09375 5.625,-0.125 5.625,-0.171875 5.578125,-0.21875 5.5625,-0.25 5.5,-0.328125 5.40625,-0.390625 5.359375,-0.46875 5.328125,-0.5 5.296875,-0.53125 5.28125,-0.5625 c 0,-0.0625 0.0625,-0.125 0.078125,-0.171875 C 5.40625,-0.84375 5.4375,-0.953125 5.4375,-1.0625 c 0.03125,-0.1875 0,-0.40625 0,-0.609375 C 5.40625,-2 5.390625,-2.328125 5.296875,-2.625 5.25,-2.796875 5.1875,-2.953125 5.09375,-3.09375 5.046875,-3.171875 5,-3.234375 4.90625,-3.25 4.671875,-3.265625 4.59375,-2.9375 4.6875,-2.78125 4.703125,-2.71875 4.75,-2.6875 4.796875,-2.625 4.84375,-2.5625 4.890625,-2.5 4.9375,-2.4375 5.15625,-2.140625 5.34375,-1.75 5.21875,-1.359375 5.1875,-1.234375 5.109375,-1.125 5.015625,-1.03125 c -0.03125,0.015625 -0.078125,0.0625 -0.125,0.0625 -0.03125,0.015625 -0.078125,-0.046875 -0.109375,-0.078125 -0.09375,-0.09375 -0.171875,-0.1875 -0.25,-0.28125 -0.25,-0.25 -0.5,-0.53125 -0.75,-0.796875 C 3.671875,-2.25 3.5625,-2.390625 3.421875,-2.5 z m 0,0"
               style="stroke:none"
               inkscape:connector-curvature="0" />
          </symbol>
          <symbol
             id="textext-e0c8aa84-4"
             overflow="visible"
             style="overflow:visible">
            <path
               id="path3178"
               d="m 1,-5.875 c 0.09375,0.078125 0.171875,0.15625 0.21875,0.25 0.1875,0.234375 0.34375,0.625 0.203125,0.921875 -0.0625,0.09375 -0.140625,0.171875 -0.234375,0.25 C 1.109375,-4.375 1.03125,-4.3125 0.921875,-4.28125 0.8125,-4.234375 0.671875,-4.234375 0.5625,-4.234375 l -0.5625,0 0,0.640625 0.484375,0 c 0.140625,0 0.265625,0 0.40625,-0.03125 0.25,-0.046875 0.5,-0.15625 0.671875,-0.34375 0.234375,-0.234375 0.375,-0.59375 0.328125,-0.921875 -0.03125,-0.171875 -0.09375,-0.34375 -0.1875,-0.5 C 1.625,-5.515625 1.5,-5.671875 1.359375,-5.765625 1.265625,-5.828125 1.125,-5.859375 1,-5.875 z m 0,0"
               style="stroke:none"
               inkscape:connector-curvature="0" />
          </symbol>
          <symbol
             id="textext-e0c8aa84-5"
             overflow="visible"
             style="overflow:visible">
            <path
               id="path3181"
               d="m 1.90625,-0.53125 c 0,-0.28125 -0.234375,-0.53125 -0.515625,-0.53125 -0.296875,0 -0.53125,0.25 -0.53125,0.53125 C 0.859375,-0.234375 1.09375,0 1.390625,0 1.671875,0 1.90625,-0.234375 1.90625,-0.53125 z m 0,0"
               style="stroke:none"
               inkscape:connector-curvature="0" />
          </symbol>
        </g>
      </defs>
      <g
         id="textext-e0c8aa84-6">
        <g
           id="g3184"
           style="fill:#000000;fill-opacity:1">
          <use
             id="use3186"
             y="134.765"
             x="223.43201"
             xlink:href="#textext-e0c8aa84-0"
             width="212.59842"
             height="212.59842" />
          <use
             id="use3188"
             y="134.765"
             x="226.29425"
             xlink:href="#textext-e0c8aa84-1"
             width="212.59842"
             height="212.59842" />
          <use
             id="use3190"
             y="134.765"
             x="228.65738"
             xlink:href="#textext-e0c8aa84-2"
             width="212.59842"
             height="212.59842" />
          <use
             id="use3192"
             y="134.765"
             x="231.91814"
             xlink:href="#textext-e0c8aa84-3"
             width="212.59842"
             height="212.59842" />
          <use
             id="use3194"
             y="134.765"
             x="235.79758"
             xlink:href="#textext-e0c8aa84-4"
             width="212.59842"
             height="212.59842" />
        </g>
        <g
           id="g3196"
           style="fill:#000000;fill-opacity:1">
          <use
             id="use3198"
             y="134.765"
             x="238.00101"
             xlink:href="#textext-e0c8aa84-5"
             width="212.59842"
             height="212.59842" />
        </g>
      </g>
    </g>
    <text
       xml:space="preserve"
       style="font-size:10px;font-style:normal;font-variant:normal;font-weight:normal;font-stretch:normal;line-height:125%;letter-spacing:0px;word-spacing:0px;fill:#000000;fill-opacity:1;stroke:none;font-family:LMRoman10;-inkscape-font-specification:Sans"
       x="140.35065"
       y="922.89056"
       id="text3094"
       sodipodi:linespacing="125%"><tspan
         sodipodi:role="line"
         id="tspan3096"
         x="140.35065"
         y="922.89056">(7671        </tspan></text>
  </g>
</svg>
