<?xml version="1.0" encoding="UTF-8" standalone="no"?>
<!-- Created with Inkscape (http://www.inkscape.org/) -->

<svg
   xmlns:ns0="http://www.iki.fi/pav/software/textext/"
   xmlns:dc="http://purl.org/dc/elements/1.1/"
   xmlns:cc="http://creativecommons.org/ns#"
   xmlns:rdf="http://www.w3.org/1999/02/22-rdf-syntax-ns#"
   xmlns:svg="http://www.w3.org/2000/svg"
   xmlns="http://www.w3.org/2000/svg"
   xmlns:xlink="http://www.w3.org/1999/xlink"
   xmlns:sodipodi="http://sodipodi.sourceforge.net/DTD/sodipodi-0.dtd"
   xmlns:inkscape="http://www.inkscape.org/namespaces/inkscape"
   width="177.16534"
   height="212.59842"
   id="svg2"
   version="1.1"
   inkscape:version="0.48.0 r9654"
   sodipodi:docname="8.eps">
  <sodipodi:namedview
     id="base"
     pagecolor="#ffffff"
     bordercolor="#666666"
     borderopacity="1.0"
     inkscape:pageopacity="0.0"
     inkscape:pageshadow="2"
     inkscape:zoom="5.004248"
     inkscape:cx="90.822708"
     inkscape:cy="139.34347"
     inkscape:document-units="px"
     inkscape:current-layer="layer1"
     showgrid="true"
     units="cm"
     inkscape:window-width="1360"
     inkscape:window-height="687"
     inkscape:window-x="0"
     inkscape:window-y="27"
     inkscape:window-maximized="1">
    <inkscape:grid
       snapvisiblegridlinesonly="true"
       enabled="true"
       visible="true"
       empspacing="5"
       id="grid2985"
       type="xygrid" />
  </sodipodi:namedview>
  <defs
     id="defs4">
    <inkscape:path-effect
       effect="spiro"
       id="path-effect3510"
       is_visible="true" />
    <inkscape:path-effect
       effect="spiro"
       id="path-effect3506"
       is_visible="true" />
    <inkscape:path-effect
       effect="spiro"
       id="path-effect3502"
       is_visible="true" />
    <inkscape:path-effect
       is_visible="true"
       id="path-effect3131"
       effect="spiro" />
    <inkscape:path-effect
       is_visible="true"
       id="path-effect3127"
       effect="spiro" />
    <inkscape:path-effect
       is_visible="true"
       id="path-effect3123"
       effect="spiro" />
    <inkscape:path-effect
       is_visible="true"
       id="path-effect3118"
       effect="spiro" />
    <inkscape:path-effect
       is_visible="true"
       id="path-effect3114"
       effect="spiro" />
    <inkscape:path-effect
       is_visible="true"
       id="path-effect3110"
       effect="spiro" />
    <inkscape:path-effect
       is_visible="true"
       id="path-effect3106"
       effect="spiro" />
    <inkscape:path-effect
       is_visible="true"
       id="path-effect3083"
       effect="spiro" />
    <inkscape:path-effect
       effect="spiro"
       id="path-effect3079"
       is_visible="true" />
    <inkscape:path-effect
       effect="spiro"
       id="path-effect3075"
       is_visible="true" />
    <inkscape:path-effect
       is_visible="true"
       id="path-effect3071"
       effect="spiro" />
    <inkscape:path-effect
       is_visible="true"
       id="path-effect3067"
       effect="spiro" />
    <inkscape:path-effect
       is_visible="true"
       id="path-effect3063"
       effect="spiro" />
    <inkscape:path-effect
       effect="spiro"
       id="path-effect3059"
       is_visible="true" />
    <inkscape:path-effect
       effect="spiro"
       id="path-effect3057"
       is_visible="true" />
    <inkscape:path-effect
       is_visible="true"
       id="path-effect3053"
       effect="spiro" />
    <inkscape:path-effect
       effect="spiro"
       id="path-effect3049"
       is_visible="true" />
    <inkscape:path-effect
       is_visible="true"
       id="path-effect3045"
       effect="spiro" />
    <inkscape:path-effect
       effect="spiro"
       id="path-effect3041"
       is_visible="true" />
    <inkscape:path-effect
       is_visible="true"
       id="path-effect3037"
       effect="spiro" />
    <inkscape:path-effect
       effect="spiro"
       id="path-effect3033"
       is_visible="true" />
    <inkscape:path-effect
       is_visible="true"
       id="path-effect3025"
       effect="spiro" />
    <inkscape:path-effect
       is_visible="true"
       id="path-effect3021"
       effect="spiro" />
  </defs>
  <metadata
     id="metadata7">
    <rdf:RDF>
      <cc:Work
         rdf:about="">
        <dc:format>image/svg+xml</dc:format>
        <dc:type
           rdf:resource="http://purl.org/dc/dcmitype/StillImage" />
        <dc:title></dc:title>
      </cc:Work>
    </rdf:RDF>
  </metadata>
  <g
     transform="translate(0,-839.76245)"
     id="layer1"
     inkscape:groupmode="layer"
     inkscape:label="Layer 1">
    <text
       sodipodi:linespacing="125%"
       id="text2987"
       y="829.05225"
       x="18.47423"
       style="font-size:14.50391006px;font-style:normal;font-variant:normal;font-weight:normal;font-stretch:normal;line-height:125%;letter-spacing:0px;word-spacing:0px;fill:#000000;fill-opacity:1;stroke:none;font-family:LMRoman10;-inkscape-font-specification:Sans"
       xml:space="preserve"
       transform="scale(0.89883721,1.1125485)"><tspan
         y="829.05225"
         x="18.47423"
         id="tspan2989"
         sodipodi:role="line">20</tspan></text>
    <text
       transform="scale(0.89883721,1.1125485)"
       sodipodi:linespacing="125%"
       id="text2991"
       y="803.86951"
       x="54.297348"
       style="font-size:14.50391006px;font-style:normal;font-variant:normal;font-weight:normal;font-stretch:normal;line-height:125%;letter-spacing:0px;word-spacing:0px;fill:#000000;fill-opacity:1;stroke:none;font-family:LMRoman10;-inkscape-font-specification:Sans"
       xml:space="preserve"><tspan
         y="803.86951"
         x="54.297348"
         id="tspan2993"
         sodipodi:role="line">15</tspan><tspan
         id="tspan2995"
         y="821.99945"
         x="54.297348"
         sodipodi:role="line">17</tspan><tspan
         id="tspan2997"
         y="840.12927"
         x="54.297348"
         sodipodi:role="line">18</tspan><tspan
         id="tspan2999"
         y="858.25922"
         x="54.297348"
         sodipodi:role="line">22</tspan></text>
    <path
       sodipodi:nodetypes="ccc"
       inkscape:connector-curvature="0"
       id="path3001"
       d="m 67.12235,926.41201 c 16.599564,15.75315 6.138333,22.26633 0,30.25556 l 0,0"
       style="fill:none;stroke:#000000;stroke-width:0.99999994px;stroke-linecap:butt;stroke-linejoin:miter;stroke-opacity:1" />
    <path
       sodipodi:nodetypes="cc"
       inkscape:connector-curvature="0"
       id="path3003"
       d="m 65,907.36087 c 5,10 31.226023,15.5217 5,50"
       style="fill:none;stroke:#000000;stroke-width:0.99999994px;stroke-linecap:butt;stroke-linejoin:miter;stroke-opacity:1" />
    <path
       style="fill:none;stroke:#000000;stroke-width:0.99999994px;stroke-linecap:butt;stroke-linejoin:miter;stroke-opacity:1"
       d="m 65,887.36087 c 14.384911,16.33008 30,35 15,65"
       id="path3005"
       inkscape:connector-curvature="0"
       sodipodi:nodetypes="cc" />
    <text
       sodipodi:linespacing="125%"
       id="text3007"
       y="806.46814"
       x="100.12936"
       style="font-size:14.50391006px;font-style:normal;font-variant:normal;font-weight:normal;font-stretch:normal;line-height:125%;letter-spacing:0px;word-spacing:0px;fill:#000000;fill-opacity:1;stroke:none;font-family:LMRoman10;-inkscape-font-specification:Sans"
       xml:space="preserve"
       transform="scale(0.89883721,1.1125485)"><tspan
         y="806.46814"
         x="100.12936"
         id="tspan3009"
         sodipodi:role="line">2</tspan><tspan
         id="tspan3011"
         y="824.59808"
         x="100.12936"
         sodipodi:role="line">2</tspan><tspan
         id="tspan3013"
         y="842.72791"
         x="100.12936"
         sodipodi:role="line">2</tspan><tspan
         id="tspan3015"
         y="860.85779"
         x="100.12936"
         sodipodi:role="line">5+3+2=10</tspan></text>
    <g
       id="g3308"
       ns0:preamble="/home/sriranga/Desktop/Ganitarnava/svg.tex"
       ns0:text="riVti."
       transform="matrix(0.82998379,0,0,2.2737292,-135.71984,572.81547)"
       inkscape:transform-center-x="-59.956888"
       inkscape:transform-center-y="27.773707">
      <defs
         id="defs3310">
        <g
           id="g3312">
          <symbol
             id="textext-c40d271e-0"
             overflow="visible"
             style="overflow:visible">
            <path
               id="path3315"
               d="M 1.328125,-3.46875 C 1.03125,-3.234375 0.734375,-2.9375 0.59375,-2.578125 0.25,-1.6875 0.703125,-0.640625 1.546875,-0.203125 2.140625,0.078125 2.90625,0.0625 3.46875,-0.265625 3.625,-0.34375 3.765625,-0.453125 3.875,-0.5625 c 0.109375,-0.109375 0.1875,-0.203125 0.265625,-0.328125 0.328125,-0.5 0.359375,-1.125 0.21875,-1.6875 -0.0625,-0.3125 -0.1875,-0.609375 -0.34375,-0.890625 -0.359375,-0.640625 -0.9375,-1.203125 -1.6875,-1.359375 -0.171875,-0.03125 -0.3125,-0.0625 -0.46875,-0.0625 -0.171875,0 -0.34375,0.015625 -0.515625,0.0625 -0.359375,0.09375 -0.71875,0.3125 -0.765625,0.71875 -0.015625,0.125 0,0.265625 0.09375,0.375 0.171875,0.1875 0.421875,0.21875 0.65625,0.265625 z M 3.9375,-3.109375 C 3.6875,-3.390625 3.375,-3.625 3.015625,-3.734375 2.828125,-3.78125 2.59375,-3.796875 2.375,-3.765625 c -0.28125,0.03125 -0.578125,0.0625 -0.859375,0.078125 -0.125,0.015625 -0.296875,0.015625 -0.375,-0.125 C 1.0625,-3.953125 1.171875,-4.15625 1.28125,-4.25 c 0.234375,-0.1875 0.578125,-0.1875 0.859375,-0.171875 0.578125,0.03125 1.15625,0.375 1.515625,0.828125 0.109375,0.140625 0.21875,0.296875 0.28125,0.484375 z M 0.84375,-2.09375 C 0.765625,-2.90625 1.5625,-3.5625 2.3125,-3.609375 c 0.515625,-0.03125 1,0.171875 1.375,0.53125 0.203125,0.203125 0.34375,0.46875 0.375,0.75 0.078125,0.84375 -0.75,1.5625 -1.546875,1.59375 C 1.921875,-0.703125 1.28125,-1 1,-1.53125 0.90625,-1.703125 0.875,-1.90625 0.84375,-2.09375 z m 0,0"
               style="stroke:none"
               inkscape:connector-curvature="0" />
          </symbol>
          <symbol
             id="textext-c40d271e-1"
             overflow="visible"
             style="overflow:visible">
            <path
               id="path3318"
               d="m 2.609375,-0.015625 0,0 C 2.40625,-0.140625 2.21875,-0.296875 2.03125,-0.421875 1.453125,-0.84375 0.859375,-1.328125 0.6875,-2.046875 0.671875,-2.15625 0.640625,-2.265625 0.640625,-2.375 c 0,-0.140625 0.03125,-0.28125 0.0625,-0.421875 0.03125,-0.15625 0.09375,-0.3125 0.1875,-0.453125 C 1,-3.4375 1.171875,-3.609375 1.34375,-3.734375 1.109375,-3.3125 1.140625,-2.65625 1.609375,-2.40625 c 0.0625,0.03125 0.125,0.046875 0.1875,0.0625 0.09375,0.015625 0.203125,0.015625 0.28125,-0.015625 0.078125,0 0.171875,-0.046875 0.25,-0.078125 C 2.84375,-2.734375 2.890625,-3.46875 2.625,-3.953125 2.546875,-4.09375 2.46875,-4.203125 2.34375,-4.28125 2.1875,-4.390625 2.015625,-4.421875 1.828125,-4.421875 1.6875,-4.421875 1.546875,-4.375 1.421875,-4.3125 1,-4.125 0.75,-3.734375 0.609375,-3.3125 0.5,-2.953125 0.46875,-2.59375 0.484375,-2.21875 c 0.015625,0.25 0.046875,0.5 0.140625,0.734375 0.078125,0.265625 0.21875,0.53125 0.375,0.75 0.109375,0.203125 0.25,0.359375 0.421875,0.53125 0.046875,0.046875 0.109375,0.125 0.171875,0.15625 0.078125,0.0625 0.21875,0.03125 0.3125,0.03125 0.234375,0 0.46875,0 0.703125,0 z M 1.4375,-3.296875 c -0.015625,-0.046875 -0.015625,-0.109375 0,-0.15625 0.09375,-0.375 0.5625,-0.484375 0.875,-0.328125 0.140625,0.078125 0.265625,0.1875 0.28125,0.359375 0,0.046875 0,0.09375 -0.015625,0.140625 -0.03125,0.265625 -0.328125,0.375 -0.5625,0.390625 C 1.796875,-2.875 1.578125,-2.9375 1.46875,-3.125 1.453125,-3.1875 1.4375,-3.234375 1.4375,-3.296875 z m 0,0"
               style="stroke:none"
               inkscape:connector-curvature="0" />
          </symbol>
          <symbol
             id="textext-c40d271e-2"
             overflow="visible"
             style="overflow:visible">
            <path
               id="path3321"
               d="M 2.921875,-4.5625 C 3,-4.5 3.078125,-4.46875 3.15625,-4.421875 c 0.28125,0.21875 0.515625,0.5 0.5625,0.859375 0.015625,0.078125 0,0.15625 -0.015625,0.234375 0,0.09375 -0.015625,0.203125 -0.046875,0.3125 0,0.03125 0,0.078125 -0.046875,0.09375 C 3.5625,-2.90625 3.5,-2.9375 3.453125,-2.953125 3.34375,-2.984375 3.21875,-3.015625 3.09375,-3.046875 2.765625,-3.078125 2.375,-3.09375 2.078125,-2.953125 1.875,-2.859375 1.71875,-2.71875 1.65625,-2.5 c -0.015625,0.0625 -0.015625,0.140625 -0.015625,0.203125 0,0.078125 0.015625,0.140625 0.03125,0.203125 0.109375,0.265625 0.4375,0.34375 0.6875,0.359375 0.4375,0.046875 0.875,-0.078125 1.1875,-0.40625 C 3.65625,-2.25 3.765625,-2.375 3.8125,-2.53125 c 0.125,0.109375 0.25,0.234375 0.328125,0.390625 0.125,0.234375 0.09375,0.515625 -0.046875,0.71875 C 4,-1.265625 3.859375,-1.15625 3.703125,-1.0625 3.09375,-0.703125 2.34375,-0.625 1.671875,-0.84375 1.265625,-0.984375 0.90625,-1.21875 0.78125,-1.640625 0.734375,-1.78125 0.71875,-1.9375 0.71875,-2.078125 c -0.03125,0 -0.078125,0 -0.109375,0 C 0.5625,-2.046875 0.53125,-1.9375 0.515625,-1.890625 0.484375,-1.71875 0.46875,-1.53125 0.484375,-1.359375 0.578125,-0.8125 1.0625,-0.390625 1.5625,-0.1875 1.796875,-0.09375 2.046875,-0.046875 2.296875,-0.015625 2.9375,0.03125 3.59375,-0.125 4.078125,-0.546875 c 0.125,-0.109375 0.265625,-0.25 0.34375,-0.40625 C 4.5625,-1.21875 4.625,-1.546875 4.546875,-1.84375 4.484375,-2.09375 4.359375,-2.3125 4.171875,-2.5 4.09375,-2.578125 3.984375,-2.6875 3.875,-2.734375 3.953125,-2.921875 3.9375,-3.125 3.9375,-3.3125 3.9375,-3.515625 3.921875,-3.734375 3.859375,-3.921875 3.765625,-4.234375 3.5625,-4.5 3.34375,-4.71875 3.125,-4.9375 2.84375,-5.15625 2.53125,-5.21875 2.4375,-5.25 2.359375,-5.25 2.265625,-5.25 c -0.078125,0 -0.15625,0.015625 -0.234375,0.03125 -0.09375,0.03125 -0.171875,0.0625 -0.25,0.109375 -0.0625,0.03125 -0.109375,0.078125 -0.15625,0.140625 -0.078125,0.109375 -0.125,0.25 -0.125,0.375 0,0.046875 0.015625,0.109375 0.03125,0.15625 0,0.0625 0,0.125 0.03125,0.1875 0.09375,0.25 0.296875,0.484375 0.53125,0.609375 0.078125,0.046875 0.171875,0.078125 0.265625,0.109375 0.0625,0.015625 0.140625,0.015625 0.21875,0 0.046875,0 0.09375,0 0.140625,-0.03125 0.296875,-0.140625 0.328125,-0.546875 0.25,-0.84375 C 2.953125,-4.453125 2.9375,-4.5 2.921875,-4.5625 z M 1.75,-4.28125 C 1.734375,-4.34375 1.734375,-4.390625 1.75,-4.453125 1.765625,-4.5 1.78125,-4.546875 1.796875,-4.59375 1.890625,-4.734375 2.03125,-4.796875 2.1875,-4.796875 c 0.078125,0 0.140625,0 0.1875,0.015625 0.1875,0.0625 0.359375,0.25 0.390625,0.4375 0.03125,0.171875 -0.109375,0.3125 -0.25,0.359375 C 2.3125,-3.890625 2.109375,-3.90625 1.921875,-4.03125 1.828125,-4.09375 1.75,-4.171875 1.75,-4.28125 z m 1.765625,1.5625 C 3.453125,-2.609375 3.375,-2.5 3.28125,-2.40625 c -0.203125,0.15625 -0.5,0.25 -0.765625,0.234375 -0.171875,0 -0.390625,-0.0625 -0.484375,-0.21875 -0.0625,-0.125 0.015625,-0.28125 0.125,-0.359375 0.140625,-0.09375 0.3125,-0.125 0.46875,-0.125 0.09375,-0.015625 0.1875,-0.03125 0.265625,0 0.0625,0 0.125,0.03125 0.1875,0.046875 0.140625,0.03125 0.296875,0.0625 0.4375,0.109375 z m 0,0"
               style="stroke:none"
               inkscape:connector-curvature="0" />
          </symbol>
          <symbol
             id="textext-c40d271e-3"
             overflow="visible"
             style="overflow:visible">
            <path
               id="path3324"
               d="m 1.90625,-0.53125 c 0,-0.28125 -0.234375,-0.53125 -0.515625,-0.53125 -0.296875,0 -0.53125,0.25 -0.53125,0.53125 C 0.859375,-0.234375 1.09375,0 1.390625,0 1.671875,0 1.90625,-0.234375 1.90625,-0.53125 z m 0,0"
               style="stroke:none"
               inkscape:connector-curvature="0" />
          </symbol>
        </g>
      </defs>
      <g
         id="textext-c40d271e-4">
        <g
           id="g3327"
           style="fill:#000000;fill-opacity:1">
          <use
             id="use3329"
             y="134.765"
             x="223.43201"
             xlink:href="#textext-c40d271e-0"
             width="177.16534"
             height="212.59842" />
          <use
             id="use3331"
             y="134.765"
             x="228.34854"
             xlink:href="#textext-c40d271e-1"
             width="177.16534"
             height="212.59842" />
          <use
             id="use3333"
             y="134.765"
             x="231.6093"
             xlink:href="#textext-c40d271e-2"
             width="177.16534"
             height="212.59842" />
        </g>
        <g
           id="g3335"
           style="fill:#000000;fill-opacity:1">
          <use
             id="use3337"
             y="134.765"
             x="236.66499"
             xlink:href="#textext-c40d271e-3"
             width="177.16534"
             height="212.59842" />
        </g>
      </g>
    </g>
    <path
       style="fill:none;stroke:#000000;stroke-width:0.99999994px;stroke-linecap:butt;stroke-linejoin:miter;stroke-opacity:1"
       d="m 45.937788,882.02012 c -8.147908,10.08521 2.043083,27.7838 -8.147908,34.28966 8.90979,18.74164 0.676806,22.66016 4.125409,30.57604 0.72867,1.67256 1.978867,3.52361 4.022499,5.73066"
       id="path3508"
       inkscape:connector-curvature="0"
       sodipodi:nodetypes="ccsc" />
  </g>
</svg>
