<?xml version="1.0" encoding="UTF-8" standalone="no"?>
<!-- Created with Inkscape (http://www.inkscape.org/) -->

<svg
   xmlns:ns0="http://www.iki.fi/pav/software/textext/"
   xmlns:dc="http://purl.org/dc/elements/1.1/"
   xmlns:cc="http://creativecommons.org/ns#"
   xmlns:rdf="http://www.w3.org/1999/02/22-rdf-syntax-ns#"
   xmlns:svg="http://www.w3.org/2000/svg"
   xmlns="http://www.w3.org/2000/svg"
   xmlns:xlink="http://www.w3.org/1999/xlink"
   xmlns:sodipodi="http://sodipodi.sourceforge.net/DTD/sodipodi-0.dtd"
   xmlns:inkscape="http://www.inkscape.org/namespaces/inkscape"
   width="177.16534"
   height="141.73228"
   id="svg2"
   version="1.1"
   inkscape:version="0.47 r22583"
   sodipodi:docname="New document 1">
  <sodipodi:namedview
     id="base"
     pagecolor="#ffffff"
     bordercolor="#666666"
     borderopacity="1.0"
     inkscape:pageopacity="0.0"
     inkscape:pageshadow="2"
     inkscape:zoom="1.979899"
     inkscape:cx="63.306015"
     inkscape:cy="63.587439"
     inkscape:document-units="px"
     inkscape:current-layer="layer1"
     showgrid="false"
     units="cm"
     inkscape:window-width="1024"
     inkscape:window-height="689"
     inkscape:window-x="0"
     inkscape:window-y="27"
     inkscape:window-maximized="1" />
  <defs
     id="defs4">
    <inkscape:perspective
       id="perspective10"
       inkscape:persp3d-origin="372.04724 : 350.78739 : 1"
       inkscape:vp_z="744.09448 : 526.18109 : 1"
       inkscape:vp_y="0 : 1000 : 0"
       inkscape:vp_x="0 : 526.18109 : 1"
       sodipodi:type="inkscape:persp3d" />
  </defs>
  <metadata
     id="metadata7">
    <rdf:RDF>
      <cc:Work
         rdf:about="">
        <dc:format>image/svg+xml</dc:format>
        <dc:type
           rdf:resource="http://purl.org/dc/dcmitype/StillImage" />
        <dc:title></dc:title>
      </cc:Work>
    </rdf:RDF>
  </metadata>
  <g
     transform="translate(0,-910.62859)"
     id="layer1"
     inkscape:groupmode="layer"
     inkscape:label="Layer 1">
    <path
       sodipodi:nodetypes="cccc"
       transform="translate(0,910.62859)"
       id="path2816"
       d="M 43.928571,101.37514 90,101.37514 90,22.089427 44.08506,101.61644"
       style="fill:none;stroke:#000000;stroke-width:1px;stroke-linecap:butt;stroke-linejoin:miter;stroke-opacity:1" />
    <g
       id="g2825"
       ns0:preamble="/home/sriranga/Desktop/Ganitarnava/figure/package.tex"
       ns0:text="Buje"
       transform="matrix(1.1,0,0,1.1,-184.35284,883.88347)">
      <defs
         id="defs2827">
        <g
           id="g2829">
          <symbol
             id="textext-4b752759-0"
             overflow="visible"
             style="overflow:visible">
            <path
               id="path2832"
               d=""
               style="stroke:none" />
          </symbol>
          <symbol
             id="textext-4b752759-1"
             overflow="visible"
             style="overflow:visible">
            <path
               id="path2835"
               d="M 1.15625,-2.703125 1.1875,-2.796875 C 1.09375,-2.84375 1,-2.9375 0.953125,-3.03125 0.90625,-3.078125 0.875,-3.140625 0.875,-3.203125 0.796875,-3.453125 0.984375,-3.671875 1.21875,-3.75 1.5,-3.8125 1.796875,-3.734375 1.90625,-3.4375 2.03125,-3.09375 1.828125,-2.765625 1.609375,-2.515625 1.46875,-2.359375 1.296875,-2.21875 1.140625,-2.0625 0.90625,-1.8125 0.734375,-1.5 0.75,-1.140625 c 0,0.25 0.0625,0.53125 0.234375,0.734375 C 1.3125,0.015625 1.96875,0.0625 2.421875,-0.140625 2.8125,-0.3125 3.078125,-0.6875 3.203125,-1.09375 3.234375,-1 3.265625,-0.90625 3.296875,-0.8125 3.375,-0.609375 3.484375,-0.421875 3.65625,-0.265625 3.828125,-0.125 4.0625,-0.0625 4.28125,-0.046875 4.6875,0 5.109375,-0.078125 5.390625,-0.421875 5.578125,-0.671875 5.640625,-1 5.6875,-1.3125 5.703125,-1.5 5.71875,-1.671875 5.71875,-1.859375 c 0,-0.078125 0,-0.171875 0,-0.25 -0.09375,-0.5 -0.390625,-0.9375 -0.78125,-1.25 -0.15625,-0.125 -0.359375,-0.265625 -0.578125,-0.3125 l 0,-0.015625 0.203125,0 0,-0.546875 -1.40625,0 0,0.640625 0.546875,0 c 0.125,0 0.25,-0.015625 0.359375,0 0.125,0.015625 0.25,0.0625 0.359375,0.109375 C 4.6875,-3.34375 4.90625,-3.15625 5.078125,-2.90625 5.203125,-2.75 5.296875,-2.578125 5.375,-2.375 5.484375,-2.015625 5.46875,-1.578125 5.296875,-1.25 5.21875,-1.109375 5.125,-0.984375 5,-0.890625 c -0.3125,0.21875 -0.75,0.203125 -1.078125,0.03125 -0.125,-0.0625 -0.25,-0.171875 -0.328125,-0.28125 -0.171875,-0.1875 -0.296875,-0.4375 -0.390625,-0.65625 C 3.125,-1.6875 3.09375,-1.5625 3.015625,-1.453125 c -0.140625,0.25 -0.34375,0.46875 -0.59375,0.609375 -0.375,0.203125 -0.84375,0.140625 -1.140625,-0.1875 C 1.21875,-1.09375 1.1875,-1.171875 1.15625,-1.265625 1.125,-1.34375 1.109375,-1.421875 1.109375,-1.5 c 0,-0.21875 0.109375,-0.40625 0.25,-0.578125 C 1.453125,-2.15625 1.53125,-2.25 1.625,-2.328125 1.796875,-2.5 1.984375,-2.671875 2.125,-2.875 2.203125,-3 2.265625,-3.125 2.296875,-3.265625 2.3125,-3.375 2.296875,-3.5 2.28125,-3.609375 2.25,-3.734375 2.203125,-3.859375 2.140625,-3.96875 2.046875,-4.109375 1.9375,-4.21875 1.796875,-4.296875 1.703125,-4.359375 1.59375,-4.40625 1.484375,-4.421875 1.09375,-4.46875 0.703125,-4.25 0.546875,-3.890625 0.453125,-3.671875 0.453125,-3.421875 0.53125,-3.21875 0.5625,-3.109375 0.625,-3.015625 0.703125,-2.9375 0.828125,-2.8125 1,-2.75 1.15625,-2.703125 z M 2.953125,-0.3125 C 2.9375,-0.296875 2.921875,-0.25 2.90625,-0.203125 2.875,-0.125 2.84375,-0.015625 2.828125,0.0625 2.765625,0.28125 2.6875,0.484375 2.625,0.6875 2.578125,0.875 2.515625,1.0625 2.578125,1.25 c 0.0625,0.3125 0.46875,0.40625 0.71875,0.21875 0.15625,-0.140625 0.15625,-0.3125 0.125,-0.515625 C 3.375,0.65625 3.28125,0.375 3.1875,0.09375 3.140625,-0.015625 3.109375,-0.15625 3.0625,-0.265625 3.046875,-0.3125 3.015625,-0.359375 2.953125,-0.3125 z m 0,0"
               style="stroke:none" />
          </symbol>
          <symbol
             id="textext-4b752759-2"
             overflow="visible"
             style="overflow:visible">
            <path
               id="path2838"
               d="m 1,-5.875 c 0.09375,0.078125 0.171875,0.15625 0.21875,0.25 0.1875,0.234375 0.34375,0.625 0.203125,0.921875 -0.0625,0.09375 -0.140625,0.171875 -0.234375,0.25 C 1.109375,-4.375 1.03125,-4.3125 0.921875,-4.28125 0.8125,-4.234375 0.671875,-4.234375 0.5625,-4.234375 l -0.5625,0 0,0.640625 0.484375,0 c 0.140625,0 0.265625,0 0.40625,-0.03125 0.25,-0.046875 0.5,-0.15625 0.671875,-0.34375 0.234375,-0.234375 0.375,-0.59375 0.328125,-0.921875 -0.03125,-0.171875 -0.09375,-0.34375 -0.1875,-0.5 C 1.625,-5.515625 1.5,-5.671875 1.359375,-5.765625 1.265625,-5.828125 1.125,-5.859375 1,-5.875 z m 0,0"
               style="stroke:none" />
          </symbol>
          <symbol
             id="textext-4b752759-3"
             overflow="visible"
             style="overflow:visible">
            <path
               id="path2841"
               d="m -0.3125,-1.640625 c 0,0.390625 0.125,0.765625 0.28125,1.109375 0.0625,0.125 0.078125,0.25 0.1875,0.359375 0.109375,0.078125 0.25,0.125 0.375,0.140625 C 0.8125,0.015625 1.125,-0.046875 1.359375,-0.1875 1.703125,-0.390625 1.90625,-0.765625 2.015625,-1.140625 2.0625,-1.3125 2.09375,-1.5 2.109375,-1.671875 c 0.015625,-0.3125 0,-0.625 -0.078125,-0.921875 C 1.9375,-2.875 1.78125,-3.15625 1.59375,-3.390625 1.3125,-3.734375 0.953125,-3.984375 0.515625,-4.03125 0.390625,-4.0625 0.21875,-4.0625 0.09375,-4.03125 0.03125,-4 0.015625,-3.921875 0,-3.859375 c -0.015625,0.140625 0.03125,0.3125 0.15625,0.375 0.109375,0.0625 0.25,0.0625 0.359375,0.0625 C 0.59375,-3.40625 0.671875,-3.40625 0.75,-3.375 1.0625,-3.3125 1.3125,-3.125 1.546875,-2.921875 1.71875,-2.75 1.875,-2.53125 1.921875,-2.28125 2,-1.84375 1.78125,-1.390625 1.46875,-1.078125 1.3125,-0.921875 1.109375,-0.796875 0.890625,-0.75 0.65625,-0.703125 0.40625,-0.734375 0.203125,-0.875 0.140625,-0.90625 0.0625,-0.96875 0.015625,-1.03125 -0.015625,-1.078125 -0.015625,-1.140625 -0.03125,-1.203125 -0.046875,-1.296875 -0.09375,-1.375 -0.109375,-1.46875 -0.125,-1.5 -0.125,-1.578125 -0.171875,-1.609375 -0.203125,-1.640625 -0.28125,-1.640625 -0.3125,-1.640625 z m 0,0"
               style="stroke:none" />
          </symbol>
          <symbol
             id="textext-4b752759-4"
             overflow="visible"
             style="overflow:visible">
            <path
               id="path2844"
               d="M 1.15625,-2.71875 1.203125,-2.796875 C 1.109375,-2.859375 1.03125,-2.9375 0.953125,-3.015625 0.921875,-3.078125 0.890625,-3.125 0.875,-3.1875 0.78125,-3.46875 1,-3.703125 1.25,-3.765625 c 0.28125,-0.0625 0.546875,0.046875 0.65625,0.3125 C 2.03125,-3.125 1.84375,-2.78125 1.625,-2.53125 1.484375,-2.359375 1.3125,-2.234375 1.15625,-2.078125 0.921875,-1.8125 0.734375,-1.5 0.75,-1.140625 c 0.015625,0.203125 0.0625,0.40625 0.140625,0.578125 0.078125,0.15625 0.1875,0.28125 0.328125,0.375 0.140625,0.09375 0.3125,0.140625 0.484375,0.15625 0.25,0.03125 0.515625,0 0.75,-0.109375 0.375,-0.1875 0.640625,-0.546875 0.75,-0.953125 l 0,0 c 0.046875,0.25 0.203125,0.5 0.375,0.671875 0.15625,0.15625 0.359375,0.28125 0.578125,0.359375 0.3125,0.078125 0.671875,0.078125 0.953125,-0.09375 0.109375,-0.0625 0.21875,-0.140625 0.296875,-0.25 0.078125,-0.078125 0.125,-0.15625 0.171875,-0.234375 0.265625,-0.5 0.21875,-1.25 -0.328125,-1.515625 C 5.09375,-2.25 4.921875,-2.265625 4.75,-2.265625 c 0,0.03125 0,0.078125 0.015625,0.09375 0.015625,0.03125 0.0625,0.046875 0.109375,0.0625 0.078125,0.03125 0.15625,0.0625 0.234375,0.109375 0.140625,0.09375 0.28125,0.203125 0.328125,0.375 0.015625,0.078125 0.015625,0.15625 0,0.234375 C 5.375,-0.9375 4.859375,-0.671875 4.453125,-0.703125 4.28125,-0.703125 4.140625,-0.75 4,-0.828125 3.734375,-0.96875 3.515625,-1.203125 3.375,-1.453125 3.296875,-1.578125 3.265625,-1.6875 3.203125,-1.8125 3.15625,-1.71875 3.109375,-1.609375 3.046875,-1.515625 2.875,-1.21875 2.625,-0.90625 2.296875,-0.78125 1.84375,-0.625 1.25,-0.828125 1.140625,-1.328125 1.125,-1.390625 1.109375,-1.46875 1.109375,-1.53125 1.140625,-1.671875 1.203125,-1.796875 1.28125,-1.90625 1.4375,-2.109375 1.640625,-2.265625 1.8125,-2.4375 2.03125,-2.625 2.21875,-2.84375 2.28125,-3.125 2.3125,-3.234375 2.3125,-3.34375 2.3125,-3.453125 l 0.015625,0 c 0.03125,0.0625 0.078125,0.125 0.125,0.1875 0.09375,0.125 0.21875,0.25 0.34375,0.359375 C 3.25,-2.5625 3.78125,-2.328125 4.359375,-2.359375 4.609375,-2.375 4.875,-2.453125 5.0625,-2.625 5.140625,-2.6875 5.1875,-2.75 5.21875,-2.828125 5.34375,-3.109375 5.15625,-3.359375 4.953125,-3.53125 4.859375,-3.59375 4.75,-3.671875 4.625,-3.6875 l 0,-0.546875 -1.46875,0 0,0.640625 0.71875,0 c 0.125,0 0.28125,-0.015625 0.421875,0 0.15625,0.03125 0.34375,0.078125 0.4375,0.21875 C 4.75,-3.359375 4.78125,-3.328125 4.78125,-3.296875 4.859375,-3.125 4.6875,-3 4.546875,-2.953125 4.421875,-2.90625 4.3125,-2.90625 4.1875,-2.90625 3.953125,-2.875 3.703125,-2.90625 3.46875,-2.953125 3.296875,-2.984375 3.09375,-3.046875 2.9375,-3.15625 2.6875,-3.3125 2.5,-3.578125 2.296875,-3.796875 2.078125,-4.046875 1.875,-4.359375 1.53125,-4.421875 1.453125,-4.4375 1.359375,-4.453125 1.265625,-4.4375 1.109375,-4.421875 0.96875,-4.34375 0.84375,-4.25 0.734375,-4.15625 0.625,-4.046875 0.5625,-3.921875 0.421875,-3.65625 0.453125,-3.3125 0.625,-3.0625 0.75,-2.875 0.953125,-2.765625 1.15625,-2.71875 z m 0,0"
               style="stroke:none" />
          </symbol>
          <symbol
             id="textext-4b752759-5"
             overflow="visible"
             style="overflow:visible">
            <path
               id="path2847"
               d="M 0.484375,-4.96875 C 0.421875,-5 0.375,-5.046875 0.34375,-5.09375 0.21875,-5.296875 0.296875,-5.578125 0.5,-5.6875 c 0.203125,-0.140625 0.5,-0.109375 0.71875,0 0.09375,0.03125 0.171875,0.09375 0.25,0.171875 0.171875,0.1875 0.21875,0.484375 0.125,0.71875 C 1.53125,-4.640625 1.390625,-4.5 1.25,-4.40625 0.984375,-4.25 0.703125,-4.234375 0.40625,-4.234375 l -0.578125,0 0,0.640625 0.640625,0 c 0.359375,0 0.765625,-0.015625 1.078125,-0.234375 0.09375,-0.0625 0.1875,-0.15625 0.25,-0.265625 0.25,-0.3125 0.3125,-0.6875 0.234375,-1.0625 -0.046875,-0.234375 -0.140625,-0.453125 -0.296875,-0.609375 -0.21875,-0.21875 -0.515625,-0.3125 -0.8125,-0.3125 -0.109375,-0.015625 -0.1875,-0.015625 -0.28125,0 C 0.28125,-6 0.015625,-5.65625 0.046875,-5.296875 0.0625,-5.0625 0.203125,-4.8125 0.40625,-4.71875 0.5625,-4.640625 0.75,-4.640625 0.90625,-4.6875 0.984375,-4.71875 1.078125,-4.75 1.125,-4.828125 1.28125,-5 1.265625,-5.34375 1.0625,-5.484375 0.984375,-5.53125 0.890625,-5.546875 0.796875,-5.53125 c -0.0625,0 -0.125,0.015625 -0.171875,0.03125 -0.09375,0.0625 -0.15625,0.171875 -0.171875,0.28125 -0.03125,0.078125 0,0.171875 0.03125,0.25 z m 0,0"
               style="stroke:none" />
          </symbol>
        </g>
      </defs>
      <g
         id="textext-4b752759-6">
        <g
           id="g2850"
           style="fill:#000000;fill-opacity:1">
          <use
             id="use2852"
             y="134.765"
             x="223.43201"
             xlink:href="#textext-4b752759-1"
             width="177.16534"
             height="141.73228" />
          <use
             id="use2854"
             y="134.765"
             x="227.52065"
             xlink:href="#textext-4b752759-2"
             width="177.16534"
             height="141.73228" />
          <use
             id="use2856"
             y="134.765"
             x="229.72438"
             xlink:href="#textext-4b752759-3"
             width="177.16534"
             height="141.73228" />
          <use
             id="use2858"
             y="134.765"
             x="232.31665"
             xlink:href="#textext-4b752759-4"
             width="177.16534"
             height="141.73228" />
          <use
             id="use2860"
             y="134.765"
             x="236.41525"
             xlink:href="#textext-4b752759-5"
             width="177.16534"
             height="141.73228" />
        </g>
      </g>
    </g>
    <g
       transform="matrix(1.1,0,0,1.1,-206.07112,829.33524)"
       ns0:text="kaNaR"
       ns0:preamble="/home/sriranga/Desktop/Ganitarnava/figure/package.tex"
       id="g2918">
      <defs
         id="defs2920">
        <g
           id="g2922">
          <symbol
             style="overflow:visible"
             overflow="visible"
             id="textext-d1acbb48-0">
            <path
               style="stroke:none"
               d=""
               id="path2925" />
          </symbol>
          <symbol
             style="overflow:visible"
             overflow="visible"
             id="textext-d1acbb48-1">
            <path
               style="stroke:none"
               d="m 0.484375,-4.234375 0,0.640625 1.203125,0 c 0.140625,0 0.359375,-0.03125 0.4375,0.125 0.078125,0.1875 -0.140625,0.34375 -0.296875,0.375 C 1.671875,-3.046875 1.5,-3.078125 1.34375,-3.078125 l -0.859375,0 0,0.625 0.90625,0 0,0.015625 C 1.265625,-2.375 1.15625,-2.25 1.0625,-2.140625 c -0.34375,0.4375 -0.421875,1.09375 -0.09375,1.5625 0.28125,0.40625 0.734375,0.5625 1.21875,0.546875 C 2.71875,-0.0625 3.234375,-0.375 3.4375,-0.890625 3.5,-1.03125 3.515625,-1.1875 3.515625,-1.34375 3.515625,-1.46875 3.5,-1.578125 3.46875,-1.6875 3.421875,-1.84375 3.328125,-2 3.21875,-2.125 3.125,-2.25 3,-2.375 2.875,-2.4375 l 0,-0.015625 0.828125,0 0,-0.625 -1.40625,0 C 2.40625,-3.21875 2.4375,-3.40625 2.375,-3.578125 2.375,-3.640625 2.328125,-3.6875 2.3125,-3.75 c -0.015625,-0.0625 0,-0.109375 0,-0.171875 l 0,-0.3125 -1.828125,0 z m 2.5625,2.765625 c 0,0.078125 -0.03125,0.15625 -0.0625,0.234375 -0.28125,0.59375 -1.1875,0.65625 -1.59375,0.171875 C 1.3125,-1.140625 1.265625,-1.25 1.234375,-1.359375 1.21875,-1.453125 1.21875,-1.5625 1.21875,-1.65625 1.28125,-1.96875 1.453125,-2.265625 1.75,-2.390625 c 0.515625,-0.203125 1.203125,0.125 1.296875,0.6875 0.03125,0.0625 0.015625,0.15625 0,0.234375 z m 0,0"
               id="path2928" />
          </symbol>
          <symbol
             style="overflow:visible"
             overflow="visible"
             id="textext-d1acbb48-2">
            <path
               style="stroke:none"
               d="m 1,-5.875 c 0.09375,0.078125 0.171875,0.15625 0.21875,0.25 0.1875,0.234375 0.34375,0.625 0.203125,0.921875 -0.0625,0.09375 -0.140625,0.171875 -0.234375,0.25 C 1.109375,-4.375 1.03125,-4.3125 0.921875,-4.28125 0.8125,-4.234375 0.671875,-4.234375 0.5625,-4.234375 l -0.5625,0 0,0.640625 0.484375,0 c 0.140625,0 0.265625,0 0.40625,-0.03125 0.25,-0.046875 0.5,-0.15625 0.671875,-0.34375 0.234375,-0.234375 0.375,-0.59375 0.328125,-0.921875 -0.03125,-0.171875 -0.09375,-0.34375 -0.1875,-0.5 C 1.625,-5.515625 1.5,-5.671875 1.359375,-5.765625 1.265625,-5.828125 1.125,-5.859375 1,-5.875 z m 0,0"
               id="path2931" />
          </symbol>
          <symbol
             style="overflow:visible"
             overflow="visible"
             id="textext-d1acbb48-3">
            <path
               style="stroke:none"
               d="m 1.28125,-1.9375 c -0.1875,0.078125 -0.40625,0.15625 -0.546875,0.328125 -0.109375,0.125 -0.1875,0.28125 -0.21875,0.4375 -0.0625,0.265625 -0.078125,0.546875 0.078125,0.78125 0.28125,0.4375 0.96875,0.5 1.359375,0.1875 0.15625,-0.109375 0.265625,-0.3125 0.3125,-0.5 C 2.046875,-0.578125 1.859375,-0.4375 1.59375,-0.4375 1.5,-0.4375 1.421875,-0.453125 1.328125,-0.484375 1,-0.609375 0.875,-0.984375 1,-1.3125 1.09375,-1.5625 1.328125,-1.75 1.5625,-1.890625 1.671875,-1.9375 1.78125,-2 1.859375,-2.0625 c -0.125,-0.03125 -0.25,-0.046875 -0.375,-0.09375 C 1.296875,-2.21875 1.109375,-2.3125 1,-2.46875 0.953125,-2.515625 0.921875,-2.578125 0.90625,-2.625 0.78125,-2.96875 1,-3.3125 1.296875,-3.484375 c 0.359375,-0.1875 0.8125,-0.125 1.140625,0.125 0.28125,0.21875 0.421875,0.515625 0.546875,0.84375 0.078125,-0.109375 0.125,-0.25 0.1875,-0.375 0.140625,-0.28125 0.34375,-0.5625 0.65625,-0.640625 0.125,-0.046875 0.265625,-0.0625 0.40625,-0.0625 0.671875,0 1.328125,0.421875 1.578125,1.046875 0.125,0.34375 0.125,0.734375 0,1.078125 -0.09375,0.234375 -0.25,0.4375 -0.421875,0.625 -0.171875,0.171875 -0.375,0.3125 -0.609375,0.359375 C 4.5625,-0.421875 4.3125,-0.453125 4.109375,-0.53125 3.9375,-0.578125 3.78125,-0.671875 3.65625,-0.8125 3.609375,-0.875 3.5625,-0.921875 3.546875,-1 3.515625,-1.0625 3.5,-1.140625 3.5,-1.203125 3.484375,-1.5 3.765625,-1.734375 4.03125,-1.796875 c 0.203125,-0.03125 0.390625,0.015625 0.53125,0.140625 0.109375,0.078125 0.15625,0.1875 0.125,0.328125 C 4.65625,-1.1875 4.5,-1.078125 4.375,-1 l 0.015625,0.09375 c 0.140625,0 0.296875,-0.03125 0.421875,-0.125 C 5,-1.203125 5.03125,-1.5625 4.921875,-1.78125 4.875,-1.859375 4.8125,-1.9375 4.71875,-2 4.5,-2.15625 4.203125,-2.21875 3.953125,-2.125 c -0.28125,0.09375 -0.53125,0.375 -0.609375,0.65625 -0.109375,0.421875 0.0625,0.875 0.40625,1.15625 0.140625,0.109375 0.296875,0.203125 0.484375,0.25 0.359375,0.109375 0.796875,0.046875 1.125,-0.171875 0.203125,-0.140625 0.359375,-0.34375 0.46875,-0.5625 0.1875,-0.34375 0.25,-0.765625 0.265625,-1.15625 0,-0.125 0,-0.265625 0,-0.40625 -0.03125,-0.34375 -0.140625,-0.6875 -0.296875,-0.984375 -0.1875,-0.328125 -0.4375,-0.625 -0.78125,-0.765625 -0.1875,-0.09375 -0.375,-0.109375 -0.5625,-0.109375 -0.265625,0 -0.53125,0.046875 -0.765625,0.171875 -0.234375,0.140625 -0.40625,0.34375 -0.546875,0.578125 -0.046875,0.09375 -0.09375,0.203125 -0.125,0.3125 C 2.96875,-3.234375 2.953125,-3.34375 2.90625,-3.421875 2.8125,-3.625 2.671875,-3.8125 2.484375,-3.96875 2.375,-4.046875 2.265625,-4.109375 2.140625,-4.15625 2,-4.203125 1.84375,-4.21875 1.6875,-4.21875 c -0.390625,0 -0.828125,0.125 -1.0625,0.484375 -0.140625,0.21875 -0.171875,0.5 -0.140625,0.765625 0.03125,0.140625 0.078125,0.3125 0.140625,0.4375 0.15625,0.265625 0.390625,0.4375 0.65625,0.59375 z m 0,0"
               id="path2934" />
          </symbol>
          <symbol
             style="overflow:visible"
             overflow="visible"
             id="textext-d1acbb48-4">
            <path
               style="stroke:none"
               d="m 1.34375,-2.046875 0,0.015625 c -0.5625,0.1875 -1,0.75 -0.828125,1.359375 0.015625,0.09375 0.0625,0.1875 0.125,0.265625 0.0625,0.109375 0.140625,0.203125 0.25,0.25 0.234375,0.15625 0.5,0.140625 0.78125,0.140625 l 1.015625,0 0,-0.546875 -0.9375,0 c -0.203125,0 -0.40625,0.03125 -0.59375,-0.0625 C 1.03125,-0.703125 0.890625,-0.8125 0.84375,-0.953125 0.71875,-1.234375 1,-1.578125 1.25,-1.671875 1.421875,-1.75 1.609375,-1.71875 1.796875,-1.71875 l 1,0 0,-0.609375 -0.9375,0 c -0.203125,0 -0.40625,0.015625 -0.59375,-0.078125 C 1.140625,-2.484375 1,-2.59375 0.953125,-2.734375 0.921875,-2.8125 0.9375,-2.890625 0.953125,-2.96875 0.984375,-3.1875 1.109375,-3.375 1.3125,-3.453125 c 0.140625,-0.0625 0.296875,-0.0625 0.453125,-0.0625 l 0.59375,0 2.171875,0 0,-0.703125 -2.265625,0 -0.484375,0 c -0.25,0 -0.484375,0.015625 -0.703125,0.109375 -0.125,0.0625 -0.25,0.140625 -0.34375,0.234375 C 0.4375,-3.5625 0.40625,-3.03125 0.59375,-2.65625 0.703125,-2.46875 0.875,-2.328125 1.0625,-2.1875 1.15625,-2.140625 1.25,-2.078125 1.34375,-2.046875 z m 0,0"
               id="path2937" />
          </symbol>
        </g>
      </defs>
      <g
         id="textext-d1acbb48-5">
        <g
           style="fill:#000000;fill-opacity:1"
           id="g2940">
          <use
             height="141.73228"
             width="177.16534"
             xlink:href="#textext-d1acbb48-1"
             x="223.43201"
             y="134.765"
             id="use2942" />
          <use
             height="141.73228"
             width="177.16534"
             xlink:href="#textext-d1acbb48-2"
             x="225.5361"
             y="134.765"
             id="use2944" />
          <use
             height="141.73228"
             width="177.16534"
             xlink:href="#textext-d1acbb48-3"
             x="227.73982"
             y="134.765"
             id="use2946" />
          <use
             height="141.73228"
             width="177.16534"
             xlink:href="#textext-d1acbb48-4"
             x="234.31116"
             y="134.765"
             id="use2948" />
        </g>
      </g>
    </g>
    <g
       id="g3082"
       transform="matrix(1.1,0,0,1.1,-151.16249,831.35554)"
       ns0:preamble="/home/sriranga/Desktop/Ganitarnava/figure/package.tex"
       ns0:text="koVTi">
      <defs
         id="defs3084">
        <g
           id="g3086">
          <symbol
             id="textext-42dadaf8-0"
             overflow="visible"
             style="overflow:visible">
            <path
               id="path3089"
               d=""
               style="stroke:none" />
          </symbol>
          <symbol
             id="textext-42dadaf8-1"
             overflow="visible"
             style="overflow:visible">
            <path
               id="path3092"
               d="m 0.484375,-4.234375 0,0.640625 1.203125,0 c 0.140625,0 0.359375,-0.03125 0.4375,0.125 0.078125,0.1875 -0.140625,0.34375 -0.296875,0.375 C 1.671875,-3.046875 1.5,-3.078125 1.34375,-3.078125 l -0.859375,0 0,0.625 0.90625,0 0,0.015625 C 1.265625,-2.375 1.15625,-2.25 1.0625,-2.140625 c -0.34375,0.4375 -0.421875,1.09375 -0.09375,1.5625 0.28125,0.40625 0.734375,0.5625 1.21875,0.546875 C 2.71875,-0.0625 3.234375,-0.375 3.4375,-0.890625 3.5,-1.03125 3.515625,-1.1875 3.515625,-1.34375 3.515625,-1.46875 3.5,-1.578125 3.46875,-1.6875 3.421875,-1.84375 3.328125,-2 3.21875,-2.125 3.125,-2.25 3,-2.375 2.875,-2.4375 l 0,-0.015625 0.828125,0 0,-0.625 -1.40625,0 C 2.40625,-3.21875 2.4375,-3.40625 2.375,-3.578125 2.375,-3.640625 2.328125,-3.6875 2.3125,-3.75 c -0.015625,-0.0625 0,-0.109375 0,-0.171875 l 0,-0.3125 -1.828125,0 z m 2.5625,2.765625 c 0,0.078125 -0.03125,0.15625 -0.0625,0.234375 -0.28125,0.59375 -1.1875,0.65625 -1.59375,0.171875 C 1.3125,-1.140625 1.265625,-1.25 1.234375,-1.359375 1.21875,-1.453125 1.21875,-1.5625 1.21875,-1.65625 1.28125,-1.96875 1.453125,-2.265625 1.75,-2.390625 c 0.515625,-0.203125 1.203125,0.125 1.296875,0.6875 0.03125,0.0625 0.015625,0.15625 0,0.234375 z m 0,0"
               style="stroke:none" />
          </symbol>
          <symbol
             id="textext-42dadaf8-2"
             overflow="visible"
             style="overflow:visible">
            <path
               id="path3095"
               d="M 0.484375,-4.96875 C 0.421875,-5 0.375,-5.046875 0.34375,-5.09375 0.21875,-5.296875 0.296875,-5.578125 0.5,-5.6875 c 0.203125,-0.140625 0.5,-0.109375 0.71875,0 0.09375,0.03125 0.171875,0.09375 0.25,0.171875 0.171875,0.1875 0.21875,0.484375 0.125,0.71875 C 1.53125,-4.640625 1.390625,-4.5 1.25,-4.40625 0.984375,-4.25 0.703125,-4.234375 0.40625,-4.234375 l -0.578125,0 0,0.640625 0.640625,0 c 0.359375,0 0.765625,-0.015625 1.078125,-0.234375 0.09375,-0.0625 0.1875,-0.15625 0.25,-0.265625 0.25,-0.3125 0.3125,-0.6875 0.234375,-1.0625 -0.046875,-0.234375 -0.140625,-0.453125 -0.296875,-0.609375 -0.21875,-0.21875 -0.515625,-0.3125 -0.8125,-0.3125 -0.109375,-0.015625 -0.1875,-0.015625 -0.28125,0 C 0.28125,-6 0.015625,-5.65625 0.046875,-5.296875 0.0625,-5.0625 0.203125,-4.8125 0.40625,-4.71875 0.5625,-4.640625 0.75,-4.640625 0.90625,-4.6875 0.984375,-4.71875 1.078125,-4.75 1.125,-4.828125 1.28125,-5 1.265625,-5.34375 1.0625,-5.484375 0.984375,-5.53125 0.890625,-5.546875 0.796875,-5.53125 c -0.0625,0 -0.125,0.015625 -0.171875,0.03125 -0.09375,0.0625 -0.15625,0.171875 -0.171875,0.28125 -0.03125,0.078125 0,0.171875 0.03125,0.25 z m 0,0"
               style="stroke:none" />
          </symbol>
          <symbol
             id="textext-42dadaf8-3"
             overflow="visible"
             style="overflow:visible">
            <path
               id="path3098"
               d="m -0.296875,-1.71875 c 0.0625,0.1875 0.125,0.359375 0.15625,0.546875 0.046875,0.21875 0.046875,0.46875 0.171875,0.65625 0.25,0.375 0.65625,0.5625 1.09375,0.5 0.15625,-0.03125 0.296875,-0.078125 0.421875,-0.15625 0.109375,-0.09375 0.203125,-0.1875 0.265625,-0.3125 0.125,-0.1875 0.1875,-0.4375 0.21875,-0.65625 0.015625,-0.140625 0.015625,-0.28125 0,-0.421875 -0.046875,-0.234375 -0.1875,-0.46875 -0.171875,-0.71875 0.03125,-0.234375 0.15625,-0.4375 0.328125,-0.59375 0.109375,-0.109375 0.234375,-0.1875 0.375,-0.25 0.3125,-0.171875 0.640625,-0.21875 1,-0.1875 0.375,0.046875 0.71875,0.21875 1.015625,0.4375 0.203125,0.140625 0.375,0.328125 0.484375,0.546875 0.25,0.5 0.09375,1.1875 -0.359375,1.515625 -0.21875,0.171875 -0.484375,0.234375 -0.75,0.25 -0.28125,0.015625 -0.59375,-0.046875 -0.796875,-0.25 -0.265625,-0.25 -0.21875,-0.75 0.078125,-0.953125 -0.015625,0.125 -0.046875,0.25 0,0.375 C 3.25,-1.3125 3.296875,-1.234375 3.34375,-1.171875 3.53125,-0.9375 3.875,-0.953125 4.0625,-1.1875 4.25,-1.421875 4.203125,-1.8125 3.953125,-1.984375 3.875,-2.03125 3.78125,-2.0625 3.671875,-2.078125 c -0.1875,0 -0.40625,0.03125 -0.578125,0.140625 -0.25,0.1875 -0.359375,0.484375 -0.375,0.78125 0,0.140625 0,0.28125 0.046875,0.40625 0.25,0.65625 1.078125,0.875 1.6875,0.65625 0.09375,-0.03125 0.171875,-0.0625 0.25,-0.109375 0.5,-0.328125 0.65625,-0.96875 0.65625,-1.515625 0,-0.109375 0.015625,-0.21875 0,-0.328125 C 5.34375,-2.1875 5.328125,-2.328125 5.28125,-2.46875 5.109375,-3.0625 4.640625,-3.625 4.078125,-3.875 3.796875,-4 3.5,-4.03125 3.203125,-4.03125 3,-4.03125 2.796875,-4.015625 2.609375,-3.96875 2.375,-3.90625 2.15625,-3.78125 2,-3.625 c -0.296875,0.28125 -0.421875,0.703125 -0.390625,1.109375 0.03125,0.21875 0.09375,0.453125 0.125,0.6875 0.015625,0.25 -0.03125,0.5 -0.171875,0.703125 -0.0625,0.078125 -0.109375,0.140625 -0.1875,0.203125 -0.078125,0.0625 -0.171875,0.125 -0.28125,0.15625 C 0.84375,-0.671875 0.515625,-0.71875 0.296875,-0.875 0.203125,-0.921875 0.125,-0.984375 0.078125,-1.0625 0,-1.21875 0.015625,-1.390625 -0.046875,-1.546875 -0.0625,-1.59375 -0.078125,-1.671875 -0.125,-1.6875 -0.171875,-1.71875 -0.234375,-1.71875 -0.296875,-1.71875 z m 0,0"
               style="stroke:none" />
          </symbol>
          <symbol
             id="textext-42dadaf8-4"
             overflow="visible"
             style="overflow:visible">
            <path
               id="path3101"
               d="m 2.609375,-0.015625 0,0 C 2.40625,-0.140625 2.21875,-0.296875 2.03125,-0.421875 1.453125,-0.84375 0.859375,-1.328125 0.6875,-2.046875 0.671875,-2.15625 0.640625,-2.265625 0.640625,-2.375 c 0,-0.140625 0.03125,-0.28125 0.0625,-0.421875 0.03125,-0.15625 0.09375,-0.3125 0.1875,-0.453125 C 1,-3.4375 1.171875,-3.609375 1.34375,-3.734375 1.109375,-3.3125 1.140625,-2.65625 1.609375,-2.40625 c 0.0625,0.03125 0.125,0.046875 0.1875,0.0625 0.09375,0.015625 0.203125,0.015625 0.28125,-0.015625 0.078125,0 0.171875,-0.046875 0.25,-0.078125 C 2.84375,-2.734375 2.890625,-3.46875 2.625,-3.953125 2.546875,-4.09375 2.46875,-4.203125 2.34375,-4.28125 2.1875,-4.390625 2.015625,-4.421875 1.828125,-4.421875 1.6875,-4.421875 1.546875,-4.375 1.421875,-4.3125 1,-4.125 0.75,-3.734375 0.609375,-3.3125 0.5,-2.953125 0.46875,-2.59375 0.484375,-2.21875 c 0.015625,0.25 0.046875,0.5 0.140625,0.734375 0.078125,0.265625 0.21875,0.53125 0.375,0.75 0.109375,0.203125 0.25,0.359375 0.421875,0.53125 0.046875,0.046875 0.109375,0.125 0.171875,0.15625 0.078125,0.0625 0.21875,0.03125 0.3125,0.03125 0.234375,0 0.46875,0 0.703125,0 z M 1.4375,-3.296875 c -0.015625,-0.046875 -0.015625,-0.109375 0,-0.15625 0.09375,-0.375 0.5625,-0.484375 0.875,-0.328125 0.140625,0.078125 0.265625,0.1875 0.28125,0.359375 0,0.046875 0,0.09375 -0.015625,0.140625 -0.03125,0.265625 -0.328125,0.375 -0.5625,0.390625 C 1.796875,-2.875 1.578125,-2.9375 1.46875,-3.125 1.453125,-3.1875 1.4375,-3.234375 1.4375,-3.296875 z m 0,0"
               style="stroke:none" />
          </symbol>
          <symbol
             id="textext-42dadaf8-5"
             overflow="visible"
             style="overflow:visible">
            <path
               id="path3104"
               d="m 5.1875,-4.015625 0.015625,0 c 0,0.09375 0,0.203125 -0.015625,0.296875 -0.0625,0.296875 -0.28125,0.609375 -0.59375,0.703125 -0.234375,0.0625 -0.484375,0.03125 -0.71875,0.03125 l 0,0.46875 c 0.265625,0 0.5625,-0.03125 0.828125,0.0625 0.125,0.046875 0.25,0.109375 0.359375,0.1875 0.09375,0.0625 0.1875,0.15625 0.234375,0.265625 0.109375,0.265625 0.015625,0.609375 -0.15625,0.796875 -0.25,0.28125 -0.609375,0.4375 -0.96875,0.46875 -0.21875,0.015625 -0.40625,0 -0.59375,-0.125 C 3.34375,-1 3.203125,-1.234375 3.09375,-1.46875 3.078125,-1.5625 3.046875,-1.65625 3,-1.75 2.953125,-1.625 2.90625,-1.5 2.828125,-1.390625 2.671875,-1.140625 2.4375,-0.921875 2.15625,-0.8125 1.9375,-0.734375 1.703125,-0.703125 1.484375,-0.75 1.328125,-0.8125 1.203125,-0.890625 1.09375,-1 0.859375,-1.203125 0.671875,-1.484375 0.65625,-1.796875 c -0.015625,-0.25 0.046875,-0.53125 0.15625,-0.75 0.0625,-0.109375 0.140625,-0.1875 0.203125,-0.28125 l 0.015625,0 C 0.953125,-2.59375 0.921875,-2.25 1.0625,-2.03125 1.171875,-1.890625 1.328125,-1.828125 1.484375,-1.8125 1.6875,-1.796875 1.875,-1.828125 2.015625,-1.96875 2.1875,-2.171875 2.234375,-2.453125 2.21875,-2.71875 2.1875,-2.9375 2.125,-3.1875 1.921875,-3.3125 1.859375,-3.375 1.78125,-3.40625 1.6875,-3.40625 1.640625,-3.421875 1.59375,-3.421875 1.546875,-3.421875 1.3125,-3.515625 1.15625,-3.703125 1.125,-3.9375 1.09375,-4.140625 1.109375,-4.390625 1.3125,-4.53125 1.359375,-4.5625 1.390625,-4.578125 1.453125,-4.578125 1.53125,-4.609375 1.59375,-4.609375 1.671875,-4.609375 1.671875,-4.671875 1.6875,-4.75 1.65625,-4.78125 1.625,-4.828125 1.546875,-4.828125 1.5,-4.828125 c -0.140625,0 -0.28125,0 -0.421875,0.046875 -0.390625,0.140625 -0.625,0.578125 -0.4375,0.96875 0.03125,0.078125 0.09375,0.15625 0.171875,0.21875 0.109375,0.09375 0.234375,0.1875 0.375,0.234375 l 0,0.015625 C 0.875,-3.234375 0.703125,-2.890625 0.59375,-2.59375 0.53125,-2.40625 0.5,-2.1875 0.484375,-2 0.453125,-1.4375 0.5625,-0.8125 0.9375,-0.375 c 0.125,0.140625 0.28125,0.25 0.453125,0.3125 0.4375,0.15625 0.96875,0 1.265625,-0.359375 0.140625,-0.171875 0.25,-0.390625 0.3125,-0.625 C 3,-0.96875 3.015625,-0.890625 3.0625,-0.8125 3.140625,-0.640625 3.234375,-0.5 3.375,-0.375 3.515625,-0.21875 3.6875,-0.109375 3.890625,-0.046875 4.3125,0.0625 4.828125,-0.0625 5.125,-0.40625 5.40625,-0.734375 5.515625,-1.140625 5.53125,-1.5625 c 0,-0.15625 0,-0.296875 -0.03125,-0.453125 -0.109375,-0.34375 -0.359375,-0.65625 -0.671875,-0.8125 0.46875,-0.28125 0.6875,-0.84375 0.703125,-1.375 0,-0.171875 0,-0.34375 -0.0625,-0.515625 C 5.390625,-4.890625 5.25,-5.046875 5.078125,-5.140625 4.75,-5.328125 4.34375,-5.28125 4.109375,-5 3.8125,-4.671875 3.765625,-4.046875 4.09375,-3.71875 4.296875,-3.515625 4.6875,-3.53125 4.921875,-3.6875 5.03125,-3.765625 5.140625,-3.890625 5.1875,-4.015625 z m -1.125,-0.34375 C 4.03125,-4.703125 4.4375,-4.9375 4.734375,-4.875 c 0.125,0.03125 0.234375,0.125 0.296875,0.234375 0.015625,0.046875 0.03125,0.109375 0.046875,0.171875 0,0.078125 0,0.1875 -0.046875,0.265625 -0.125,0.1875 -0.375,0.25 -0.578125,0.21875 -0.109375,0 -0.203125,-0.03125 -0.28125,-0.109375 C 4.09375,-4.171875 4.0625,-4.265625 4.0625,-4.359375 z m -2.84375,1.84375 c -0.015625,-0.125 0,-0.28125 0.109375,-0.359375 0.140625,-0.140625 0.453125,-0.140625 0.59375,0 0.0625,0.046875 0.09375,0.125 0.109375,0.203125 0.015625,0.125 0,0.296875 -0.09375,0.375 C 1.796875,-2.15625 1.53125,-2.140625 1.375,-2.25 1.28125,-2.328125 1.234375,-2.40625 1.21875,-2.515625 z m 0,0"
               style="stroke:none" />
          </symbol>
        </g>
      </defs>
      <g
         id="textext-42dadaf8-6">
        <g
           id="g3107"
           style="fill:#000000;fill-opacity:1">
          <use
             id="use3109"
             y="134.765"
             x="223.43201"
             xlink:href="#textext-42dadaf8-1"
             width="177.16534"
             height="141.73228" />
          <use
             id="use3111"
             y="134.765"
             x="225.5361"
             xlink:href="#textext-42dadaf8-2"
             width="177.16534"
             height="141.73228" />
          <use
             id="use3113"
             y="134.765"
             x="227.89923"
             xlink:href="#textext-42dadaf8-3"
             width="177.16534"
             height="141.73228" />
          <use
             id="use3115"
             y="134.765"
             x="233.74329"
             xlink:href="#textext-42dadaf8-4"
             width="177.16534"
             height="141.73228" />
          <use
             id="use3117"
             y="134.765"
             x="237.00404"
             xlink:href="#textext-42dadaf8-5"
             width="177.16534"
             height="141.73228" />
        </g>
      </g>
    </g>
    <text
       xml:space="preserve"
       style="font-size:14px;font-style:normal;font-variant:normal;font-weight:normal;font-stretch:normal;line-height:125%;letter-spacing:0px;word-spacing:0px;fill:#000000;fill-opacity:1;stroke:none;font-family:LMRoman10;-inkscape-font-specification:LMRoman10"
       x="43.941635"
       y="968.01312"
       id="text3187"
       sodipodi:linespacing="125%"><tspan
         sodipodi:role="line"
         id="tspan3189"
         x="43.941635"
         y="968.01312">5</tspan></text>
    <text
       xml:space="preserve"
       style="font-size:14px;font-style:normal;font-variant:normal;font-weight:normal;font-stretch:normal;line-height:125%;letter-spacing:0px;word-spacing:0px;fill:#000000;fill-opacity:1;stroke:none;font-family:LMRoman10;-inkscape-font-specification:LMRoman10"
       x="103.03556"
       y="969.52838"
       id="text3191"
       sodipodi:linespacing="125%"><tspan
         sodipodi:role="line"
         id="tspan3193"
         x="103.03556"
         y="969.52838">4</tspan></text>
    <text
       xml:space="preserve"
       style="font-size:14px;font-style:normal;font-variant:normal;font-weight:normal;font-stretch:normal;line-height:125%;letter-spacing:0px;word-spacing:0px;fill:#000000;fill-opacity:1;stroke:none;font-family:LMRoman10;-inkscape-font-specification:LMRoman10"
       x="66.670067"
       y="1023.5715"
       id="text3195"
       sodipodi:linespacing="125%"><tspan
         sodipodi:role="line"
         id="tspan3197"
         x="66.670067"
         y="1023.5715">3</tspan></text>
  </g>
</svg>
