<?xml version="1.0" encoding="UTF-8" standalone="no"?>
<!-- Created with Inkscape (http://www.inkscape.org/) -->

<svg
   xmlns:ns0="http://www.iki.fi/pav/software/textext/"
   xmlns:dc="http://purl.org/dc/elements/1.1/"
   xmlns:cc="http://creativecommons.org/ns#"
   xmlns:rdf="http://www.w3.org/1999/02/22-rdf-syntax-ns#"
   xmlns:svg="http://www.w3.org/2000/svg"
   xmlns="http://www.w3.org/2000/svg"
   xmlns:xlink="http://www.w3.org/1999/xlink"
   xmlns:sodipodi="http://sodipodi.sourceforge.net/DTD/sodipodi-0.dtd"
   xmlns:inkscape="http://www.inkscape.org/namespaces/inkscape"
   width="425.19684"
   height="141.73228"
   id="svg2"
   version="1.1"
   inkscape:version="0.47 r22583"
   sodipodi:docname="New document 1">
  <sodipodi:namedview
     id="base"
     pagecolor="#ffffff"
     bordercolor="#666666"
     borderopacity="1.0"
     inkscape:pageopacity="0.0"
     inkscape:pageshadow="2"
     inkscape:zoom="1.979899"
     inkscape:cx="231.61242"
     inkscape:cy="66.774432"
     inkscape:document-units="px"
     inkscape:current-layer="layer1"
     showgrid="false"
     units="cm"
     inkscape:window-width="1024"
     inkscape:window-height="689"
     inkscape:window-x="0"
     inkscape:window-y="27"
     inkscape:window-maximized="1"
     showguides="true"
     inkscape:guide-bbox="true">
    <sodipodi:guide
       orientation="0,1"
       position="160.10918,179.80715"
       id="guide5392" />
  </sodipodi:namedview>
  <defs
     id="defs4">
    <inkscape:perspective
       id="perspective10"
       inkscape:persp3d-origin="372.04724 : 350.78739 : 1"
       inkscape:vp_z="744.09448 : 526.18109 : 1"
       inkscape:vp_y="0 : 1000 : 0"
       inkscape:vp_x="0 : 526.18109 : 1"
       sodipodi:type="inkscape:persp3d" />
  </defs>
  <metadata
     id="metadata7">
    <rdf:RDF>
      <cc:Work
         rdf:about="">
        <dc:format>image/svg+xml</dc:format>
        <dc:type
           rdf:resource="http://purl.org/dc/dcmitype/StillImage" />
        <dc:title></dc:title>
      </cc:Work>
    </rdf:RDF>
  </metadata>
  <g
     transform="translate(0,-910.62859)"
     id="layer1"
     inkscape:groupmode="layer"
     inkscape:label="Layer 1">
    <rect
       y="933.43231"
       x="27.372953"
       height="96.435776"
       width="78.002724"
       id="rect2816"
       style="fill:none;stroke:#000000;stroke-width:1.375;stroke-linecap:round;stroke-linejoin:miter;stroke-miterlimit:4;stroke-opacity:1;stroke-dasharray:none;stroke-dashoffset:0" />
    <path
       sodipodi:nodetypes="cc"
       id="path2818"
       d="m 27.393707,1030.0305 c 0.03794,-0.121 77.639863,-96.25622 77.639863,-96.25622"
       style="fill:none;stroke:#000000;stroke-width:1.375;stroke-linecap:butt;stroke-linejoin:miter;stroke-miterlimit:4;stroke-opacity:1;stroke-dasharray:none" />
    <rect
       y="934.14154"
       x="165.67392"
       height="93.822235"
       width="114.66696"
       id="rect3592"
       style="fill:none;stroke:#000000;stroke-width:1.375;stroke-linecap:round;stroke-linejoin:miter;stroke-miterlimit:4;stroke-opacity:1;stroke-dasharray:none;stroke-dashoffset:0" />
    <path
       id="path3594"
       d="M 165.79823,1027.4743 279.72327,934.11625"
       style="fill:none;stroke:#000000;stroke-width:1.375;stroke-linecap:butt;stroke-linejoin:miter;stroke-miterlimit:4;stroke-opacity:1;stroke-dasharray:none" />
    <path
       id="path3596"
       d="m 335.82957,933.4323 69.89064,0"
       style="fill:none;stroke:#000000;stroke-width:1.375;stroke-linecap:butt;stroke-linejoin:miter;stroke-miterlimit:4;stroke-opacity:1;stroke-dasharray:none" />
    <path
       style="fill:none;stroke:#000000;stroke-width:1.375;stroke-linecap:butt;stroke-linejoin:miter;stroke-miterlimit:4;stroke-opacity:1;stroke-dasharray:none"
       d="m 343.73639,1028.0878 69.89065,0"
       id="path3598" />
    <path
       id="path3600"
       d="m 335.82957,933.4323 8.47159,94.7259"
       style="fill:none;stroke:#000000;stroke-width:1.375;stroke-linecap:butt;stroke-linejoin:miter;stroke-miterlimit:4;stroke-opacity:1;stroke-dasharray:none" />
    <path
       style="fill:none;stroke:#000000;stroke-width:1.375;stroke-linecap:butt;stroke-linejoin:miter;stroke-miterlimit:4;stroke-opacity:1;stroke-dasharray:none"
       d="m 405.01425,933.43232 8.47159,94.72588"
       id="path3602" />
    <path
       id="path3604"
       d="m 344.30116,1028.1582 60.00712,-94.7259"
       style="fill:none;stroke:#000000;stroke-width:1.375;stroke-linecap:butt;stroke-linejoin:miter;stroke-miterlimit:4;stroke-opacity:1;stroke-dasharray:none" />
    <text
       sodipodi:linespacing="125%"
       id="text3606"
       y="978.07513"
       x="40.714287"
       style="font-size:15px;font-style:normal;font-variant:normal;font-weight:normal;font-stretch:normal;line-height:125%;letter-spacing:0px;word-spacing:0px;fill:#000000;fill-opacity:1;stroke:none;font-family:LMRoman10;-inkscape-font-specification:LMRoman10"
       xml:space="preserve"><tspan
         y="978.07513"
         x="40.714287"
         id="tspan3608"
         sodipodi:role="line">(1)</tspan></text>
    <text
       xml:space="preserve"
       style="font-size:15px;font-style:normal;font-variant:normal;font-weight:normal;font-stretch:normal;line-height:125%;letter-spacing:0px;word-spacing:0px;fill:#000000;fill-opacity:1;stroke:none;font-family:LMRoman10;-inkscape-font-specification:LMRoman10"
       x="192.71429"
       y="978.07513"
       id="text3610"
       sodipodi:linespacing="125%"><tspan
         sodipodi:role="line"
         id="tspan3612"
         x="192.71429"
         y="978.07513">(1)</tspan></text>
    <text
       xml:space="preserve"
       style="font-size:15px;font-style:normal;font-variant:normal;font-weight:normal;font-stretch:normal;line-height:125%;letter-spacing:0px;word-spacing:0px;fill:#000000;fill-opacity:1;stroke:none;font-family:LMRoman10;-inkscape-font-specification:LMRoman10"
       x="2.7142868"
       y="986.07513"
       id="text3614"
       sodipodi:linespacing="125%"><tspan
         sodipodi:role="line"
         id="tspan3616"
         x="2.7142868"
         y="986.07513">(1)</tspan></text>
    <text
       sodipodi:linespacing="125%"
       id="text3618"
       y="986.07513"
       x="142.14285"
       style="font-size:15px;font-style:normal;font-variant:normal;font-weight:normal;font-stretch:normal;line-height:125%;letter-spacing:0px;word-spacing:0px;fill:#000000;fill-opacity:1;stroke:none;font-family:LMRoman10;-inkscape-font-specification:LMRoman10"
       xml:space="preserve"><tspan
         y="986.07513"
         x="142.14285"
         id="tspan3620"
         sodipodi:role="line">(2)</tspan></text>
    <text
       xml:space="preserve"
       style="font-size:15px;font-style:normal;font-variant:normal;font-weight:normal;font-stretch:normal;line-height:125%;letter-spacing:0px;word-spacing:0px;fill:#000000;fill-opacity:1;stroke:none;font-family:LMRoman10;-inkscape-font-specification:LMRoman10"
       x="316.14285"
       y="986.07513"
       id="text3622"
       sodipodi:linespacing="125%"><tspan
         sodipodi:role="line"
         id="tspan3624"
         x="316.14285"
         y="986.07513">(3)</tspan></text>
    <text
       xml:space="preserve"
       style="font-size:15px;font-style:normal;font-variant:normal;font-weight:normal;font-stretch:normal;line-height:125%;letter-spacing:0px;word-spacing:0px;fill:#000000;fill-opacity:1;stroke:none;font-family:LMRoman10;-inkscape-font-specification:LMRoman10"
       x="64.142853"
       y="1002.0751"
       id="text3626"
       sodipodi:linespacing="125%"><tspan
         sodipodi:role="line"
         id="tspan3628"
         x="64.142853"
         y="1002.0751">(2)</tspan></text>
    <text
       sodipodi:linespacing="125%"
       id="text3630"
       y="1002.0751"
       x="216.14285"
       style="font-size:15px;font-style:normal;font-variant:normal;font-weight:normal;font-stretch:normal;line-height:125%;letter-spacing:0px;word-spacing:0px;fill:#000000;fill-opacity:1;stroke:none;font-family:LMRoman10;-inkscape-font-specification:LMRoman10"
       xml:space="preserve"><tspan
         y="1002.0751"
         x="216.14285"
         id="tspan3632"
         sodipodi:role="line">(2)</tspan></text>
    <text
       sodipodi:linespacing="125%"
       id="text3634"
       y="1046.6467"
       x="57.142857"
       style="font-size:15px;font-style:normal;font-variant:normal;font-weight:normal;font-stretch:normal;line-height:125%;letter-spacing:0px;word-spacing:0px;fill:#000000;fill-opacity:1;stroke:none;font-family:LMRoman10;-inkscape-font-specification:LMRoman10"
       xml:space="preserve"><tspan
         y="1046.6467"
         x="57.142857"
         id="tspan3636"
         sodipodi:role="line">20</tspan></text>
    <text
       xml:space="preserve"
       style="font-size:15px;font-style:normal;font-variant:normal;font-weight:normal;font-stretch:normal;line-height:125%;letter-spacing:0px;word-spacing:0px;fill:#000000;fill-opacity:1;stroke:none;font-family:LMRoman10;-inkscape-font-specification:LMRoman10"
       x="215.14285"
       y="1046.6467"
       id="text3638"
       sodipodi:linespacing="125%"><tspan
         sodipodi:role="line"
         id="tspan3640"
         x="215.14285"
         y="1046.6467">50</tspan></text>
    <text
       sodipodi:linespacing="125%"
       id="text3642"
       y="1045.0396"
       x="385.53571"
       style="font-size:15px;font-style:normal;font-variant:normal;font-weight:normal;font-stretch:normal;line-height:125%;letter-spacing:0px;word-spacing:0px;fill:#000000;fill-opacity:1;stroke:none;font-family:LMRoman10;-inkscape-font-specification:LMRoman10"
       xml:space="preserve"><tspan
         y="1045.0396"
         x="385.53571"
         id="tspan3644"
         sodipodi:role="line">40</tspan></text>
    <g
       id="g3681"
       ns0:preamble="/home/sriranga/Desktop/Ganitarnava/figure/package.tex"
       ns0:text="pAda"
       transform="matrix(1.7723001,0,0,1.7723001,-44.467579,806.19991)">
      <defs
         id="defs3683">
        <g
           id="g3685">
          <symbol
             id="textext-fee97377-0"
             overflow="visible"
             style="overflow:visible">
            <path
               id="path3688"
               d=""
               style="stroke:none" />
          </symbol>
          <symbol
             id="textext-fee97377-1"
             overflow="visible"
             style="overflow:visible">
            <path
               id="path3691"
               d="m 0.484375,-4.234375 0,0.640625 4.015625,0 0,-0.640625 -4.015625,0 z M 2.78125,-3.34375 c -0.0625,0.015625 -0.125,0.03125 -0.1875,0.078125 -0.0625,0.03125 -0.125,0.078125 -0.15625,0.140625 -0.171875,0.21875 -0.0625,0.546875 0.140625,0.703125 0.109375,0.0625 0.25,0.09375 0.375,0.078125 0.34375,-0.03125 0.53125,-0.453125 0.359375,-0.75 -0.109375,-0.203125 -0.328125,-0.28125 -0.53125,-0.25 z m 0.1875,1.734375 C 2.875,-1.453125 2.765625,-1.28125 2.625,-1.140625 c -0.328125,0.328125 -0.84375,0.5 -1.3125,0.375 C 1,-0.84375 0.671875,-1 0.625,-1.359375 0.625,-1.40625 0.625,-1.453125 0.640625,-1.5 0.6875,-1.828125 1,-1.984375 1.296875,-1.984375 c 0.171875,0 0.375,0.078125 0.46875,0.234375 0.09375,0.140625 -0.046875,0.328125 -0.15625,0.4375 -0.0625,0.0625 -0.125,0.109375 -0.109375,0.21875 0.171875,0 0.359375,-0.078125 0.484375,-0.21875 0.203125,-0.25 0.15625,-0.703125 -0.109375,-0.890625 -0.140625,-0.09375 -0.328125,-0.125 -0.5,-0.125 -0.09375,0 -0.1875,0 -0.28125,0.03125 -0.25,0.046875 -0.4375,0.21875 -0.53125,0.4375 -0.0625,0.171875 -0.078125,0.34375 -0.078125,0.53125 0,0.390625 0.09375,0.8125 0.4375,1.0625 0.25,0.171875 0.546875,0.21875 0.859375,0.21875 C 2.015625,-0.0625 2.265625,-0.125 2.484375,-0.25 2.734375,-0.421875 2.875,-0.703125 2.953125,-0.984375 2.984375,-0.890625 3,-0.8125 3.046875,-0.75 c 0.078125,0.1875 0.1875,0.34375 0.359375,0.453125 0.109375,0.09375 0.234375,0.140625 0.359375,0.1875 0.453125,0.140625 1.0625,0.046875 1.390625,-0.3125 0.234375,-0.265625 0.25,-0.609375 0.25,-0.9375 C 5.390625,-1.765625 5.375,-2.171875 5.265625,-2.578125 5.21875,-2.734375 5.15625,-2.890625 5.078125,-3.03125 5.046875,-3.09375 5,-3.171875 4.9375,-3.203125 4.84375,-3.28125 4.734375,-3.234375 4.671875,-3.15625 c -0.0625,0.09375 -0.078125,0.21875 -0.0625,0.328125 0.03125,0.0625 0.0625,0.109375 0.109375,0.171875 0.0625,0.078125 0.109375,0.140625 0.15625,0.203125 0.203125,0.28125 0.421875,0.65625 0.34375,1.015625 C 5.171875,-1.234375 5.03125,-1.078125 4.875,-0.96875 4.671875,-0.8125 4.40625,-0.75 4.15625,-0.734375 c -0.21875,0.015625 -0.421875,0 -0.625,-0.109375 -0.1875,-0.125 -0.34375,-0.328125 -0.453125,-0.515625 -0.03125,-0.09375 -0.0625,-0.171875 -0.109375,-0.25 z m 0,0"
               style="stroke:none" />
          </symbol>
          <symbol
             id="textext-fee97377-2"
             overflow="visible"
             style="overflow:visible">
            <path
               id="path3694"
               d="m -0.03125,-4.234375 0,0.640625 2.546875,0 0.515625,0 c 0.09375,0 0.1875,-0.015625 0.28125,0 0.25,0.03125 0.5,0.09375 0.703125,0.21875 0.265625,0.15625 0.5,0.375 0.65625,0.640625 0.125,0.25 0.171875,0.53125 0.171875,0.8125 0,0.453125 -0.140625,0.90625 -0.546875,1.140625 -0.203125,0.125 -0.4375,0.171875 -0.671875,0.1875 -0.296875,0.03125 -0.59375,0 -0.84375,-0.15625 C 2.671875,-0.8125 2.578125,-0.890625 2.515625,-1 2.40625,-1.28125 2.5,-1.640625 2.765625,-1.78125 2.75,-1.671875 2.734375,-1.5625 2.75,-1.453125 c 0.015625,0.15625 0.15625,0.296875 0.296875,0.34375 0.078125,0.015625 0.15625,0.015625 0.25,0 C 3.375,-1.125 3.46875,-1.15625 3.53125,-1.21875 c 0.1875,-0.171875 0.171875,-0.5625 0,-0.734375 -0.0625,-0.078125 -0.15625,-0.125 -0.265625,-0.125 C 3.1875,-2.109375 3.09375,-2.09375 3,-2.078125 c -0.078125,0 -0.15625,0.03125 -0.234375,0.046875 -0.40625,0.203125 -0.546875,0.703125 -0.46875,1.109375 0.109375,0.5 0.53125,0.859375 1.046875,0.890625 0.171875,0.015625 0.328125,-0.015625 0.5,-0.03125 C 3.984375,-0.09375 4.109375,-0.15625 4.25,-0.203125 4.34375,-0.265625 4.421875,-0.3125 4.484375,-0.375 4.9375,-0.78125 5.03125,-1.421875 5.03125,-2 c 0,-0.21875 0,-0.421875 -0.0625,-0.625 C 4.9375,-2.828125 4.890625,-3.015625 4.796875,-3.203125 4.6875,-3.40625 4.5625,-3.59375 4.390625,-3.765625 4.109375,-4.015625 3.75,-4.171875 3.375,-4.234375 c -0.25,-0.015625 -0.515625,0 -0.765625,0 l -2.640625,0 z m 0,0"
               style="stroke:none" />
          </symbol>
          <symbol
             id="textext-fee97377-3"
             overflow="visible"
             style="overflow:visible">
            <path
               id="path3697"
               d="m 0.484375,-4.234375 0,0.640625 1.4375,0 0,0 C 1.75,-3.53125 1.59375,-3.421875 1.453125,-3.3125 1.25,-3.1875 1.0625,-3.015625 0.921875,-2.828125 c -0.328125,0.421875 -0.484375,0.96875 -0.4375,1.5 0.03125,0.359375 0.15625,0.734375 0.421875,1 0.265625,0.25 0.625,0.328125 0.984375,0.28125 0.15625,-0.015625 0.296875,-0.046875 0.4375,-0.125 C 2.65625,-0.375 2.90625,-0.71875 2.984375,-1.078125 l 0.015625,0 c 0.03125,0.140625 0.109375,0.28125 0.1875,0.40625 C 3.296875,-0.5 3.453125,-0.3125 3.640625,-0.203125 4.0625,0.0625 4.671875,0.03125 5.046875,-0.296875 5.375,-0.578125 5.515625,-0.984375 5.53125,-1.421875 5.546875,-1.640625 5.515625,-1.875 5.46875,-2.09375 5.3125,-2.578125 4.984375,-3.015625 4.578125,-3.296875 4.421875,-3.40625 4.25,-3.53125 4.0625,-3.59375 l 0,0 0.296875,0 0,-0.640625 -3.875,0 z M 3,-1.640625 C 2.9375,-1.546875 2.890625,-1.4375 2.828125,-1.328125 2.6875,-1.109375 2.5,-0.890625 2.25,-0.8125 2.109375,-0.75 1.96875,-0.734375 1.828125,-0.734375 1.703125,-0.734375 1.59375,-0.75 1.484375,-0.78125 1.390625,-0.828125 1.3125,-0.875 1.234375,-0.921875 0.6875,-1.359375 0.78125,-2.234375 1.140625,-2.75 c 0.078125,-0.09375 0.15625,-0.1875 0.25,-0.28125 0.4375,-0.421875 1.015625,-0.578125 1.625,-0.578125 0.34375,0 0.703125,0.046875 1.03125,0.203125 0.625,0.28125 1.109375,0.859375 1.109375,1.578125 0,0.109375 0,0.21875 -0.015625,0.328125 -0.09375,0.296875 -0.3125,0.578125 -0.59375,0.6875 C 4.265625,-0.6875 3.890625,-0.71875 3.625,-0.859375 3.40625,-0.984375 3.234375,-1.203125 3.109375,-1.40625 3.078125,-1.46875 3.03125,-1.5625 3,-1.640625 z m 0,0"
               style="stroke:none" />
          </symbol>
          <symbol
             id="textext-fee97377-4"
             overflow="visible"
             style="overflow:visible">
            <path
               id="path3700"
               d="m 1,-5.875 c 0.09375,0.078125 0.171875,0.15625 0.21875,0.25 0.1875,0.234375 0.34375,0.625 0.203125,0.921875 -0.0625,0.09375 -0.140625,0.171875 -0.234375,0.25 C 1.109375,-4.375 1.03125,-4.3125 0.921875,-4.28125 0.8125,-4.234375 0.671875,-4.234375 0.5625,-4.234375 l -0.5625,0 0,0.640625 0.484375,0 c 0.140625,0 0.265625,0 0.40625,-0.03125 0.25,-0.046875 0.5,-0.15625 0.671875,-0.34375 0.234375,-0.234375 0.375,-0.59375 0.328125,-0.921875 -0.03125,-0.171875 -0.09375,-0.34375 -0.1875,-0.5 C 1.625,-5.515625 1.5,-5.671875 1.359375,-5.765625 1.265625,-5.828125 1.125,-5.859375 1,-5.875 z m 0,0"
               style="stroke:none" />
          </symbol>
        </g>
      </defs>
      <g
         id="textext-fee97377-5">
        <g
           id="g3703"
           style="fill:#000000;fill-opacity:1">
          <use
             id="use3705"
             y="134.765"
             x="223.43201"
             xlink:href="#textext-fee97377-1"
             width="425.19684"
             height="141.73228" />
          <use
             id="use3707"
             y="134.765"
             x="227.2417"
             xlink:href="#textext-fee97377-2"
             width="425.19684"
             height="141.73228" />
          <use
             id="use3709"
             y="134.765"
             x="232.756"
             xlink:href="#textext-fee97377-3"
             width="425.19684"
             height="141.73228" />
          <use
             id="use3711"
             y="134.765"
             x="236.62547"
             xlink:href="#textext-fee97377-4"
             width="425.19684"
             height="141.73228" />
        </g>
      </g>
    </g>
    <g
       ns0:text="niVLa {\\rm(30) (1)}"
       ns0:preamble="/home/sriranga/Desktop/Ganitarnava/figure/package.tex"
       transform="matrix(0.72758125,-1.0127444,0.9877332,0.74600497,66.713385,1144.5671)"
       id="g3857">
      <defs
         id="defs3859">
        <g
           id="g3861">
          <symbol
             style="overflow:visible"
             overflow="visible"
             id="textext-4d8b586e-0">
            <path
               style="stroke:none"
               d=""
               id="path3864" />
          </symbol>
          <symbol
             style="overflow:visible"
             overflow="visible"
             id="textext-4d8b586e-1">
            <path
               style="stroke:none"
               d="m 1.71875,-4.640625 c 0.3125,0 0.59375,0.015625 0.890625,0.109375 0.375,0.140625 0.6875,0.359375 0.953125,0.640625 0.4375,0.4375 0.75,0.96875 0.796875,1.59375 0.046875,0.4375 0,0.9375 -0.296875,1.28125 C 3.8125,-0.75 3.421875,-0.625 3.09375,-0.78125 2.984375,-0.84375 2.875,-0.921875 2.796875,-1.03125 2.625,-1.21875 2.578125,-1.46875 2.46875,-1.703125 2.375,-1.9375 2.234375,-2.15625 2.03125,-2.28125 1.953125,-2.328125 1.890625,-2.359375 1.796875,-2.390625 1.703125,-2.421875 1.609375,-2.4375 1.5,-2.4375 c -0.125,0 -0.25,0.03125 -0.359375,0.078125 -0.125,0.0625 -0.25,0.140625 -0.34375,0.25 -0.46875,0.46875 -0.359375,1.21875 -0.078125,1.75 0.125,0.234375 0.375,0.34375 0.625,0.390625 0.125,0.015625 0.25,0.03125 0.375,-0.015625 0.078125,-0.046875 0.015625,-0.125 -0.03125,-0.15625 -0.125,-0.09375 -0.296875,-0.125 -0.421875,-0.1875 C 1.09375,-0.40625 0.9375,-0.515625 0.8125,-0.671875 0.75,-0.734375 0.71875,-0.8125 0.703125,-0.890625 0.671875,-1.0625 0.75,-1.21875 0.875,-1.328125 1.078125,-1.5625 1.359375,-1.6875 1.671875,-1.71875 c 0.078125,0 0.171875,0 0.265625,0.03125 0.328125,0.078125 0.53125,0.390625 0.65625,0.6875 0.0625,0.125 0.09375,0.265625 0.15625,0.40625 0.046875,0.078125 0.109375,0.171875 0.171875,0.25 0.09375,0.109375 0.203125,0.203125 0.3125,0.25 0.296875,0.140625 0.71875,0.109375 0.96875,-0.109375 0.15625,-0.125 0.25,-0.3125 0.3125,-0.5 0.125,-0.359375 0.140625,-0.71875 0.140625,-1.078125 0,-0.359375 -0.015625,-0.734375 -0.140625,-1.09375 C 4.34375,-3.359375 4.046875,-3.78125 3.6875,-4.140625 c -0.53125,-0.53125 -1.21875,-0.96875 -2,-1.015625 -0.328125,-0.015625 -0.703125,0 -0.953125,0.234375 C 0.3125,-4.5 0.53125,-3.734375 1.09375,-3.5625 c 0.15625,0.046875 0.359375,0.078125 0.5,0 0.234375,-0.09375 0.296875,-0.390625 0.296875,-0.609375 0,-0.078125 0,-0.15625 -0.03125,-0.21875 -0.03125,-0.09375 -0.078125,-0.171875 -0.140625,-0.25 z m -0.890625,0.5 C 0.78125,-4.359375 1.03125,-4.609375 1.25,-4.609375 c 0.171875,0 0.328125,0.1875 0.359375,0.359375 0.03125,0.15625 -0.0625,0.296875 -0.21875,0.34375 -0.1875,0.078125 -0.515625,0 -0.5625,-0.234375 z m 0,0"
               id="path3867" />
          </symbol>
          <symbol
             style="overflow:visible"
             overflow="visible"
             id="textext-4d8b586e-2">
            <path
               style="stroke:none"
               d="m 2.609375,-0.015625 0,0 C 2.40625,-0.140625 2.21875,-0.296875 2.03125,-0.421875 1.453125,-0.84375 0.859375,-1.328125 0.6875,-2.046875 0.671875,-2.15625 0.640625,-2.265625 0.640625,-2.375 c 0,-0.140625 0.03125,-0.28125 0.0625,-0.421875 0.03125,-0.15625 0.09375,-0.3125 0.1875,-0.453125 C 1,-3.4375 1.171875,-3.609375 1.34375,-3.734375 1.109375,-3.3125 1.140625,-2.65625 1.609375,-2.40625 c 0.0625,0.03125 0.125,0.046875 0.1875,0.0625 0.09375,0.015625 0.203125,0.015625 0.28125,-0.015625 0.078125,0 0.171875,-0.046875 0.25,-0.078125 C 2.84375,-2.734375 2.890625,-3.46875 2.625,-3.953125 2.546875,-4.09375 2.46875,-4.203125 2.34375,-4.28125 2.1875,-4.390625 2.015625,-4.421875 1.828125,-4.421875 1.6875,-4.421875 1.546875,-4.375 1.421875,-4.3125 1,-4.125 0.75,-3.734375 0.609375,-3.3125 0.5,-2.953125 0.46875,-2.59375 0.484375,-2.21875 c 0.015625,0.25 0.046875,0.5 0.140625,0.734375 0.078125,0.265625 0.21875,0.53125 0.375,0.75 0.109375,0.203125 0.25,0.359375 0.421875,0.53125 0.046875,0.046875 0.109375,0.125 0.171875,0.15625 0.078125,0.0625 0.21875,0.03125 0.3125,0.03125 0.234375,0 0.46875,0 0.703125,0 z M 1.4375,-3.296875 c -0.015625,-0.046875 -0.015625,-0.109375 0,-0.15625 0.09375,-0.375 0.5625,-0.484375 0.875,-0.328125 0.140625,0.078125 0.265625,0.1875 0.28125,0.359375 0,0.046875 0,0.09375 -0.015625,0.140625 -0.03125,0.265625 -0.328125,0.375 -0.5625,0.390625 C 1.796875,-2.875 1.578125,-2.9375 1.46875,-3.125 1.453125,-3.1875 1.4375,-3.234375 1.4375,-3.296875 z m 0,0"
               id="path3870" />
          </symbol>
          <symbol
             style="overflow:visible"
             overflow="visible"
             id="textext-4d8b586e-3">
            <path
               style="stroke:none"
               d="m 2.15625,-1.5 c -0.109375,0.109375 -0.234375,0.25 -0.265625,0.40625 -0.03125,0.140625 -0.03125,0.3125 0,0.453125 C 1.90625,-0.53125 1.9375,-0.421875 2,-0.328125 c 0.078125,0.125 0.1875,0.234375 0.328125,0.28125 0.125,0.046875 0.25,0.046875 0.375,0.03125 0.21875,-0.03125 0.421875,-0.09375 0.59375,-0.25 C 3.484375,-0.46875 3.5625,-0.78125 3.5,-1.046875 3.453125,-1.234375 3.359375,-1.390625 3.25,-1.5625 3.71875,-1.640625 4.25,-1.796875 4.5,-2.25 4.609375,-2.46875 4.65625,-2.734375 4.578125,-2.984375 4.53125,-3.15625 4.40625,-3.3125 4.28125,-3.4375 4.125,-3.578125 3.953125,-3.6875 3.734375,-3.6875 l 0,0.09375 C 3.828125,-3.5625 3.921875,-3.5 4,-3.421875 c 0.0625,0.0625 0.109375,0.125 0.140625,0.203125 0.25,0.484375 -0.015625,1.09375 -0.484375,1.3125 -0.140625,0.0625 -0.296875,0.109375 -0.453125,0.125 -0.046875,0 -0.125,0.03125 -0.1875,0.015625 C 2.953125,-1.78125 2.875,-1.859375 2.8125,-1.890625 2.6875,-1.953125 2.5625,-2 2.4375,-2.03125 2.25,-2.078125 2.0625,-2.0625 1.890625,-2.09375 1.796875,-2.109375 1.703125,-2.109375 1.625,-2.140625 1.234375,-2.25 0.75,-2.46875 0.671875,-2.90625 0.65625,-2.96875 0.65625,-3.03125 0.65625,-3.09375 0.671875,-3.21875 0.6875,-3.34375 0.734375,-3.453125 0.78125,-3.59375 0.890625,-3.734375 1,-3.84375 c -0.09375,0.328125 -0.078125,0.796875 0.28125,0.984375 0.046875,0.03125 0.09375,0.046875 0.15625,0.0625 0.078125,0 0.140625,0 0.234375,0 C 1.75,-2.8125 1.828125,-2.828125 1.90625,-2.875 c 0.25,-0.109375 0.328125,-0.40625 0.328125,-0.65625 0,-0.234375 -0.078125,-0.4375 -0.203125,-0.625 C 1.953125,-4.25 1.859375,-4.34375 1.75,-4.390625 1.578125,-4.453125 1.359375,-4.4375 1.203125,-4.375 0.890625,-4.25 0.6875,-3.96875 0.578125,-3.65625 0.53125,-3.515625 0.5,-3.359375 0.484375,-3.203125 c -0.03125,0.484375 0.0625,0.984375 0.390625,1.34375 0.15625,0.15625 0.34375,0.265625 0.578125,0.296875 0.078125,0.03125 0.171875,0.03125 0.265625,0.03125 0.140625,0 0.296875,0.03125 0.4375,0.03125 z m 0.640625,-2.734375 0,0.640625 0.546875,0 0,-0.640625 -0.546875,0 z m -0.75,0.703125 C 1.984375,-3.296875 1.71875,-3.125 1.46875,-3.15625 1.296875,-3.1875 1.078125,-3.34375 1.125,-3.5625 1.15625,-3.734375 1.328125,-3.90625 1.5,-3.953125 c 0.046875,0 0.09375,0 0.140625,0 0.21875,0.015625 0.46875,0.171875 0.40625,0.421875 z m 0.109375,2.5625 C 2.109375,-1.359375 2.546875,-1.625 2.90625,-1.515625 3.09375,-1.453125 3.234375,-1.25 3.25,-1.046875 3.25,-1 3.25,-0.9375 3.234375,-0.890625 3.203125,-0.8125 3.15625,-0.75 3.09375,-0.71875 2.96875,-0.625 2.828125,-0.578125 2.671875,-0.5625 c -0.109375,0 -0.21875,0 -0.3125,-0.046875 C 2.21875,-0.6875 2.171875,-0.828125 2.15625,-0.96875 z m 0,0"
               id="path3873" />
          </symbol>
          <symbol
             style="overflow:visible"
             overflow="visible"
             id="textext-4d8b586e-4">
            <path
               style="stroke:none"
               d="m 1,-5.875 c 0.09375,0.078125 0.171875,0.15625 0.21875,0.25 0.1875,0.234375 0.34375,0.625 0.203125,0.921875 -0.0625,0.09375 -0.140625,0.171875 -0.234375,0.25 C 1.109375,-4.375 1.03125,-4.3125 0.921875,-4.28125 0.8125,-4.234375 0.671875,-4.234375 0.5625,-4.234375 l -0.5625,0 0,0.640625 0.484375,0 c 0.140625,0 0.265625,0 0.40625,-0.03125 0.25,-0.046875 0.5,-0.15625 0.671875,-0.34375 0.234375,-0.234375 0.375,-0.59375 0.328125,-0.921875 -0.03125,-0.171875 -0.09375,-0.34375 -0.1875,-0.5 C 1.625,-5.515625 1.5,-5.671875 1.359375,-5.765625 1.265625,-5.828125 1.125,-5.859375 1,-5.875 z m 0,0"
               id="path3876" />
          </symbol>
          <symbol
             style="overflow:visible"
             overflow="visible"
             id="textext-4d8b586e-5">
            <path
               style="stroke:none"
               d=""
               id="path3879" />
          </symbol>
          <symbol
             style="overflow:visible"
             overflow="visible"
             id="textext-4d8b586e-6">
            <path
               style="stroke:none"
               d="m 3.296875,2.390625 c 0,-0.03125 0,-0.046875 -0.171875,-0.21875 C 1.890625,0.921875 1.5625,-0.96875 1.5625,-2.5 c 0,-1.734375 0.375,-3.46875 1.609375,-4.703125 0.125,-0.125 0.125,-0.140625 0.125,-0.171875 0,-0.078125 -0.03125,-0.109375 -0.09375,-0.109375 -0.109375,0 -1,0.6875 -1.59375,1.953125 -0.5,1.09375 -0.625,2.203125 -0.625,3.03125 0,0.78125 0.109375,1.984375 0.65625,3.125 C 2.25,1.84375 3.09375,2.5 3.203125,2.5 c 0.0625,0 0.09375,-0.03125 0.09375,-0.109375 z m 0,0"
               id="path3882" />
          </symbol>
          <symbol
             style="overflow:visible"
             overflow="visible"
             id="textext-4d8b586e-7">
            <path
               style="stroke:none"
               d="m 2.890625,-3.515625 c 0.8125,-0.265625 1.390625,-0.953125 1.390625,-1.75 0,-0.8125 -0.875,-1.375 -1.828125,-1.375 -1,0 -1.765625,0.59375 -1.765625,1.359375 0,0.328125 0.21875,0.515625 0.515625,0.515625 0.296875,0 0.5,-0.21875 0.5,-0.515625 0,-0.484375 -0.46875,-0.484375 -0.609375,-0.484375 0.296875,-0.5 0.953125,-0.625 1.3125,-0.625 0.421875,0 0.96875,0.21875 0.96875,1.109375 0,0.125 -0.03125,0.703125 -0.28125,1.140625 C 2.796875,-3.65625 2.453125,-3.625 2.203125,-3.625 2.125,-3.609375 1.890625,-3.59375 1.8125,-3.59375 c -0.078125,0.015625 -0.140625,0.03125 -0.140625,0.125 0,0.109375 0.0625,0.109375 0.234375,0.109375 l 0.4375,0 c 0.8125,0 1.1875,0.671875 1.1875,1.65625 0,1.359375 -0.6875,1.640625 -1.125,1.640625 -0.4375,0 -1.1875,-0.171875 -1.53125,-0.75 0.34375,0.046875 0.65625,-0.171875 0.65625,-0.546875 0,-0.359375 -0.265625,-0.5625 -0.546875,-0.5625 -0.25,0 -0.5625,0.140625 -0.5625,0.578125 0,0.90625 0.921875,1.5625 2.015625,1.5625 1.21875,0 2.125,-0.90625 2.125,-1.921875 0,-0.8125 -0.640625,-1.59375 -1.671875,-1.8125 z m 0,0"
               id="path3885" />
          </symbol>
          <symbol
             style="overflow:visible"
             overflow="visible"
             id="textext-4d8b586e-8">
            <path
               style="stroke:none"
               d="m 4.578125,-3.1875 c 0,-0.796875 -0.046875,-1.59375 -0.390625,-2.328125 -0.453125,-0.96875 -1.28125,-1.125 -1.6875,-1.125 -0.609375,0 -1.328125,0.265625 -1.75,1.1875 -0.3125,0.6875 -0.359375,1.46875 -0.359375,2.265625 0,0.75 0.03125,1.640625 0.453125,2.40625 0.421875,0.796875 1.15625,1 1.640625,1 0.53125,0 1.296875,-0.203125 1.734375,-1.15625 0.3125,-0.6875 0.359375,-1.46875 0.359375,-2.25 z M 2.484375,0 C 2.09375,0 1.5,-0.25 1.328125,-1.203125 1.21875,-1.796875 1.21875,-2.71875 1.21875,-3.3125 c 0,-0.640625 0,-1.296875 0.078125,-1.828125 0.1875,-1.1875 0.9375,-1.28125 1.1875,-1.28125 0.328125,0 0.984375,0.1875 1.171875,1.171875 0.109375,0.5625 0.109375,1.3125 0.109375,1.9375 0,0.75 0,1.421875 -0.109375,2.0625 C 3.5,-0.296875 2.9375,0 2.484375,0 z m 0,0"
               id="path3888" />
          </symbol>
          <symbol
             style="overflow:visible"
             overflow="visible"
             id="textext-4d8b586e-9">
            <path
               style="stroke:none"
               d="m 2.875,-2.5 c 0,-0.765625 -0.109375,-1.96875 -0.65625,-3.109375 -0.59375,-1.21875 -1.453125,-1.875 -1.546875,-1.875 -0.0625,0 -0.109375,0.046875 -0.109375,0.109375 0,0.03125 0,0.046875 0.1875,0.234375 0.984375,0.984375 1.546875,2.5625 1.546875,4.640625 0,1.71875 -0.359375,3.46875 -1.59375,4.71875 C 0.5625,2.34375 0.5625,2.359375 0.5625,2.390625 0.5625,2.453125 0.609375,2.5 0.671875,2.5 0.765625,2.5 1.671875,1.8125 2.25,0.546875 2.765625,-0.546875 2.875,-1.65625 2.875,-2.5 z m 0,0"
               id="path3891" />
          </symbol>
          <symbol
             style="overflow:visible"
             overflow="visible"
             id="textext-4d8b586e-10">
            <path
               style="stroke:none"
               d="m 2.9375,-6.375 c 0,-0.25 0,-0.265625 -0.234375,-0.265625 C 2.078125,-6 1.203125,-6 0.890625,-6 l 0,0.3125 c 0.203125,0 0.78125,0 1.296875,-0.265625 l 0,5.171875 c 0,0.359375 -0.03125,0.46875 -0.921875,0.46875 l -0.3125,0 0,0.3125 c 0.34375,-0.03125 1.203125,-0.03125 1.609375,-0.03125 0.390625,0 1.265625,0 1.609375,0.03125 l 0,-0.3125 -0.3125,0 c -0.90625,0 -0.921875,-0.109375 -0.921875,-0.46875 l 0,-5.59375 z m 0,0"
               id="path3894" />
          </symbol>
        </g>
      </defs>
      <g
         id="textext-4d8b586e-11">
        <g
           style="fill:#000000;fill-opacity:1"
           id="g3897">
          <use
             height="141.73228"
             width="425.19684"
             xlink:href="#textext-4d8b586e-1"
             x="223.43201"
             y="134.765"
             id="use3899" />
          <use
             height="141.73228"
             width="425.19684"
             xlink:href="#textext-4d8b586e-2"
             x="228.56772"
             y="134.765"
             id="use3901" />
          <use
             height="141.73228"
             width="425.19684"
             xlink:href="#textext-4d8b586e-3"
             x="231.82848"
             y="134.765"
             id="use3903" />
          <use
             height="141.73228"
             width="425.19684"
             xlink:href="#textext-4d8b586e-4"
             x="234.86009"
             y="134.765"
             id="use3905" />
        </g>
        <g
           style="fill:#000000;fill-opacity:1"
           id="g3907">
          <use
             height="141.73228"
             width="425.19684"
             xlink:href="#textext-4d8b586e-6"
             x="239.789"
             y="134.765"
             id="use3909" />
          <use
             height="141.73228"
             width="425.19684"
             xlink:href="#textext-4d8b586e-7"
             x="243.66345"
             y="134.765"
             id="use3911" />
          <use
             height="141.73228"
             width="425.19684"
             xlink:href="#textext-4d8b586e-8"
             x="248.64476"
             y="134.765"
             id="use3913" />
          <use
             height="141.73228"
             width="425.19684"
             xlink:href="#textext-4d8b586e-9"
             x="253.62605"
             y="134.765"
             id="use3915" />
        </g>
        <g
           style="fill:#000000;fill-opacity:1"
           id="g3917">
          <use
             height="141.73228"
             width="425.19684"
             xlink:href="#textext-4d8b586e-6"
             x="260.81805"
             y="134.765"
             id="use3919" />
          <use
             height="141.73228"
             width="425.19684"
             xlink:href="#textext-4d8b586e-10"
             x="264.6925"
             y="134.765"
             id="use3921" />
          <use
             height="141.73228"
             width="425.19684"
             xlink:href="#textext-4d8b586e-9"
             x="269.6738"
             y="134.765"
             id="use3923" />
        </g>
      </g>
    </g>
    <g
       id="g4191"
       transform="matrix(0.61427475,-1.0852153,1.0623338,0.63528505,84.068916,1143.665)"
       ns0:preamble="/home/sriranga/Desktop/Ganitarnava/figure/package.tex"
       ns0:text="niVLa {\\rm(30)}">
      <defs
         id="defs4193">
        <g
           id="g4195">
          <symbol
             id="textext-b2c8ab4b-0"
             overflow="visible"
             style="overflow:visible">
            <path
               id="path4198"
               d=""
               style="stroke:none" />
          </symbol>
          <symbol
             id="textext-b2c8ab4b-1"
             overflow="visible"
             style="overflow:visible">
            <path
               id="path4201"
               d="m 1.71875,-4.640625 c 0.3125,0 0.59375,0.015625 0.890625,0.109375 0.375,0.140625 0.6875,0.359375 0.953125,0.640625 0.4375,0.4375 0.75,0.96875 0.796875,1.59375 0.046875,0.4375 0,0.9375 -0.296875,1.28125 C 3.8125,-0.75 3.421875,-0.625 3.09375,-0.78125 2.984375,-0.84375 2.875,-0.921875 2.796875,-1.03125 2.625,-1.21875 2.578125,-1.46875 2.46875,-1.703125 2.375,-1.9375 2.234375,-2.15625 2.03125,-2.28125 1.953125,-2.328125 1.890625,-2.359375 1.796875,-2.390625 1.703125,-2.421875 1.609375,-2.4375 1.5,-2.4375 c -0.125,0 -0.25,0.03125 -0.359375,0.078125 -0.125,0.0625 -0.25,0.140625 -0.34375,0.25 -0.46875,0.46875 -0.359375,1.21875 -0.078125,1.75 0.125,0.234375 0.375,0.34375 0.625,0.390625 0.125,0.015625 0.25,0.03125 0.375,-0.015625 0.078125,-0.046875 0.015625,-0.125 -0.03125,-0.15625 -0.125,-0.09375 -0.296875,-0.125 -0.421875,-0.1875 C 1.09375,-0.40625 0.9375,-0.515625 0.8125,-0.671875 0.75,-0.734375 0.71875,-0.8125 0.703125,-0.890625 0.671875,-1.0625 0.75,-1.21875 0.875,-1.328125 1.078125,-1.5625 1.359375,-1.6875 1.671875,-1.71875 c 0.078125,0 0.171875,0 0.265625,0.03125 0.328125,0.078125 0.53125,0.390625 0.65625,0.6875 0.0625,0.125 0.09375,0.265625 0.15625,0.40625 0.046875,0.078125 0.109375,0.171875 0.171875,0.25 0.09375,0.109375 0.203125,0.203125 0.3125,0.25 0.296875,0.140625 0.71875,0.109375 0.96875,-0.109375 0.15625,-0.125 0.25,-0.3125 0.3125,-0.5 0.125,-0.359375 0.140625,-0.71875 0.140625,-1.078125 0,-0.359375 -0.015625,-0.734375 -0.140625,-1.09375 C 4.34375,-3.359375 4.046875,-3.78125 3.6875,-4.140625 c -0.53125,-0.53125 -1.21875,-0.96875 -2,-1.015625 -0.328125,-0.015625 -0.703125,0 -0.953125,0.234375 C 0.3125,-4.5 0.53125,-3.734375 1.09375,-3.5625 c 0.15625,0.046875 0.359375,0.078125 0.5,0 0.234375,-0.09375 0.296875,-0.390625 0.296875,-0.609375 0,-0.078125 0,-0.15625 -0.03125,-0.21875 -0.03125,-0.09375 -0.078125,-0.171875 -0.140625,-0.25 z m -0.890625,0.5 C 0.78125,-4.359375 1.03125,-4.609375 1.25,-4.609375 c 0.171875,0 0.328125,0.1875 0.359375,0.359375 0.03125,0.15625 -0.0625,0.296875 -0.21875,0.34375 -0.1875,0.078125 -0.515625,0 -0.5625,-0.234375 z m 0,0"
               style="stroke:none" />
          </symbol>
          <symbol
             id="textext-b2c8ab4b-2"
             overflow="visible"
             style="overflow:visible">
            <path
               id="path4204"
               d="m 2.609375,-0.015625 0,0 C 2.40625,-0.140625 2.21875,-0.296875 2.03125,-0.421875 1.453125,-0.84375 0.859375,-1.328125 0.6875,-2.046875 0.671875,-2.15625 0.640625,-2.265625 0.640625,-2.375 c 0,-0.140625 0.03125,-0.28125 0.0625,-0.421875 0.03125,-0.15625 0.09375,-0.3125 0.1875,-0.453125 C 1,-3.4375 1.171875,-3.609375 1.34375,-3.734375 1.109375,-3.3125 1.140625,-2.65625 1.609375,-2.40625 c 0.0625,0.03125 0.125,0.046875 0.1875,0.0625 0.09375,0.015625 0.203125,0.015625 0.28125,-0.015625 0.078125,0 0.171875,-0.046875 0.25,-0.078125 C 2.84375,-2.734375 2.890625,-3.46875 2.625,-3.953125 2.546875,-4.09375 2.46875,-4.203125 2.34375,-4.28125 2.1875,-4.390625 2.015625,-4.421875 1.828125,-4.421875 1.6875,-4.421875 1.546875,-4.375 1.421875,-4.3125 1,-4.125 0.75,-3.734375 0.609375,-3.3125 0.5,-2.953125 0.46875,-2.59375 0.484375,-2.21875 c 0.015625,0.25 0.046875,0.5 0.140625,0.734375 0.078125,0.265625 0.21875,0.53125 0.375,0.75 0.109375,0.203125 0.25,0.359375 0.421875,0.53125 0.046875,0.046875 0.109375,0.125 0.171875,0.15625 0.078125,0.0625 0.21875,0.03125 0.3125,0.03125 0.234375,0 0.46875,0 0.703125,0 z M 1.4375,-3.296875 c -0.015625,-0.046875 -0.015625,-0.109375 0,-0.15625 0.09375,-0.375 0.5625,-0.484375 0.875,-0.328125 0.140625,0.078125 0.265625,0.1875 0.28125,0.359375 0,0.046875 0,0.09375 -0.015625,0.140625 -0.03125,0.265625 -0.328125,0.375 -0.5625,0.390625 C 1.796875,-2.875 1.578125,-2.9375 1.46875,-3.125 1.453125,-3.1875 1.4375,-3.234375 1.4375,-3.296875 z m 0,0"
               style="stroke:none" />
          </symbol>
          <symbol
             id="textext-b2c8ab4b-3"
             overflow="visible"
             style="overflow:visible">
            <path
               id="path4207"
               d="m 2.15625,-1.5 c -0.109375,0.109375 -0.234375,0.25 -0.265625,0.40625 -0.03125,0.140625 -0.03125,0.3125 0,0.453125 C 1.90625,-0.53125 1.9375,-0.421875 2,-0.328125 c 0.078125,0.125 0.1875,0.234375 0.328125,0.28125 0.125,0.046875 0.25,0.046875 0.375,0.03125 0.21875,-0.03125 0.421875,-0.09375 0.59375,-0.25 C 3.484375,-0.46875 3.5625,-0.78125 3.5,-1.046875 3.453125,-1.234375 3.359375,-1.390625 3.25,-1.5625 3.71875,-1.640625 4.25,-1.796875 4.5,-2.25 4.609375,-2.46875 4.65625,-2.734375 4.578125,-2.984375 4.53125,-3.15625 4.40625,-3.3125 4.28125,-3.4375 4.125,-3.578125 3.953125,-3.6875 3.734375,-3.6875 l 0,0.09375 C 3.828125,-3.5625 3.921875,-3.5 4,-3.421875 c 0.0625,0.0625 0.109375,0.125 0.140625,0.203125 0.25,0.484375 -0.015625,1.09375 -0.484375,1.3125 -0.140625,0.0625 -0.296875,0.109375 -0.453125,0.125 -0.046875,0 -0.125,0.03125 -0.1875,0.015625 C 2.953125,-1.78125 2.875,-1.859375 2.8125,-1.890625 2.6875,-1.953125 2.5625,-2 2.4375,-2.03125 2.25,-2.078125 2.0625,-2.0625 1.890625,-2.09375 1.796875,-2.109375 1.703125,-2.109375 1.625,-2.140625 1.234375,-2.25 0.75,-2.46875 0.671875,-2.90625 0.65625,-2.96875 0.65625,-3.03125 0.65625,-3.09375 0.671875,-3.21875 0.6875,-3.34375 0.734375,-3.453125 0.78125,-3.59375 0.890625,-3.734375 1,-3.84375 c -0.09375,0.328125 -0.078125,0.796875 0.28125,0.984375 0.046875,0.03125 0.09375,0.046875 0.15625,0.0625 0.078125,0 0.140625,0 0.234375,0 C 1.75,-2.8125 1.828125,-2.828125 1.90625,-2.875 c 0.25,-0.109375 0.328125,-0.40625 0.328125,-0.65625 0,-0.234375 -0.078125,-0.4375 -0.203125,-0.625 C 1.953125,-4.25 1.859375,-4.34375 1.75,-4.390625 1.578125,-4.453125 1.359375,-4.4375 1.203125,-4.375 0.890625,-4.25 0.6875,-3.96875 0.578125,-3.65625 0.53125,-3.515625 0.5,-3.359375 0.484375,-3.203125 c -0.03125,0.484375 0.0625,0.984375 0.390625,1.34375 0.15625,0.15625 0.34375,0.265625 0.578125,0.296875 0.078125,0.03125 0.171875,0.03125 0.265625,0.03125 0.140625,0 0.296875,0.03125 0.4375,0.03125 z m 0.640625,-2.734375 0,0.640625 0.546875,0 0,-0.640625 -0.546875,0 z m -0.75,0.703125 C 1.984375,-3.296875 1.71875,-3.125 1.46875,-3.15625 1.296875,-3.1875 1.078125,-3.34375 1.125,-3.5625 1.15625,-3.734375 1.328125,-3.90625 1.5,-3.953125 c 0.046875,0 0.09375,0 0.140625,0 0.21875,0.015625 0.46875,0.171875 0.40625,0.421875 z m 0.109375,2.5625 C 2.109375,-1.359375 2.546875,-1.625 2.90625,-1.515625 3.09375,-1.453125 3.234375,-1.25 3.25,-1.046875 3.25,-1 3.25,-0.9375 3.234375,-0.890625 3.203125,-0.8125 3.15625,-0.75 3.09375,-0.71875 2.96875,-0.625 2.828125,-0.578125 2.671875,-0.5625 c -0.109375,0 -0.21875,0 -0.3125,-0.046875 C 2.21875,-0.6875 2.171875,-0.828125 2.15625,-0.96875 z m 0,0"
               style="stroke:none" />
          </symbol>
          <symbol
             id="textext-b2c8ab4b-4"
             overflow="visible"
             style="overflow:visible">
            <path
               id="path4210"
               d="m 1,-5.875 c 0.09375,0.078125 0.171875,0.15625 0.21875,0.25 0.1875,0.234375 0.34375,0.625 0.203125,0.921875 -0.0625,0.09375 -0.140625,0.171875 -0.234375,0.25 C 1.109375,-4.375 1.03125,-4.3125 0.921875,-4.28125 0.8125,-4.234375 0.671875,-4.234375 0.5625,-4.234375 l -0.5625,0 0,0.640625 0.484375,0 c 0.140625,0 0.265625,0 0.40625,-0.03125 0.25,-0.046875 0.5,-0.15625 0.671875,-0.34375 0.234375,-0.234375 0.375,-0.59375 0.328125,-0.921875 -0.03125,-0.171875 -0.09375,-0.34375 -0.1875,-0.5 C 1.625,-5.515625 1.5,-5.671875 1.359375,-5.765625 1.265625,-5.828125 1.125,-5.859375 1,-5.875 z m 0,0"
               style="stroke:none" />
          </symbol>
          <symbol
             id="textext-b2c8ab4b-5"
             overflow="visible"
             style="overflow:visible">
            <path
               id="path4213"
               d=""
               style="stroke:none" />
          </symbol>
          <symbol
             id="textext-b2c8ab4b-6"
             overflow="visible"
             style="overflow:visible">
            <path
               id="path4216"
               d="m 3.296875,2.390625 c 0,-0.03125 0,-0.046875 -0.171875,-0.21875 C 1.890625,0.921875 1.5625,-0.96875 1.5625,-2.5 c 0,-1.734375 0.375,-3.46875 1.609375,-4.703125 0.125,-0.125 0.125,-0.140625 0.125,-0.171875 0,-0.078125 -0.03125,-0.109375 -0.09375,-0.109375 -0.109375,0 -1,0.6875 -1.59375,1.953125 -0.5,1.09375 -0.625,2.203125 -0.625,3.03125 0,0.78125 0.109375,1.984375 0.65625,3.125 C 2.25,1.84375 3.09375,2.5 3.203125,2.5 c 0.0625,0 0.09375,-0.03125 0.09375,-0.109375 z m 0,0"
               style="stroke:none" />
          </symbol>
          <symbol
             id="textext-b2c8ab4b-7"
             overflow="visible"
             style="overflow:visible">
            <path
               id="path4219"
               d="m 2.890625,-3.515625 c 0.8125,-0.265625 1.390625,-0.953125 1.390625,-1.75 0,-0.8125 -0.875,-1.375 -1.828125,-1.375 -1,0 -1.765625,0.59375 -1.765625,1.359375 0,0.328125 0.21875,0.515625 0.515625,0.515625 0.296875,0 0.5,-0.21875 0.5,-0.515625 0,-0.484375 -0.46875,-0.484375 -0.609375,-0.484375 0.296875,-0.5 0.953125,-0.625 1.3125,-0.625 0.421875,0 0.96875,0.21875 0.96875,1.109375 0,0.125 -0.03125,0.703125 -0.28125,1.140625 C 2.796875,-3.65625 2.453125,-3.625 2.203125,-3.625 2.125,-3.609375 1.890625,-3.59375 1.8125,-3.59375 c -0.078125,0.015625 -0.140625,0.03125 -0.140625,0.125 0,0.109375 0.0625,0.109375 0.234375,0.109375 l 0.4375,0 c 0.8125,0 1.1875,0.671875 1.1875,1.65625 0,1.359375 -0.6875,1.640625 -1.125,1.640625 -0.4375,0 -1.1875,-0.171875 -1.53125,-0.75 0.34375,0.046875 0.65625,-0.171875 0.65625,-0.546875 0,-0.359375 -0.265625,-0.5625 -0.546875,-0.5625 -0.25,0 -0.5625,0.140625 -0.5625,0.578125 0,0.90625 0.921875,1.5625 2.015625,1.5625 1.21875,0 2.125,-0.90625 2.125,-1.921875 0,-0.8125 -0.640625,-1.59375 -1.671875,-1.8125 z m 0,0"
               style="stroke:none" />
          </symbol>
          <symbol
             id="textext-b2c8ab4b-8"
             overflow="visible"
             style="overflow:visible">
            <path
               id="path4222"
               d="m 4.578125,-3.1875 c 0,-0.796875 -0.046875,-1.59375 -0.390625,-2.328125 -0.453125,-0.96875 -1.28125,-1.125 -1.6875,-1.125 -0.609375,0 -1.328125,0.265625 -1.75,1.1875 -0.3125,0.6875 -0.359375,1.46875 -0.359375,2.265625 0,0.75 0.03125,1.640625 0.453125,2.40625 0.421875,0.796875 1.15625,1 1.640625,1 0.53125,0 1.296875,-0.203125 1.734375,-1.15625 0.3125,-0.6875 0.359375,-1.46875 0.359375,-2.25 z M 2.484375,0 C 2.09375,0 1.5,-0.25 1.328125,-1.203125 1.21875,-1.796875 1.21875,-2.71875 1.21875,-3.3125 c 0,-0.640625 0,-1.296875 0.078125,-1.828125 0.1875,-1.1875 0.9375,-1.28125 1.1875,-1.28125 0.328125,0 0.984375,0.1875 1.171875,1.171875 0.109375,0.5625 0.109375,1.3125 0.109375,1.9375 0,0.75 0,1.421875 -0.109375,2.0625 C 3.5,-0.296875 2.9375,0 2.484375,0 z m 0,0"
               style="stroke:none" />
          </symbol>
          <symbol
             id="textext-b2c8ab4b-9"
             overflow="visible"
             style="overflow:visible">
            <path
               id="path4225"
               d="m 2.875,-2.5 c 0,-0.765625 -0.109375,-1.96875 -0.65625,-3.109375 -0.59375,-1.21875 -1.453125,-1.875 -1.546875,-1.875 -0.0625,0 -0.109375,0.046875 -0.109375,0.109375 0,0.03125 0,0.046875 0.1875,0.234375 0.984375,0.984375 1.546875,2.5625 1.546875,4.640625 0,1.71875 -0.359375,3.46875 -1.59375,4.71875 C 0.5625,2.34375 0.5625,2.359375 0.5625,2.390625 0.5625,2.453125 0.609375,2.5 0.671875,2.5 0.765625,2.5 1.671875,1.8125 2.25,0.546875 2.765625,-0.546875 2.875,-1.65625 2.875,-2.5 z m 0,0"
               style="stroke:none" />
          </symbol>
        </g>
      </defs>
      <g
         id="textext-b2c8ab4b-10">
        <g
           id="g4228"
           style="fill:#000000;fill-opacity:1">
          <use
             id="use4230"
             y="134.765"
             x="223.43201"
             xlink:href="#textext-b2c8ab4b-1"
             width="425.19684"
             height="141.73228" />
          <use
             id="use4232"
             y="134.765"
             x="228.56772"
             xlink:href="#textext-b2c8ab4b-2"
             width="425.19684"
             height="141.73228" />
          <use
             id="use4234"
             y="134.765"
             x="231.82848"
             xlink:href="#textext-b2c8ab4b-3"
             width="425.19684"
             height="141.73228" />
          <use
             id="use4236"
             y="134.765"
             x="234.86009"
             xlink:href="#textext-b2c8ab4b-4"
             width="425.19684"
             height="141.73228" />
        </g>
        <g
           id="g4238"
           style="fill:#000000;fill-opacity:1">
          <use
             id="use4240"
             y="134.765"
             x="239.789"
             xlink:href="#textext-b2c8ab4b-6"
             width="425.19684"
             height="141.73228" />
          <use
             id="use4242"
             y="134.765"
             x="243.66345"
             xlink:href="#textext-b2c8ab4b-7"
             width="425.19684"
             height="141.73228" />
          <use
             id="use4244"
             y="134.765"
             x="248.64476"
             xlink:href="#textext-b2c8ab4b-8"
             width="425.19684"
             height="141.73228" />
          <use
             id="use4246"
             y="134.765"
             x="253.62605"
             xlink:href="#textext-b2c8ab4b-9"
             width="425.19684"
             height="141.73228" />
        </g>
      </g>
    </g>
    <text
       xml:space="preserve"
       style="font-size:15px;font-style:normal;font-variant:normal;font-weight:normal;font-stretch:normal;line-height:125%;letter-spacing:0px;word-spacing:0px;fill:#000000;fill-opacity:1;stroke:none;font-family:LMRoman10;-inkscape-font-specification:LMRoman10"
       x="726.55792"
       y="759.06812"
       id="text4374"
       sodipodi:linespacing="125%"
       transform="matrix(0.90853029,0.41781899,-0.41781899,0.90853029,0,0)"><tspan
         sodipodi:role="line"
         id="tspan4376"
         x="726.55792"
         y="759.06812">(2)</tspan></text>
    <text
       xml:space="preserve"
       style="font-size:15px;font-style:normal;font-variant:normal;font-weight:normal;font-stretch:normal;line-height:125%;letter-spacing:0px;word-spacing:0px;fill:#000000;fill-opacity:1;stroke:none;font-family:LMRoman10;-inkscape-font-specification:LMRoman10"
       x="381.53571"
       y="927.03961"
       id="text4378"
       sodipodi:linespacing="125%"><tspan
         sodipodi:role="line"
         id="tspan4380"
         x="381.53571"
         y="927.03961">40</tspan></text>
    <g
       transform="matrix(1.7723001,0,0,1.7723001,-48.467579,688.19991)"
       ns0:text="pAda"
       ns0:preamble="/home/sriranga/Desktop/Ganitarnava/figure/package.tex"
       id="g4382">
      <defs
         id="defs4384">
        <g
           id="g4386">
          <symbol
             style="overflow:visible"
             overflow="visible"
             id="symbol4388">
            <path
               style="stroke:none"
               d=""
               id="path4390" />
          </symbol>
          <symbol
             style="overflow:visible"
             overflow="visible"
             id="symbol4392">
            <path
               style="stroke:none"
               d="m 0.484375,-4.234375 0,0.640625 4.015625,0 0,-0.640625 -4.015625,0 z M 2.78125,-3.34375 c -0.0625,0.015625 -0.125,0.03125 -0.1875,0.078125 -0.0625,0.03125 -0.125,0.078125 -0.15625,0.140625 -0.171875,0.21875 -0.0625,0.546875 0.140625,0.703125 0.109375,0.0625 0.25,0.09375 0.375,0.078125 0.34375,-0.03125 0.53125,-0.453125 0.359375,-0.75 -0.109375,-0.203125 -0.328125,-0.28125 -0.53125,-0.25 z m 0.1875,1.734375 C 2.875,-1.453125 2.765625,-1.28125 2.625,-1.140625 c -0.328125,0.328125 -0.84375,0.5 -1.3125,0.375 C 1,-0.84375 0.671875,-1 0.625,-1.359375 0.625,-1.40625 0.625,-1.453125 0.640625,-1.5 0.6875,-1.828125 1,-1.984375 1.296875,-1.984375 c 0.171875,0 0.375,0.078125 0.46875,0.234375 0.09375,0.140625 -0.046875,0.328125 -0.15625,0.4375 -0.0625,0.0625 -0.125,0.109375 -0.109375,0.21875 0.171875,0 0.359375,-0.078125 0.484375,-0.21875 0.203125,-0.25 0.15625,-0.703125 -0.109375,-0.890625 -0.140625,-0.09375 -0.328125,-0.125 -0.5,-0.125 -0.09375,0 -0.1875,0 -0.28125,0.03125 -0.25,0.046875 -0.4375,0.21875 -0.53125,0.4375 -0.0625,0.171875 -0.078125,0.34375 -0.078125,0.53125 0,0.390625 0.09375,0.8125 0.4375,1.0625 0.25,0.171875 0.546875,0.21875 0.859375,0.21875 C 2.015625,-0.0625 2.265625,-0.125 2.484375,-0.25 2.734375,-0.421875 2.875,-0.703125 2.953125,-0.984375 2.984375,-0.890625 3,-0.8125 3.046875,-0.75 c 0.078125,0.1875 0.1875,0.34375 0.359375,0.453125 0.109375,0.09375 0.234375,0.140625 0.359375,0.1875 0.453125,0.140625 1.0625,0.046875 1.390625,-0.3125 0.234375,-0.265625 0.25,-0.609375 0.25,-0.9375 C 5.390625,-1.765625 5.375,-2.171875 5.265625,-2.578125 5.21875,-2.734375 5.15625,-2.890625 5.078125,-3.03125 5.046875,-3.09375 5,-3.171875 4.9375,-3.203125 4.84375,-3.28125 4.734375,-3.234375 4.671875,-3.15625 c -0.0625,0.09375 -0.078125,0.21875 -0.0625,0.328125 0.03125,0.0625 0.0625,0.109375 0.109375,0.171875 0.0625,0.078125 0.109375,0.140625 0.15625,0.203125 0.203125,0.28125 0.421875,0.65625 0.34375,1.015625 C 5.171875,-1.234375 5.03125,-1.078125 4.875,-0.96875 4.671875,-0.8125 4.40625,-0.75 4.15625,-0.734375 c -0.21875,0.015625 -0.421875,0 -0.625,-0.109375 -0.1875,-0.125 -0.34375,-0.328125 -0.453125,-0.515625 -0.03125,-0.09375 -0.0625,-0.171875 -0.109375,-0.25 z m 0,0"
               id="path4394" />
          </symbol>
          <symbol
             style="overflow:visible"
             overflow="visible"
             id="symbol4396">
            <path
               style="stroke:none"
               d="m -0.03125,-4.234375 0,0.640625 2.546875,0 0.515625,0 c 0.09375,0 0.1875,-0.015625 0.28125,0 0.25,0.03125 0.5,0.09375 0.703125,0.21875 0.265625,0.15625 0.5,0.375 0.65625,0.640625 0.125,0.25 0.171875,0.53125 0.171875,0.8125 0,0.453125 -0.140625,0.90625 -0.546875,1.140625 -0.203125,0.125 -0.4375,0.171875 -0.671875,0.1875 -0.296875,0.03125 -0.59375,0 -0.84375,-0.15625 C 2.671875,-0.8125 2.578125,-0.890625 2.515625,-1 2.40625,-1.28125 2.5,-1.640625 2.765625,-1.78125 2.75,-1.671875 2.734375,-1.5625 2.75,-1.453125 c 0.015625,0.15625 0.15625,0.296875 0.296875,0.34375 0.078125,0.015625 0.15625,0.015625 0.25,0 C 3.375,-1.125 3.46875,-1.15625 3.53125,-1.21875 c 0.1875,-0.171875 0.171875,-0.5625 0,-0.734375 -0.0625,-0.078125 -0.15625,-0.125 -0.265625,-0.125 C 3.1875,-2.109375 3.09375,-2.09375 3,-2.078125 c -0.078125,0 -0.15625,0.03125 -0.234375,0.046875 -0.40625,0.203125 -0.546875,0.703125 -0.46875,1.109375 0.109375,0.5 0.53125,0.859375 1.046875,0.890625 0.171875,0.015625 0.328125,-0.015625 0.5,-0.03125 C 3.984375,-0.09375 4.109375,-0.15625 4.25,-0.203125 4.34375,-0.265625 4.421875,-0.3125 4.484375,-0.375 4.9375,-0.78125 5.03125,-1.421875 5.03125,-2 c 0,-0.21875 0,-0.421875 -0.0625,-0.625 C 4.9375,-2.828125 4.890625,-3.015625 4.796875,-3.203125 4.6875,-3.40625 4.5625,-3.59375 4.390625,-3.765625 4.109375,-4.015625 3.75,-4.171875 3.375,-4.234375 c -0.25,-0.015625 -0.515625,0 -0.765625,0 l -2.640625,0 z m 0,0"
               id="path4398" />
          </symbol>
          <symbol
             style="overflow:visible"
             overflow="visible"
             id="symbol4400">
            <path
               style="stroke:none"
               d="m 0.484375,-4.234375 0,0.640625 1.4375,0 0,0 C 1.75,-3.53125 1.59375,-3.421875 1.453125,-3.3125 1.25,-3.1875 1.0625,-3.015625 0.921875,-2.828125 c -0.328125,0.421875 -0.484375,0.96875 -0.4375,1.5 0.03125,0.359375 0.15625,0.734375 0.421875,1 0.265625,0.25 0.625,0.328125 0.984375,0.28125 0.15625,-0.015625 0.296875,-0.046875 0.4375,-0.125 C 2.65625,-0.375 2.90625,-0.71875 2.984375,-1.078125 l 0.015625,0 c 0.03125,0.140625 0.109375,0.28125 0.1875,0.40625 C 3.296875,-0.5 3.453125,-0.3125 3.640625,-0.203125 4.0625,0.0625 4.671875,0.03125 5.046875,-0.296875 5.375,-0.578125 5.515625,-0.984375 5.53125,-1.421875 5.546875,-1.640625 5.515625,-1.875 5.46875,-2.09375 5.3125,-2.578125 4.984375,-3.015625 4.578125,-3.296875 4.421875,-3.40625 4.25,-3.53125 4.0625,-3.59375 l 0,0 0.296875,0 0,-0.640625 -3.875,0 z M 3,-1.640625 C 2.9375,-1.546875 2.890625,-1.4375 2.828125,-1.328125 2.6875,-1.109375 2.5,-0.890625 2.25,-0.8125 2.109375,-0.75 1.96875,-0.734375 1.828125,-0.734375 1.703125,-0.734375 1.59375,-0.75 1.484375,-0.78125 1.390625,-0.828125 1.3125,-0.875 1.234375,-0.921875 0.6875,-1.359375 0.78125,-2.234375 1.140625,-2.75 c 0.078125,-0.09375 0.15625,-0.1875 0.25,-0.28125 0.4375,-0.421875 1.015625,-0.578125 1.625,-0.578125 0.34375,0 0.703125,0.046875 1.03125,0.203125 0.625,0.28125 1.109375,0.859375 1.109375,1.578125 0,0.109375 0,0.21875 -0.015625,0.328125 -0.09375,0.296875 -0.3125,0.578125 -0.59375,0.6875 C 4.265625,-0.6875 3.890625,-0.71875 3.625,-0.859375 3.40625,-0.984375 3.234375,-1.203125 3.109375,-1.40625 3.078125,-1.46875 3.03125,-1.5625 3,-1.640625 z m 0,0"
               id="path4402" />
          </symbol>
          <symbol
             style="overflow:visible"
             overflow="visible"
             id="symbol4404">
            <path
               style="stroke:none"
               d="m 1,-5.875 c 0.09375,0.078125 0.171875,0.15625 0.21875,0.25 0.1875,0.234375 0.34375,0.625 0.203125,0.921875 -0.0625,0.09375 -0.140625,0.171875 -0.234375,0.25 C 1.109375,-4.375 1.03125,-4.3125 0.921875,-4.28125 0.8125,-4.234375 0.671875,-4.234375 0.5625,-4.234375 l -0.5625,0 0,0.640625 0.484375,0 c 0.140625,0 0.265625,0 0.40625,-0.03125 0.25,-0.046875 0.5,-0.15625 0.671875,-0.34375 0.234375,-0.234375 0.375,-0.59375 0.328125,-0.921875 -0.03125,-0.171875 -0.09375,-0.34375 -0.1875,-0.5 C 1.625,-5.515625 1.5,-5.671875 1.359375,-5.765625 1.265625,-5.828125 1.125,-5.859375 1,-5.875 z m 0,0"
               id="path4406" />
          </symbol>
        </g>
      </defs>
      <g
         id="g4408">
        <g
           style="fill:#000000;fill-opacity:1"
           id="g4410">
          <use
             height="141.73228"
             width="425.19684"
             xlink:href="#textext-fee97377-1"
             x="223.43201"
             y="134.765"
             id="use4412" />
          <use
             height="141.73228"
             width="425.19684"
             xlink:href="#textext-fee97377-2"
             x="227.2417"
             y="134.765"
             id="use4414" />
          <use
             height="141.73228"
             width="425.19684"
             xlink:href="#textext-fee97377-3"
             x="232.756"
             y="134.765"
             id="use4416" />
          <use
             height="141.73228"
             width="425.19684"
             xlink:href="#textext-fee97377-4"
             x="236.62547"
             y="134.765"
             id="use4418" />
        </g>
      </g>
    </g>
    <g
       ns0:text="niVLa {\\rm 40}"
       ns0:preamble="/home/sriranga/Desktop/Ganitarnava/figure/package.tex"
       transform="matrix(0.03931888,-1.4243935,1.4125382,0.07277742,95.450277,1309.0381)"
       id="g4639">
      <defs
         id="defs4641">
        <g
           id="g4643">
          <symbol
             style="overflow:visible"
             overflow="visible"
             id="textext-d17a35b8-0">
            <path
               style="stroke:none"
               d=""
               id="path4646" />
          </symbol>
          <symbol
             style="overflow:visible"
             overflow="visible"
             id="textext-d17a35b8-1">
            <path
               style="stroke:none"
               d="m 1.71875,-4.640625 c 0.3125,0 0.59375,0.015625 0.890625,0.109375 0.375,0.140625 0.6875,0.359375 0.953125,0.640625 0.4375,0.4375 0.75,0.96875 0.796875,1.59375 0.046875,0.4375 0,0.9375 -0.296875,1.28125 C 3.8125,-0.75 3.421875,-0.625 3.09375,-0.78125 2.984375,-0.84375 2.875,-0.921875 2.796875,-1.03125 2.625,-1.21875 2.578125,-1.46875 2.46875,-1.703125 2.375,-1.9375 2.234375,-2.15625 2.03125,-2.28125 1.953125,-2.328125 1.890625,-2.359375 1.796875,-2.390625 1.703125,-2.421875 1.609375,-2.4375 1.5,-2.4375 c -0.125,0 -0.25,0.03125 -0.359375,0.078125 -0.125,0.0625 -0.25,0.140625 -0.34375,0.25 -0.46875,0.46875 -0.359375,1.21875 -0.078125,1.75 0.125,0.234375 0.375,0.34375 0.625,0.390625 0.125,0.015625 0.25,0.03125 0.375,-0.015625 0.078125,-0.046875 0.015625,-0.125 -0.03125,-0.15625 -0.125,-0.09375 -0.296875,-0.125 -0.421875,-0.1875 C 1.09375,-0.40625 0.9375,-0.515625 0.8125,-0.671875 0.75,-0.734375 0.71875,-0.8125 0.703125,-0.890625 0.671875,-1.0625 0.75,-1.21875 0.875,-1.328125 1.078125,-1.5625 1.359375,-1.6875 1.671875,-1.71875 c 0.078125,0 0.171875,0 0.265625,0.03125 0.328125,0.078125 0.53125,0.390625 0.65625,0.6875 0.0625,0.125 0.09375,0.265625 0.15625,0.40625 0.046875,0.078125 0.109375,0.171875 0.171875,0.25 0.09375,0.109375 0.203125,0.203125 0.3125,0.25 0.296875,0.140625 0.71875,0.109375 0.96875,-0.109375 0.15625,-0.125 0.25,-0.3125 0.3125,-0.5 0.125,-0.359375 0.140625,-0.71875 0.140625,-1.078125 0,-0.359375 -0.015625,-0.734375 -0.140625,-1.09375 C 4.34375,-3.359375 4.046875,-3.78125 3.6875,-4.140625 c -0.53125,-0.53125 -1.21875,-0.96875 -2,-1.015625 -0.328125,-0.015625 -0.703125,0 -0.953125,0.234375 C 0.3125,-4.5 0.53125,-3.734375 1.09375,-3.5625 c 0.15625,0.046875 0.359375,0.078125 0.5,0 0.234375,-0.09375 0.296875,-0.390625 0.296875,-0.609375 0,-0.078125 0,-0.15625 -0.03125,-0.21875 -0.03125,-0.09375 -0.078125,-0.171875 -0.140625,-0.25 z m -0.890625,0.5 C 0.78125,-4.359375 1.03125,-4.609375 1.25,-4.609375 c 0.171875,0 0.328125,0.1875 0.359375,0.359375 0.03125,0.15625 -0.0625,0.296875 -0.21875,0.34375 -0.1875,0.078125 -0.515625,0 -0.5625,-0.234375 z m 0,0"
               id="path4649" />
          </symbol>
          <symbol
             style="overflow:visible"
             overflow="visible"
             id="textext-d17a35b8-2">
            <path
               style="stroke:none"
               d="m 2.609375,-0.015625 0,0 C 2.40625,-0.140625 2.21875,-0.296875 2.03125,-0.421875 1.453125,-0.84375 0.859375,-1.328125 0.6875,-2.046875 0.671875,-2.15625 0.640625,-2.265625 0.640625,-2.375 c 0,-0.140625 0.03125,-0.28125 0.0625,-0.421875 0.03125,-0.15625 0.09375,-0.3125 0.1875,-0.453125 C 1,-3.4375 1.171875,-3.609375 1.34375,-3.734375 1.109375,-3.3125 1.140625,-2.65625 1.609375,-2.40625 c 0.0625,0.03125 0.125,0.046875 0.1875,0.0625 0.09375,0.015625 0.203125,0.015625 0.28125,-0.015625 0.078125,0 0.171875,-0.046875 0.25,-0.078125 C 2.84375,-2.734375 2.890625,-3.46875 2.625,-3.953125 2.546875,-4.09375 2.46875,-4.203125 2.34375,-4.28125 2.1875,-4.390625 2.015625,-4.421875 1.828125,-4.421875 1.6875,-4.421875 1.546875,-4.375 1.421875,-4.3125 1,-4.125 0.75,-3.734375 0.609375,-3.3125 0.5,-2.953125 0.46875,-2.59375 0.484375,-2.21875 c 0.015625,0.25 0.046875,0.5 0.140625,0.734375 0.078125,0.265625 0.21875,0.53125 0.375,0.75 0.109375,0.203125 0.25,0.359375 0.421875,0.53125 0.046875,0.046875 0.109375,0.125 0.171875,0.15625 0.078125,0.0625 0.21875,0.03125 0.3125,0.03125 0.234375,0 0.46875,0 0.703125,0 z M 1.4375,-3.296875 c -0.015625,-0.046875 -0.015625,-0.109375 0,-0.15625 0.09375,-0.375 0.5625,-0.484375 0.875,-0.328125 0.140625,0.078125 0.265625,0.1875 0.28125,0.359375 0,0.046875 0,0.09375 -0.015625,0.140625 -0.03125,0.265625 -0.328125,0.375 -0.5625,0.390625 C 1.796875,-2.875 1.578125,-2.9375 1.46875,-3.125 1.453125,-3.1875 1.4375,-3.234375 1.4375,-3.296875 z m 0,0"
               id="path4652" />
          </symbol>
          <symbol
             style="overflow:visible"
             overflow="visible"
             id="textext-d17a35b8-3">
            <path
               style="stroke:none"
               d="m 2.15625,-1.5 c -0.109375,0.109375 -0.234375,0.25 -0.265625,0.40625 -0.03125,0.140625 -0.03125,0.3125 0,0.453125 C 1.90625,-0.53125 1.9375,-0.421875 2,-0.328125 c 0.078125,0.125 0.1875,0.234375 0.328125,0.28125 0.125,0.046875 0.25,0.046875 0.375,0.03125 0.21875,-0.03125 0.421875,-0.09375 0.59375,-0.25 C 3.484375,-0.46875 3.5625,-0.78125 3.5,-1.046875 3.453125,-1.234375 3.359375,-1.390625 3.25,-1.5625 3.71875,-1.640625 4.25,-1.796875 4.5,-2.25 4.609375,-2.46875 4.65625,-2.734375 4.578125,-2.984375 4.53125,-3.15625 4.40625,-3.3125 4.28125,-3.4375 4.125,-3.578125 3.953125,-3.6875 3.734375,-3.6875 l 0,0.09375 C 3.828125,-3.5625 3.921875,-3.5 4,-3.421875 c 0.0625,0.0625 0.109375,0.125 0.140625,0.203125 0.25,0.484375 -0.015625,1.09375 -0.484375,1.3125 -0.140625,0.0625 -0.296875,0.109375 -0.453125,0.125 -0.046875,0 -0.125,0.03125 -0.1875,0.015625 C 2.953125,-1.78125 2.875,-1.859375 2.8125,-1.890625 2.6875,-1.953125 2.5625,-2 2.4375,-2.03125 2.25,-2.078125 2.0625,-2.0625 1.890625,-2.09375 1.796875,-2.109375 1.703125,-2.109375 1.625,-2.140625 1.234375,-2.25 0.75,-2.46875 0.671875,-2.90625 0.65625,-2.96875 0.65625,-3.03125 0.65625,-3.09375 0.671875,-3.21875 0.6875,-3.34375 0.734375,-3.453125 0.78125,-3.59375 0.890625,-3.734375 1,-3.84375 c -0.09375,0.328125 -0.078125,0.796875 0.28125,0.984375 0.046875,0.03125 0.09375,0.046875 0.15625,0.0625 0.078125,0 0.140625,0 0.234375,0 C 1.75,-2.8125 1.828125,-2.828125 1.90625,-2.875 c 0.25,-0.109375 0.328125,-0.40625 0.328125,-0.65625 0,-0.234375 -0.078125,-0.4375 -0.203125,-0.625 C 1.953125,-4.25 1.859375,-4.34375 1.75,-4.390625 1.578125,-4.453125 1.359375,-4.4375 1.203125,-4.375 0.890625,-4.25 0.6875,-3.96875 0.578125,-3.65625 0.53125,-3.515625 0.5,-3.359375 0.484375,-3.203125 c -0.03125,0.484375 0.0625,0.984375 0.390625,1.34375 0.15625,0.15625 0.34375,0.265625 0.578125,0.296875 0.078125,0.03125 0.171875,0.03125 0.265625,0.03125 0.140625,0 0.296875,0.03125 0.4375,0.03125 z m 0.640625,-2.734375 0,0.640625 0.546875,0 0,-0.640625 -0.546875,0 z m -0.75,0.703125 C 1.984375,-3.296875 1.71875,-3.125 1.46875,-3.15625 1.296875,-3.1875 1.078125,-3.34375 1.125,-3.5625 1.15625,-3.734375 1.328125,-3.90625 1.5,-3.953125 c 0.046875,0 0.09375,0 0.140625,0 0.21875,0.015625 0.46875,0.171875 0.40625,0.421875 z m 0.109375,2.5625 C 2.109375,-1.359375 2.546875,-1.625 2.90625,-1.515625 3.09375,-1.453125 3.234375,-1.25 3.25,-1.046875 3.25,-1 3.25,-0.9375 3.234375,-0.890625 3.203125,-0.8125 3.15625,-0.75 3.09375,-0.71875 2.96875,-0.625 2.828125,-0.578125 2.671875,-0.5625 c -0.109375,0 -0.21875,0 -0.3125,-0.046875 C 2.21875,-0.6875 2.171875,-0.828125 2.15625,-0.96875 z m 0,0"
               id="path4655" />
          </symbol>
          <symbol
             style="overflow:visible"
             overflow="visible"
             id="textext-d17a35b8-4">
            <path
               style="stroke:none"
               d="m 1,-5.875 c 0.09375,0.078125 0.171875,0.15625 0.21875,0.25 0.1875,0.234375 0.34375,0.625 0.203125,0.921875 -0.0625,0.09375 -0.140625,0.171875 -0.234375,0.25 C 1.109375,-4.375 1.03125,-4.3125 0.921875,-4.28125 0.8125,-4.234375 0.671875,-4.234375 0.5625,-4.234375 l -0.5625,0 0,0.640625 0.484375,0 c 0.140625,0 0.265625,0 0.40625,-0.03125 0.25,-0.046875 0.5,-0.15625 0.671875,-0.34375 0.234375,-0.234375 0.375,-0.59375 0.328125,-0.921875 -0.03125,-0.171875 -0.09375,-0.34375 -0.1875,-0.5 C 1.625,-5.515625 1.5,-5.671875 1.359375,-5.765625 1.265625,-5.828125 1.125,-5.859375 1,-5.875 z m 0,0"
               id="path4658" />
          </symbol>
          <symbol
             style="overflow:visible"
             overflow="visible"
             id="textext-d17a35b8-5">
            <path
               style="stroke:none"
               d=""
               id="path4661" />
          </symbol>
          <symbol
             style="overflow:visible"
             overflow="visible"
             id="textext-d17a35b8-6">
            <path
               style="stroke:none"
               d="m 2.9375,-1.640625 0,0.859375 c 0,0.359375 -0.03125,0.46875 -0.765625,0.46875 l -0.203125,0 0,0.3125 C 2.375,-0.03125 2.890625,-0.03125 3.3125,-0.03125 c 0.421875,0 0.9375,0 1.359375,0.03125 l 0,-0.3125 -0.21875,0 c -0.734375,0 -0.75,-0.109375 -0.75,-0.46875 l 0,-0.859375 0.984375,0 0,-0.3125 -0.984375,0 0,-4.53125 c 0,-0.203125 0,-0.265625 -0.171875,-0.265625 -0.078125,0 -0.109375,0 -0.1875,0.125 l -3.0625,4.671875 0,0.3125 2.65625,0 z m 0.046875,-0.3125 -2.421875,0 2.421875,-3.71875 0,3.71875 z m 0,0"
               id="path4664" />
          </symbol>
          <symbol
             style="overflow:visible"
             overflow="visible"
             id="textext-d17a35b8-7">
            <path
               style="stroke:none"
               d="m 4.578125,-3.1875 c 0,-0.796875 -0.046875,-1.59375 -0.390625,-2.328125 -0.453125,-0.96875 -1.28125,-1.125 -1.6875,-1.125 -0.609375,0 -1.328125,0.265625 -1.75,1.1875 -0.3125,0.6875 -0.359375,1.46875 -0.359375,2.265625 0,0.75 0.03125,1.640625 0.453125,2.40625 0.421875,0.796875 1.15625,1 1.640625,1 0.53125,0 1.296875,-0.203125 1.734375,-1.15625 0.3125,-0.6875 0.359375,-1.46875 0.359375,-2.25 z M 2.484375,0 C 2.09375,0 1.5,-0.25 1.328125,-1.203125 1.21875,-1.796875 1.21875,-2.71875 1.21875,-3.3125 c 0,-0.640625 0,-1.296875 0.078125,-1.828125 0.1875,-1.1875 0.9375,-1.28125 1.1875,-1.28125 0.328125,0 0.984375,0.1875 1.171875,1.171875 0.109375,0.5625 0.109375,1.3125 0.109375,1.9375 0,0.75 0,1.421875 -0.109375,2.0625 C 3.5,-0.296875 2.9375,0 2.484375,0 z m 0,0"
               id="path4667" />
          </symbol>
        </g>
      </defs>
      <g
         id="textext-d17a35b8-8">
        <g
           style="fill:#000000;fill-opacity:1"
           id="g4670">
          <use
             height="141.73228"
             width="425.19684"
             xlink:href="#textext-d17a35b8-1"
             x="223.43201"
             y="134.765"
             id="use4672" />
          <use
             height="141.73228"
             width="425.19684"
             xlink:href="#textext-d17a35b8-2"
             x="228.56772"
             y="134.765"
             id="use4674" />
          <use
             height="141.73228"
             width="425.19684"
             xlink:href="#textext-d17a35b8-3"
             x="231.82848"
             y="134.765"
             id="use4676" />
          <use
             height="141.73228"
             width="425.19684"
             xlink:href="#textext-d17a35b8-4"
             x="234.86009"
             y="134.765"
             id="use4678" />
        </g>
        <g
           style="fill:#000000;fill-opacity:1"
           id="g4680">
          <use
             height="141.73228"
             width="425.19684"
             xlink:href="#textext-d17a35b8-6"
             x="239.789"
             y="134.765"
             id="use4682" />
          <use
             height="141.73228"
             width="425.19684"
             xlink:href="#textext-d17a35b8-7"
             x="244.77029"
             y="134.765"
             id="use4684" />
        </g>
      </g>
    </g>
    <g
       id="g5098"
       transform="matrix(0.03931888,-1.4243935,1.4125382,0.07277742,-80.549723,1309.0381)"
       ns0:preamble="/home/sriranga/Desktop/Ganitarnava/figure/package.tex"
       ns0:text="niVLa {\\rm 20}">
      <defs
         id="defs5100">
        <g
           id="g5102">
          <symbol
             id="textext-157afb60-0"
             overflow="visible">
            <path
               id="path5105"
               d=""
               style="stroke:none;" />
          </symbol>
          <symbol
             id="textext-157afb60-1"
             overflow="visible">
            <path
               id="path5108"
               d="M 1.71875 -4.640625 C 2.03125 -4.640625 2.3125 -4.625 2.609375 -4.53125 C 2.984375 -4.390625 3.296875 -4.171875 3.5625 -3.890625 C 4 -3.453125 4.3125 -2.921875 4.359375 -2.296875 C 4.40625 -1.859375 4.359375 -1.359375 4.0625 -1.015625 C 3.8125 -0.75 3.421875 -0.625 3.09375 -0.78125 C 2.984375 -0.84375 2.875 -0.921875 2.796875 -1.03125 C 2.625 -1.21875 2.578125 -1.46875 2.46875 -1.703125 C 2.375 -1.9375 2.234375 -2.15625 2.03125 -2.28125 C 1.953125 -2.328125 1.890625 -2.359375 1.796875 -2.390625 C 1.703125 -2.421875 1.609375 -2.4375 1.5 -2.4375 C 1.375 -2.4375 1.25 -2.40625 1.140625 -2.359375 C 1.015625 -2.296875 0.890625 -2.21875 0.796875 -2.109375 C 0.328125 -1.640625 0.4375 -0.890625 0.71875 -0.359375 C 0.84375 -0.125 1.09375 -0.015625 1.34375 0.03125 C 1.46875 0.046875 1.59375 0.0625 1.71875 0.015625 C 1.796875 -0.03125 1.734375 -0.109375 1.6875 -0.140625 C 1.5625 -0.234375 1.390625 -0.265625 1.265625 -0.328125 C 1.09375 -0.40625 0.9375 -0.515625 0.8125 -0.671875 C 0.75 -0.734375 0.71875 -0.8125 0.703125 -0.890625 C 0.671875 -1.0625 0.75 -1.21875 0.875 -1.328125 C 1.078125 -1.5625 1.359375 -1.6875 1.671875 -1.71875 C 1.75 -1.71875 1.84375 -1.71875 1.9375 -1.6875 C 2.265625 -1.609375 2.46875 -1.296875 2.59375 -1 C 2.65625 -0.875 2.6875 -0.734375 2.75 -0.59375 C 2.796875 -0.515625 2.859375 -0.421875 2.921875 -0.34375 C 3.015625 -0.234375 3.125 -0.140625 3.234375 -0.09375 C 3.53125 0.046875 3.953125 0.015625 4.203125 -0.203125 C 4.359375 -0.328125 4.453125 -0.515625 4.515625 -0.703125 C 4.640625 -1.0625 4.65625 -1.421875 4.65625 -1.78125 C 4.65625 -2.140625 4.640625 -2.515625 4.515625 -2.875 C 4.34375 -3.359375 4.046875 -3.78125 3.6875 -4.140625 C 3.15625 -4.671875 2.46875 -5.109375 1.6875 -5.15625 C 1.359375 -5.171875 0.984375 -5.15625 0.734375 -4.921875 C 0.3125 -4.5 0.53125 -3.734375 1.09375 -3.5625 C 1.25 -3.515625 1.453125 -3.484375 1.59375 -3.5625 C 1.828125 -3.65625 1.890625 -3.953125 1.890625 -4.171875 C 1.890625 -4.25 1.890625 -4.328125 1.859375 -4.390625 C 1.828125 -4.484375 1.78125 -4.5625 1.71875 -4.640625 Z M 0.828125 -4.140625 C 0.78125 -4.359375 1.03125 -4.609375 1.25 -4.609375 C 1.421875 -4.609375 1.578125 -4.421875 1.609375 -4.25 C 1.640625 -4.09375 1.546875 -3.953125 1.390625 -3.90625 C 1.203125 -3.828125 0.875 -3.90625 0.828125 -4.140625 Z M 0.828125 -4.140625 "
               style="stroke:none;" />
          </symbol>
          <symbol
             id="textext-157afb60-2"
             overflow="visible">
            <path
               id="path5111"
               d="M 2.609375 -0.015625 L 2.609375 -0.015625 C 2.40625 -0.140625 2.21875 -0.296875 2.03125 -0.421875 C 1.453125 -0.84375 0.859375 -1.328125 0.6875 -2.046875 C 0.671875 -2.15625 0.640625 -2.265625 0.640625 -2.375 C 0.640625 -2.515625 0.671875 -2.65625 0.703125 -2.796875 C 0.734375 -2.953125 0.796875 -3.109375 0.890625 -3.25 C 1 -3.4375 1.171875 -3.609375 1.34375 -3.734375 C 1.109375 -3.3125 1.140625 -2.65625 1.609375 -2.40625 C 1.671875 -2.375 1.734375 -2.359375 1.796875 -2.34375 C 1.890625 -2.328125 2 -2.328125 2.078125 -2.359375 C 2.15625 -2.359375 2.25 -2.40625 2.328125 -2.4375 C 2.84375 -2.734375 2.890625 -3.46875 2.625 -3.953125 C 2.546875 -4.09375 2.46875 -4.203125 2.34375 -4.28125 C 2.1875 -4.390625 2.015625 -4.421875 1.828125 -4.421875 C 1.6875 -4.421875 1.546875 -4.375 1.421875 -4.3125 C 1 -4.125 0.75 -3.734375 0.609375 -3.3125 C 0.5 -2.953125 0.46875 -2.59375 0.484375 -2.21875 C 0.5 -1.96875 0.53125 -1.71875 0.625 -1.484375 C 0.703125 -1.21875 0.84375 -0.953125 1 -0.734375 C 1.109375 -0.53125 1.25 -0.375 1.421875 -0.203125 C 1.46875 -0.15625 1.53125 -0.078125 1.59375 -0.046875 C 1.671875 0.015625 1.8125 -0.015625 1.90625 -0.015625 C 2.140625 -0.015625 2.375 -0.015625 2.609375 -0.015625 Z M 1.4375 -3.296875 C 1.421875 -3.34375 1.421875 -3.40625 1.4375 -3.453125 C 1.53125 -3.828125 2 -3.9375 2.3125 -3.78125 C 2.453125 -3.703125 2.578125 -3.59375 2.59375 -3.421875 C 2.59375 -3.375 2.59375 -3.328125 2.578125 -3.28125 C 2.546875 -3.015625 2.25 -2.90625 2.015625 -2.890625 C 1.796875 -2.875 1.578125 -2.9375 1.46875 -3.125 C 1.453125 -3.1875 1.4375 -3.234375 1.4375 -3.296875 Z M 1.4375 -3.296875 "
               style="stroke:none;" />
          </symbol>
          <symbol
             id="textext-157afb60-3"
             overflow="visible">
            <path
               id="path5114"
               d="M 2.15625 -1.5 C 2.046875 -1.390625 1.921875 -1.25 1.890625 -1.09375 C 1.859375 -0.953125 1.859375 -0.78125 1.890625 -0.640625 C 1.90625 -0.53125 1.9375 -0.421875 2 -0.328125 C 2.078125 -0.203125 2.1875 -0.09375 2.328125 -0.046875 C 2.453125 0 2.578125 0 2.703125 -0.015625 C 2.921875 -0.046875 3.125 -0.109375 3.296875 -0.265625 C 3.484375 -0.46875 3.5625 -0.78125 3.5 -1.046875 C 3.453125 -1.234375 3.359375 -1.390625 3.25 -1.5625 C 3.71875 -1.640625 4.25 -1.796875 4.5 -2.25 C 4.609375 -2.46875 4.65625 -2.734375 4.578125 -2.984375 C 4.53125 -3.15625 4.40625 -3.3125 4.28125 -3.4375 C 4.125 -3.578125 3.953125 -3.6875 3.734375 -3.6875 L 3.734375 -3.59375 C 3.828125 -3.5625 3.921875 -3.5 4 -3.421875 C 4.0625 -3.359375 4.109375 -3.296875 4.140625 -3.21875 C 4.390625 -2.734375 4.125 -2.125 3.65625 -1.90625 C 3.515625 -1.84375 3.359375 -1.796875 3.203125 -1.78125 C 3.15625 -1.78125 3.078125 -1.75 3.015625 -1.765625 C 2.953125 -1.78125 2.875 -1.859375 2.8125 -1.890625 C 2.6875 -1.953125 2.5625 -2 2.4375 -2.03125 C 2.25 -2.078125 2.0625 -2.0625 1.890625 -2.09375 C 1.796875 -2.109375 1.703125 -2.109375 1.625 -2.140625 C 1.234375 -2.25 0.75 -2.46875 0.671875 -2.90625 C 0.65625 -2.96875 0.65625 -3.03125 0.65625 -3.09375 C 0.671875 -3.21875 0.6875 -3.34375 0.734375 -3.453125 C 0.78125 -3.59375 0.890625 -3.734375 1 -3.84375 C 0.90625 -3.515625 0.921875 -3.046875 1.28125 -2.859375 C 1.328125 -2.828125 1.375 -2.8125 1.4375 -2.796875 C 1.515625 -2.796875 1.578125 -2.796875 1.671875 -2.796875 C 1.75 -2.8125 1.828125 -2.828125 1.90625 -2.875 C 2.15625 -2.984375 2.234375 -3.28125 2.234375 -3.53125 C 2.234375 -3.765625 2.15625 -3.96875 2.03125 -4.15625 C 1.953125 -4.25 1.859375 -4.34375 1.75 -4.390625 C 1.578125 -4.453125 1.359375 -4.4375 1.203125 -4.375 C 0.890625 -4.25 0.6875 -3.96875 0.578125 -3.65625 C 0.53125 -3.515625 0.5 -3.359375 0.484375 -3.203125 C 0.453125 -2.71875 0.546875 -2.21875 0.875 -1.859375 C 1.03125 -1.703125 1.21875 -1.59375 1.453125 -1.5625 C 1.53125 -1.53125 1.625 -1.53125 1.71875 -1.53125 C 1.859375 -1.53125 2.015625 -1.5 2.15625 -1.5 Z M 2.796875 -4.234375 L 2.796875 -3.59375 L 3.34375 -3.59375 L 3.34375 -4.234375 L 2.796875 -4.234375 Z M 2.046875 -3.53125 C 1.984375 -3.296875 1.71875 -3.125 1.46875 -3.15625 C 1.296875 -3.1875 1.078125 -3.34375 1.125 -3.5625 C 1.15625 -3.734375 1.328125 -3.90625 1.5 -3.953125 C 1.546875 -3.953125 1.59375 -3.953125 1.640625 -3.953125 C 1.859375 -3.9375 2.109375 -3.78125 2.046875 -3.53125 Z M 2.15625 -0.96875 C 2.109375 -1.359375 2.546875 -1.625 2.90625 -1.515625 C 3.09375 -1.453125 3.234375 -1.25 3.25 -1.046875 C 3.25 -1 3.25 -0.9375 3.234375 -0.890625 C 3.203125 -0.8125 3.15625 -0.75 3.09375 -0.71875 C 2.96875 -0.625 2.828125 -0.578125 2.671875 -0.5625 C 2.5625 -0.5625 2.453125 -0.5625 2.359375 -0.609375 C 2.21875 -0.6875 2.171875 -0.828125 2.15625 -0.96875 Z M 2.15625 -0.96875 "
               style="stroke:none;" />
          </symbol>
          <symbol
             id="textext-157afb60-4"
             overflow="visible">
            <path
               id="path5117"
               d="M 1 -5.875 C 1.09375 -5.796875 1.171875 -5.71875 1.21875 -5.625 C 1.40625 -5.390625 1.5625 -5 1.421875 -4.703125 C 1.359375 -4.609375 1.28125 -4.53125 1.1875 -4.453125 C 1.109375 -4.375 1.03125 -4.3125 0.921875 -4.28125 C 0.8125 -4.234375 0.671875 -4.234375 0.5625 -4.234375 L 0 -4.234375 L 0 -3.59375 L 0.484375 -3.59375 C 0.625 -3.59375 0.75 -3.59375 0.890625 -3.625 C 1.140625 -3.671875 1.390625 -3.78125 1.5625 -3.96875 C 1.796875 -4.203125 1.9375 -4.5625 1.890625 -4.890625 C 1.859375 -5.0625 1.796875 -5.234375 1.703125 -5.390625 C 1.625 -5.515625 1.5 -5.671875 1.359375 -5.765625 C 1.265625 -5.828125 1.125 -5.859375 1 -5.875 Z M 1 -5.875 "
               style="stroke:none;" />
          </symbol>
          <symbol
             id="textext-157afb60-5"
             overflow="visible">
            <path
               id="path5120"
               d=""
               style="stroke:none;" />
          </symbol>
          <symbol
             id="textext-157afb60-6"
             overflow="visible">
            <path
               id="path5123"
               d="M 1.265625 -0.765625 L 2.328125 -1.796875 C 3.875 -3.171875 4.46875 -3.703125 4.46875 -4.703125 C 4.46875 -5.84375 3.578125 -6.640625 2.359375 -6.640625 C 1.234375 -6.640625 0.5 -5.71875 0.5 -4.828125 C 0.5 -4.28125 1 -4.28125 1.03125 -4.28125 C 1.203125 -4.28125 1.546875 -4.390625 1.546875 -4.8125 C 1.546875 -5.0625 1.359375 -5.328125 1.015625 -5.328125 C 0.9375 -5.328125 0.921875 -5.328125 0.890625 -5.3125 C 1.109375 -5.96875 1.65625 -6.328125 2.234375 -6.328125 C 3.140625 -6.328125 3.5625 -5.515625 3.5625 -4.703125 C 3.5625 -3.90625 3.078125 -3.125 2.515625 -2.5 L 0.609375 -0.375 C 0.5 -0.265625 0.5 -0.234375 0.5 0 L 4.203125 0 L 4.46875 -1.734375 L 4.234375 -1.734375 C 4.171875 -1.4375 4.109375 -1 4 -0.84375 C 3.9375 -0.765625 3.28125 -0.765625 3.0625 -0.765625 L 1.265625 -0.765625 Z M 1.265625 -0.765625 "
               style="stroke:none;" />
          </symbol>
          <symbol
             id="textext-157afb60-7"
             overflow="visible">
            <path
               id="path5126"
               d="M 4.578125 -3.1875 C 4.578125 -3.984375 4.53125 -4.78125 4.1875 -5.515625 C 3.734375 -6.484375 2.90625 -6.640625 2.5 -6.640625 C 1.890625 -6.640625 1.171875 -6.375 0.75 -5.453125 C 0.4375 -4.765625 0.390625 -3.984375 0.390625 -3.1875 C 0.390625 -2.4375 0.421875 -1.546875 0.84375 -0.78125 C 1.265625 0.015625 2 0.21875 2.484375 0.21875 C 3.015625 0.21875 3.78125 0.015625 4.21875 -0.9375 C 4.53125 -1.625 4.578125 -2.40625 4.578125 -3.1875 Z M 2.484375 0 C 2.09375 0 1.5 -0.25 1.328125 -1.203125 C 1.21875 -1.796875 1.21875 -2.71875 1.21875 -3.3125 C 1.21875 -3.953125 1.21875 -4.609375 1.296875 -5.140625 C 1.484375 -6.328125 2.234375 -6.421875 2.484375 -6.421875 C 2.8125 -6.421875 3.46875 -6.234375 3.65625 -5.25 C 3.765625 -4.6875 3.765625 -3.9375 3.765625 -3.3125 C 3.765625 -2.5625 3.765625 -1.890625 3.65625 -1.25 C 3.5 -0.296875 2.9375 0 2.484375 0 Z M 2.484375 0 "
               style="stroke:none;" />
          </symbol>
        </g>
      </defs>
      <g
         id="textext-157afb60-8">
        <g
           id="g5129"
           style="fill:rgb(0%,0%,0%);fill-opacity:1;">
          <use
             id="use5131"
             y="134.765"
             x="223.432"
             xlink:href="#textext-157afb60-1" />
          <use
             id="use5133"
             y="134.765"
             x="228.56772"
             xlink:href="#textext-157afb60-2" />
          <use
             id="use5135"
             y="134.765"
             x="231.828479"
             xlink:href="#textext-157afb60-3" />
          <use
             id="use5137"
             y="134.765"
             x="234.860098"
             xlink:href="#textext-157afb60-4" />
        </g>
        <g
           id="g5139"
           style="fill:rgb(0%,0%,0%);fill-opacity:1;">
          <use
             id="use5141"
             y="134.765"
             x="239.789"
             xlink:href="#textext-157afb60-6" />
          <use
             id="use5143"
             y="134.765"
             x="244.7703"
             xlink:href="#textext-157afb60-7" />
        </g>
      </g>
    </g>
    <text
       sodipodi:linespacing="125%"
       id="text5350"
       y="927.03961"
       x="77.535713"
       style="font-size:15px;font-style:normal;font-variant:normal;font-weight:normal;font-stretch:normal;line-height:125%;letter-spacing:0px;word-spacing:0px;fill:#000000;fill-opacity:1;stroke:none;font-family:LMRoman10;-inkscape-font-specification:LMRoman10"
       xml:space="preserve"><tspan
         y="927.03961"
         x="77.535713"
         id="tspan5352"
         sodipodi:role="line">20</tspan></text>
    <g
       id="g5354"
       ns0:preamble="/home/sriranga/Desktop/Ganitarnava/figure/package.tex"
       ns0:text="pAda"
       transform="matrix(1.7723001,0,0,1.7723001,-352.46758,688.19991)">
      <defs
         id="defs5356">
        <g
           id="g5358">
          <symbol
             id="symbol5360"
             overflow="visible"
             style="overflow:visible">
            <path
               id="path5362"
               d=""
               style="stroke:none" />
          </symbol>
          <symbol
             id="symbol5364"
             overflow="visible"
             style="overflow:visible">
            <path
               id="path5366"
               d="m 0.484375,-4.234375 0,0.640625 4.015625,0 0,-0.640625 -4.015625,0 z M 2.78125,-3.34375 c -0.0625,0.015625 -0.125,0.03125 -0.1875,0.078125 -0.0625,0.03125 -0.125,0.078125 -0.15625,0.140625 -0.171875,0.21875 -0.0625,0.546875 0.140625,0.703125 0.109375,0.0625 0.25,0.09375 0.375,0.078125 0.34375,-0.03125 0.53125,-0.453125 0.359375,-0.75 -0.109375,-0.203125 -0.328125,-0.28125 -0.53125,-0.25 z m 0.1875,1.734375 C 2.875,-1.453125 2.765625,-1.28125 2.625,-1.140625 c -0.328125,0.328125 -0.84375,0.5 -1.3125,0.375 C 1,-0.84375 0.671875,-1 0.625,-1.359375 0.625,-1.40625 0.625,-1.453125 0.640625,-1.5 0.6875,-1.828125 1,-1.984375 1.296875,-1.984375 c 0.171875,0 0.375,0.078125 0.46875,0.234375 0.09375,0.140625 -0.046875,0.328125 -0.15625,0.4375 -0.0625,0.0625 -0.125,0.109375 -0.109375,0.21875 0.171875,0 0.359375,-0.078125 0.484375,-0.21875 0.203125,-0.25 0.15625,-0.703125 -0.109375,-0.890625 -0.140625,-0.09375 -0.328125,-0.125 -0.5,-0.125 -0.09375,0 -0.1875,0 -0.28125,0.03125 -0.25,0.046875 -0.4375,0.21875 -0.53125,0.4375 -0.0625,0.171875 -0.078125,0.34375 -0.078125,0.53125 0,0.390625 0.09375,0.8125 0.4375,1.0625 0.25,0.171875 0.546875,0.21875 0.859375,0.21875 C 2.015625,-0.0625 2.265625,-0.125 2.484375,-0.25 2.734375,-0.421875 2.875,-0.703125 2.953125,-0.984375 2.984375,-0.890625 3,-0.8125 3.046875,-0.75 c 0.078125,0.1875 0.1875,0.34375 0.359375,0.453125 0.109375,0.09375 0.234375,0.140625 0.359375,0.1875 0.453125,0.140625 1.0625,0.046875 1.390625,-0.3125 0.234375,-0.265625 0.25,-0.609375 0.25,-0.9375 C 5.390625,-1.765625 5.375,-2.171875 5.265625,-2.578125 5.21875,-2.734375 5.15625,-2.890625 5.078125,-3.03125 5.046875,-3.09375 5,-3.171875 4.9375,-3.203125 4.84375,-3.28125 4.734375,-3.234375 4.671875,-3.15625 c -0.0625,0.09375 -0.078125,0.21875 -0.0625,0.328125 0.03125,0.0625 0.0625,0.109375 0.109375,0.171875 0.0625,0.078125 0.109375,0.140625 0.15625,0.203125 0.203125,0.28125 0.421875,0.65625 0.34375,1.015625 C 5.171875,-1.234375 5.03125,-1.078125 4.875,-0.96875 4.671875,-0.8125 4.40625,-0.75 4.15625,-0.734375 c -0.21875,0.015625 -0.421875,0 -0.625,-0.109375 -0.1875,-0.125 -0.34375,-0.328125 -0.453125,-0.515625 -0.03125,-0.09375 -0.0625,-0.171875 -0.109375,-0.25 z m 0,0"
               style="stroke:none" />
          </symbol>
          <symbol
             id="symbol5368"
             overflow="visible"
             style="overflow:visible">
            <path
               id="path5370"
               d="m -0.03125,-4.234375 0,0.640625 2.546875,0 0.515625,0 c 0.09375,0 0.1875,-0.015625 0.28125,0 0.25,0.03125 0.5,0.09375 0.703125,0.21875 0.265625,0.15625 0.5,0.375 0.65625,0.640625 0.125,0.25 0.171875,0.53125 0.171875,0.8125 0,0.453125 -0.140625,0.90625 -0.546875,1.140625 -0.203125,0.125 -0.4375,0.171875 -0.671875,0.1875 -0.296875,0.03125 -0.59375,0 -0.84375,-0.15625 C 2.671875,-0.8125 2.578125,-0.890625 2.515625,-1 2.40625,-1.28125 2.5,-1.640625 2.765625,-1.78125 2.75,-1.671875 2.734375,-1.5625 2.75,-1.453125 c 0.015625,0.15625 0.15625,0.296875 0.296875,0.34375 0.078125,0.015625 0.15625,0.015625 0.25,0 C 3.375,-1.125 3.46875,-1.15625 3.53125,-1.21875 c 0.1875,-0.171875 0.171875,-0.5625 0,-0.734375 -0.0625,-0.078125 -0.15625,-0.125 -0.265625,-0.125 C 3.1875,-2.109375 3.09375,-2.09375 3,-2.078125 c -0.078125,0 -0.15625,0.03125 -0.234375,0.046875 -0.40625,0.203125 -0.546875,0.703125 -0.46875,1.109375 0.109375,0.5 0.53125,0.859375 1.046875,0.890625 0.171875,0.015625 0.328125,-0.015625 0.5,-0.03125 C 3.984375,-0.09375 4.109375,-0.15625 4.25,-0.203125 4.34375,-0.265625 4.421875,-0.3125 4.484375,-0.375 4.9375,-0.78125 5.03125,-1.421875 5.03125,-2 c 0,-0.21875 0,-0.421875 -0.0625,-0.625 C 4.9375,-2.828125 4.890625,-3.015625 4.796875,-3.203125 4.6875,-3.40625 4.5625,-3.59375 4.390625,-3.765625 4.109375,-4.015625 3.75,-4.171875 3.375,-4.234375 c -0.25,-0.015625 -0.515625,0 -0.765625,0 l -2.640625,0 z m 0,0"
               style="stroke:none" />
          </symbol>
          <symbol
             id="symbol5372"
             overflow="visible"
             style="overflow:visible">
            <path
               id="path5374"
               d="m 0.484375,-4.234375 0,0.640625 1.4375,0 0,0 C 1.75,-3.53125 1.59375,-3.421875 1.453125,-3.3125 1.25,-3.1875 1.0625,-3.015625 0.921875,-2.828125 c -0.328125,0.421875 -0.484375,0.96875 -0.4375,1.5 0.03125,0.359375 0.15625,0.734375 0.421875,1 0.265625,0.25 0.625,0.328125 0.984375,0.28125 0.15625,-0.015625 0.296875,-0.046875 0.4375,-0.125 C 2.65625,-0.375 2.90625,-0.71875 2.984375,-1.078125 l 0.015625,0 c 0.03125,0.140625 0.109375,0.28125 0.1875,0.40625 C 3.296875,-0.5 3.453125,-0.3125 3.640625,-0.203125 4.0625,0.0625 4.671875,0.03125 5.046875,-0.296875 5.375,-0.578125 5.515625,-0.984375 5.53125,-1.421875 5.546875,-1.640625 5.515625,-1.875 5.46875,-2.09375 5.3125,-2.578125 4.984375,-3.015625 4.578125,-3.296875 4.421875,-3.40625 4.25,-3.53125 4.0625,-3.59375 l 0,0 0.296875,0 0,-0.640625 -3.875,0 z M 3,-1.640625 C 2.9375,-1.546875 2.890625,-1.4375 2.828125,-1.328125 2.6875,-1.109375 2.5,-0.890625 2.25,-0.8125 2.109375,-0.75 1.96875,-0.734375 1.828125,-0.734375 1.703125,-0.734375 1.59375,-0.75 1.484375,-0.78125 1.390625,-0.828125 1.3125,-0.875 1.234375,-0.921875 0.6875,-1.359375 0.78125,-2.234375 1.140625,-2.75 c 0.078125,-0.09375 0.15625,-0.1875 0.25,-0.28125 0.4375,-0.421875 1.015625,-0.578125 1.625,-0.578125 0.34375,0 0.703125,0.046875 1.03125,0.203125 0.625,0.28125 1.109375,0.859375 1.109375,1.578125 0,0.109375 0,0.21875 -0.015625,0.328125 -0.09375,0.296875 -0.3125,0.578125 -0.59375,0.6875 C 4.265625,-0.6875 3.890625,-0.71875 3.625,-0.859375 3.40625,-0.984375 3.234375,-1.203125 3.109375,-1.40625 3.078125,-1.46875 3.03125,-1.5625 3,-1.640625 z m 0,0"
               style="stroke:none" />
          </symbol>
          <symbol
             id="symbol5376"
             overflow="visible"
             style="overflow:visible">
            <path
               id="path5378"
               d="m 1,-5.875 c 0.09375,0.078125 0.171875,0.15625 0.21875,0.25 0.1875,0.234375 0.34375,0.625 0.203125,0.921875 -0.0625,0.09375 -0.140625,0.171875 -0.234375,0.25 C 1.109375,-4.375 1.03125,-4.3125 0.921875,-4.28125 0.8125,-4.234375 0.671875,-4.234375 0.5625,-4.234375 l -0.5625,0 0,0.640625 0.484375,0 c 0.140625,0 0.265625,0 0.40625,-0.03125 0.25,-0.046875 0.5,-0.15625 0.671875,-0.34375 0.234375,-0.234375 0.375,-0.59375 0.328125,-0.921875 -0.03125,-0.171875 -0.09375,-0.34375 -0.1875,-0.5 C 1.625,-5.515625 1.5,-5.671875 1.359375,-5.765625 1.265625,-5.828125 1.125,-5.859375 1,-5.875 z m 0,0"
               style="stroke:none" />
          </symbol>
        </g>
      </defs>
      <g
         id="g5380">
        <g
           id="g5382"
           style="fill:#000000;fill-opacity:1">
          <use
             id="use5384"
             y="134.765"
             x="223.43201"
             xlink:href="#textext-fee97377-1"
             width="425.19684"
             height="141.73228" />
          <use
             id="use5386"
             y="134.765"
             x="227.2417"
             xlink:href="#textext-fee97377-2"
             width="425.19684"
             height="141.73228" />
          <use
             id="use5388"
             y="134.765"
             x="232.756"
             xlink:href="#textext-fee97377-3"
             width="425.19684"
             height="141.73228" />
          <use
             id="use5390"
             y="134.765"
             x="236.62547"
             xlink:href="#textext-fee97377-4"
             width="425.19684"
             height="141.73228" />
        </g>
      </g>
    </g>
  </g>
</svg>
