<?xml version="1.0" encoding="UTF-8" standalone="no"?>
<!-- Created with Inkscape (http://www.inkscape.org/) -->

<svg
   xmlns:ns0="http://www.iki.fi/pav/software/textext/"
   xmlns:dc="http://purl.org/dc/elements/1.1/"
   xmlns:cc="http://creativecommons.org/ns#"
   xmlns:rdf="http://www.w3.org/1999/02/22-rdf-syntax-ns#"
   xmlns:svg="http://www.w3.org/2000/svg"
   xmlns="http://www.w3.org/2000/svg"
   xmlns:xlink="http://www.w3.org/1999/xlink"
   xmlns:sodipodi="http://sodipodi.sourceforge.net/DTD/sodipodi-0.dtd"
   xmlns:inkscape="http://www.inkscape.org/namespaces/inkscape"
   width="212.59842"
   height="177.16534"
   id="svg2"
   version="1.1"
   inkscape:version="0.47 r22583"
   sodipodi:docname="New document 1">
  <sodipodi:namedview
     id="base"
     pagecolor="#ffffff"
     bordercolor="#666666"
     borderopacity="1.0"
     inkscape:pageopacity="0.0"
     inkscape:pageshadow="2"
     inkscape:zoom="2.8"
     inkscape:cx="150.9787"
     inkscape:cy="74.69155"
     inkscape:document-units="px"
     inkscape:current-layer="layer1"
     showgrid="false"
     units="cm"
     inkscape:window-width="1024"
     inkscape:window-height="689"
     inkscape:window-x="0"
     inkscape:window-y="27"
     inkscape:window-maximized="1">
    <inkscape:grid
       type="xygrid"
       id="grid2816"
       empspacing="5"
       visible="true"
       enabled="true"
       snapvisiblegridlinesonly="true" />
  </sodipodi:namedview>
  <defs
     id="defs4">
    <inkscape:perspective
       sodipodi:type="inkscape:persp3d"
       inkscape:vp_x="0 : 526.18109 : 1"
       inkscape:vp_y="0 : 1000 : 0"
       inkscape:vp_z="744.09448 : 526.18109 : 1"
       inkscape:persp3d-origin="372.04724 : 350.78739 : 1"
       id="perspective10" />
  </defs>
  <metadata
     id="metadata7">
    <rdf:RDF>
      <cc:Work
         rdf:about="">
        <dc:format>image/svg+xml</dc:format>
        <dc:type
           rdf:resource="http://purl.org/dc/dcmitype/StillImage" />
        <dc:title></dc:title>
      </cc:Work>
    </rdf:RDF>
  </metadata>
  <g
     inkscape:label="Layer 1"
     inkscape:groupmode="layer"
     id="layer1"
     transform="translate(0,-875.19684)">
    <path
       style="fill:none;stroke:#000000;stroke-width:1.375;stroke-linecap:butt;stroke-linejoin:miter;stroke-opacity:1;stroke-miterlimit:4;stroke-dasharray:none"
       d="M 100,902.36218 29.999999,1009.8622 170,1009.8622 100,902.36218 z"
       id="path2818" />
    <path
       style="fill:none;stroke:#000000;stroke-width:1.375;stroke-linecap:butt;stroke-linejoin:miter;stroke-miterlimit:4;stroke-opacity:1;stroke-dasharray:4.125, 4.125;stroke-dashoffset:0"
       d="m 100.02042,902.60707 0,107.58123"
       id="path2820" />
    <text
       xml:space="preserve"
       style="font-size:12px;font-style:normal;font-variant:normal;font-weight:normal;font-stretch:normal;line-height:125%;letter-spacing:0px;word-spacing:0px;fill:#000000;fill-opacity:1;stroke:none;font-family:LMRoman10;-inkscape-font-specification:LMRoman10"
       x="60"
       y="927.00507"
       id="text3594"
       sodipodi:linespacing="125%"><tspan
         sodipodi:role="line"
         id="tspan3596"
         x="60"
         y="927.00507">13</tspan></text>
    <text
       xml:space="preserve"
       style="font-size:12px;font-style:normal;font-variant:normal;font-weight:normal;font-stretch:normal;line-height:125%;letter-spacing:0px;word-spacing:0px;fill:#000000;fill-opacity:1;stroke:none;font-family:LMRoman10;-inkscape-font-specification:LMRoman10"
       x="125.00001"
       y="925.2193"
       id="text3598"
       sodipodi:linespacing="125%"><tspan
         sodipodi:role="line"
         id="tspan3600"
         x="125.00001"
         y="925.2193">15</tspan></text>
    <text
       xml:space="preserve"
       style="font-size:12px;font-style:normal;font-variant:normal;font-weight:normal;font-stretch:normal;line-height:125%;letter-spacing:0px;word-spacing:0px;fill:#000000;fill-opacity:1;stroke:none;font-family:LMRoman10;-inkscape-font-specification:LMRoman10"
       x="-1004.9514"
       y="113.08115"
       id="text3602"
       sodipodi:linespacing="125%"
       transform="matrix(0,-1,1,0,0,0)"><tspan
         sodipodi:role="line"
         id="tspan3604"
         x="-1004.9514"
         y="113.08115">12</tspan></text>
    <text
       xml:space="preserve"
       style="font-size:12px;font-style:normal;font-variant:normal;font-weight:normal;font-stretch:normal;line-height:125%;letter-spacing:0px;word-spacing:0px;fill:#000000;fill-opacity:1;stroke:none;font-family:LMRoman10;-inkscape-font-specification:LMRoman10"
       x="93.214279"
       y="1023.4336"
       id="text3606"
       sodipodi:linespacing="125%"><tspan
         sodipodi:role="line"
         id="tspan3608"
         x="93.214279"
         y="1023.4336">14</tspan></text>
    <g
       transform="matrix(1.3213555,0,0,1.3213555,-260.63657,849.23134)"
       ns0:text="AbAdhe"
       ns0:preamble="/home/sriranga/Desktop/Ganitarnava/figure/package.tex"
       id="g3627">
      <defs
         id="defs3629">
        <g
           id="g3631">
          <symbol
             style="overflow:visible"
             overflow="visible"
             id="textext-0eaeec94-0">
            <path
               style="stroke:none"
               d=""
               id="path3634" />
          </symbol>
          <symbol
             style="overflow:visible"
             overflow="visible"
             id="textext-0eaeec94-1">
            <path
               style="stroke:none"
               d="m 4.15625,-2.953125 -1.671875,0 0,0.609375 1.1875,0 c 0.21875,0 0.4375,0.015625 0.65625,-0.015625 0.0625,0 0.140625,0 0.21875,0 0.03125,0 0.078125,-0.015625 0.125,0 0.015625,0.015625 0.046875,0.0625 0.078125,0.09375 0.046875,0.0625 0.078125,0.15625 0.109375,0.234375 0.046875,0.09375 0.078125,0.21875 0.078125,0.328125 0,0.09375 -0.03125,0.1875 -0.0625,0.28125 -0.109375,0.21875 -0.28125,0.421875 -0.5,0.53125 -0.3125,0.15625 -0.65625,0.21875 -1,0.25 C 2.59375,-0.59375 1.78125,-0.6875 1.171875,-1.21875 0.96875,-1.421875 0.78125,-1.65625 0.703125,-1.9375 0.65625,-2.125 0.65625,-2.3125 0.671875,-2.515625 0.671875,-2.71875 0.71875,-2.9375 0.78125,-3.109375 0.828125,-2.9375 0.859375,-2.75 0.953125,-2.59375 c 0.03125,0.078125 0.078125,0.125 0.140625,0.171875 0.25,0.171875 0.625,0.046875 0.8125,-0.171875 0.234375,-0.265625 0.25,-0.609375 0.21875,-0.9375 -0.015625,-0.171875 -0.046875,-0.359375 -0.15625,-0.5 C 1.75,-4.3125 1.25,-4.296875 0.984375,-4.09375 0.8125,-3.953125 0.6875,-3.734375 0.625,-3.515625 0.5,-3.203125 0.484375,-2.84375 0.484375,-2.5 c 0,0.203125 0,0.421875 0.03125,0.625 0.046875,0.484375 0.234375,0.953125 0.59375,1.3125 0.21875,0.203125 0.53125,0.34375 0.8125,0.421875 0.40625,0.125 0.84375,0.15625 1.28125,0.125 0.328125,-0.03125 0.671875,-0.078125 1,-0.1875 C 4.40625,-0.296875 4.609375,-0.40625 4.765625,-0.5625 5.03125,-0.84375 5.1875,-1.21875 5.15625,-1.609375 5.140625,-1.8125 5.09375,-2.015625 5,-2.203125 4.96875,-2.28125 4.921875,-2.359375 4.875,-2.4375 c 0.765625,-0.265625 0.765625,-1.578125 0.015625,-1.859375 -0.375,-0.140625 -0.859375,0.09375 -0.9375,0.5 -0.015625,0.078125 -0.015625,0.140625 0,0.21875 0,0.125 0.015625,0.234375 0.046875,0.34375 0.046875,0.109375 0.09375,0.1875 0.15625,0.28125 z m -0.015625,-0.46875 c 0,-0.140625 0.09375,-0.25 0.203125,-0.328125 C 4.546875,-3.890625 4.828125,-3.90625 5.046875,-3.765625 5.15625,-3.703125 5.25,-3.625 5.25,-3.484375 c 0.015625,0.140625 0,0.28125 -0.09375,0.390625 -0.125,0.140625 -0.375,0.140625 -0.5625,0.140625 -0.0625,0 -0.140625,0 -0.203125,-0.03125 C 4.359375,-3 4.328125,-3.046875 4.296875,-3.09375 4.234375,-3.203125 4.140625,-3.296875 4.140625,-3.421875 z m -3.109375,0.1875 C 1,-3.375 1.046875,-3.5625 1.15625,-3.65625 1.21875,-3.71875 1.3125,-3.75 1.390625,-3.765625 c 0.078125,0 0.15625,-0.015625 0.234375,0 0.171875,0.0625 0.28125,0.21875 0.3125,0.390625 0.015625,0.125 0,0.265625 -0.09375,0.359375 -0.234375,0.25 -0.75,0.140625 -0.8125,-0.21875 z m 0,0"
               id="path3637" />
          </symbol>
          <symbol
             style="overflow:visible"
             overflow="visible"
             id="textext-0eaeec94-2">
            <path
               style="stroke:none"
               d="M 1.15625,-2.703125 1.1875,-2.796875 C 1.09375,-2.84375 1,-2.9375 0.953125,-3.03125 0.90625,-3.078125 0.875,-3.140625 0.875,-3.203125 0.796875,-3.453125 0.984375,-3.671875 1.21875,-3.75 1.5,-3.8125 1.796875,-3.734375 1.90625,-3.4375 2.03125,-3.09375 1.828125,-2.765625 1.609375,-2.515625 1.46875,-2.359375 1.296875,-2.21875 1.140625,-2.0625 0.90625,-1.8125 0.734375,-1.5 0.75,-1.140625 c 0,0.25 0.0625,0.53125 0.234375,0.734375 C 1.3125,0.015625 1.96875,0.0625 2.421875,-0.140625 2.8125,-0.3125 3.078125,-0.6875 3.203125,-1.09375 3.234375,-1 3.265625,-0.90625 3.296875,-0.8125 3.375,-0.609375 3.484375,-0.421875 3.65625,-0.265625 3.828125,-0.125 4.0625,-0.0625 4.28125,-0.046875 4.6875,0 5.109375,-0.078125 5.390625,-0.421875 5.578125,-0.671875 5.640625,-1 5.6875,-1.3125 5.703125,-1.5 5.71875,-1.671875 5.71875,-1.859375 c 0,-0.078125 0,-0.171875 0,-0.25 -0.09375,-0.5 -0.390625,-0.9375 -0.78125,-1.25 -0.15625,-0.125 -0.359375,-0.265625 -0.578125,-0.3125 l 0,-0.015625 0.203125,0 0,-0.546875 -1.40625,0 0,0.640625 0.546875,0 c 0.125,0 0.25,-0.015625 0.359375,0 0.125,0.015625 0.25,0.0625 0.359375,0.109375 C 4.6875,-3.34375 4.90625,-3.15625 5.078125,-2.90625 5.203125,-2.734375 5.3125,-2.5625 5.375,-2.359375 5.484375,-2 5.46875,-1.578125 5.296875,-1.25 5.21875,-1.109375 5.125,-0.984375 5,-0.890625 c -0.3125,0.21875 -0.75,0.203125 -1.078125,0.03125 -0.125,-0.0625 -0.25,-0.171875 -0.328125,-0.28125 -0.171875,-0.1875 -0.296875,-0.4375 -0.390625,-0.65625 C 3.125,-1.6875 3.09375,-1.5625 3.015625,-1.453125 c -0.140625,0.25 -0.34375,0.46875 -0.59375,0.609375 -0.375,0.203125 -0.84375,0.140625 -1.140625,-0.1875 C 1.21875,-1.09375 1.1875,-1.171875 1.15625,-1.265625 1.125,-1.34375 1.109375,-1.421875 1.109375,-1.5 c 0,-0.21875 0.109375,-0.40625 0.25,-0.578125 C 1.453125,-2.15625 1.53125,-2.25 1.625,-2.328125 1.796875,-2.5 1.984375,-2.671875 2.125,-2.875 2.203125,-3 2.265625,-3.125 2.296875,-3.265625 2.3125,-3.375 2.296875,-3.5 2.28125,-3.609375 2.25,-3.734375 2.203125,-3.859375 2.140625,-3.96875 2.046875,-4.109375 1.9375,-4.21875 1.796875,-4.296875 1.703125,-4.359375 1.59375,-4.40625 1.484375,-4.421875 1.09375,-4.46875 0.703125,-4.25 0.546875,-3.890625 0.453125,-3.671875 0.453125,-3.421875 0.53125,-3.21875 0.5625,-3.109375 0.625,-3.015625 0.703125,-2.9375 0.828125,-2.8125 1,-2.75 1.15625,-2.703125 z m 0,0"
               id="path3640" />
          </symbol>
          <symbol
             style="overflow:visible"
             overflow="visible"
             id="textext-0eaeec94-3">
            <path
               style="stroke:none"
               d="m -0.03125,-4.234375 0,0.640625 2.546875,0 0.515625,0 c 0.09375,0 0.1875,-0.015625 0.28125,0 0.25,0.03125 0.5,0.09375 0.703125,0.21875 0.265625,0.15625 0.5,0.375 0.65625,0.640625 0.125,0.25 0.171875,0.53125 0.171875,0.8125 0,0.453125 -0.140625,0.90625 -0.546875,1.140625 -0.203125,0.125 -0.4375,0.171875 -0.671875,0.1875 -0.296875,0.03125 -0.59375,0 -0.84375,-0.15625 C 2.671875,-0.8125 2.578125,-0.890625 2.515625,-1 2.40625,-1.28125 2.5,-1.640625 2.765625,-1.78125 2.75,-1.671875 2.734375,-1.5625 2.75,-1.453125 c 0.015625,0.15625 0.15625,0.296875 0.296875,0.34375 0.078125,0.015625 0.15625,0.015625 0.25,0 C 3.375,-1.125 3.46875,-1.15625 3.53125,-1.21875 c 0.1875,-0.171875 0.171875,-0.5625 0,-0.734375 -0.0625,-0.078125 -0.15625,-0.125 -0.265625,-0.125 C 3.1875,-2.109375 3.09375,-2.09375 3,-2.078125 c -0.078125,0 -0.15625,0.03125 -0.234375,0.046875 -0.40625,0.203125 -0.546875,0.703125 -0.46875,1.109375 0.109375,0.5 0.53125,0.859375 1.046875,0.890625 0.171875,0.015625 0.328125,-0.015625 0.5,-0.03125 C 3.984375,-0.09375 4.109375,-0.15625 4.25,-0.203125 4.34375,-0.265625 4.421875,-0.3125 4.484375,-0.375 4.9375,-0.78125 5.03125,-1.421875 5.03125,-2 c 0,-0.21875 0,-0.421875 -0.0625,-0.625 C 4.9375,-2.828125 4.890625,-3.015625 4.796875,-3.203125 4.6875,-3.40625 4.5625,-3.59375 4.390625,-3.765625 4.109375,-4.015625 3.75,-4.171875 3.375,-4.234375 c -0.25,-0.015625 -0.515625,0 -0.765625,0 l -2.640625,0 z m 0,0"
               id="path3643" />
          </symbol>
          <symbol
             style="overflow:visible"
             overflow="visible"
             id="textext-0eaeec94-4">
            <path
               style="stroke:none"
               d="m 0.484375,-4.234375 0,0.640625 1.4375,0 0,0 C 1.75,-3.53125 1.59375,-3.421875 1.453125,-3.3125 1.25,-3.1875 1.0625,-3.015625 0.921875,-2.828125 c -0.328125,0.421875 -0.484375,0.96875 -0.4375,1.5 0.03125,0.359375 0.15625,0.734375 0.421875,1 0.265625,0.25 0.625,0.328125 0.984375,0.28125 0.15625,-0.015625 0.296875,-0.046875 0.4375,-0.125 C 2.65625,-0.375 2.90625,-0.71875 2.984375,-1.078125 l 0.015625,0 c 0.03125,0.140625 0.109375,0.28125 0.1875,0.40625 C 3.296875,-0.5 3.453125,-0.3125 3.640625,-0.203125 4.0625,0.0625 4.671875,0.03125 5.046875,-0.296875 5.375,-0.578125 5.515625,-0.984375 5.53125,-1.421875 5.546875,-1.640625 5.515625,-1.875 5.46875,-2.09375 5.3125,-2.578125 4.984375,-3.015625 4.578125,-3.296875 4.421875,-3.40625 4.25,-3.53125 4.0625,-3.59375 l 0,0 0.296875,0 0,-0.640625 -3.875,0 z M 3,-1.640625 C 2.9375,-1.546875 2.890625,-1.4375 2.828125,-1.328125 2.6875,-1.109375 2.5,-0.890625 2.25,-0.8125 2.109375,-0.75 1.96875,-0.734375 1.828125,-0.734375 1.703125,-0.734375 1.59375,-0.75 1.484375,-0.78125 1.390625,-0.828125 1.3125,-0.875 1.234375,-0.921875 0.6875,-1.359375 0.78125,-2.234375 1.140625,-2.75 c 0.078125,-0.09375 0.15625,-0.1875 0.25,-0.28125 0.4375,-0.421875 1.015625,-0.578125 1.625,-0.578125 0.34375,0 0.703125,0.046875 1.03125,0.203125 0.625,0.28125 1.109375,0.859375 1.109375,1.578125 0,0.109375 0,0.21875 -0.015625,0.328125 -0.09375,0.296875 -0.3125,0.578125 -0.59375,0.6875 C 4.265625,-0.6875 3.890625,-0.71875 3.625,-0.859375 3.40625,-0.984375 3.234375,-1.203125 3.109375,-1.40625 3.078125,-1.46875 3.03125,-1.5625 3,-1.640625 z M 2.953125,-0.3125 C 2.9375,-0.296875 2.921875,-0.25 2.90625,-0.203125 2.875,-0.125 2.84375,-0.015625 2.828125,0.0625 2.765625,0.28125 2.6875,0.484375 2.625,0.6875 2.578125,0.875 2.515625,1.0625 2.578125,1.25 c 0.0625,0.3125 0.46875,0.40625 0.71875,0.21875 0.15625,-0.140625 0.15625,-0.3125 0.125,-0.515625 C 3.375,0.65625 3.28125,0.375 3.1875,0.09375 3.140625,-0.015625 3.109375,-0.15625 3.0625,-0.265625 3.046875,-0.3125 3.015625,-0.359375 2.953125,-0.3125 z m 0,0"
               id="path3646" />
          </symbol>
          <symbol
             style="overflow:visible"
             overflow="visible"
             id="textext-0eaeec94-5">
            <path
               style="stroke:none"
               d="M 0.484375,-4.96875 C 0.421875,-5 0.375,-5.046875 0.34375,-5.09375 0.21875,-5.296875 0.296875,-5.578125 0.5,-5.6875 c 0.203125,-0.140625 0.5,-0.109375 0.71875,0 0.09375,0.03125 0.171875,0.09375 0.25,0.171875 0.171875,0.1875 0.21875,0.484375 0.125,0.71875 C 1.53125,-4.640625 1.390625,-4.5 1.25,-4.40625 0.984375,-4.25 0.703125,-4.234375 0.40625,-4.234375 l -0.578125,0 0,0.640625 0.640625,0 c 0.359375,0 0.765625,-0.015625 1.078125,-0.234375 0.09375,-0.0625 0.1875,-0.15625 0.25,-0.265625 0.25,-0.3125 0.3125,-0.6875 0.234375,-1.0625 -0.046875,-0.234375 -0.140625,-0.453125 -0.296875,-0.609375 -0.21875,-0.21875 -0.515625,-0.3125 -0.8125,-0.3125 -0.109375,-0.015625 -0.1875,-0.015625 -0.28125,0 C 0.28125,-6 0.015625,-5.65625 0.046875,-5.296875 0.0625,-5.0625 0.203125,-4.8125 0.40625,-4.71875 0.5625,-4.640625 0.75,-4.640625 0.90625,-4.6875 0.984375,-4.71875 1.078125,-4.75 1.125,-4.828125 1.28125,-5 1.265625,-5.34375 1.0625,-5.484375 0.984375,-5.53125 0.890625,-5.546875 0.796875,-5.53125 c -0.0625,0 -0.125,0.015625 -0.171875,0.03125 -0.09375,0.0625 -0.15625,0.171875 -0.171875,0.28125 -0.03125,0.078125 0,0.171875 0.03125,0.25 z m 0,0"
               id="path3649" />
          </symbol>
        </g>
      </defs>
      <g
         id="textext-0eaeec94-6">
        <g
           style="fill:#000000;fill-opacity:1"
           id="g3652">
          <use
             height="177.16534"
             width="212.59842"
             xlink:href="#textext-0eaeec94-1"
             x="223.43201"
             y="134.765"
             id="use3654" />
          <use
             height="177.16534"
             width="212.59842"
             xlink:href="#textext-0eaeec94-2"
             x="229.35576"
             y="134.765"
             id="use3656" />
          <use
             height="177.16534"
             width="212.59842"
             xlink:href="#textext-0eaeec94-3"
             x="233.44441"
             y="134.765"
             id="use3658" />
          <use
             height="177.16534"
             width="212.59842"
             xlink:href="#textext-0eaeec94-4"
             x="238.95871"
             y="134.765"
             id="use3660" />
          <use
             height="177.16534"
             width="212.59842"
             xlink:href="#textext-0eaeec94-5"
             x="242.82819"
             y="134.765"
             id="use3662" />
        </g>
      </g>
    </g>
    <g
       id="g3701"
       ns0:preamble="/home/sriranga/Desktop/Ganitarnava/figure/package.tex"
       ns0:text="AbAdhe"
       transform="matrix(1.3213555,0,0,1.3213555,-180.06513,848.8742)">
      <defs
         id="defs3703">
        <g
           id="g3705">
          <symbol
             id="symbol3707"
             overflow="visible"
             style="overflow:visible">
            <path
               id="path3709"
               d=""
               style="stroke:none" />
          </symbol>
          <symbol
             id="symbol3711"
             overflow="visible"
             style="overflow:visible">
            <path
               id="path3713"
               d="m 4.15625,-2.953125 -1.671875,0 0,0.609375 1.1875,0 c 0.21875,0 0.4375,0.015625 0.65625,-0.015625 0.0625,0 0.140625,0 0.21875,0 0.03125,0 0.078125,-0.015625 0.125,0 0.015625,0.015625 0.046875,0.0625 0.078125,0.09375 0.046875,0.0625 0.078125,0.15625 0.109375,0.234375 0.046875,0.09375 0.078125,0.21875 0.078125,0.328125 0,0.09375 -0.03125,0.1875 -0.0625,0.28125 -0.109375,0.21875 -0.28125,0.421875 -0.5,0.53125 -0.3125,0.15625 -0.65625,0.21875 -1,0.25 C 2.59375,-0.59375 1.78125,-0.6875 1.171875,-1.21875 0.96875,-1.421875 0.78125,-1.65625 0.703125,-1.9375 0.65625,-2.125 0.65625,-2.3125 0.671875,-2.515625 0.671875,-2.71875 0.71875,-2.9375 0.78125,-3.109375 0.828125,-2.9375 0.859375,-2.75 0.953125,-2.59375 c 0.03125,0.078125 0.078125,0.125 0.140625,0.171875 0.25,0.171875 0.625,0.046875 0.8125,-0.171875 0.234375,-0.265625 0.25,-0.609375 0.21875,-0.9375 -0.015625,-0.171875 -0.046875,-0.359375 -0.15625,-0.5 C 1.75,-4.3125 1.25,-4.296875 0.984375,-4.09375 0.8125,-3.953125 0.6875,-3.734375 0.625,-3.515625 0.5,-3.203125 0.484375,-2.84375 0.484375,-2.5 c 0,0.203125 0,0.421875 0.03125,0.625 0.046875,0.484375 0.234375,0.953125 0.59375,1.3125 0.21875,0.203125 0.53125,0.34375 0.8125,0.421875 0.40625,0.125 0.84375,0.15625 1.28125,0.125 0.328125,-0.03125 0.671875,-0.078125 1,-0.1875 C 4.40625,-0.296875 4.609375,-0.40625 4.765625,-0.5625 5.03125,-0.84375 5.1875,-1.21875 5.15625,-1.609375 5.140625,-1.8125 5.09375,-2.015625 5,-2.203125 4.96875,-2.28125 4.921875,-2.359375 4.875,-2.4375 c 0.765625,-0.265625 0.765625,-1.578125 0.015625,-1.859375 -0.375,-0.140625 -0.859375,0.09375 -0.9375,0.5 -0.015625,0.078125 -0.015625,0.140625 0,0.21875 0,0.125 0.015625,0.234375 0.046875,0.34375 0.046875,0.109375 0.09375,0.1875 0.15625,0.28125 z m -0.015625,-0.46875 c 0,-0.140625 0.09375,-0.25 0.203125,-0.328125 C 4.546875,-3.890625 4.828125,-3.90625 5.046875,-3.765625 5.15625,-3.703125 5.25,-3.625 5.25,-3.484375 c 0.015625,0.140625 0,0.28125 -0.09375,0.390625 -0.125,0.140625 -0.375,0.140625 -0.5625,0.140625 -0.0625,0 -0.140625,0 -0.203125,-0.03125 C 4.359375,-3 4.328125,-3.046875 4.296875,-3.09375 4.234375,-3.203125 4.140625,-3.296875 4.140625,-3.421875 z m -3.109375,0.1875 C 1,-3.375 1.046875,-3.5625 1.15625,-3.65625 1.21875,-3.71875 1.3125,-3.75 1.390625,-3.765625 c 0.078125,0 0.15625,-0.015625 0.234375,0 0.171875,0.0625 0.28125,0.21875 0.3125,0.390625 0.015625,0.125 0,0.265625 -0.09375,0.359375 -0.234375,0.25 -0.75,0.140625 -0.8125,-0.21875 z m 0,0"
               style="stroke:none" />
          </symbol>
          <symbol
             id="symbol3715"
             overflow="visible"
             style="overflow:visible">
            <path
               id="path3717"
               d="M 1.15625,-2.703125 1.1875,-2.796875 C 1.09375,-2.84375 1,-2.9375 0.953125,-3.03125 0.90625,-3.078125 0.875,-3.140625 0.875,-3.203125 0.796875,-3.453125 0.984375,-3.671875 1.21875,-3.75 1.5,-3.8125 1.796875,-3.734375 1.90625,-3.4375 2.03125,-3.09375 1.828125,-2.765625 1.609375,-2.515625 1.46875,-2.359375 1.296875,-2.21875 1.140625,-2.0625 0.90625,-1.8125 0.734375,-1.5 0.75,-1.140625 c 0,0.25 0.0625,0.53125 0.234375,0.734375 C 1.3125,0.015625 1.96875,0.0625 2.421875,-0.140625 2.8125,-0.3125 3.078125,-0.6875 3.203125,-1.09375 3.234375,-1 3.265625,-0.90625 3.296875,-0.8125 3.375,-0.609375 3.484375,-0.421875 3.65625,-0.265625 3.828125,-0.125 4.0625,-0.0625 4.28125,-0.046875 4.6875,0 5.109375,-0.078125 5.390625,-0.421875 5.578125,-0.671875 5.640625,-1 5.6875,-1.3125 5.703125,-1.5 5.71875,-1.671875 5.71875,-1.859375 c 0,-0.078125 0,-0.171875 0,-0.25 -0.09375,-0.5 -0.390625,-0.9375 -0.78125,-1.25 -0.15625,-0.125 -0.359375,-0.265625 -0.578125,-0.3125 l 0,-0.015625 0.203125,0 0,-0.546875 -1.40625,0 0,0.640625 0.546875,0 c 0.125,0 0.25,-0.015625 0.359375,0 0.125,0.015625 0.25,0.0625 0.359375,0.109375 C 4.6875,-3.34375 4.90625,-3.15625 5.078125,-2.90625 5.203125,-2.734375 5.3125,-2.5625 5.375,-2.359375 5.484375,-2 5.46875,-1.578125 5.296875,-1.25 5.21875,-1.109375 5.125,-0.984375 5,-0.890625 c -0.3125,0.21875 -0.75,0.203125 -1.078125,0.03125 -0.125,-0.0625 -0.25,-0.171875 -0.328125,-0.28125 -0.171875,-0.1875 -0.296875,-0.4375 -0.390625,-0.65625 C 3.125,-1.6875 3.09375,-1.5625 3.015625,-1.453125 c -0.140625,0.25 -0.34375,0.46875 -0.59375,0.609375 -0.375,0.203125 -0.84375,0.140625 -1.140625,-0.1875 C 1.21875,-1.09375 1.1875,-1.171875 1.15625,-1.265625 1.125,-1.34375 1.109375,-1.421875 1.109375,-1.5 c 0,-0.21875 0.109375,-0.40625 0.25,-0.578125 C 1.453125,-2.15625 1.53125,-2.25 1.625,-2.328125 1.796875,-2.5 1.984375,-2.671875 2.125,-2.875 2.203125,-3 2.265625,-3.125 2.296875,-3.265625 2.3125,-3.375 2.296875,-3.5 2.28125,-3.609375 2.25,-3.734375 2.203125,-3.859375 2.140625,-3.96875 2.046875,-4.109375 1.9375,-4.21875 1.796875,-4.296875 1.703125,-4.359375 1.59375,-4.40625 1.484375,-4.421875 1.09375,-4.46875 0.703125,-4.25 0.546875,-3.890625 0.453125,-3.671875 0.453125,-3.421875 0.53125,-3.21875 0.5625,-3.109375 0.625,-3.015625 0.703125,-2.9375 0.828125,-2.8125 1,-2.75 1.15625,-2.703125 z m 0,0"
               style="stroke:none" />
          </symbol>
          <symbol
             id="symbol3719"
             overflow="visible"
             style="overflow:visible">
            <path
               id="path3721"
               d="m -0.03125,-4.234375 0,0.640625 2.546875,0 0.515625,0 c 0.09375,0 0.1875,-0.015625 0.28125,0 0.25,0.03125 0.5,0.09375 0.703125,0.21875 0.265625,0.15625 0.5,0.375 0.65625,0.640625 0.125,0.25 0.171875,0.53125 0.171875,0.8125 0,0.453125 -0.140625,0.90625 -0.546875,1.140625 -0.203125,0.125 -0.4375,0.171875 -0.671875,0.1875 -0.296875,0.03125 -0.59375,0 -0.84375,-0.15625 C 2.671875,-0.8125 2.578125,-0.890625 2.515625,-1 2.40625,-1.28125 2.5,-1.640625 2.765625,-1.78125 2.75,-1.671875 2.734375,-1.5625 2.75,-1.453125 c 0.015625,0.15625 0.15625,0.296875 0.296875,0.34375 0.078125,0.015625 0.15625,0.015625 0.25,0 C 3.375,-1.125 3.46875,-1.15625 3.53125,-1.21875 c 0.1875,-0.171875 0.171875,-0.5625 0,-0.734375 -0.0625,-0.078125 -0.15625,-0.125 -0.265625,-0.125 C 3.1875,-2.109375 3.09375,-2.09375 3,-2.078125 c -0.078125,0 -0.15625,0.03125 -0.234375,0.046875 -0.40625,0.203125 -0.546875,0.703125 -0.46875,1.109375 0.109375,0.5 0.53125,0.859375 1.046875,0.890625 0.171875,0.015625 0.328125,-0.015625 0.5,-0.03125 C 3.984375,-0.09375 4.109375,-0.15625 4.25,-0.203125 4.34375,-0.265625 4.421875,-0.3125 4.484375,-0.375 4.9375,-0.78125 5.03125,-1.421875 5.03125,-2 c 0,-0.21875 0,-0.421875 -0.0625,-0.625 C 4.9375,-2.828125 4.890625,-3.015625 4.796875,-3.203125 4.6875,-3.40625 4.5625,-3.59375 4.390625,-3.765625 4.109375,-4.015625 3.75,-4.171875 3.375,-4.234375 c -0.25,-0.015625 -0.515625,0 -0.765625,0 l -2.640625,0 z m 0,0"
               style="stroke:none" />
          </symbol>
          <symbol
             id="symbol3723"
             overflow="visible"
             style="overflow:visible">
            <path
               id="path3725"
               d="m 0.484375,-4.234375 0,0.640625 1.4375,0 0,0 C 1.75,-3.53125 1.59375,-3.421875 1.453125,-3.3125 1.25,-3.1875 1.0625,-3.015625 0.921875,-2.828125 c -0.328125,0.421875 -0.484375,0.96875 -0.4375,1.5 0.03125,0.359375 0.15625,0.734375 0.421875,1 0.265625,0.25 0.625,0.328125 0.984375,0.28125 0.15625,-0.015625 0.296875,-0.046875 0.4375,-0.125 C 2.65625,-0.375 2.90625,-0.71875 2.984375,-1.078125 l 0.015625,0 c 0.03125,0.140625 0.109375,0.28125 0.1875,0.40625 C 3.296875,-0.5 3.453125,-0.3125 3.640625,-0.203125 4.0625,0.0625 4.671875,0.03125 5.046875,-0.296875 5.375,-0.578125 5.515625,-0.984375 5.53125,-1.421875 5.546875,-1.640625 5.515625,-1.875 5.46875,-2.09375 5.3125,-2.578125 4.984375,-3.015625 4.578125,-3.296875 4.421875,-3.40625 4.25,-3.53125 4.0625,-3.59375 l 0,0 0.296875,0 0,-0.640625 -3.875,0 z M 3,-1.640625 C 2.9375,-1.546875 2.890625,-1.4375 2.828125,-1.328125 2.6875,-1.109375 2.5,-0.890625 2.25,-0.8125 2.109375,-0.75 1.96875,-0.734375 1.828125,-0.734375 1.703125,-0.734375 1.59375,-0.75 1.484375,-0.78125 1.390625,-0.828125 1.3125,-0.875 1.234375,-0.921875 0.6875,-1.359375 0.78125,-2.234375 1.140625,-2.75 c 0.078125,-0.09375 0.15625,-0.1875 0.25,-0.28125 0.4375,-0.421875 1.015625,-0.578125 1.625,-0.578125 0.34375,0 0.703125,0.046875 1.03125,0.203125 0.625,0.28125 1.109375,0.859375 1.109375,1.578125 0,0.109375 0,0.21875 -0.015625,0.328125 -0.09375,0.296875 -0.3125,0.578125 -0.59375,0.6875 C 4.265625,-0.6875 3.890625,-0.71875 3.625,-0.859375 3.40625,-0.984375 3.234375,-1.203125 3.109375,-1.40625 3.078125,-1.46875 3.03125,-1.5625 3,-1.640625 z M 2.953125,-0.3125 C 2.9375,-0.296875 2.921875,-0.25 2.90625,-0.203125 2.875,-0.125 2.84375,-0.015625 2.828125,0.0625 2.765625,0.28125 2.6875,0.484375 2.625,0.6875 2.578125,0.875 2.515625,1.0625 2.578125,1.25 c 0.0625,0.3125 0.46875,0.40625 0.71875,0.21875 0.15625,-0.140625 0.15625,-0.3125 0.125,-0.515625 C 3.375,0.65625 3.28125,0.375 3.1875,0.09375 3.140625,-0.015625 3.109375,-0.15625 3.0625,-0.265625 3.046875,-0.3125 3.015625,-0.359375 2.953125,-0.3125 z m 0,0"
               style="stroke:none" />
          </symbol>
          <symbol
             id="symbol3727"
             overflow="visible"
             style="overflow:visible">
            <path
               id="path3729"
               d="M 0.484375,-4.96875 C 0.421875,-5 0.375,-5.046875 0.34375,-5.09375 0.21875,-5.296875 0.296875,-5.578125 0.5,-5.6875 c 0.203125,-0.140625 0.5,-0.109375 0.71875,0 0.09375,0.03125 0.171875,0.09375 0.25,0.171875 0.171875,0.1875 0.21875,0.484375 0.125,0.71875 C 1.53125,-4.640625 1.390625,-4.5 1.25,-4.40625 0.984375,-4.25 0.703125,-4.234375 0.40625,-4.234375 l -0.578125,0 0,0.640625 0.640625,0 c 0.359375,0 0.765625,-0.015625 1.078125,-0.234375 0.09375,-0.0625 0.1875,-0.15625 0.25,-0.265625 0.25,-0.3125 0.3125,-0.6875 0.234375,-1.0625 -0.046875,-0.234375 -0.140625,-0.453125 -0.296875,-0.609375 -0.21875,-0.21875 -0.515625,-0.3125 -0.8125,-0.3125 -0.109375,-0.015625 -0.1875,-0.015625 -0.28125,0 C 0.28125,-6 0.015625,-5.65625 0.046875,-5.296875 0.0625,-5.0625 0.203125,-4.8125 0.40625,-4.71875 0.5625,-4.640625 0.75,-4.640625 0.90625,-4.6875 0.984375,-4.71875 1.078125,-4.75 1.125,-4.828125 1.28125,-5 1.265625,-5.34375 1.0625,-5.484375 0.984375,-5.53125 0.890625,-5.546875 0.796875,-5.53125 c -0.0625,0 -0.125,0.015625 -0.171875,0.03125 -0.09375,0.0625 -0.15625,0.171875 -0.171875,0.28125 -0.03125,0.078125 0,0.171875 0.03125,0.25 z m 0,0"
               style="stroke:none" />
          </symbol>
        </g>
      </defs>
      <g
         id="g3731">
        <g
           id="g3733"
           style="fill:#000000;fill-opacity:1">
          <use
             id="use3735"
             y="134.765"
             x="223.43201"
             xlink:href="#textext-0eaeec94-1"
             width="212.59842"
             height="177.16534" />
          <use
             id="use3737"
             y="134.765"
             x="229.35576"
             xlink:href="#textext-0eaeec94-2"
             width="212.59842"
             height="177.16534" />
          <use
             id="use3739"
             y="134.765"
             x="233.44441"
             xlink:href="#textext-0eaeec94-3"
             width="212.59842"
             height="177.16534" />
          <use
             id="use3741"
             y="134.765"
             x="238.95871"
             xlink:href="#textext-0eaeec94-4"
             width="212.59842"
             height="177.16534" />
          <use
             id="use3743"
             y="134.765"
             x="242.82819"
             xlink:href="#textext-0eaeec94-5"
             width="212.59842"
             height="177.16534" />
        </g>
      </g>
    </g>
    <text
       sodipodi:linespacing="125%"
       id="text3745"
       y="1027.9336"
       x="68.214287"
       style="font-size:12px;font-style:normal;font-variant:normal;font-weight:normal;font-stretch:normal;line-height:125%;letter-spacing:0px;word-spacing:0px;fill:#000000;fill-opacity:1;stroke:none;font-family:LMRoman10;-inkscape-font-specification:LMRoman10"
       xml:space="preserve"><tspan
         y="1027.9336"
         x="68.214287"
         id="tspan3747"
         sodipodi:role="line">5</tspan></text>
    <text
       sodipodi:linespacing="125%"
       id="text3749"
       y="1027.5764"
       x="148.57143"
       style="font-size:12px;font-style:normal;font-variant:normal;font-weight:normal;font-stretch:normal;line-height:125%;letter-spacing:0px;word-spacing:0px;fill:#000000;fill-opacity:1;stroke:none;font-family:LMRoman10;-inkscape-font-specification:LMRoman10"
       xml:space="preserve"><tspan
         y="1027.5764"
         x="148.57143"
         id="tspan3751"
         sodipodi:role="line">9</tspan></text>
    <g
       id="g3862"
       transform="matrix(0,-1.5036645,1.5036645,0,-111.16461,1334.0727)"
       ns0:preamble="/home/sriranga/Desktop/Ganitarnava/figure/package.tex"
       ns0:text="laMba">
      <defs
         id="defs3864">
        <g
           id="g3866">
          <symbol
             id="textext-c7d07252-0"
             overflow="visible"
             style="overflow:visible">
            <path
               id="path3869"
               d=""
               style="stroke:none" />
          </symbol>
          <symbol
             id="textext-c7d07252-1"
             overflow="visible"
             style="overflow:visible">
            <path
               id="path3872"
               d="m 1.640625,-3.71875 c -0.25,0.375 -0.28125,0.9375 0.046875,1.28125 0.109375,0.109375 0.25,0.1875 0.40625,0.1875 0.4375,-0.015625 0.703125,-0.453125 0.75,-0.84375 0.0625,-0.484375 -0.125,-1.109375 -0.65625,-1.21875 -0.140625,-0.03125 -0.296875,-0.03125 -0.421875,0 -0.375,0.0625 -0.65625,0.328125 -0.859375,0.640625 C 0.640625,-3.3125 0.515625,-2.875 0.484375,-2.421875 0.453125,-2.078125 0.5,-1.75 0.625,-1.421875 0.90625,-0.75 1.5625,-0.28125 2.265625,-0.09375 2.578125,-0.015625 2.90625,0 3.234375,-0.015625 3.546875,-0.046875 3.875,-0.09375 4.15625,-0.234375 c 0.1875,-0.078125 0.359375,-0.1875 0.515625,-0.3125 0.359375,-0.3125 0.609375,-0.734375 0.71875,-1.1875 C 5.4375,-1.96875 5.4375,-2.1875 5.4375,-2.40625 c 0,-0.25 -0.03125,-0.515625 -0.09375,-0.75 -0.109375,-0.390625 -0.328125,-0.734375 -0.625,-1 C 4.578125,-4.265625 4.453125,-4.390625 4.25,-4.375 4.109375,-4.359375 3.984375,-4.234375 3.984375,-4.078125 3.984375,-4 4.03125,-3.921875 4.09375,-3.875 c 0.140625,0.140625 0.328125,0.203125 0.484375,0.3125 0.28125,0.1875 0.515625,0.484375 0.609375,0.8125 0.109375,0.328125 0.09375,0.703125 -0.078125,1 -0.140625,0.25 -0.34375,0.4375 -0.578125,0.609375 -0.421875,0.28125 -0.921875,0.46875 -1.4375,0.5 -0.25,0 -0.5,-0.03125 -0.734375,-0.0625 C 1.796875,-0.8125 1.203125,-1.09375 0.875,-1.578125 0.75,-1.78125 0.640625,-2.046875 0.65625,-2.265625 0.671875,-2.453125 0.71875,-2.625 0.78125,-2.78125 0.875,-2.953125 0.984375,-3.125 1.109375,-3.28125 1.25,-3.453125 1.4375,-3.609375 1.640625,-3.71875 z M 2.65625,-3.1875 c -0.0625,0.46875 -0.859375,0.5625 -0.96875,0.0625 -0.015625,-0.046875 -0.015625,-0.109375 0,-0.15625 0.015625,-0.1875 0.125,-0.375 0.3125,-0.453125 0.25,-0.109375 0.578125,0 0.65625,0.28125 0.015625,0.09375 0.03125,0.1875 0,0.265625 z m 0,0"
               style="stroke:none" />
          </symbol>
          <symbol
             id="textext-c7d07252-2"
             overflow="visible"
             style="overflow:visible">
            <path
               id="path3875"
               d="M 1.890625,-3.953125 C 1.71875,-3.921875 1.5625,-3.890625 1.40625,-3.8125 1.0625,-3.65625 0.828125,-3.359375 0.671875,-3.015625 0.5625,-2.75 0.515625,-2.46875 0.484375,-2.15625 0.453125,-1.765625 0.515625,-1.375 0.671875,-1 c 0.140625,0.328125 0.375,0.625 0.6875,0.8125 0.25,0.140625 0.5625,0.203125 0.859375,0.171875 C 2.375,-0.03125 2.515625,-0.0625 2.671875,-0.125 2.796875,-0.171875 2.90625,-0.234375 3,-0.3125 3.671875,-0.859375 3.8125,-1.796875 3.640625,-2.609375 3.515625,-3.125 3.234375,-3.59375 2.734375,-3.8125 2.640625,-3.875 2.546875,-3.890625 2.4375,-3.921875 2.265625,-3.953125 2.078125,-3.953125 1.890625,-3.953125 z m -1.234375,2.03125 c -0.015625,-0.125 0,-0.234375 0.03125,-0.359375 C 0.75,-2.625 1,-2.875 1.296875,-3.046875 2,-3.421875 3.046875,-3.234375 3.40625,-2.5 c 0.046875,0.125 0.078125,0.234375 0.109375,0.359375 0,0.140625 0,0.296875 -0.03125,0.4375 C 3.4375,-1.5625 3.375,-1.421875 3.296875,-1.3125 2.984375,-0.859375 2.4375,-0.671875 1.90625,-0.734375 1.671875,-0.75 1.4375,-0.8125 1.234375,-0.953125 1.0625,-1.0625 0.921875,-1.21875 0.828125,-1.390625 0.734375,-1.5625 0.671875,-1.734375 0.65625,-1.921875 z m 0,0"
               style="stroke:none" />
          </symbol>
          <symbol
             id="textext-c7d07252-3"
             overflow="visible"
             style="overflow:visible">
            <path
               id="path3878"
               d="m 1.15625,-2.703125 0.046875,-0.09375 c -0.09375,-0.046875 -0.171875,-0.125 -0.25,-0.21875 C 0.921875,-3.0625 0.890625,-3.125 0.875,-3.1875 0.78125,-3.453125 1,-3.6875 1.25,-3.75 c 0.28125,-0.0625 0.546875,0.046875 0.65625,0.3125 0.125,0.328125 -0.0625,0.65625 -0.265625,0.90625 C 1.484375,-2.359375 1.3125,-2.21875 1.15625,-2.0625 0.921875,-1.8125 0.75,-1.5 0.75,-1.15625 c 0.015625,0.296875 0.09375,0.625 0.3125,0.84375 0.3125,0.328125 0.90625,0.375 1.3125,0.21875 0.40625,-0.171875 0.703125,-0.578125 0.828125,-1 0.125,0.3125 0.21875,0.625 0.484375,0.84375 0.171875,0.15625 0.40625,0.203125 0.625,0.234375 0.421875,0.03125 0.84375,-0.078125 1.09375,-0.453125 0.1875,-0.296875 0.25,-0.640625 0.28125,-0.984375 0.03125,-0.1875 0.03125,-0.375 0.03125,-0.546875 0,-0.078125 0.015625,-0.140625 0.015625,-0.203125 C 5.703125,-2.4375 5.625,-2.6875 5.578125,-2.90625 5.53125,-3.09375 5.5,-3.296875 5.4375,-3.46875 5.328125,-3.75 5.140625,-4.03125 4.90625,-4.234375 4.8125,-4.3125 4.6875,-4.40625 4.578125,-4.421875 c -0.03125,0 -0.046875,0 -0.078125,0 -0.21875,0.0625 -0.140625,0.359375 -0.078125,0.5 0.0625,0.125 0.1875,0.171875 0.296875,0.25 0.140625,0.09375 0.265625,0.1875 0.390625,0.3125 0.296875,0.3125 0.40625,0.734375 0.421875,1.15625 0.015625,0.234375 -0.015625,0.484375 -0.078125,0.71875 -0.0625,0.1875 -0.15625,0.390625 -0.3125,0.53125 C 4.8125,-0.640625 4.25,-0.65625 3.875,-0.890625 3.65625,-1.03125 3.484375,-1.25 3.375,-1.484375 3.3125,-1.578125 3.25,-1.6875 3.203125,-1.796875 c -0.0625,0.09375 -0.09375,0.21875 -0.15625,0.3125 C 2.890625,-1.21875 2.6875,-0.984375 2.4375,-0.84375 2,-0.59375 1.328125,-0.734375 1.15625,-1.25 1.140625,-1.328125 1.109375,-1.40625 1.109375,-1.484375 c 0,-0.359375 0.28125,-0.625 0.53125,-0.84375 C 1.8125,-2.5 1.96875,-2.65625 2.109375,-2.84375 2.1875,-2.984375 2.265625,-3.125 2.296875,-3.265625 2.328125,-3.390625 2.3125,-3.515625 2.28125,-3.625 2.25,-3.75 2.21875,-3.875 2.140625,-3.984375 2.0625,-4.109375 1.953125,-4.21875 1.8125,-4.296875 c -0.171875,-0.109375 -0.390625,-0.15625 -0.59375,-0.125 -0.3125,0.0625 -0.609375,0.328125 -0.703125,0.625 C 0.453125,-3.59375 0.46875,-3.375 0.546875,-3.1875 0.59375,-3.078125 0.640625,-3 0.734375,-2.921875 0.84375,-2.796875 1,-2.75 1.15625,-2.703125 z m 0,0"
               style="stroke:none" />
          </symbol>
        </g>
      </defs>
      <g
         id="textext-c7d07252-4">
        <g
           id="g3881"
           style="fill:#000000;fill-opacity:1">
          <use
             id="use3883"
             y="134.765"
             x="223.43201"
             xlink:href="#textext-c7d07252-1"
             width="212.59842"
             height="177.16534" />
          <use
             id="use3885"
             y="134.765"
             x="229.35576"
             xlink:href="#textext-c7d07252-2"
             width="212.59842"
             height="177.16534" />
          <use
             id="use3887"
             y="134.765"
             x="233.53407"
             xlink:href="#textext-c7d07252-3"
             width="212.59842"
             height="177.16534" />
        </g>
      </g>
    </g>
  </g>
</svg>
