<?xml version="1.0" encoding="UTF-8" standalone="no"?>
<!-- Created with Inkscape (http://www.inkscape.org/) -->

<svg
   xmlns:ns0="http://www.iki.fi/pav/software/textext/"
   xmlns:dc="http://purl.org/dc/elements/1.1/"
   xmlns:cc="http://creativecommons.org/ns#"
   xmlns:rdf="http://www.w3.org/1999/02/22-rdf-syntax-ns#"
   xmlns:svg="http://www.w3.org/2000/svg"
   xmlns="http://www.w3.org/2000/svg"
   xmlns:xlink="http://www.w3.org/1999/xlink"
   xmlns:sodipodi="http://sodipodi.sourceforge.net/DTD/sodipodi-0.dtd"
   xmlns:inkscape="http://www.inkscape.org/namespaces/inkscape"
   width="248.03149"
   height="283.46457"
   id="svg2"
   version="1.1"
   inkscape:version="0.47 r22583"
   sodipodi:docname="New document 1">
  <sodipodi:namedview
     id="base"
     pagecolor="#ffffff"
     bordercolor="#666666"
     borderopacity="1.0"
     inkscape:pageopacity="0.0"
     inkscape:pageshadow="2"
     inkscape:zoom="1.4"
     inkscape:cx="215.7025"
     inkscape:cy="176.62139"
     inkscape:document-units="px"
     inkscape:current-layer="layer1"
     showgrid="false"
     units="cm"
     inkscape:window-width="1024"
     inkscape:window-height="689"
     inkscape:window-x="0"
     inkscape:window-y="27"
     inkscape:window-maximized="1" />
  <defs
     id="defs4">
    <inkscape:perspective
       id="perspective10"
       inkscape:persp3d-origin="372.04724 : 350.78739 : 1"
       inkscape:vp_z="744.09448 : 526.18109 : 1"
       inkscape:vp_y="0 : 1000 : 0"
       inkscape:vp_x="0 : 526.18109 : 1"
       sodipodi:type="inkscape:persp3d" />
  </defs>
  <metadata
     id="metadata7">
    <rdf:RDF>
      <cc:Work
         rdf:about="">
        <dc:format>image/svg+xml</dc:format>
        <dc:type
           rdf:resource="http://purl.org/dc/dcmitype/StillImage" />
        <dc:title></dc:title>
      </cc:Work>
    </rdf:RDF>
  </metadata>
  <g
     transform="translate(0,-768.89631)"
     id="layer1"
     inkscape:groupmode="layer"
     inkscape:label="Layer 1">
    <g
       id="g2822"
       ns0:preamble="/home/sriranga/Desktop/Ganitarnava/figure/package.tex"
       ns0:text="(utatxra dikukx)"
       transform="matrix(1.3341427,0,0,1.3341427,-209.11909,610.13737)">
      <defs
         id="defs2824">
        <g
           id="g2826">
          <symbol
             id="textext-2a9cf919-0"
             overflow="visible"
             style="overflow:visible">
            <path
               id="path2829"
               d=""
               style="stroke:none" />
          </symbol>
          <symbol
             id="textext-2a9cf919-1"
             overflow="visible"
             style="overflow:visible">
            <path
               id="path2832"
               d="m 3.296875,2.390625 c 0,-0.03125 0,-0.046875 -0.171875,-0.21875 C 1.890625,0.921875 1.5625,-0.96875 1.5625,-2.5 c 0,-1.734375 0.375,-3.46875 1.609375,-4.703125 0.125,-0.125 0.125,-0.140625 0.125,-0.171875 0,-0.078125 -0.03125,-0.109375 -0.09375,-0.109375 -0.109375,0 -1,0.6875 -1.59375,1.953125 -0.5,1.09375 -0.625,2.203125 -0.625,3.03125 0,0.78125 0.109375,1.984375 0.65625,3.125 C 2.25,1.84375 3.09375,2.5 3.203125,2.5 c 0.0625,0 0.09375,-0.03125 0.09375,-0.109375 z m 0,0"
               style="stroke:none" />
          </symbol>
          <symbol
             id="textext-2a9cf919-2"
             overflow="visible"
             style="overflow:visible">
            <path
               id="path2835"
               d="m 2.875,-2.5 c 0,-0.765625 -0.109375,-1.96875 -0.65625,-3.109375 -0.59375,-1.21875 -1.453125,-1.875 -1.546875,-1.875 -0.0625,0 -0.109375,0.046875 -0.109375,0.109375 0,0.03125 0,0.046875 0.1875,0.234375 0.984375,0.984375 1.546875,2.5625 1.546875,4.640625 0,1.71875 -0.359375,3.46875 -1.59375,4.71875 C 0.5625,2.34375 0.5625,2.359375 0.5625,2.390625 0.5625,2.453125 0.609375,2.5 0.671875,2.5 0.765625,2.5 1.671875,1.8125 2.25,0.546875 2.765625,-0.546875 2.875,-1.65625 2.875,-2.5 z m 0,0"
               style="stroke:none" />
          </symbol>
          <symbol
             id="textext-2a9cf919-3"
             overflow="visible"
             style="overflow:visible">
            <path
               id="path2838"
               d=""
               style="stroke:none" />
          </symbol>
          <symbol
             id="textext-2a9cf919-4"
             overflow="visible"
             style="overflow:visible">
            <path
               id="path2841"
               d="m 0.921875,-3.3125 c 0.03125,0.078125 0.03125,0.15625 0.0625,0.234375 C 1,-2.9375 1.0625,-2.78125 1.125,-2.65625 1.1875,-2.546875 1.28125,-2.453125 1.375,-2.375 1.640625,-2.21875 2.046875,-2.203125 2.265625,-2.4375 2.40625,-2.609375 2.4375,-2.828125 2.4375,-3.015625 2.4375,-3.40625 2.375,-3.8125 2.078125,-4.09375 1.78125,-4.390625 1.234375,-4.453125 0.921875,-4.140625 c -0.109375,0.109375 -0.1875,0.25 -0.25,0.40625 -0.15625,0.34375 -0.203125,0.6875 -0.1875,1.078125 0.03125,0.3125 0,0.65625 0.109375,0.96875 0.0625,0.1875 0.15625,0.375 0.28125,0.546875 0.390625,0.609375 1.015625,1.125 1.78125,1.125 0.140625,0 0.296875,-0.03125 0.4375,-0.078125 C 3.1875,-0.109375 3.25,-0.15625 3.3125,-0.203125 3.78125,-0.515625 3.859375,-1.140625 3.78125,-1.65625 3.78125,-1.75 3.765625,-1.859375 3.734375,-1.953125 3.703125,-2.046875 3.65625,-2.15625 3.625,-2.25 3.59375,-2.328125 3.578125,-2.421875 3.5625,-2.515625 3.53125,-2.578125 3.515625,-2.65625 3.515625,-2.734375 c 0,-0.265625 0.125,-0.5 0.3125,-0.6875 C 3.921875,-3.515625 4,-3.59375 4.125,-3.640625 c 0.140625,-0.046875 0.296875,-0.0625 0.453125,-0.03125 0.4375,0.0625 0.75,0.40625 0.84375,0.828125 0.046875,0.265625 0.03125,0.53125 0.03125,0.796875 0,0.1875 0.015625,0.359375 0.03125,0.546875 0.015625,0.25 0.03125,0.5 0.109375,0.75 0.0625,0.1875 0.171875,0.375 0.328125,0.515625 0.34375,0.296875 0.921875,0.28125 1.296875,0.0625 C 7.53125,-0.359375 7.75,-0.6875 7.890625,-1.015625 8.25,-1.796875 8.1875,-2.71875 7.78125,-3.453125 7.59375,-3.796875 7.34375,-4.109375 7.015625,-4.3125 6.890625,-4.390625 6.75,-4.5 6.59375,-4.453125 6.5625,-4.4375 6.53125,-4.421875 6.5,-4.390625 c -0.1875,0.1875 -0.046875,0.46875 0.125,0.59375 0.171875,0.125 0.359375,0.234375 0.515625,0.359375 0.09375,0.0625 0.15625,0.125 0.21875,0.203125 0.421875,0.40625 0.75,1.046875 0.484375,1.625 -0.0625,0.140625 -0.15625,0.25 -0.25,0.359375 -0.140625,0.15625 -0.3125,0.265625 -0.5,0.375 C 7,-0.8125 6.890625,-0.78125 6.78125,-0.75 6.703125,-0.734375 6.625,-0.734375 6.546875,-0.734375 c -0.09375,0 -0.1875,-0.015625 -0.28125,-0.0625 -0.28125,-0.125 -0.4375,-0.453125 -0.515625,-0.75 -0.046875,-0.1875 -0.078125,-0.390625 -0.09375,-0.59375 -0.015625,-0.125 -0.015625,-0.234375 -0.015625,-0.375 0,-0.078125 -0.015625,-0.171875 -0.015625,-0.25 0,-0.5 -0.015625,-1.15625 -0.484375,-1.484375 C 5.078125,-4.28125 5.015625,-4.328125 4.9375,-4.34375 4.828125,-4.390625 4.6875,-4.421875 4.5625,-4.4375 4.25,-4.453125 3.921875,-4.421875 3.671875,-4.203125 3.625,-4.140625 3.578125,-4.09375 3.53125,-4.03125 3.484375,-3.953125 3.453125,-3.875 3.421875,-3.78125 3.359375,-3.609375 3.34375,-3.421875 3.328125,-3.25 3.3125,-2.9375 3.34375,-2.640625 3.40625,-2.34375 c 0.015625,0.125 0.046875,0.25 0.0625,0.375 0.015625,0.0625 0.046875,0.140625 0.046875,0.21875 0.015625,0.28125 -0.109375,0.578125 -0.3125,0.765625 C 2.6875,-0.515625 1.875,-0.75 1.40625,-1.15625 1.171875,-1.359375 0.984375,-1.609375 0.859375,-1.890625 0.734375,-2.1875 0.703125,-2.546875 0.75,-2.875 0.78125,-3.03125 0.859375,-3.171875 0.921875,-3.3125 z M 1.140625,-3.25 C 1.109375,-3.359375 1.125,-3.515625 1.203125,-3.609375 1.265625,-3.6875 1.375,-3.734375 1.46875,-3.765625 1.578125,-3.78125 1.6875,-3.796875 1.796875,-3.78125 2,-3.734375 2.21875,-3.5625 2.25,-3.34375 c 0.015625,0.1875 -0.125,0.359375 -0.28125,0.4375 -0.109375,0.0625 -0.234375,0.109375 -0.359375,0.109375 -0.21875,-0.03125 -0.4375,-0.21875 -0.46875,-0.453125 z m 0,0"
               style="stroke:none" />
          </symbol>
          <symbol
             id="textext-2a9cf919-5"
             overflow="visible"
             style="overflow:visible">
            <path
               id="path2844"
               d="m 0.484375,-4.234375 0,0.640625 1.6875,0 0.546875,0 c 0.109375,0 0.21875,-0.015625 0.328125,0 0.1875,0.03125 0.40625,0.15625 0.484375,0.328125 0.046875,0.109375 0.046875,0.203125 0.046875,0.3125 -0.234375,-0.09375 -0.484375,-0.125 -0.75,-0.125 -0.3125,0 -0.609375,0.03125 -0.875,0.21875 C 1.6875,-2.6875 1.578125,-2.21875 1.8125,-1.96875 1.96875,-1.8125 2.203125,-1.765625 2.40625,-1.75 2.8125,-1.703125 3.1875,-1.828125 3.5,-2.078125 c 0.15625,-0.109375 0.296875,-0.28125 0.375,-0.46875 0.125,0.109375 0.234375,0.25 0.3125,0.390625 0.109375,0.25 0.0625,0.53125 -0.078125,0.734375 -0.078125,0.140625 -0.21875,0.25 -0.359375,0.34375 -0.15625,0.09375 -0.328125,0.1875 -0.5,0.234375 -0.140625,0.046875 -0.28125,0.078125 -0.421875,0.09375 -0.171875,0.015625 -0.3125,0.015625 -0.46875,0 C 1.828125,-0.78125 1.234375,-0.953125 0.9375,-1.421875 0.875,-1.5 0.84375,-1.609375 0.8125,-1.6875 0.78125,-1.828125 0.75,-1.96875 0.75,-2.09375 c -0.015625,0 -0.0625,0 -0.09375,0.015625 C 0.625,-2.046875 0.59375,-2 0.578125,-1.953125 0.53125,-1.828125 0.5,-1.71875 0.5,-1.59375 c -0.015625,0.484375 0.28125,0.890625 0.671875,1.15625 0.75,0.53125 1.875,0.546875 2.65625,0.0625 0.421875,-0.25 0.75,-0.625 0.78125,-1.15625 0.015625,-0.078125 0.015625,-0.15625 0,-0.25 C 4.5625,-2.046875 4.421875,-2.296875 4.234375,-2.5 4.171875,-2.5625 4.109375,-2.625 4.046875,-2.671875 4,-2.703125 3.953125,-2.734375 3.9375,-2.765625 3.921875,-2.8125 3.921875,-2.84375 3.921875,-2.875 c 0,-0.0625 -0.015625,-0.109375 -0.03125,-0.15625 C 3.875,-3.171875 3.796875,-3.3125 3.71875,-3.421875 3.640625,-3.53125 3.546875,-3.625 3.453125,-3.6875 3.40625,-3.71875 3.296875,-3.734375 3.265625,-3.796875 3.234375,-3.828125 3.25,-3.890625 3.25,-3.921875 l 0,-0.3125 -2.765625,0 z m 3.046875,1.46875 C 3.421875,-2.40625 3.015625,-2.21875 2.671875,-2.1875 c -0.171875,0.015625 -0.375,0 -0.515625,-0.125 -0.140625,-0.109375 -0.125,-0.296875 0,-0.40625 0.109375,-0.109375 0.25,-0.125 0.390625,-0.15625 0.125,-0.03125 0.265625,-0.03125 0.390625,-0.03125 0.21875,0 0.390625,0.09375 0.59375,0.140625 z m 0,0"
               style="stroke:none" />
          </symbol>
          <symbol
             id="textext-2a9cf919-6"
             overflow="visible"
             style="overflow:visible">
            <path
               id="path2847"
               d="m 1,-5.875 c 0.09375,0.078125 0.171875,0.15625 0.21875,0.25 0.1875,0.234375 0.34375,0.625 0.203125,0.921875 -0.0625,0.09375 -0.140625,0.171875 -0.234375,0.25 C 1.109375,-4.375 1.03125,-4.3125 0.921875,-4.28125 0.8125,-4.234375 0.671875,-4.234375 0.5625,-4.234375 l -0.5625,0 0,0.640625 0.484375,0 c 0.140625,0 0.265625,0 0.40625,-0.03125 0.25,-0.046875 0.5,-0.15625 0.671875,-0.34375 0.234375,-0.234375 0.375,-0.59375 0.328125,-0.921875 -0.03125,-0.171875 -0.09375,-0.34375 -0.1875,-0.5 C 1.625,-5.515625 1.5,-5.671875 1.359375,-5.765625 1.265625,-5.828125 1.125,-5.859375 1,-5.875 z m 0,0"
               style="stroke:none" />
          </symbol>
          <symbol
             id="textext-2a9cf919-7"
             overflow="visible"
             style="overflow:visible">
            <path
               id="path2850"
               d="m 0.34375,2 -2.875,0 0,0.609375 2.375,0 0.515625,0 c 0.234375,0 0.46875,0 0.671875,-0.109375 C 1.546875,2.21875 1.640625,1.578125 1.578125,1.0625 1.5625,0.8125 1.46875,0.53125 1.25,0.40625 1.046875,0.28125 0.765625,0.265625 0.5625,0.375 0.40625,0.453125 0.296875,0.59375 0.21875,0.734375 0.015625,1.125 0.0625,1.671875 0.34375,2 z M 1.375,1.390625 C 1.359375,1.609375 1.28125,1.828125 1.09375,1.9375 1.03125,1.984375 0.953125,2 0.890625,2 0.78125,2 0.671875,1.984375 0.578125,1.921875 c -0.1875,-0.125 -0.28125,-0.375 -0.265625,-0.59375 0,-0.109375 0.078125,-0.1875 0.140625,-0.265625 0.09375,-0.109375 0.25,-0.21875 0.390625,-0.25 C 1.0625,0.796875 1.3125,0.984375 1.375,1.171875 c 0.015625,0.078125 0.015625,0.15625 0,0.21875 z m 0,0"
               style="stroke:none" />
          </symbol>
          <symbol
             id="textext-2a9cf919-8"
             overflow="visible"
             style="overflow:visible">
            <path
               id="path2853"
               d="m 0.484375,-4.234375 0,0.640625 1.09375,0 0,0 C 1.5,-3.5625 1.453125,-3.515625 1.375,-3.46875 1.25,-3.375 1.109375,-3.28125 1,-3.171875 0.84375,-3.015625 0.71875,-2.828125 0.625,-2.625 0.5625,-2.484375 0.515625,-2.328125 0.5,-2.1875 c -0.109375,0.75 0.28125,1.5 0.921875,1.875 C 1.765625,-0.09375 2.1875,0 2.578125,-0.03125 3.265625,-0.078125 3.921875,-0.453125 4.25,-1.09375 4.484375,-1.5625 4.515625,-2.171875 4.296875,-2.65625 4.140625,-3.015625 3.84375,-3.3125 3.515625,-3.5 3.375,-3.578125 3.203125,-3.671875 3.046875,-3.703125 l 0,-0.53125 -2.5625,0 z m 0.359375,2.125 C 0.8125,-2.5 0.984375,-2.84375 1.25,-3.09375 1.40625,-3.265625 1.59375,-3.40625 1.796875,-3.484375 2.4375,-3.765625 3.1875,-3.578125 3.671875,-3.09375 3.875,-2.90625 4.03125,-2.625 4.0625,-2.34375 4.09375,-1.921875 3.90625,-1.546875 3.625,-1.25 3.3125,-0.953125 2.953125,-0.75 2.515625,-0.734375 1.921875,-0.703125 1.28125,-1.03125 1,-1.578125 0.90625,-1.75 0.875,-1.921875 0.84375,-2.109375 z m 0,0"
               style="stroke:none" />
          </symbol>
          <symbol
             id="textext-2a9cf919-9"
             overflow="visible"
             style="overflow:visible">
            <path
               id="path2856"
               d="m 1.65625,-3.453125 0,0.015625 C 1.5,-3.375 1.359375,-3.265625 1.25,-3.15625 1.09375,-3.015625 0.921875,-2.84375 0.8125,-2.671875 0.546875,-2.265625 0.453125,-1.78125 0.484375,-1.3125 c 0.03125,0.375 0.171875,0.78125 0.46875,1.03125 0.25,0.234375 0.609375,0.296875 0.9375,0.265625 0.15625,-0.03125 0.296875,-0.0625 0.4375,-0.140625 0.328125,-0.1875 0.578125,-0.546875 0.65625,-0.90625 0.140625,0.34375 0.328125,0.6875 0.65625,0.890625 0.390625,0.234375 0.9375,0.21875 1.328125,-0.03125 0.203125,-0.15625 0.359375,-0.359375 0.4375,-0.59375 0.109375,-0.265625 0.140625,-0.53125 0.125,-0.8125 -0.015625,-0.21875 -0.015625,-0.421875 -0.046875,-0.609375 -0.125,-0.734375 -0.46875,-1.453125 -1,-1.984375 -0.21875,-0.21875 -0.46875,-0.40625 -0.75,-0.53125 -0.28125,-0.125 -0.578125,-0.203125 -0.890625,-0.234375 -0.125,0 -0.25,0 -0.375,0 -0.3125,0 -0.640625,0.046875 -0.921875,0.15625 C 1.34375,-4.75 1.140625,-4.640625 1,-4.46875 c -0.203125,0.265625 -0.25,0.734375 0.09375,0.921875 0.171875,0.09375 0.375,0.09375 0.5625,0.09375 z M 4.921875,-3.09375 C 4.65625,-3.34375 4.34375,-3.5625 4,-3.671875 3.59375,-3.8125 3.140625,-3.8125 2.71875,-3.765625 c -0.140625,0.015625 -0.3125,0.03125 -0.453125,0.0625 -0.15625,0.015625 -0.296875,0.03125 -0.4375,0.03125 -0.109375,-0.03125 -0.25,-0.03125 -0.3125,-0.140625 -0.09375,-0.15625 0.03125,-0.328125 0.15625,-0.4375 0.1875,-0.15625 0.4375,-0.203125 0.6875,-0.25 0.078125,0 0.1875,-0.015625 0.265625,-0.015625 0.203125,0 0.390625,0 0.578125,0.046875 0.3125,0.0625 0.59375,0.203125 0.859375,0.375 0.375,0.25 0.6875,0.5625 0.859375,1 z M 3,-1.625 C 2.9375,-1.53125 2.890625,-1.421875 2.84375,-1.328125 2.703125,-1.109375 2.515625,-0.890625 2.25,-0.796875 2.125,-0.75 1.96875,-0.734375 1.828125,-0.734375 1.71875,-0.734375 1.59375,-0.75 1.484375,-0.78125 1.390625,-0.8125 1.3125,-0.875 1.234375,-0.921875 0.6875,-1.359375 0.78125,-2.21875 1.140625,-2.734375 c 0.28125,-0.421875 0.71875,-0.6875 1.1875,-0.796875 0.21875,-0.0625 0.453125,-0.078125 0.6875,-0.078125 0.359375,0 0.703125,0.046875 1.03125,0.203125 0.625,0.28125 1.109375,0.890625 1.109375,1.578125 0,0.109375 0,0.21875 -0.015625,0.3125 C 5.078125,-1.25 4.890625,-1 4.671875,-0.859375 4.375,-0.671875 3.9375,-0.6875 3.640625,-0.84375 3.34375,-1 3.125,-1.328125 3,-1.625 z m 0,0"
               style="stroke:none" />
          </symbol>
          <symbol
             id="textext-2a9cf919-10"
             overflow="visible"
             style="overflow:visible">
            <path
               id="path2859"
               d="m 0.484375,-4.234375 0,0.640625 1.203125,0 c 0.140625,0 0.359375,-0.03125 0.4375,0.125 0.078125,0.1875 -0.140625,0.34375 -0.296875,0.375 C 1.671875,-3.046875 1.5,-3.078125 1.34375,-3.078125 l -0.859375,0 0,0.625 0.90625,0 0,0.015625 C 1.265625,-2.375 1.15625,-2.25 1.0625,-2.140625 c -0.34375,0.4375 -0.421875,1.09375 -0.09375,1.5625 0.28125,0.40625 0.734375,0.5625 1.21875,0.546875 C 2.71875,-0.0625 3.234375,-0.375 3.4375,-0.890625 3.5,-1.03125 3.515625,-1.1875 3.515625,-1.34375 3.515625,-1.46875 3.5,-1.578125 3.46875,-1.6875 3.421875,-1.84375 3.328125,-2 3.21875,-2.125 3.125,-2.25 3,-2.375 2.875,-2.4375 l 0,-0.015625 0.828125,0 0,-0.625 -1.40625,0 C 2.40625,-3.21875 2.4375,-3.40625 2.375,-3.578125 2.375,-3.640625 2.328125,-3.6875 2.3125,-3.75 c -0.015625,-0.0625 0,-0.109375 0,-0.171875 l 0,-0.3125 -1.828125,0 z m 2.5625,2.765625 c 0,0.078125 -0.03125,0.15625 -0.0625,0.234375 -0.28125,0.59375 -1.1875,0.65625 -1.59375,0.171875 C 1.3125,-1.140625 1.265625,-1.25 1.234375,-1.359375 1.21875,-1.453125 1.21875,-1.5625 1.21875,-1.65625 1.28125,-1.96875 1.453125,-2.265625 1.75,-2.390625 c 0.515625,-0.203125 1.203125,0.125 1.296875,0.6875 0.03125,0.0625 0.015625,0.15625 0,0.234375 z m 0,0"
               style="stroke:none" />
          </symbol>
          <symbol
             id="textext-2a9cf919-11"
             overflow="visible"
             style="overflow:visible">
            <path
               id="path2862"
               d="m -0.3125,-1.640625 c 0,0.390625 0.125,0.765625 0.28125,1.109375 0.0625,0.125 0.078125,0.25 0.1875,0.359375 0.109375,0.078125 0.25,0.125 0.375,0.140625 C 0.8125,0.015625 1.125,-0.046875 1.359375,-0.1875 1.703125,-0.390625 1.90625,-0.765625 2.015625,-1.140625 2.0625,-1.3125 2.09375,-1.5 2.109375,-1.671875 c 0.015625,-0.3125 0,-0.625 -0.078125,-0.921875 C 1.9375,-2.875 1.78125,-3.15625 1.59375,-3.390625 1.3125,-3.734375 0.953125,-3.984375 0.515625,-4.03125 0.390625,-4.0625 0.21875,-4.0625 0.09375,-4.03125 0.03125,-4 0.015625,-3.921875 0,-3.859375 c -0.015625,0.140625 0.03125,0.3125 0.15625,0.375 0.109375,0.0625 0.25,0.0625 0.359375,0.0625 C 0.59375,-3.40625 0.671875,-3.40625 0.75,-3.375 1.0625,-3.3125 1.3125,-3.125 1.546875,-2.921875 1.71875,-2.75 1.875,-2.53125 1.921875,-2.28125 2,-1.84375 1.78125,-1.390625 1.46875,-1.078125 1.3125,-0.921875 1.109375,-0.796875 0.890625,-0.75 0.65625,-0.703125 0.40625,-0.734375 0.203125,-0.875 0.140625,-0.90625 0.0625,-0.96875 0.015625,-1.03125 -0.015625,-1.078125 -0.015625,-1.140625 -0.03125,-1.203125 -0.046875,-1.296875 -0.09375,-1.375 -0.109375,-1.46875 -0.125,-1.5 -0.125,-1.578125 -0.171875,-1.609375 -0.203125,-1.640625 -0.28125,-1.640625 -0.3125,-1.640625 z m 0,0"
               style="stroke:none" />
          </symbol>
          <symbol
             id="textext-2a9cf919-12"
             overflow="visible"
             style="overflow:visible">
            <path
               id="path2865"
               d="M 0,-0.9375 0.09375,-0.671875 0.125,-0.25 0.09375,0.203125 0,0.484375 l -0.0625,0.09375 -0.140625,0.015625 -0.265625,0 -1.03125,0 0,0.53125 0.96875,0 0,0.015625 c -0.109375,0.0625 -0.21875,0.171875 -0.296875,0.28125 -0.28125,0.375 -0.359375,0.9375 -0.109375,1.34375 0.203125,0.34375 0.59375,0.53125 1,0.5 0.15625,0 0.3125,-0.078125 0.453125,-0.171875 C 0.625,3 0.734375,2.890625 0.8125,2.75 0.96875,2.46875 0.984375,2.078125 0.890625,1.78125 0.796875,1.5 0.5625,1.265625 0.3125,1.140625 l 0,-0.015625 0.96875,0 0,-0.546875 L 0.234375,0.59375 C 0.34375,0.46875 0.421875,0.34375 0.46875,0.1875 0.5,0.09375 0.515625,-0.015625 0.515625,-0.125 c 0.015625,-0.140625 0.03125,-0.28125 0,-0.4375 C 0.46875,-0.703125 0.40625,-0.84375 0.3125,-0.96875 0.28125,-1 0.234375,-1.0625 0.171875,-1.0625 0.109375,-1.046875 0.046875,-0.984375 0,-0.9375 z M -0.65625,2.046875 C -0.703125,1.75 -0.5625,1.421875 -0.328125,1.25 -0.25,1.203125 -0.109375,1.140625 -0.015625,1.171875 0.078125,1.171875 0.15625,1.25 0.21875,1.3125 0.375,1.46875 0.5,1.671875 0.53125,1.890625 0.546875,1.984375 0.53125,2.09375 0.515625,2.1875 0.484375,2.28125 0.453125,2.375 0.40625,2.453125 0.34375,2.53125 0.25,2.578125 0.15625,2.609375 0.0625,2.625 -0.03125,2.65625 -0.125,2.625 -0.375,2.578125 -0.625,2.296875 -0.65625,2.046875 z m 0,0"
               style="stroke:none" />
          </symbol>
        </g>
      </defs>
      <g
         id="textext-2a9cf919-13">
        <g
           id="g2868"
           style="fill:#000000;fill-opacity:1">
          <use
             id="use2870"
             y="134.765"
             x="223.43201"
             xlink:href="#textext-2a9cf919-1"
             width="248.03149"
             height="283.46457" />
        </g>
        <g
           id="g2872"
           style="fill:#000000;fill-opacity:1">
          <use
             id="use2874"
             y="134.765"
             x="227.306"
             xlink:href="#textext-2a9cf919-4"
             width="248.03149"
             height="283.46457" />
          <use
             id="use2876"
             y="134.765"
             x="235.9117"
             xlink:href="#textext-2a9cf919-5"
             width="248.03149"
             height="283.46457" />
          <use
             id="use2878"
             y="134.765"
             x="238.86362"
             xlink:href="#textext-2a9cf919-6"
             width="248.03149"
             height="283.46457" />
          <use
             id="use2880"
             y="134.765"
             x="241.06734"
             xlink:href="#textext-2a9cf919-7"
             width="248.03149"
             height="283.46457" />
          <use
             id="use2882"
             y="134.765"
             x="242.75301"
             xlink:href="#textext-2a9cf919-8"
             width="248.03149"
             height="283.46457" />
          <use
             id="use2884"
             y="134.765"
             x="245.67505"
             xlink:href="#textext-2a9cf919-6"
             width="248.03149"
             height="283.46457" />
        </g>
        <g
           id="g2886"
           style="fill:#000000;fill-opacity:1">
          <use
             id="use2888"
             y="134.765"
             x="250.59856"
             xlink:href="#textext-2a9cf919-9"
             width="248.03149"
             height="283.46457" />
          <use
             id="use2890"
             y="134.765"
             x="256.61197"
             xlink:href="#textext-2a9cf919-10"
             width="248.03149"
             height="283.46457" />
          <use
             id="use2892"
             y="134.765"
             x="258.71609"
             xlink:href="#textext-2a9cf919-6"
             width="248.03149"
             height="283.46457" />
          <use
             id="use2894"
             y="134.765"
             x="260.9198"
             xlink:href="#textext-2a9cf919-11"
             width="248.03149"
             height="283.46457" />
        </g>
        <g
           id="g2896"
           style="fill:#000000;fill-opacity:1">
          <use
             id="use2898"
             y="134.765"
             x="263.52203"
             xlink:href="#textext-2a9cf919-12"
             width="248.03149"
             height="283.46457" />
        </g>
        <g
           id="g2900"
           style="fill:#000000;fill-opacity:1">
          <use
             id="use2902"
             y="134.765"
             x="264.68399"
             xlink:href="#textext-2a9cf919-2"
             width="248.03149"
             height="283.46457" />
        </g>
      </g>
    </g>
    <path
       sodipodi:type="arc"
       style="fill:none;stroke:#000000;stroke-width:1.43176603;stroke-linecap:round;stroke-linejoin:miter;stroke-miterlimit:4;stroke-opacity:1;stroke-dasharray:none;stroke-dashoffset:0"
       id="path2956"
       sodipodi:cx="141.16882"
       sodipodi:cy="109.46579"
       sodipodi:rx="57.326157"
       sodipodi:ry="57.326157"
       d="m 198.49498,109.46579 a 57.326157,57.326157 0 1 1 -114.652313,0 57.326157,57.326157 0 1 1 114.652313,0 z"
       transform="matrix(0.96035242,0,0,0.96035242,-16.402998,755.99398)" />
    <path
       sodipodi:type="arc"
       style="fill:none;stroke:#000000;stroke-width:1.375;stroke-linecap:round;stroke-linejoin:miter;stroke-miterlimit:4;stroke-opacity:1;stroke-dasharray:none;stroke-dashoffset:0"
       id="path2981"
       sodipodi:cx="141.16882"
       sodipodi:cy="109.46579"
       sodipodi:rx="57.326157"
       sodipodi:ry="57.326157"
       d="m 198.49498,109.46579 a 57.326157,57.326157 0 1 1 -114.652313,0 57.326157,57.326157 0 1 1 114.652313,0 z"
       transform="translate(-22,880.89631)" />
    <rect
       style="fill:none;stroke:#000000;stroke-width:1.375;stroke-linecap:round;stroke-linejoin:miter;stroke-miterlimit:4;stroke-opacity:1;stroke-dasharray:none;stroke-dashoffset:0"
       id="rect2983"
       width="76.353165"
       height="76.353165"
       x="81.021408"
       y="822.46454" />
    <rect
       style="fill:none;stroke:#000000;stroke-width:1.375;stroke-linecap:round;stroke-linejoin:miter;stroke-miterlimit:4;stroke-opacity:1;stroke-dasharray:none;stroke-dashoffset:0"
       id="rect2985"
       width="102.53049"
       height="47.477169"
       x="67.680222"
       y="196.59145"
       transform="translate(0,768.89631)" />
    <path
       style="fill:none;stroke:#000000;stroke-width:1.375;stroke-linecap:butt;stroke-linejoin:miter;stroke-opacity:1;stroke-miterlimit:4;stroke-dasharray:none"
       d="m 81.064742,53.654865 c 0.505076,1.515229 76.013978,76.013975 76.013978,76.013975"
       id="path2987"
       transform="translate(0,768.89631)" />
    <path
       style="fill:none;stroke:#000000;stroke-width:1.375;stroke-linecap:butt;stroke-linejoin:miter;stroke-opacity:1;stroke-miterlimit:4;stroke-dasharray:none"
       d="M 67.680221,243.31101 170.2107,196.84399"
       id="path3761"
       transform="translate(0,768.89631)" />
    <text
       xml:space="preserve"
       style="font-size:12px;font-style:normal;font-variant:normal;font-weight:normal;font-stretch:normal;line-height:125%;letter-spacing:0px;word-spacing:0px;fill:#000000;fill-opacity:1;stroke:none;font-family:LMRoman10;-inkscape-font-specification:LMRoman10"
       x="109.8541"
       y="838.20856"
       id="text3763"
       sodipodi:linespacing="125%"><tspan
         sodipodi:role="line"
         id="tspan3765"
         x="109.8541"
         y="838.20856">20</tspan></text>
    <text
       sodipodi:linespacing="125%"
       id="text3767"
       y="864.20856"
       x="137.8541"
       style="font-size:12px;font-style:normal;font-variant:normal;font-weight:normal;font-stretch:normal;line-height:125%;letter-spacing:0px;word-spacing:0px;fill:#000000;fill-opacity:1;stroke:none;font-family:LMRoman10;-inkscape-font-specification:LMRoman10"
       xml:space="preserve"><tspan
         y="864.20856"
         x="137.8541"
         id="tspan3769"
         sodipodi:role="line">20</tspan></text>
    <text
       xml:space="preserve"
       style="font-size:12px;font-style:normal;font-variant:normal;font-weight:normal;font-stretch:normal;line-height:125%;letter-spacing:0px;word-spacing:0px;fill:#000000;fill-opacity:1;stroke:none;font-family:LMRoman10;-inkscape-font-specification:LMRoman10"
       x="85.854103"
       y="864.20856"
       id="text3771"
       sodipodi:linespacing="125%"><tspan
         sodipodi:role="line"
         id="tspan3773"
         x="85.854103"
         y="864.20856">20</tspan></text>
    <text
       sodipodi:linespacing="125%"
       id="text3775"
       y="894.20856"
       x="111.8541"
       style="font-size:12px;font-style:normal;font-variant:normal;font-weight:normal;font-stretch:normal;line-height:125%;letter-spacing:0px;word-spacing:0px;fill:#000000;fill-opacity:1;stroke:none;font-family:LMRoman10;-inkscape-font-specification:LMRoman10"
       xml:space="preserve"><tspan
         y="894.20856"
         x="111.8541"
         id="tspan3777"
         sodipodi:role="line">20</tspan></text>
    <text
       xml:space="preserve"
       style="font-size:12px;font-style:normal;font-variant:normal;font-weight:normal;font-stretch:normal;line-height:125%;letter-spacing:0px;word-spacing:0px;fill:#000000;fill-opacity:1;stroke:none;font-family:LMRoman10;-inkscape-font-specification:LMRoman10"
       x="70.458138"
       y="997.30756"
       id="text3779"
       sodipodi:linespacing="125%"><tspan
         sodipodi:role="line"
         id="tspan3781"
         x="70.458138"
         y="997.30756">10</tspan></text>
    <text
       sodipodi:linespacing="125%"
       id="text3783"
       y="997.30756"
       x="155.448"
       style="font-size:12px;font-style:normal;font-variant:normal;font-weight:normal;font-stretch:normal;line-height:125%;letter-spacing:0px;word-spacing:0px;fill:#000000;fill-opacity:1;stroke:none;font-family:LMRoman10;-inkscape-font-specification:LMRoman10"
       xml:space="preserve"><tspan
         y="997.30756"
         x="155.448"
         id="tspan3785"
         sodipodi:role="line">10</tspan></text>
    <text
       xml:space="preserve"
       style="font-size:12px;font-style:normal;font-variant:normal;font-weight:normal;font-stretch:normal;line-height:125%;letter-spacing:0px;word-spacing:0px;fill:#000000;fill-opacity:1;stroke:none;font-family:LMRoman10;-inkscape-font-specification:LMRoman10"
       x="110.35916"
       y="976.59949"
       id="text3787"
       sodipodi:linespacing="125%"><tspan
         sodipodi:role="line"
         id="tspan3789"
         x="110.35916"
         y="976.59949">30</tspan></text>
    <text
       sodipodi:linespacing="125%"
       id="text3791"
       y="1010.5995"
       x="110.35916"
       style="font-size:12px;font-style:normal;font-variant:normal;font-weight:normal;font-stretch:normal;line-height:125%;letter-spacing:0px;word-spacing:0px;fill:#000000;fill-opacity:1;stroke:none;font-family:LMRoman10;-inkscape-font-specification:LMRoman10"
       xml:space="preserve"><tspan
         y="1010.5995"
         x="110.35916"
         id="tspan3793"
         sodipodi:role="line">30</tspan></text>
  </g>
</svg>
