<?xml version="1.0" encoding="UTF-8" standalone="no"?>
<!-- Created with Inkscape (http://www.inkscape.org/) -->

<svg
   xmlns:ns0="http://www.iki.fi/pav/software/textext/"
   xmlns:dc="http://purl.org/dc/elements/1.1/"
   xmlns:cc="http://creativecommons.org/ns#"
   xmlns:rdf="http://www.w3.org/1999/02/22-rdf-syntax-ns#"
   xmlns:svg="http://www.w3.org/2000/svg"
   xmlns="http://www.w3.org/2000/svg"
   xmlns:xlink="http://www.w3.org/1999/xlink"
   xmlns:sodipodi="http://sodipodi.sourceforge.net/DTD/sodipodi-0.dtd"
   xmlns:inkscape="http://www.inkscape.org/namespaces/inkscape"
   width="212.59842"
   height="177.16534"
   id="svg2"
   version="1.1"
   inkscape:version="0.47 r22583"
   sodipodi:docname="fig39.svg">
  <sodipodi:namedview
     id="base"
     pagecolor="#ffffff"
     bordercolor="#666666"
     borderopacity="1.0"
     inkscape:pageopacity="0.0"
     inkscape:pageshadow="2"
     inkscape:zoom="1.979899"
     inkscape:cx="168.46897"
     inkscape:cy="87.040701"
     inkscape:document-units="px"
     inkscape:current-layer="layer1"
     showgrid="false"
     units="cm"
     inkscape:window-width="1024"
     inkscape:window-height="689"
     inkscape:window-x="0"
     inkscape:window-y="27"
     inkscape:window-maximized="1" />
  <defs
     id="defs4">
    <inkscape:perspective
       sodipodi:type="inkscape:persp3d"
       inkscape:vp_x="0 : 526.18109 : 1"
       inkscape:vp_y="0 : 1000 : 0"
       inkscape:vp_z="744.09448 : 526.18109 : 1"
       inkscape:persp3d-origin="372.04724 : 350.78739 : 1"
       id="perspective10" />
  </defs>
  <metadata
     id="metadata7">
    <rdf:RDF>
      <cc:Work
         rdf:about="">
        <dc:format>image/svg+xml</dc:format>
        <dc:type
           rdf:resource="http://purl.org/dc/dcmitype/StillImage" />
        <dc:title />
      </cc:Work>
    </rdf:RDF>
  </metadata>
  <g
     inkscape:label="Layer 1"
     inkscape:groupmode="layer"
     id="layer1"
     transform="translate(0,-875.19552)">
    <path
       sodipodi:type="arc"
       style="fill:none;stroke:#000000;stroke-width:1.375;stroke-linecap:round;stroke-linejoin:miter;stroke-miterlimit:4;stroke-opacity:1;stroke-dasharray:none;stroke-dashoffset:0"
       id="path2816"
       sodipodi:cx="101.96429"
       sodipodi:cy="102.70106"
       sodipodi:rx="59.107143"
       sodipodi:ry="59.107143"
       d="m 161.07143,102.70106 c 0,32.64397 -26.46317,59.10714 -59.10714,59.10714 -32.643977,0 -59.107147,-26.46317 -59.107147,-59.10714 0,-32.643976 26.46317,-59.107146 59.107147,-59.107146 32.64397,0 59.10714,26.46317 59.10714,59.107146 z"
       transform="translate(0,875.19552)" />
    <path
       style="fill:none;stroke:#000000;stroke-width:1.375;stroke-linecap:butt;stroke-linejoin:miter;stroke-miterlimit:4;stroke-opacity:1;stroke-dasharray:none"
       d="M 156.57364,956.31715 48.487322,955.96 l 52.780468,-36.4342 0,79.96978"
       id="path2818"
       sodipodi:nodetypes="cccc" />
    <g
       ns0:text="$30.45$"
       ns0:preamble="/home/sriranga/Desktop/Ganitarnava/figure/package.tex"
       transform="matrix(0.90203234,0.62955354,-0.62955354,0.90203234,14.255426,659.39851)"
       id="g4246">
      <defs
         id="defs4248">
        <g
           id="g4250">
          <symbol
             style="overflow:visible"
             overflow="visible"
             id="textext-06ba9860-0">
            <path
               style="stroke:none"
               d=""
               id="path4253" />
          </symbol>
          <symbol
             style="overflow:visible"
             overflow="visible"
             id="textext-06ba9860-1">
            <path
               style="stroke:none"
               d="m 2.890625,-3.515625 c 0.8125,-0.265625 1.390625,-0.953125 1.390625,-1.75 0,-0.8125 -0.875,-1.375 -1.828125,-1.375 -1,0 -1.765625,0.59375 -1.765625,1.359375 0,0.328125 0.21875,0.515625 0.515625,0.515625 0.296875,0 0.5,-0.21875 0.5,-0.515625 0,-0.484375 -0.46875,-0.484375 -0.609375,-0.484375 0.296875,-0.5 0.953125,-0.625 1.3125,-0.625 0.421875,0 0.96875,0.21875 0.96875,1.109375 0,0.125 -0.03125,0.703125 -0.28125,1.140625 C 2.796875,-3.65625 2.453125,-3.625 2.203125,-3.625 2.125,-3.609375 1.890625,-3.59375 1.8125,-3.59375 c -0.078125,0.015625 -0.140625,0.03125 -0.140625,0.125 0,0.109375 0.0625,0.109375 0.234375,0.109375 l 0.4375,0 c 0.8125,0 1.1875,0.671875 1.1875,1.65625 0,1.359375 -0.6875,1.640625 -1.125,1.640625 -0.4375,0 -1.1875,-0.171875 -1.53125,-0.75 0.34375,0.046875 0.65625,-0.171875 0.65625,-0.546875 0,-0.359375 -0.265625,-0.5625 -0.546875,-0.5625 -0.25,0 -0.5625,0.140625 -0.5625,0.578125 0,0.90625 0.921875,1.5625 2.015625,1.5625 1.21875,0 2.125,-0.90625 2.125,-1.921875 0,-0.8125 -0.640625,-1.59375 -1.671875,-1.8125 z m 0,0"
               id="path4256" />
          </symbol>
          <symbol
             style="overflow:visible"
             overflow="visible"
             id="textext-06ba9860-2">
            <path
               style="stroke:none"
               d="m 4.578125,-3.1875 c 0,-0.796875 -0.046875,-1.59375 -0.390625,-2.328125 -0.453125,-0.96875 -1.28125,-1.125 -1.6875,-1.125 -0.609375,0 -1.328125,0.265625 -1.75,1.1875 -0.3125,0.6875 -0.359375,1.46875 -0.359375,2.265625 0,0.75 0.03125,1.640625 0.453125,2.40625 0.421875,0.796875 1.15625,1 1.640625,1 0.53125,0 1.296875,-0.203125 1.734375,-1.15625 0.3125,-0.6875 0.359375,-1.46875 0.359375,-2.25 z M 2.484375,0 C 2.09375,0 1.5,-0.25 1.328125,-1.203125 1.21875,-1.796875 1.21875,-2.71875 1.21875,-3.3125 c 0,-0.640625 0,-1.296875 0.078125,-1.828125 0.1875,-1.1875 0.9375,-1.28125 1.1875,-1.28125 0.328125,0 0.984375,0.1875 1.171875,1.171875 0.109375,0.5625 0.109375,1.3125 0.109375,1.9375 0,0.75 0,1.421875 -0.109375,2.0625 C 3.5,-0.296875 2.9375,0 2.484375,0 z m 0,0"
               id="path4259" />
          </symbol>
          <symbol
             style="overflow:visible"
             overflow="visible"
             id="textext-06ba9860-3">
            <path
               style="stroke:none"
               d="m 2.9375,-1.640625 0,0.859375 c 0,0.359375 -0.03125,0.46875 -0.765625,0.46875 l -0.203125,0 0,0.3125 C 2.375,-0.03125 2.890625,-0.03125 3.3125,-0.03125 c 0.421875,0 0.9375,0 1.359375,0.03125 l 0,-0.3125 -0.21875,0 c -0.734375,0 -0.75,-0.109375 -0.75,-0.46875 l 0,-0.859375 0.984375,0 0,-0.3125 -0.984375,0 0,-4.53125 c 0,-0.203125 0,-0.265625 -0.171875,-0.265625 -0.078125,0 -0.109375,0 -0.1875,0.125 l -3.0625,4.671875 0,0.3125 2.65625,0 z m 0.046875,-0.3125 -2.421875,0 2.421875,-3.71875 0,3.71875 z m 0,0"
               id="path4262" />
          </symbol>
          <symbol
             style="overflow:visible"
             overflow="visible"
             id="textext-06ba9860-4">
            <path
               style="stroke:none"
               d="m 4.46875,-2 c 0,-1.1875 -0.8125,-2.1875 -1.890625,-2.1875 -0.46875,0 -0.90625,0.15625 -1.265625,0.515625 l 0,-1.953125 c 0.203125,0.0625 0.53125,0.125 0.84375,0.125 1.234375,0 1.9375,-0.90625 1.9375,-1.03125 0,-0.0625 -0.03125,-0.109375 -0.109375,-0.109375 0,0 -0.03125,0 -0.078125,0.03125 C 3.703125,-6.515625 3.21875,-6.3125 2.546875,-6.3125 2.15625,-6.3125 1.6875,-6.390625 1.21875,-6.59375 1.140625,-6.625 1.125,-6.625 1.109375,-6.625 1,-6.625 1,-6.546875 1,-6.390625 L 1,-3.4375 c 0,0.171875 0,0.25 0.140625,0.25 0.078125,0 0.09375,-0.015625 0.140625,-0.078125 C 1.390625,-3.421875 1.75,-3.96875 2.5625,-3.96875 c 0.515625,0 0.765625,0.453125 0.84375,0.640625 0.15625,0.375 0.1875,0.75 0.1875,1.25 0,0.359375 0,0.953125 -0.25,1.375 C 3.109375,-0.3125 2.734375,-0.0625 2.28125,-0.0625 c -0.71875,0 -1.296875,-0.53125 -1.46875,-1.109375 0.03125,0 0.0625,0.015625 0.171875,0.015625 0.328125,0 0.5,-0.25 0.5,-0.484375 0,-0.25 -0.171875,-0.5 -0.5,-0.5 C 0.84375,-2.140625 0.5,-2.0625 0.5,-1.609375 0.5,-0.75 1.1875,0.21875 2.296875,0.21875 3.453125,0.21875 4.46875,-0.734375 4.46875,-2 z m 0,0"
               id="path4265" />
          </symbol>
          <symbol
             style="overflow:visible"
             overflow="visible"
             id="textext-06ba9860-5">
            <path
               style="stroke:none"
               d=""
               id="path4268" />
          </symbol>
          <symbol
             style="overflow:visible"
             overflow="visible"
             id="textext-06ba9860-6">
            <path
               style="stroke:none"
               d="m 1.90625,-0.53125 c 0,-0.28125 -0.234375,-0.53125 -0.515625,-0.53125 -0.296875,0 -0.53125,0.25 -0.53125,0.53125 C 0.859375,-0.234375 1.09375,0 1.390625,0 1.671875,0 1.90625,-0.234375 1.90625,-0.53125 z m 0,0"
               id="path4271" />
          </symbol>
        </g>
      </defs>
      <g
         id="textext-06ba9860-7">
        <g
           style="fill:#000000;fill-opacity:1"
           id="g4274">
          <use
             height="177.16534"
             width="212.59842"
             xlink:href="#textext-06ba9860-1"
             x="223.43201"
             y="134.765"
             id="use4276" />
          <use
             height="177.16534"
             width="212.59842"
             xlink:href="#textext-06ba9860-2"
             x="228.4133"
             y="134.765"
             id="use4278" />
        </g>
        <g
           style="fill:#000000;fill-opacity:1"
           id="g4280">
          <use
             height="177.16534"
             width="212.59842"
             xlink:href="#textext-06ba9860-6"
             x="233.395"
             y="134.765"
             id="use4282" />
        </g>
        <g
           style="fill:#000000;fill-opacity:1"
           id="g4284">
          <use
             height="177.16534"
             width="212.59842"
             xlink:href="#textext-06ba9860-3"
             x="236.162"
             y="134.765"
             id="use4286" />
          <use
             height="177.16534"
             width="212.59842"
             xlink:href="#textext-06ba9860-4"
             x="241.1433"
             y="134.765"
             id="use4288" />
        </g>
      </g>
    </g>
    <path
       style="fill:none;stroke:#000000;stroke-width:1.375;stroke-linecap:butt;stroke-linejoin:miter;stroke-opacity:1;stroke-miterlimit:4;stroke-dasharray:none"
       d="M 47.482053,80.981877 101.3023,124.91788 156.55112,81.800768"
       id="path2951"
       transform="translate(0,875.19552)"
       sodipodi:nodetypes="ccc" />
    <g
       ns0:text="vAyxsAdhaR parx. 12"
       ns0:preamble="/home/sriranga/Desktop/Ganitarnava/figure/package.tex"
       transform="matrix(1.1,0,0,1.1,-175.54406,866.19961)"
       id="g3811">
      <defs
         id="defs3813">
        <g
           id="g3815">
          <symbol
             overflow="visible"
             id="textext-7c67f466-0">
            <path
               style="stroke:none;"
               d=""
               id="path3818" />
          </symbol>
          <symbol
             overflow="visible"
             id="textext-7c67f466-1">
            <path
               style="stroke:none;"
               d="M 0.484375 -4.234375 L 0.484375 -3.59375 L 2.265625 -3.59375 L 2.796875 -3.59375 C 2.890625 -3.59375 3 -3.609375 3.09375 -3.59375 C 3.515625 -3.5625 3.890625 -3.421875 4.234375 -3.203125 C 4.6875 -2.90625 5.0625 -2.46875 5.140625 -1.9375 C 5.15625 -1.8125 5.171875 -1.671875 5.15625 -1.5625 C 5.078125 -1.0625 4.625 -0.78125 4.171875 -0.75 C 3.984375 -0.734375 3.78125 -0.75 3.625 -0.84375 C 3.40625 -0.953125 3.265625 -1.125 3.140625 -1.328125 C 3.09375 -1.4375 3.046875 -1.53125 3 -1.640625 C 2.90625 -1.46875 2.796875 -1.296875 2.65625 -1.15625 C 2.3125 -0.8125 1.78125 -0.640625 1.296875 -0.78125 C 1.015625 -0.859375 0.71875 -1.03125 0.671875 -1.328125 C 0.65625 -1.390625 0.65625 -1.453125 0.671875 -1.5 C 0.703125 -1.828125 1.015625 -2 1.328125 -2 C 1.5 -2 1.671875 -1.9375 1.78125 -1.796875 C 1.796875 -1.765625 1.84375 -1.71875 1.84375 -1.671875 C 1.84375 -1.625 1.828125 -1.578125 1.8125 -1.5625 C 1.78125 -1.484375 1.71875 -1.40625 1.671875 -1.34375 C 1.625 -1.3125 1.546875 -1.25 1.53125 -1.203125 C 1.53125 -1.171875 1.53125 -1.140625 1.53125 -1.109375 C 1.71875 -1.109375 1.90625 -1.1875 2.03125 -1.34375 C 2.109375 -1.453125 2.140625 -1.5625 2.140625 -1.6875 C 2.140625 -1.890625 2.078125 -2.09375 1.90625 -2.21875 C 1.625 -2.390625 1.203125 -2.40625 0.921875 -2.25 C 0.75 -2.140625 0.625 -2 0.5625 -1.8125 C 0.5 -1.671875 0.484375 -1.5 0.484375 -1.34375 C 0.484375 -0.984375 0.578125 -0.578125 0.875 -0.3125 C 1.140625 -0.078125 1.515625 0 1.859375 -0.046875 C 2.109375 -0.0625 2.34375 -0.125 2.546875 -0.28125 C 2.765625 -0.453125 2.90625 -0.734375 2.984375 -1 L 2.984375 -1 C 3.015625 -0.890625 3.078125 -0.78125 3.125 -0.671875 C 3.203125 -0.515625 3.328125 -0.375 3.484375 -0.265625 C 3.921875 0.0625 4.59375 0.046875 5.03125 -0.296875 C 5.4375 -0.59375 5.5625 -1.09375 5.546875 -1.578125 C 5.53125 -1.8125 5.5 -2.046875 5.390625 -2.265625 C 5.25 -2.5625 5.03125 -2.8125 4.78125 -3.015625 C 4.578125 -3.1875 4.359375 -3.3125 4.140625 -3.421875 C 4.015625 -3.484375 3.875 -3.5625 3.75 -3.59375 L 3.75 -3.59375 L 4.140625 -3.59375 L 4.140625 -4.234375 L 0.484375 -4.234375 Z M 0.484375 -4.234375 "
               id="path3821" />
          </symbol>
          <symbol
             overflow="visible"
             id="textext-7c67f466-2">
            <path
               style="stroke:none;"
               d="M -0.03125 -4.234375 L -0.03125 -3.59375 L 2.515625 -3.59375 L 3.03125 -3.59375 C 3.125 -3.59375 3.21875 -3.609375 3.3125 -3.59375 C 3.5625 -3.5625 3.8125 -3.5 4.015625 -3.375 C 4.28125 -3.21875 4.515625 -3 4.671875 -2.734375 C 4.796875 -2.484375 4.84375 -2.203125 4.84375 -1.921875 C 4.84375 -1.46875 4.703125 -1.015625 4.296875 -0.78125 C 4.09375 -0.65625 3.859375 -0.609375 3.625 -0.59375 C 3.328125 -0.5625 3.03125 -0.59375 2.78125 -0.75 C 2.671875 -0.8125 2.578125 -0.890625 2.515625 -1 C 2.40625 -1.28125 2.5 -1.640625 2.765625 -1.78125 C 2.75 -1.671875 2.734375 -1.5625 2.75 -1.453125 C 2.765625 -1.296875 2.90625 -1.15625 3.046875 -1.109375 C 3.125 -1.09375 3.203125 -1.09375 3.296875 -1.109375 C 3.375 -1.125 3.46875 -1.15625 3.53125 -1.21875 C 3.71875 -1.390625 3.703125 -1.78125 3.53125 -1.953125 C 3.46875 -2.03125 3.375 -2.078125 3.265625 -2.078125 C 3.1875 -2.109375 3.09375 -2.09375 3 -2.078125 C 2.921875 -2.078125 2.84375 -2.046875 2.765625 -2.03125 C 2.359375 -1.828125 2.21875 -1.328125 2.296875 -0.921875 C 2.40625 -0.421875 2.828125 -0.0625 3.34375 -0.03125 C 3.515625 -0.015625 3.671875 -0.046875 3.84375 -0.0625 C 3.984375 -0.09375 4.109375 -0.15625 4.25 -0.203125 C 4.34375 -0.265625 4.421875 -0.3125 4.484375 -0.375 C 4.9375 -0.78125 5.03125 -1.421875 5.03125 -2 C 5.03125 -2.21875 5.03125 -2.421875 4.96875 -2.625 C 4.9375 -2.828125 4.890625 -3.015625 4.796875 -3.203125 C 4.6875 -3.40625 4.5625 -3.59375 4.390625 -3.765625 C 4.109375 -4.015625 3.75 -4.171875 3.375 -4.234375 C 3.125 -4.25 2.859375 -4.234375 2.609375 -4.234375 L -0.03125 -4.234375 Z M -0.03125 -4.234375 "
               id="path3824" />
          </symbol>
          <symbol
             overflow="visible"
             id="textext-7c67f466-3">
            <path
               style="stroke:none;"
               d="M -0.96875 1.78125 L -0.765625 1.609375 C -0.8125 1.46875 -0.921875 1.3125 -0.875 1.171875 C -0.84375 1.109375 -0.765625 1.0625 -0.703125 1.015625 C -0.65625 0.984375 -0.59375 0.953125 -0.53125 0.953125 C -0.265625 0.9375 -0.03125 1.203125 -0.046875 1.46875 C -0.046875 1.671875 -0.234375 1.828125 -0.40625 1.9375 C -0.703125 2.15625 -1.109375 2.25 -1.203125 2.65625 C -1.21875 2.71875 -1.21875 2.78125 -1.21875 2.84375 C -1.21875 2.9375 -1.203125 3.015625 -1.15625 3.09375 C -1.09375 3.21875 -0.984375 3.3125 -0.875 3.390625 C -0.796875 3.453125 -0.703125 3.5 -0.625 3.53125 C -0.453125 3.609375 -0.265625 3.625 -0.09375 3.625 C 0.171875 3.625 0.46875 3.625 0.71875 3.515625 C 1.078125 3.375 1.359375 3.03125 1.46875 2.671875 C 1.640625 2.125 1.390625 1.5 1.03125 1.09375 C 0.953125 1 0.84375 0.921875 0.75 0.84375 C 0.671875 0.75 0.59375 0.640625 0.515625 0.53125 C 0.421875 0.40625 0.34375 0.296875 0.296875 0.15625 C 0.28125 0.0625 0.296875 -0.125 0.40625 -0.140625 C 0.46875 -0.15625 0.53125 -0.125 0.59375 -0.109375 C 0.75 -0.0625 0.921875 0.046875 0.9375 0.234375 L 1.171875 0.234375 C 1.15625 -0.0625 0.9375 -0.359375 0.671875 -0.46875 C 0.484375 -0.53125 0.265625 -0.53125 0.140625 -0.359375 C 0.03125 -0.203125 -0.015625 0.03125 0.046875 0.203125 C 0.078125 0.34375 0.171875 0.484375 0.265625 0.625 C 0.328125 0.71875 0.390625 0.828125 0.453125 0.921875 C 0.5625 1.03125 0.671875 1.125 0.78125 1.25 C 0.96875 1.46875 1.109375 1.75 1.15625 2.046875 C 1.171875 2.171875 1.171875 2.296875 1.125 2.40625 C 1.09375 2.515625 1.046875 2.609375 0.984375 2.6875 C 0.703125 3.09375 0.1875 3.203125 -0.28125 3.140625 C -0.515625 3.09375 -0.84375 3.03125 -0.890625 2.75 C -0.921875 2.609375 -0.84375 2.515625 -0.75 2.421875 C -0.59375 2.28125 -0.40625 2.203125 -0.21875 2.078125 C -0.15625 2.046875 -0.09375 2 -0.046875 1.9375 C 0.109375 1.75 0.140625 1.515625 0.125 1.28125 C 0.109375 1.140625 0.078125 1 0.015625 0.875 C -0.125 0.640625 -0.421875 0.546875 -0.671875 0.625 C -0.796875 0.65625 -0.90625 0.75 -0.984375 0.84375 C -1.1875 1.125 -1.140625 1.5 -0.96875 1.78125 Z M -0.96875 1.78125 "
               id="path3827" />
          </symbol>
          <symbol
             overflow="visible"
             id="textext-7c67f466-4">
            <path
               style="stroke:none;"
               d="M 0.484375 -4.234375 L 0.484375 -3.59375 L 3.140625 -3.59375 L 3.140625 -4.234375 L 0.484375 -4.234375 Z M 1.953125 -3.3125 C 1.578125 -3.265625 1.40625 -2.796875 1.65625 -2.5 C 1.78125 -2.359375 1.96875 -2.3125 2.15625 -2.34375 C 2.21875 -2.359375 2.28125 -2.375 2.328125 -2.40625 C 2.5625 -2.5625 2.609375 -2.890625 2.46875 -3.109375 C 2.34375 -3.265625 2.15625 -3.359375 1.953125 -3.3125 Z M 3.921875 -3.015625 C 3.984375 -2.796875 4 -2.578125 4.046875 -2.359375 C 4.109375 -1.9375 4.15625 -1.5 4.015625 -1.09375 C 3.953125 -0.9375 3.90625 -0.765625 3.78125 -0.640625 C 3.734375 -0.59375 3.65625 -0.546875 3.578125 -0.5625 C 3.515625 -0.59375 3.46875 -0.640625 3.421875 -0.703125 C 3.34375 -0.8125 3.28125 -0.953125 3.21875 -1.09375 C 3.171875 -1.203125 3.125 -1.328125 3.046875 -1.453125 C 2.9375 -1.640625 2.765625 -1.796875 2.5625 -1.875 C 2.375 -1.9375 2.171875 -1.96875 1.96875 -1.96875 C 1.578125 -1.96875 1.1875 -1.859375 0.90625 -1.578125 C 0.515625 -1.171875 0.453125 -0.5625 0.625 -0.046875 C 0.640625 -0.046875 0.671875 -0.046875 0.6875 -0.0625 C 0.734375 -0.09375 0.71875 -0.203125 0.734375 -0.265625 C 0.75 -0.40625 0.796875 -0.53125 0.875 -0.671875 C 1.09375 -1.046875 1.53125 -1.328125 1.96875 -1.34375 C 2.390625 -1.359375 2.796875 -1.234375 3.046875 -0.890625 C 3.125 -0.78125 3.1875 -0.65625 3.234375 -0.53125 C 3.3125 -0.3125 3.375 -0.046875 3.640625 -0.015625 C 3.703125 -0.015625 3.75 -0.015625 3.8125 -0.015625 C 3.875 -0.03125 3.9375 -0.046875 4 -0.078125 C 4.15625 -0.15625 4.28125 -0.3125 4.34375 -0.484375 C 4.390625 -0.578125 4.390625 -0.6875 4.421875 -0.796875 C 4.46875 -1.0625 4.484375 -1.328125 4.484375 -1.609375 C 4.484375 -1.796875 4.484375 -1.984375 4.453125 -2.15625 C 4.421875 -2.25 4.390625 -2.328125 4.359375 -2.421875 C 4.28125 -2.65625 4.15625 -2.921875 3.921875 -3.015625 Z M 3.921875 -3.015625 "
               id="path3830" />
          </symbol>
          <symbol
             overflow="visible"
             id="textext-7c67f466-5">
            <path
               style="stroke:none;"
               d="M 0.484375 -4.234375 L 0.484375 -3.59375 L 1.921875 -3.59375 L 1.921875 -3.59375 C 1.75 -3.53125 1.59375 -3.421875 1.453125 -3.3125 C 1.25 -3.1875 1.0625 -3.015625 0.921875 -2.828125 C 0.59375 -2.40625 0.4375 -1.859375 0.484375 -1.328125 C 0.515625 -0.96875 0.640625 -0.59375 0.90625 -0.328125 C 1.171875 -0.078125 1.53125 0 1.890625 -0.046875 C 2.046875 -0.0625 2.1875 -0.09375 2.328125 -0.171875 C 2.65625 -0.375 2.90625 -0.71875 2.984375 -1.078125 L 3 -1.078125 C 3.03125 -0.9375 3.109375 -0.796875 3.1875 -0.671875 C 3.296875 -0.5 3.453125 -0.3125 3.640625 -0.203125 C 4.0625 0.0625 4.671875 0.03125 5.046875 -0.296875 C 5.375 -0.578125 5.515625 -0.984375 5.53125 -1.421875 C 5.546875 -1.640625 5.515625 -1.875 5.46875 -2.09375 C 5.3125 -2.578125 4.984375 -3.015625 4.578125 -3.296875 C 4.421875 -3.40625 4.25 -3.53125 4.0625 -3.59375 L 4.0625 -3.59375 L 4.359375 -3.59375 L 4.359375 -4.234375 L 0.484375 -4.234375 Z M 3 -1.640625 C 2.9375 -1.546875 2.890625 -1.4375 2.828125 -1.328125 C 2.6875 -1.109375 2.5 -0.890625 2.25 -0.8125 C 2.109375 -0.75 1.96875 -0.734375 1.828125 -0.734375 C 1.703125 -0.734375 1.59375 -0.75 1.484375 -0.78125 C 1.390625 -0.828125 1.3125 -0.875 1.234375 -0.921875 C 0.6875 -1.359375 0.78125 -2.234375 1.140625 -2.75 C 1.21875 -2.84375 1.296875 -2.9375 1.390625 -3.03125 C 1.828125 -3.453125 2.40625 -3.609375 3.015625 -3.609375 C 3.359375 -3.609375 3.71875 -3.5625 4.046875 -3.40625 C 4.671875 -3.125 5.15625 -2.546875 5.15625 -1.828125 C 5.15625 -1.71875 5.15625 -1.609375 5.140625 -1.5 C 5.046875 -1.203125 4.828125 -0.921875 4.546875 -0.8125 C 4.265625 -0.6875 3.890625 -0.71875 3.625 -0.859375 C 3.40625 -0.984375 3.234375 -1.203125 3.109375 -1.40625 C 3.078125 -1.46875 3.03125 -1.5625 3 -1.640625 Z M 2.953125 -0.3125 C 2.9375 -0.296875 2.921875 -0.25 2.90625 -0.203125 C 2.875 -0.125 2.84375 -0.015625 2.828125 0.0625 C 2.765625 0.28125 2.6875 0.484375 2.625 0.6875 C 2.578125 0.875 2.515625 1.0625 2.578125 1.25 C 2.640625 1.5625 3.046875 1.65625 3.296875 1.46875 C 3.453125 1.328125 3.453125 1.15625 3.421875 0.953125 C 3.375 0.65625 3.28125 0.375 3.1875 0.09375 C 3.140625 -0.015625 3.109375 -0.15625 3.0625 -0.265625 C 3.046875 -0.3125 3.015625 -0.359375 2.953125 -0.3125 Z M 2.953125 -0.3125 "
               id="path3833" />
          </symbol>
          <symbol
             overflow="visible"
             id="textext-7c67f466-6">
            <path
               style="stroke:none;"
               d="M 1 -5.875 C 1.09375 -5.796875 1.171875 -5.71875 1.21875 -5.625 C 1.40625 -5.390625 1.5625 -5 1.421875 -4.703125 C 1.359375 -4.609375 1.28125 -4.53125 1.1875 -4.453125 C 1.109375 -4.375 1.03125 -4.3125 0.921875 -4.28125 C 0.8125 -4.234375 0.671875 -4.234375 0.5625 -4.234375 L 0 -4.234375 L 0 -3.59375 L 0.484375 -3.59375 C 0.625 -3.59375 0.75 -3.59375 0.890625 -3.625 C 1.140625 -3.671875 1.390625 -3.78125 1.5625 -3.96875 C 1.796875 -4.203125 1.9375 -4.5625 1.890625 -4.890625 C 1.859375 -5.0625 1.796875 -5.234375 1.703125 -5.390625 C 1.625 -5.515625 1.5 -5.671875 1.359375 -5.765625 C 1.265625 -5.828125 1.125 -5.859375 1 -5.875 Z M 1 -5.875 "
               id="path3836" />
          </symbol>
          <symbol
             overflow="visible"
             id="textext-7c67f466-7">
            <path
               style="stroke:none;"
               d="M 1.34375 -2.046875 L 1.34375 -2.03125 C 0.78125 -1.84375 0.34375 -1.28125 0.515625 -0.671875 C 0.53125 -0.578125 0.578125 -0.484375 0.640625 -0.40625 C 0.703125 -0.296875 0.78125 -0.203125 0.890625 -0.15625 C 1.125 0 1.390625 -0.015625 1.671875 -0.015625 L 2.6875 -0.015625 L 2.6875 -0.5625 L 1.75 -0.5625 C 1.546875 -0.5625 1.34375 -0.53125 1.15625 -0.625 C 1.03125 -0.703125 0.890625 -0.8125 0.84375 -0.953125 C 0.71875 -1.234375 1 -1.578125 1.25 -1.671875 C 1.421875 -1.75 1.609375 -1.71875 1.796875 -1.71875 L 2.796875 -1.71875 L 2.796875 -2.328125 L 1.859375 -2.328125 C 1.65625 -2.328125 1.453125 -2.3125 1.265625 -2.40625 C 1.140625 -2.484375 1 -2.59375 0.953125 -2.734375 C 0.921875 -2.8125 0.9375 -2.890625 0.953125 -2.96875 C 0.984375 -3.1875 1.109375 -3.375 1.3125 -3.453125 C 1.453125 -3.515625 1.609375 -3.515625 1.765625 -3.515625 L 2.359375 -3.515625 L 4.53125 -3.515625 L 4.53125 -4.21875 L 2.265625 -4.21875 L 1.78125 -4.21875 C 1.53125 -4.21875 1.296875 -4.203125 1.078125 -4.109375 C 0.953125 -4.046875 0.828125 -3.96875 0.734375 -3.875 C 0.4375 -3.5625 0.40625 -3.03125 0.59375 -2.65625 C 0.703125 -2.46875 0.875 -2.328125 1.0625 -2.1875 C 1.15625 -2.140625 1.25 -2.078125 1.34375 -2.046875 Z M 1.34375 -2.046875 "
               id="path3839" />
          </symbol>
          <symbol
             overflow="visible"
             id="textext-7c67f466-8">
            <path
               style="stroke:none;"
               d="M 0.484375 -4.234375 L 0.484375 -3.59375 L 4.5 -3.59375 L 4.5 -4.234375 L 0.484375 -4.234375 Z M 2.78125 -3.34375 C 2.71875 -3.328125 2.65625 -3.3125 2.59375 -3.265625 C 2.53125 -3.234375 2.46875 -3.1875 2.4375 -3.125 C 2.265625 -2.90625 2.375 -2.578125 2.578125 -2.421875 C 2.6875 -2.359375 2.828125 -2.328125 2.953125 -2.34375 C 3.296875 -2.375 3.484375 -2.796875 3.3125 -3.09375 C 3.203125 -3.296875 2.984375 -3.375 2.78125 -3.34375 Z M 2.96875 -1.609375 C 2.875 -1.453125 2.765625 -1.28125 2.625 -1.140625 C 2.296875 -0.8125 1.78125 -0.640625 1.3125 -0.765625 C 1 -0.84375 0.671875 -1 0.625 -1.359375 C 0.625 -1.40625 0.625 -1.453125 0.640625 -1.5 C 0.6875 -1.828125 1 -1.984375 1.296875 -1.984375 C 1.46875 -1.984375 1.671875 -1.90625 1.765625 -1.75 C 1.859375 -1.609375 1.71875 -1.421875 1.609375 -1.3125 C 1.546875 -1.25 1.484375 -1.203125 1.5 -1.09375 C 1.671875 -1.09375 1.859375 -1.171875 1.984375 -1.3125 C 2.1875 -1.5625 2.140625 -2.015625 1.875 -2.203125 C 1.734375 -2.296875 1.546875 -2.328125 1.375 -2.328125 C 1.28125 -2.328125 1.1875 -2.328125 1.09375 -2.296875 C 0.84375 -2.25 0.65625 -2.078125 0.5625 -1.859375 C 0.5 -1.6875 0.484375 -1.515625 0.484375 -1.328125 C 0.484375 -0.9375 0.578125 -0.515625 0.921875 -0.265625 C 1.171875 -0.09375 1.46875 -0.046875 1.78125 -0.046875 C 2.015625 -0.0625 2.265625 -0.125 2.484375 -0.25 C 2.734375 -0.421875 2.875 -0.703125 2.953125 -0.984375 C 2.984375 -0.890625 3 -0.8125 3.046875 -0.75 C 3.125 -0.5625 3.234375 -0.40625 3.40625 -0.296875 C 3.515625 -0.203125 3.640625 -0.15625 3.765625 -0.109375 C 4.21875 0.03125 4.828125 -0.0625 5.15625 -0.421875 C 5.390625 -0.6875 5.40625 -1.03125 5.40625 -1.359375 C 5.390625 -1.765625 5.375 -2.171875 5.265625 -2.578125 C 5.21875 -2.734375 5.15625 -2.890625 5.078125 -3.03125 C 5.046875 -3.09375 5 -3.171875 4.9375 -3.203125 C 4.84375 -3.28125 4.734375 -3.234375 4.671875 -3.15625 C 4.609375 -3.0625 4.59375 -2.9375 4.609375 -2.828125 C 4.640625 -2.765625 4.671875 -2.71875 4.71875 -2.65625 C 4.78125 -2.578125 4.828125 -2.515625 4.875 -2.453125 C 5.078125 -2.171875 5.296875 -1.796875 5.21875 -1.4375 C 5.171875 -1.234375 5.03125 -1.078125 4.875 -0.96875 C 4.671875 -0.8125 4.40625 -0.75 4.15625 -0.734375 C 3.9375 -0.71875 3.734375 -0.734375 3.53125 -0.84375 C 3.34375 -0.96875 3.1875 -1.171875 3.078125 -1.359375 C 3.046875 -1.453125 3.015625 -1.53125 2.96875 -1.609375 Z M 2.96875 -1.609375 "
               id="path3842" />
          </symbol>
          <symbol
             overflow="visible"
             id="textext-7c67f466-9">
            <path
               style="stroke:none;"
               d="M -4.3125 1.5625 C -4.25 1.671875 -4.203125 1.765625 -4.125 1.859375 C -3.953125 2.140625 -3.734375 2.40625 -3.4375 2.578125 C -3.1875 2.734375 -2.875 2.828125 -2.578125 2.890625 C -2.09375 2.984375 -1.578125 3 -1.109375 2.84375 C -0.84375 2.75 -0.625 2.625 -0.40625 2.453125 C -0.203125 2.328125 -0.046875 2.15625 0.078125 1.96875 C 0.265625 1.6875 0.34375 1.390625 0.375 1.078125 C 0.390625 0.890625 0.390625 0.703125 0.328125 0.515625 C 0.28125 0.328125 0.15625 0.171875 -0.015625 0.0625 C -0.0625 0.046875 -0.109375 0 -0.171875 -0.015625 C -0.234375 -0.015625 -0.296875 -0.015625 -0.34375 0.03125 C -0.40625 0.0625 -0.4375 0.171875 -0.40625 0.234375 C -0.359375 0.3125 -0.265625 0.359375 -0.1875 0.421875 C -0.09375 0.5 -0.015625 0.609375 0.0625 0.71875 C 0.09375 0.765625 0.15625 0.84375 0.15625 0.890625 C 0.171875 0.953125 0.15625 1.015625 0.15625 1.0625 C 0.125 1.203125 0.0625 1.328125 -0.015625 1.453125 C -0.296875 1.875 -0.78125 2.140625 -1.25 2.296875 C -1.671875 2.4375 -2.09375 2.46875 -2.515625 2.421875 C -2.828125 2.390625 -3.125 2.34375 -3.390625 2.203125 C -3.546875 2.109375 -3.703125 2.03125 -3.84375 1.890625 C -3.90625 1.828125 -3.96875 1.75 -4.015625 1.6875 C -4.046875 1.640625 -4.078125 1.59375 -4.109375 1.578125 C -4.171875 1.5625 -4.25 1.5625 -4.3125 1.5625 Z M -4.3125 1.5625 "
               id="path3845" />
          </symbol>
          <symbol
             overflow="visible"
             id="textext-7c67f466-10">
            <path
               style="stroke:none;"
               d="M 2.65625 -4.46875 C 2.328125 -4.421875 2.015625 -4.359375 1.71875 -4.234375 C 1.109375 -3.9375 0.703125 -3.328125 0.546875 -2.6875 C 0.484375 -2.390625 0.484375 -2.109375 0.484375 -1.796875 C 0.515625 -1.328125 0.640625 -0.828125 0.921875 -0.421875 C 0.984375 -0.34375 1.03125 -0.265625 1.109375 -0.1875 C 1.140625 -0.15625 1.1875 -0.09375 1.234375 -0.0625 C 1.296875 -0.046875 1.390625 -0.015625 1.46875 -0.015625 C 1.609375 0 1.75 -0.125 1.734375 -0.265625 C 1.71875 -0.359375 1.6875 -0.4375 1.640625 -0.515625 C 1.53125 -0.640625 1.390625 -0.734375 1.28125 -0.84375 C 1.03125 -1.125 0.84375 -1.453125 0.78125 -1.828125 C 0.71875 -2.1875 0.875 -2.578125 1.09375 -2.859375 C 1.53125 -3.453125 2.265625 -3.765625 2.984375 -3.71875 C 3.8125 -3.671875 4.71875 -3.15625 4.859375 -2.28125 C 4.890625 -2.15625 4.890625 -2.03125 4.859375 -1.90625 C 4.8125 -1.5 4.578125 -1.125 4.3125 -0.828125 C 4.25 -0.75 4.171875 -0.671875 4.09375 -0.609375 C 4.046875 -0.5625 3.984375 -0.53125 3.953125 -0.46875 C 3.890625 -0.375 3.890625 -0.203125 3.96875 -0.125 C 4.015625 -0.09375 4.078125 -0.078125 4.140625 -0.0625 C 4.40625 -0.046875 4.59375 -0.21875 4.75 -0.421875 C 5.109375 -0.859375 5.171875 -1.421875 5.171875 -1.96875 C 5.171875 -2.078125 5.1875 -2.171875 5.171875 -2.28125 C 5.15625 -2.578125 5.09375 -2.84375 4.96875 -3.125 C 4.78125 -3.609375 4.390625 -4.046875 3.90625 -4.265625 C 3.59375 -4.421875 3.25 -4.46875 2.90625 -4.46875 C 2.828125 -4.46875 2.734375 -4.46875 2.65625 -4.46875 Z M 2.65625 -4.46875 "
               id="path3848" />
          </symbol>
          <symbol
             overflow="visible"
             id="textext-7c67f466-11">
            <path
               style="stroke:none;"
               d="M 3.453125 -3.234375 L 3.453125 -3.234375 C 3.421875 -3.03125 3.359375 -2.796875 3.171875 -2.6875 C 2.84375 -2.5 2.375 -2.734375 2.359375 -3.109375 C 2.34375 -3.359375 2.546875 -3.5625 2.734375 -3.703125 C 3.015625 -3.875 3.375 -3.953125 3.703125 -3.84375 C 3.890625 -3.765625 4.078125 -3.640625 4.234375 -3.484375 C 4.5625 -3.125 4.78125 -2.6875 4.78125 -2.1875 C 4.78125 -1.96875 4.75 -1.75 4.625 -1.5625 C 4.4375 -1.28125 4.109375 -1.0625 3.78125 -0.953125 C 3.375 -0.796875 2.9375 -0.84375 2.5 -0.84375 L 0.484375 -0.84375 L 0.484375 -0.03125 L 2.6875 -0.03125 C 3.234375 -0.03125 3.796875 -0.015625 4.265625 -0.328125 C 4.609375 -0.5625 4.8125 -0.953125 4.90625 -1.34375 C 4.96875 -1.609375 4.984375 -1.859375 4.984375 -2.140625 C 4.984375 -2.65625 4.90625 -3.15625 4.6875 -3.625 C 4.53125 -3.984375 4.28125 -4.34375 3.90625 -4.515625 C 3.734375 -4.59375 3.546875 -4.625 3.34375 -4.625 C 3.0625 -4.625 2.765625 -4.5625 2.546875 -4.34375 C 2.328125 -4.140625 2.21875 -3.875 2.15625 -3.578125 C 2.09375 -3.15625 2.109375 -2.59375 2.546875 -2.375 C 2.609375 -2.34375 2.671875 -2.3125 2.734375 -2.296875 C 3.078125 -2.234375 3.546875 -2.28125 3.625 -2.6875 C 3.640625 -2.734375 3.640625 -2.796875 3.640625 -2.859375 C 3.625 -3 3.53125 -3.125 3.453125 -3.234375 Z M 3.453125 -3.234375 "
               id="path3851" />
          </symbol>
          <symbol
             overflow="visible"
             id="textext-7c67f466-12">
            <path
               style="stroke:none;"
               d=""
               id="path3854" />
          </symbol>
          <symbol
             overflow="visible"
             id="textext-7c67f466-13">
            <path
               style="stroke:none;"
               d="M 1.90625 -0.53125 C 1.90625 -0.8125 1.671875 -1.0625 1.390625 -1.0625 C 1.09375 -1.0625 0.859375 -0.8125 0.859375 -0.53125 C 0.859375 -0.234375 1.09375 0 1.390625 0 C 1.671875 0 1.90625 -0.234375 1.90625 -0.53125 Z M 1.90625 -0.53125 "
               id="path3857" />
          </symbol>
        </g>
      </defs>
      <g
         id="textext-7c67f466-14">
        <g
           transform="matrix(0.75380388,0.65709947,-0.65709947,0.75380388,122.79834,-158.40656)"
           id="g4030">
          <g
             id="g3860"
             style="fill:#000000;fill-opacity:1">
            <use
               height="177.16534"
               width="212.59842"
               id="use3862"
               y="134.765"
               x="223.43201"
               xlink:href="#textext-7c67f466-1" />
            <use
               height="177.16534"
               width="212.59842"
               id="use3864"
               y="134.765"
               x="227.35129"
               xlink:href="#textext-7c67f466-2" />
            <use
               height="177.16534"
               width="212.59842"
               id="use3866"
               y="134.765"
               x="232.86559"
               xlink:href="#textext-7c67f466-3" />
            <use
               height="177.16534"
               width="212.59842"
               id="use3868"
               y="134.765"
               x="234.38089"
               xlink:href="#textext-7c67f466-4" />
            <use
               height="177.16534"
               width="212.59842"
               id="use3870"
               y="134.765"
               x="237.22322"
               xlink:href="#textext-7c67f466-2" />
            <use
               height="177.16534"
               width="212.59842"
               id="use3872"
               y="134.765"
               x="242.73753"
               xlink:href="#textext-7c67f466-5" />
            <use
               height="177.16534"
               width="212.59842"
               id="use3874"
               y="134.765"
               x="246.60699"
               xlink:href="#textext-7c67f466-6" />
            <use
               height="177.16534"
               width="212.59842"
               id="use3876"
               y="134.765"
               x="248.81073"
               xlink:href="#textext-7c67f466-7" />
          </g>
          <g
             id="g3878"
             style="fill:#000000;fill-opacity:1">
            <use
               height="177.16534"
               width="212.59842"
               id="use3880"
               y="134.765"
               x="256.53671"
               xlink:href="#textext-7c67f466-8" />
            <use
               height="177.16534"
               width="212.59842"
               id="use3882"
               y="134.765"
               x="260.34644"
               xlink:href="#textext-7c67f466-6" />
            <use
               height="177.16534"
               width="212.59842"
               id="use3884"
               y="134.765"
               x="262.55014"
               xlink:href="#textext-7c67f466-9" />
          </g>
          <g
             id="g3886"
             style="fill:#000000;fill-opacity:1">
            <use
               height="177.16534"
               width="212.59842"
               id="use3888"
               y="134.765"
               x="263.522"
               xlink:href="#textext-7c67f466-13" />
          </g>
        </g>
        <text
           transform="matrix(0.74797174,0.66373057,-0.66373057,0.74797174,0,0)"
           sodipodi:linespacing="125%"
           id="text4047"
           y="-65.816719"
           x="254.31308"
           style="font-size:10.909091px;font-style:normal;font-variant:normal;font-weight:normal;font-stretch:normal;line-height:125%;letter-spacing:0px;word-spacing:0px;fill:#000000;fill-opacity:1;stroke:none;font-family:LMRoman10;-inkscape-font-specification:LMRoman10"
           xml:space="preserve"><tspan
             y="-65.816719"
             x="254.31308"
             id="tspan4049"
             sodipodi:role="line">12</tspan></text>
        <text
           sodipodi:linespacing="125%"
           id="text4051"
           y="134.11174"
           x="250.04007"
           style="font-size:10.909091px;font-style:normal;font-variant:normal;font-weight:normal;font-stretch:normal;line-height:125%;letter-spacing:0px;word-spacing:0px;fill:#000000;fill-opacity:1;stroke:none;font-family:LMRoman10;-inkscape-font-specification:LMRoman10"
           xml:space="preserve"><tspan
             y="134.11174"
             x="250.04007"
             id="tspan4053"
             sodipodi:role="line">(3)</tspan></text>
        <text
           sodipodi:linespacing="125%"
           id="text4055"
           y="85.440765"
           x="305.59848"
           style="font-size:10.909091px;font-style:normal;font-variant:normal;font-weight:normal;font-stretch:normal;line-height:125%;letter-spacing:0px;word-spacing:0px;fill:#000000;fill-opacity:1;stroke:none;font-family:LMRoman10;-inkscape-font-specification:LMRoman10"
           xml:space="preserve"><tspan
             y="85.440765"
             x="305.59848"
             id="tspan4057"
             sodipodi:role="line">(2)</tspan></text>
        <text
           sodipodi:linespacing="125%"
           id="text4059"
           y="84.063286"
           x="184.15059"
           style="font-size:10.909091px;font-style:normal;font-variant:normal;font-weight:normal;font-stretch:normal;line-height:125%;letter-spacing:0px;word-spacing:0px;fill:#000000;fill-opacity:1;stroke:none;font-family:LMRoman10;-inkscape-font-specification:LMRoman10"
           xml:space="preserve"><tspan
             y="84.063286"
             x="184.15059"
             id="tspan4061"
             sodipodi:role="line">(1)</tspan></text>
        <text
           sodipodi:linespacing="125%"
           id="text4063"
           y="42.738857"
           x="244.53017"
           style="font-size:10.909091px;font-style:normal;font-variant:normal;font-weight:normal;font-stretch:normal;line-height:125%;letter-spacing:0px;word-spacing:0px;fill:#000000;fill-opacity:1;stroke:none;font-family:LMRoman10;-inkscape-font-specification:LMRoman10"
           xml:space="preserve"><tspan
             y="42.738857"
             x="244.53017"
             id="tspan4065"
             sodipodi:role="line">(4)</tspan></text>
      </g>
    </g>
    <g
       id="g4187"
       transform="matrix(0.87015571,-0.67292573,0.67292573,0.87015571,-213.0506,986.39665)"
       ns0:preamble="/home/sriranga/Desktop/Ganitarnava/figure/package.tex"
       ns0:text="$14.42$">
      <defs
         id="defs4189">
        <g
           id="g4191">
          <symbol
             id="textext-c8cd0ca4-0"
             overflow="visible"
             style="overflow:visible">
            <path
               id="path4194"
               d=""
               style="stroke:none" />
          </symbol>
          <symbol
             id="textext-c8cd0ca4-1"
             overflow="visible"
             style="overflow:visible">
            <path
               id="path4197"
               d="m 2.9375,-6.375 c 0,-0.25 0,-0.265625 -0.234375,-0.265625 C 2.078125,-6 1.203125,-6 0.890625,-6 l 0,0.3125 c 0.203125,0 0.78125,0 1.296875,-0.265625 l 0,5.171875 c 0,0.359375 -0.03125,0.46875 -0.921875,0.46875 l -0.3125,0 0,0.3125 c 0.34375,-0.03125 1.203125,-0.03125 1.609375,-0.03125 0.390625,0 1.265625,0 1.609375,0.03125 l 0,-0.3125 -0.3125,0 c -0.90625,0 -0.921875,-0.109375 -0.921875,-0.46875 l 0,-5.59375 z m 0,0"
               style="stroke:none" />
          </symbol>
          <symbol
             id="textext-c8cd0ca4-2"
             overflow="visible"
             style="overflow:visible">
            <path
               id="path4200"
               d="m 2.9375,-1.640625 0,0.859375 c 0,0.359375 -0.03125,0.46875 -0.765625,0.46875 l -0.203125,0 0,0.3125 C 2.375,-0.03125 2.890625,-0.03125 3.3125,-0.03125 c 0.421875,0 0.9375,0 1.359375,0.03125 l 0,-0.3125 -0.21875,0 c -0.734375,0 -0.75,-0.109375 -0.75,-0.46875 l 0,-0.859375 0.984375,0 0,-0.3125 -0.984375,0 0,-4.53125 c 0,-0.203125 0,-0.265625 -0.171875,-0.265625 -0.078125,0 -0.109375,0 -0.1875,0.125 l -3.0625,4.671875 0,0.3125 2.65625,0 z m 0.046875,-0.3125 -2.421875,0 2.421875,-3.71875 0,3.71875 z m 0,0"
               style="stroke:none" />
          </symbol>
          <symbol
             id="textext-c8cd0ca4-3"
             overflow="visible"
             style="overflow:visible">
            <path
               id="path4203"
               d="m 1.265625,-0.765625 1.0625,-1.03125 c 1.546875,-1.375 2.140625,-1.90625 2.140625,-2.90625 0,-1.140625 -0.890625,-1.9375 -2.109375,-1.9375 -1.125,0 -1.859375,0.921875 -1.859375,1.8125 0,0.546875 0.5,0.546875 0.53125,0.546875 0.171875,0 0.515625,-0.109375 0.515625,-0.53125 0,-0.25 -0.1875,-0.515625 -0.53125,-0.515625 -0.078125,0 -0.09375,0 -0.125,0.015625 0.21875,-0.65625 0.765625,-1.015625 1.34375,-1.015625 0.90625,0 1.328125,0.8125 1.328125,1.625 C 3.5625,-3.90625 3.078125,-3.125 2.515625,-2.5 l -1.90625,2.125 C 0.5,-0.265625 0.5,-0.234375 0.5,0 l 3.703125,0 0.265625,-1.734375 -0.234375,0 C 4.171875,-1.4375 4.109375,-1 4,-0.84375 3.9375,-0.765625 3.28125,-0.765625 3.0625,-0.765625 l -1.796875,0 z m 0,0"
               style="stroke:none" />
          </symbol>
          <symbol
             id="textext-c8cd0ca4-4"
             overflow="visible"
             style="overflow:visible">
            <path
               id="path4206"
               d=""
               style="stroke:none" />
          </symbol>
          <symbol
             id="textext-c8cd0ca4-5"
             overflow="visible"
             style="overflow:visible">
            <path
               id="path4209"
               d="m 1.90625,-0.53125 c 0,-0.28125 -0.234375,-0.53125 -0.515625,-0.53125 -0.296875,0 -0.53125,0.25 -0.53125,0.53125 C 0.859375,-0.234375 1.09375,0 1.390625,0 1.671875,0 1.90625,-0.234375 1.90625,-0.53125 z m 0,0"
               style="stroke:none" />
          </symbol>
        </g>
      </defs>
      <g
         id="textext-c8cd0ca4-6">
        <g
           id="g4212"
           style="fill:#000000;fill-opacity:1">
          <use
             id="use4214"
             y="134.765"
             x="223.43201"
             xlink:href="#textext-c8cd0ca4-1"
             width="212.59842"
             height="177.16534" />
          <use
             id="use4216"
             y="134.765"
             x="228.4133"
             xlink:href="#textext-c8cd0ca4-2"
             width="212.59842"
             height="177.16534" />
        </g>
        <g
           id="g4218"
           style="fill:#000000;fill-opacity:1">
          <use
             id="use4220"
             y="134.765"
             x="233.395"
             xlink:href="#textext-c8cd0ca4-5"
             width="212.59842"
             height="177.16534" />
        </g>
        <g
           id="g4222"
           style="fill:#000000;fill-opacity:1">
          <use
             id="use4224"
             y="134.765"
             x="236.162"
             xlink:href="#textext-c8cd0ca4-2"
             width="212.59842"
             height="177.16534" />
          <use
             id="use4226"
             y="134.765"
             x="241.1433"
             xlink:href="#textext-c8cd0ca4-3"
             width="212.59842"
             height="177.16534" />
        </g>
      </g>
    </g>
    <text
       xml:space="preserve"
       style="font-size:12px;font-style:normal;font-variant:normal;font-weight:normal;font-stretch:normal;line-height:125%;letter-spacing:0px;word-spacing:0px;fill:#000000;fill-opacity:1;stroke:none;font-family:LMRoman10;-inkscape-font-specification:LMRoman10"
       x="103.79318"
       y="946.0423"
       id="text4394"
       sodipodi:linespacing="125%"><tspan
         sodipodi:role="line"
         id="tspan4396"
         x="103.79318"
         y="946.0423">8</tspan></text>
    <text
       xml:space="preserve"
       style="font-size:12px;font-style:normal;font-variant:normal;font-weight:normal;font-stretch:normal;line-height:125%;letter-spacing:0px;word-spacing:0px;fill:#000000;fill-opacity:1;stroke:none;font-family:LMRoman10;-inkscape-font-specification:LMRoman10"
       x="103.2881"
       y="967.25549"
       id="text4398"
       sodipodi:linespacing="125%"><tspan
         sodipodi:role="line"
         id="tspan4400"
         x="103.2881"
         y="967.25549">6</tspan></text>
    <text
       xml:space="preserve"
       style="font-size:12px;font-style:normal;font-variant:normal;font-weight:normal;font-stretch:normal;line-height:125%;letter-spacing:0px;word-spacing:0px;fill:#000000;fill-opacity:1;stroke:none;font-family:LMRoman10;-inkscape-font-specification:LMRoman10"
       x="76.013977"
       y="967.25549"
       id="text4402"
       sodipodi:linespacing="125%"><tspan
         sodipodi:role="line"
         id="tspan4404"
         x="76.013977"
         y="967.25549">12</tspan></text>
    <text
       xml:space="preserve"
       style="font-size:12px;font-style:normal;font-variant:normal;font-weight:normal;font-stretch:normal;line-height:125%;letter-spacing:0px;word-spacing:0px;fill:#000000;fill-opacity:1;stroke:none;font-family:LMRoman10;-inkscape-font-specification:LMRoman10"
       x="103.79317"
       y="986.95349"
       id="text4406"
       sodipodi:linespacing="125%"><tspan
         sodipodi:role="line"
         id="tspan4408"
         x="103.79317"
         y="986.95349">5</tspan></text>
    <text
       xml:space="preserve"
       style="font-size:12px;font-style:normal;font-variant:normal;font-weight:normal;font-stretch:normal;line-height:125%;letter-spacing:0px;word-spacing:0px;fill:#000000;fill-opacity:1;stroke:none;font-family:LMRoman10;-inkscape-font-specification:LMRoman10"
       x="122.73352"
       y="967.25549"
       id="text4410"
       sodipodi:linespacing="125%"><tspan
         sodipodi:role="line"
         id="tspan4412"
         x="122.73352"
         y="967.25549">12</tspan></text>
  </g>
</svg>
