<?xml version="1.0" encoding="UTF-8" standalone="no"?>
<!-- Created with Inkscape (http://www.inkscape.org/) -->

<svg
   xmlns:ns0="http://www.iki.fi/pav/software/textext/"
   xmlns:dc="http://purl.org/dc/elements/1.1/"
   xmlns:cc="http://creativecommons.org/ns#"
   xmlns:rdf="http://www.w3.org/1999/02/22-rdf-syntax-ns#"
   xmlns:svg="http://www.w3.org/2000/svg"
   xmlns="http://www.w3.org/2000/svg"
   xmlns:xlink="http://www.w3.org/1999/xlink"
   xmlns:sodipodi="http://sodipodi.sourceforge.net/DTD/sodipodi-0.dtd"
   xmlns:inkscape="http://www.inkscape.org/namespaces/inkscape"
   id="svg2"
   version="1.1"
   inkscape:version="0.47 r22583"
   width="389.76376"
   height="177.16534"
   sodipodi:docname="fig35.svg">
  <sodipodi:namedview
     pagecolor="#ffffff"
     bordercolor="#666666"
     borderopacity="1"
     objecttolerance="10"
     gridtolerance="10"
     guidetolerance="10"
     inkscape:pageopacity="0"
     inkscape:pageshadow="2"
     inkscape:window-width="1024"
     inkscape:window-height="689"
     id="namedview4"
     showgrid="false"
     units="cm"
     inkscape:zoom="1.8101934"
     inkscape:cx="216.55609"
     inkscape:cy="34.659067"
     inkscape:window-x="0"
     inkscape:window-y="27"
     inkscape:window-maximized="1"
     inkscape:current-layer="svg2" />
  <metadata
     id="metadata8">
    <rdf:RDF>
      <cc:Work
         rdf:about="">
        <dc:format>image/svg+xml</dc:format>
        <dc:type
           rdf:resource="http://purl.org/dc/dcmitype/StillImage" />
        <dc:title />
      </cc:Work>
    </rdf:RDF>
  </metadata>
  <defs
     id="defs6">
    <inkscape:perspective
       sodipodi:type="inkscape:persp3d"
       inkscape:vp_x="0 : 0.5 : 1"
       inkscape:vp_y="0 : 1000 : 0"
       inkscape:vp_z="1 : 0.5 : 1"
       inkscape:persp3d-origin="0.5 : 0.33333333 : 1"
       id="perspective10" />
  </defs>
  <path
     sodipodi:type="arc"
     style="fill:none;stroke:#000000;stroke-width:1.31521745;stroke-linecap:round;stroke-linejoin:miter;stroke-miterlimit:4;stroke-opacity:1;stroke-dasharray:none;stroke-dashoffset:0"
     id="path2818"
     sodipodi:cx="71.632622"
     sodipodi:cy="103.77486"
     sodipodi:rx="53.17514"
     sodipodi:ry="53.17514"
     d="m 124.80776,103.77486 a 53.17514,53.17514 0 1 1 -106.350279,0 53.17514,53.17514 0 1 1 106.350279,0 z"
     transform="matrix(1.0454545,0,0,1.0454545,-2.5968323,-9.770875)" />
  <path
     transform="matrix(1.0454545,0,0,1.0454545,127.40317,-9.770875)"
     d="m 124.80776,103.77486 a 53.17514,53.17514 0 1 1 -106.350279,0 53.17514,53.17514 0 1 1 106.350279,0 z"
     sodipodi:ry="53.17514"
     sodipodi:rx="53.17514"
     sodipodi:cy="103.77486"
     sodipodi:cx="71.632622"
     id="path2820"
     style="fill:none;stroke:#000000;stroke-width:1.31521745;stroke-linecap:round;stroke-linejoin:miter;stroke-miterlimit:4;stroke-opacity:1;stroke-dasharray:none;stroke-dashoffset:0"
     sodipodi:type="arc" />
  <path
     sodipodi:type="arc"
     style="fill:none;stroke:#000000;stroke-width:1.31521745;stroke-linecap:round;stroke-linejoin:miter;stroke-miterlimit:4;stroke-opacity:1;stroke-dasharray:none;stroke-dashoffset:0"
     id="path2822"
     sodipodi:cx="71.632622"
     sodipodi:cy="103.77486"
     sodipodi:rx="53.17514"
     sodipodi:ry="53.17514"
     d="m 124.80776,103.77486 a 53.17514,53.17514 0 1 1 -106.350279,0 53.17514,53.17514 0 1 1 106.350279,0 z"
     transform="matrix(1.0454545,0,0,1.0454545,253.40317,-9.770875)" />
  <path
     style="fill:none;stroke:#000000;stroke-width:1.375;stroke-linecap:butt;stroke-linejoin:miter;stroke-opacity:1;stroke-miterlimit:4;stroke-dasharray:none"
     d="M 20.215342,116.51932 72.511553,42.24991 124.80776,117.83771 20.215342,116.51932 z"
     id="path2824" />
  <path
     style="fill:none;stroke:#000000;stroke-width:1.375;stroke-linecap:butt;stroke-linejoin:miter;stroke-opacity:1;stroke-miterlimit:4;stroke-dasharray:none"
     d="m 17.578558,90.151481 18.018022,0"
     id="path2826" />
  <path
     style="fill:none;stroke:#000000;stroke-width:1.375;stroke-linecap:butt;stroke-linejoin:miter;stroke-opacity:1;stroke-miterlimit:4;stroke-dasharray:none"
     d="m 43.067468,90.151481 58.888172,0"
     id="path2828" />
  <path
     style="fill:none;stroke:#000000;stroke-width:1.375;stroke-linecap:butt;stroke-linejoin:miter;stroke-opacity:1;stroke-miterlimit:4;stroke-dasharray:none"
     d="m 108.5476,90.590945 18.45748,0"
     id="path2830" />
  <rect
     style="fill:none;stroke:#000000;stroke-width:1.375;stroke-linecap:round;stroke-linejoin:miter;stroke-miterlimit:4;stroke-opacity:1;stroke-dasharray:none;stroke-dashoffset:0"
     id="rect2834"
     width="77.785118"
     height="77.785118"
     x="172.54211"
     y="-113.42157"
     transform="matrix(0.70192216,0.71225366,-0.71225366,0.70192216,0,0)" />
  <path
     style="fill:none;stroke:#000000;stroke-width:1.375;stroke-linecap:butt;stroke-linejoin:miter;stroke-opacity:1;stroke-miterlimit:4;stroke-dasharray:none"
     d="M 291.65466,139.5447 278.1807,74.34768 327.97635,44.007765 379.2574,78.949375 360.46812,143.76608 291.65466,139.5447 z"
     id="path2838"
     sodipodi:nodetypes="cccccc" />
  <g
     transform="matrix(1.4017798,0,0,1.4017798,-266.44723,-85.621661)"
     ns0:text="vAyxsa parx. {\\rm 20}"
     ns0:preamble="/home/sriranga/Desktop/Ganitarnava/figure/package.tex"
     id="g2855"
     style="stroke-width:0.98089586;stroke-miterlimit:4;stroke-dasharray:none">
    <defs
       id="defs2857">
      <g
         id="g2859">
        <symbol
           style="overflow:visible"
           overflow="visible"
           id="textext-1d228f01-0">
          <path
             style="stroke:none"
             d=""
             id="path2862" />
        </symbol>
        <symbol
           style="overflow:visible"
           overflow="visible"
           id="textext-1d228f01-1">
          <path
             style="stroke:none"
             d="m 0.484375,-4.234375 0,0.640625 1.78125,0 0.53125,0 c 0.09375,0 0.203125,-0.015625 0.296875,0 0.421875,0.03125 0.796875,0.171875 1.140625,0.390625 C 4.6875,-2.90625 5.0625,-2.46875 5.140625,-1.9375 5.15625,-1.8125 5.171875,-1.671875 5.15625,-1.5625 5.078125,-1.0625 4.625,-0.78125 4.171875,-0.75 3.984375,-0.734375 3.78125,-0.75 3.625,-0.84375 3.40625,-0.953125 3.265625,-1.125 3.140625,-1.328125 3.09375,-1.4375 3.046875,-1.53125 3,-1.640625 2.90625,-1.46875 2.796875,-1.296875 2.65625,-1.15625 c -0.34375,0.34375 -0.875,0.515625 -1.359375,0.375 -0.28125,-0.078125 -0.578125,-0.25 -0.625,-0.546875 -0.015625,-0.0625 -0.015625,-0.125 0,-0.171875 0.03125,-0.328125 0.34375,-0.5 0.65625,-0.5 0.171875,0 0.34375,0.0625 0.453125,0.203125 0.015625,0.03125 0.0625,0.078125 0.0625,0.125 0,0.046875 -0.015625,0.09375 -0.03125,0.109375 C 1.78125,-1.484375 1.71875,-1.40625 1.671875,-1.34375 1.625,-1.3125 1.546875,-1.25 1.53125,-1.203125 c 0,0.03125 0,0.0625 0,0.09375 0.1875,0 0.375,-0.078125 0.5,-0.234375 0.078125,-0.109375 0.109375,-0.21875 0.109375,-0.34375 0,-0.203125 -0.0625,-0.40625 -0.234375,-0.53125 C 1.625,-2.390625 1.203125,-2.40625 0.921875,-2.25 0.75,-2.140625 0.625,-2 0.5625,-1.8125 0.5,-1.671875 0.484375,-1.5 0.484375,-1.34375 c 0,0.359375 0.09375,0.765625 0.390625,1.03125 C 1.140625,-0.078125 1.515625,0 1.859375,-0.046875 2.109375,-0.0625 2.34375,-0.125 2.546875,-0.28125 2.765625,-0.453125 2.90625,-0.734375 2.984375,-1 l 0,0 c 0.03125,0.109375 0.09375,0.21875 0.140625,0.328125 0.078125,0.15625 0.203125,0.296875 0.359375,0.40625 0.4375,0.328125 1.109375,0.3125 1.546875,-0.03125 C 5.4375,-0.59375 5.5625,-1.09375 5.546875,-1.578125 5.53125,-1.8125 5.5,-2.046875 5.390625,-2.265625 5.25,-2.5625 5.03125,-2.8125 4.78125,-3.015625 4.578125,-3.1875 4.359375,-3.3125 4.140625,-3.421875 4.015625,-3.484375 3.875,-3.5625 3.75,-3.59375 l 0,0 0.390625,0 0,-0.640625 -3.65625,0 z m 0,0"
             id="path2865" />
        </symbol>
        <symbol
           style="overflow:visible"
           overflow="visible"
           id="textext-1d228f01-2">
          <path
             style="stroke:none"
             d="m -0.03125,-4.234375 0,0.640625 2.546875,0 0.515625,0 c 0.09375,0 0.1875,-0.015625 0.28125,0 0.25,0.03125 0.5,0.09375 0.703125,0.21875 0.265625,0.15625 0.5,0.375 0.65625,0.640625 0.125,0.25 0.171875,0.53125 0.171875,0.8125 0,0.453125 -0.140625,0.90625 -0.546875,1.140625 -0.203125,0.125 -0.4375,0.171875 -0.671875,0.1875 -0.296875,0.03125 -0.59375,0 -0.84375,-0.15625 C 2.671875,-0.8125 2.578125,-0.890625 2.515625,-1 2.40625,-1.28125 2.5,-1.640625 2.765625,-1.78125 2.75,-1.671875 2.734375,-1.5625 2.75,-1.453125 c 0.015625,0.15625 0.15625,0.296875 0.296875,0.34375 0.078125,0.015625 0.15625,0.015625 0.25,0 C 3.375,-1.125 3.46875,-1.15625 3.53125,-1.21875 c 0.1875,-0.171875 0.171875,-0.5625 0,-0.734375 -0.0625,-0.078125 -0.15625,-0.125 -0.265625,-0.125 C 3.1875,-2.109375 3.09375,-2.09375 3,-2.078125 c -0.078125,0 -0.15625,0.03125 -0.234375,0.046875 -0.40625,0.203125 -0.546875,0.703125 -0.46875,1.109375 0.109375,0.5 0.53125,0.859375 1.046875,0.890625 0.171875,0.015625 0.328125,-0.015625 0.5,-0.03125 C 3.984375,-0.09375 4.109375,-0.15625 4.25,-0.203125 4.34375,-0.265625 4.421875,-0.3125 4.484375,-0.375 4.9375,-0.78125 5.03125,-1.421875 5.03125,-2 c 0,-0.21875 0,-0.421875 -0.0625,-0.625 C 4.9375,-2.828125 4.890625,-3.015625 4.796875,-3.203125 4.6875,-3.40625 4.5625,-3.59375 4.390625,-3.765625 4.109375,-4.015625 3.75,-4.171875 3.375,-4.234375 c -0.25,-0.015625 -0.515625,0 -0.765625,0 l -2.640625,0 z m 0,0"
             id="path2868" />
        </symbol>
        <symbol
           style="overflow:visible"
           overflow="visible"
           id="textext-1d228f01-3">
          <path
             style="stroke:none"
             d="M -0.96875,1.78125 -0.765625,1.609375 C -0.8125,1.46875 -0.921875,1.3125 -0.875,1.171875 c 0.03125,-0.0625 0.109375,-0.109375 0.171875,-0.15625 0.046875,-0.03125 0.109375,-0.0625 0.171875,-0.0625 0.265625,-0.015625 0.5,0.25 0.484375,0.515625 0,0.203125 -0.1875,0.359375 -0.359375,0.46875 -0.296875,0.21875 -0.703125,0.3125 -0.796875,0.71875 -0.015625,0.0625 -0.015625,0.125 -0.015625,0.1875 0,0.09375 0.015625,0.171875 0.0625,0.25 0.0625,0.125 0.171875,0.21875 0.28125,0.296875 0.078125,0.0625 0.171875,0.109375 0.25,0.140625 0.171875,0.078125 0.359375,0.09375 0.53125,0.09375 0.265625,0 0.5625,0 0.8125,-0.109375 C 1.078125,3.375 1.359375,3.03125 1.46875,2.671875 1.640625,2.125 1.390625,1.5 1.03125,1.09375 0.953125,1 0.84375,0.921875 0.75,0.84375 0.671875,0.75 0.59375,0.640625 0.515625,0.53125 0.421875,0.40625 0.34375,0.296875 0.296875,0.15625 0.28125,0.0625 0.296875,-0.125 0.40625,-0.140625 0.46875,-0.15625 0.53125,-0.125 0.59375,-0.109375 0.75,-0.0625 0.921875,0.046875 0.9375,0.234375 l 0.234375,0 C 1.15625,-0.0625 0.9375,-0.359375 0.671875,-0.46875 c -0.1875,-0.0625 -0.40625,-0.0625 -0.53125,0.109375 -0.109375,0.15625 -0.15625,0.390625 -0.09375,0.5625 0.03125,0.140625 0.125,0.28125 0.21875,0.421875 0.0625,0.09375 0.125,0.203125 0.1875,0.296875 C 0.5625,1.03125 0.671875,1.125 0.78125,1.25 c 0.1875,0.21875 0.328125,0.5 0.375,0.796875 0.015625,0.125 0.015625,0.25 -0.03125,0.359375 C 1.09375,2.515625 1.046875,2.609375 0.984375,2.6875 0.703125,3.09375 0.1875,3.203125 -0.28125,3.140625 -0.515625,3.09375 -0.84375,3.03125 -0.890625,2.75 -0.921875,2.609375 -0.84375,2.515625 -0.75,2.421875 -0.59375,2.28125 -0.40625,2.203125 -0.21875,2.078125 -0.15625,2.046875 -0.09375,2 -0.046875,1.9375 0.109375,1.75 0.140625,1.515625 0.125,1.28125 0.109375,1.140625 0.078125,1 0.015625,0.875 -0.125,0.640625 -0.421875,0.546875 -0.671875,0.625 -0.796875,0.65625 -0.90625,0.75 -0.984375,0.84375 -1.1875,1.125 -1.140625,1.5 -0.96875,1.78125 z m 0,0"
             id="path2871" />
        </symbol>
        <symbol
           style="overflow:visible"
           overflow="visible"
           id="textext-1d228f01-4">
          <path
             style="stroke:none"
             d="m 0.484375,-4.234375 0,0.640625 2.65625,0 0,-0.640625 -2.65625,0 z m 1.46875,0.921875 c -0.375,0.046875 -0.546875,0.515625 -0.296875,0.8125 0.125,0.140625 0.3125,0.1875 0.5,0.15625 0.0625,-0.015625 0.125,-0.03125 0.171875,-0.0625 0.234375,-0.15625 0.28125,-0.484375 0.140625,-0.703125 -0.125,-0.15625 -0.3125,-0.25 -0.515625,-0.203125 z m 1.96875,0.296875 c 0.0625,0.21875 0.078125,0.4375 0.125,0.65625 C 4.109375,-1.9375 4.15625,-1.5 4.015625,-1.09375 3.953125,-0.9375 3.90625,-0.765625 3.78125,-0.640625 3.734375,-0.59375 3.65625,-0.546875 3.578125,-0.5625 3.515625,-0.59375 3.46875,-0.640625 3.421875,-0.703125 3.34375,-0.8125 3.28125,-0.953125 3.21875,-1.09375 3.171875,-1.203125 3.125,-1.328125 3.046875,-1.453125 2.9375,-1.640625 2.765625,-1.796875 2.5625,-1.875 2.375,-1.9375 2.171875,-1.96875 1.96875,-1.96875 c -0.390625,0 -0.78125,0.109375 -1.0625,0.390625 -0.390625,0.40625 -0.453125,1.015625 -0.28125,1.53125 0.015625,0 0.046875,0 0.0625,-0.015625 C 0.734375,-0.09375 0.71875,-0.203125 0.734375,-0.265625 0.75,-0.40625 0.796875,-0.53125 0.875,-0.671875 c 0.21875,-0.375 0.65625,-0.65625 1.09375,-0.671875 0.421875,-0.015625 0.828125,0.109375 1.078125,0.453125 C 3.125,-0.78125 3.1875,-0.65625 3.234375,-0.53125 3.3125,-0.3125 3.375,-0.046875 3.640625,-0.015625 c 0.0625,0 0.109375,0 0.171875,0 C 3.875,-0.03125 3.9375,-0.046875 4,-0.078125 4.15625,-0.15625 4.28125,-0.3125 4.34375,-0.484375 c 0.046875,-0.09375 0.046875,-0.203125 0.078125,-0.3125 0.046875,-0.265625 0.0625,-0.53125 0.0625,-0.8125 0,-0.1875 0,-0.375 -0.03125,-0.546875 -0.03125,-0.09375 -0.0625,-0.171875 -0.09375,-0.265625 -0.078125,-0.234375 -0.203125,-0.5 -0.4375,-0.59375 z m 0,0"
             id="path2874" />
        </symbol>
        <symbol
           style="overflow:visible"
           overflow="visible"
           id="textext-1d228f01-5">
          <path
             style="stroke:none"
             d="m 1,-5.875 c 0.09375,0.078125 0.171875,0.15625 0.21875,0.25 0.1875,0.234375 0.34375,0.625 0.203125,0.921875 -0.0625,0.09375 -0.140625,0.171875 -0.234375,0.25 C 1.109375,-4.375 1.03125,-4.3125 0.921875,-4.28125 0.8125,-4.234375 0.671875,-4.234375 0.5625,-4.234375 l -0.5625,0 0,0.640625 0.484375,0 c 0.140625,0 0.265625,0 0.40625,-0.03125 0.25,-0.046875 0.5,-0.15625 0.671875,-0.34375 0.234375,-0.234375 0.375,-0.59375 0.328125,-0.921875 -0.03125,-0.171875 -0.09375,-0.34375 -0.1875,-0.5 C 1.625,-5.515625 1.5,-5.671875 1.359375,-5.765625 1.265625,-5.828125 1.125,-5.859375 1,-5.875 z m 0,0"
             id="path2877" />
        </symbol>
        <symbol
           style="overflow:visible"
           overflow="visible"
           id="textext-1d228f01-6">
          <path
             style="stroke:none"
             d="m 0.484375,-4.234375 0,0.640625 4.015625,0 0,-0.640625 -4.015625,0 z M 2.78125,-3.34375 c -0.0625,0.015625 -0.125,0.03125 -0.1875,0.078125 -0.0625,0.03125 -0.125,0.078125 -0.15625,0.140625 -0.171875,0.21875 -0.0625,0.546875 0.140625,0.703125 0.109375,0.0625 0.25,0.09375 0.375,0.078125 0.34375,-0.03125 0.53125,-0.453125 0.359375,-0.75 -0.109375,-0.203125 -0.328125,-0.28125 -0.53125,-0.25 z m 0.1875,1.734375 C 2.875,-1.453125 2.765625,-1.28125 2.625,-1.140625 c -0.328125,0.328125 -0.84375,0.5 -1.3125,0.375 C 1,-0.84375 0.671875,-1 0.625,-1.359375 0.625,-1.40625 0.625,-1.453125 0.640625,-1.5 0.6875,-1.828125 1,-1.984375 1.296875,-1.984375 c 0.171875,0 0.375,0.078125 0.46875,0.234375 0.09375,0.140625 -0.046875,0.328125 -0.15625,0.4375 -0.0625,0.0625 -0.125,0.109375 -0.109375,0.21875 0.171875,0 0.359375,-0.078125 0.484375,-0.21875 0.203125,-0.25 0.15625,-0.703125 -0.109375,-0.890625 -0.140625,-0.09375 -0.328125,-0.125 -0.5,-0.125 -0.09375,0 -0.1875,0 -0.28125,0.03125 -0.25,0.046875 -0.4375,0.21875 -0.53125,0.4375 -0.0625,0.171875 -0.078125,0.34375 -0.078125,0.53125 0,0.390625 0.09375,0.8125 0.4375,1.0625 0.25,0.171875 0.546875,0.21875 0.859375,0.21875 C 2.015625,-0.0625 2.265625,-0.125 2.484375,-0.25 2.734375,-0.421875 2.875,-0.703125 2.953125,-0.984375 2.984375,-0.890625 3,-0.8125 3.046875,-0.75 c 0.078125,0.1875 0.1875,0.34375 0.359375,0.453125 0.109375,0.09375 0.234375,0.140625 0.359375,0.1875 0.453125,0.140625 1.0625,0.046875 1.390625,-0.3125 0.234375,-0.265625 0.25,-0.609375 0.25,-0.9375 C 5.390625,-1.765625 5.375,-2.171875 5.265625,-2.578125 5.21875,-2.734375 5.15625,-2.890625 5.078125,-3.03125 5.046875,-3.09375 5,-3.171875 4.9375,-3.203125 4.84375,-3.28125 4.734375,-3.234375 4.671875,-3.15625 c -0.0625,0.09375 -0.078125,0.21875 -0.0625,0.328125 0.03125,0.0625 0.0625,0.109375 0.109375,0.171875 0.0625,0.078125 0.109375,0.140625 0.15625,0.203125 0.203125,0.28125 0.421875,0.65625 0.34375,1.015625 C 5.171875,-1.234375 5.03125,-1.078125 4.875,-0.96875 4.671875,-0.8125 4.40625,-0.75 4.15625,-0.734375 c -0.21875,0.015625 -0.421875,0 -0.625,-0.109375 -0.1875,-0.125 -0.34375,-0.328125 -0.453125,-0.515625 -0.03125,-0.09375 -0.0625,-0.171875 -0.109375,-0.25 z m 0,0"
             id="path2880" />
        </symbol>
        <symbol
           style="overflow:visible"
           overflow="visible"
           id="textext-1d228f01-7">
          <path
             style="stroke:none"
             d="m -4.3125,1.5625 c 0.0625,0.109375 0.109375,0.203125 0.1875,0.296875 0.171875,0.28125 0.390625,0.546875 0.6875,0.71875 0.25,0.15625 0.5625,0.25 0.859375,0.3125 0.484375,0.09375 1,0.109375 1.46875,-0.046875 C -0.84375,2.75 -0.625,2.625 -0.40625,2.453125 -0.203125,2.328125 -0.046875,2.15625 0.078125,1.96875 0.265625,1.6875 0.34375,1.390625 0.375,1.078125 0.390625,0.890625 0.390625,0.703125 0.328125,0.515625 0.28125,0.328125 0.15625,0.171875 -0.015625,0.0625 -0.0625,0.046875 -0.109375,0 -0.171875,-0.015625 c -0.0625,0 -0.125,0 -0.171875,0.046875 -0.0625,0.03125 -0.09375,0.140625 -0.0625,0.203125 0.046875,0.078125 0.140625,0.125 0.21875,0.1875 0.09375,0.078125 0.171875,0.1875 0.25,0.296875 0.03125,0.046875 0.09375,0.125 0.09375,0.171875 0.015625,0.0625 0,0.125 0,0.171875 C 0.125,1.203125 0.0625,1.328125 -0.015625,1.453125 -0.296875,1.875 -0.78125,2.140625 -1.25,2.296875 -1.671875,2.4375 -2.09375,2.46875 -2.515625,2.421875 -2.828125,2.390625 -3.125,2.34375 -3.390625,2.203125 -3.546875,2.109375 -3.703125,2.03125 -3.84375,1.890625 -3.90625,1.828125 -3.96875,1.75 -4.015625,1.6875 -4.046875,1.640625 -4.078125,1.59375 -4.109375,1.578125 -4.171875,1.5625 -4.25,1.5625 -4.3125,1.5625 z m 0,0"
             id="path2883" />
        </symbol>
        <symbol
           style="overflow:visible"
           overflow="visible"
           id="textext-1d228f01-8">
          <path
             style="stroke:none"
             d=""
             id="path2886" />
        </symbol>
        <symbol
           style="overflow:visible"
           overflow="visible"
           id="textext-1d228f01-9">
          <path
             style="stroke:none"
             d="m 1.90625,-0.53125 c 0,-0.28125 -0.234375,-0.53125 -0.515625,-0.53125 -0.296875,0 -0.53125,0.25 -0.53125,0.53125 C 0.859375,-0.234375 1.09375,0 1.390625,0 1.671875,0 1.90625,-0.234375 1.90625,-0.53125 z m 0,0"
             id="path2889" />
        </symbol>
        <symbol
           style="overflow:visible"
           overflow="visible"
           id="textext-1d228f01-10">
          <path
             style="stroke:none"
             d="m 1.265625,-0.765625 1.0625,-1.03125 c 1.546875,-1.375 2.140625,-1.90625 2.140625,-2.90625 0,-1.140625 -0.890625,-1.9375 -2.109375,-1.9375 -1.125,0 -1.859375,0.921875 -1.859375,1.8125 0,0.546875 0.5,0.546875 0.53125,0.546875 0.171875,0 0.515625,-0.109375 0.515625,-0.53125 0,-0.25 -0.1875,-0.515625 -0.53125,-0.515625 -0.078125,0 -0.09375,0 -0.125,0.015625 0.21875,-0.65625 0.765625,-1.015625 1.34375,-1.015625 0.90625,0 1.328125,0.8125 1.328125,1.625 C 3.5625,-3.90625 3.078125,-3.125 2.515625,-2.5 l -1.90625,2.125 C 0.5,-0.265625 0.5,-0.234375 0.5,0 l 3.703125,0 0.265625,-1.734375 -0.234375,0 C 4.171875,-1.4375 4.109375,-1 4,-0.84375 3.9375,-0.765625 3.28125,-0.765625 3.0625,-0.765625 l -1.796875,0 z m 0,0"
             id="path2892" />
        </symbol>
        <symbol
           style="overflow:visible"
           overflow="visible"
           id="textext-1d228f01-11">
          <path
             style="stroke:none"
             d="m 4.578125,-3.1875 c 0,-0.796875 -0.046875,-1.59375 -0.390625,-2.328125 -0.453125,-0.96875 -1.28125,-1.125 -1.6875,-1.125 -0.609375,0 -1.328125,0.265625 -1.75,1.1875 -0.3125,0.6875 -0.359375,1.46875 -0.359375,2.265625 0,0.75 0.03125,1.640625 0.453125,2.40625 0.421875,0.796875 1.15625,1 1.640625,1 0.53125,0 1.296875,-0.203125 1.734375,-1.15625 0.3125,-0.6875 0.359375,-1.46875 0.359375,-2.25 z M 2.484375,0 C 2.09375,0 1.5,-0.25 1.328125,-1.203125 1.21875,-1.796875 1.21875,-2.71875 1.21875,-3.3125 c 0,-0.640625 0,-1.296875 0.078125,-1.828125 0.1875,-1.1875 0.9375,-1.28125 1.1875,-1.28125 0.328125,0 0.984375,0.1875 1.171875,1.171875 0.109375,0.5625 0.109375,1.3125 0.109375,1.9375 0,0.75 0,1.421875 -0.109375,2.0625 C 3.5,-0.296875 2.9375,0 2.484375,0 z m 0,0"
             id="path2895" />
        </symbol>
      </g>
    </defs>
    <g
       id="textext-1d228f01-12"
       style="stroke-width:0.98089586;stroke-miterlimit:4;stroke-dasharray:none">
      <g
         style="fill:#000000;fill-opacity:1;stroke-width:0.98089586;stroke-miterlimit:4;stroke-dasharray:none"
         id="g2898">
        <use
           height="177.16534"
           width="389.76376"
           xlink:href="#textext-1d228f01-1"
           x="223.43201"
           y="134.765"
           id="use2900"
           style="stroke-width:0.98089586;stroke-miterlimit:4;stroke-dasharray:none" />
        <use
           height="177.16534"
           width="389.76376"
           xlink:href="#textext-1d228f01-2"
           x="227.35129"
           y="134.765"
           id="use2902"
           style="stroke-width:0.98089586;stroke-miterlimit:4;stroke-dasharray:none" />
        <use
           height="177.16534"
           width="389.76376"
           xlink:href="#textext-1d228f01-3"
           x="232.86559"
           y="134.765"
           id="use2904"
           style="stroke-width:0.98089586;stroke-miterlimit:4;stroke-dasharray:none" />
        <use
           height="177.16534"
           width="389.76376"
           xlink:href="#textext-1d228f01-4"
           x="234.38089"
           y="134.765"
           id="use2906"
           style="stroke-width:0.98089586;stroke-miterlimit:4;stroke-dasharray:none" />
        <use
           height="177.16534"
           width="389.76376"
           xlink:href="#textext-1d228f01-5"
           x="237.22322"
           y="134.765"
           id="use2908"
           style="stroke-width:0.98089586;stroke-miterlimit:4;stroke-dasharray:none" />
      </g>
      <g
         style="fill:#000000;fill-opacity:1;stroke-width:0.98089586;stroke-miterlimit:4;stroke-dasharray:none"
         id="g2910">
        <use
           height="177.16534"
           width="389.76376"
           xlink:href="#textext-1d228f01-6"
           x="242.15671"
           y="134.765"
           id="use2912"
           style="stroke-width:0.98089586;stroke-miterlimit:4;stroke-dasharray:none" />
      </g>
      <g
         style="fill:#000000;fill-opacity:1;stroke-width:0.98089586;stroke-miterlimit:4;stroke-dasharray:none"
         id="g2914">
        <use
           height="177.16534"
           width="389.76376"
           xlink:href="#textext-1d228f01-5"
           x="245.95644"
           y="134.765"
           id="use2916"
           style="stroke-width:0.98089586;stroke-miterlimit:4;stroke-dasharray:none" />
        <use
           height="177.16534"
           width="389.76376"
           xlink:href="#textext-1d228f01-7"
           x="248.16017"
           y="134.765"
           id="use2918"
           style="stroke-width:0.98089586;stroke-miterlimit:4;stroke-dasharray:none" />
      </g>
      <g
         style="fill:#000000;fill-opacity:1;stroke-width:0.98089586;stroke-miterlimit:4;stroke-dasharray:none"
         id="g2920">
        <use
           height="177.16534"
           width="389.76376"
           xlink:href="#textext-1d228f01-9"
           x="249.132"
           y="134.765"
           id="use2922"
           style="stroke-width:0.98089586;stroke-miterlimit:4;stroke-dasharray:none" />
      </g>
      <g
         style="fill:#000000;fill-opacity:1;stroke-width:0.98089586;stroke-miterlimit:4;stroke-dasharray:none"
         id="g2924">
        <use
           height="177.16534"
           width="389.76376"
           xlink:href="#textext-1d228f01-10"
           x="254.62936"
           y="134.765"
           id="use2926"
           style="stroke-width:0.98089586;stroke-miterlimit:4;stroke-dasharray:none" />
        <use
           height="177.16534"
           width="389.76376"
           xlink:href="#textext-1d228f01-11"
           x="259.61066"
           y="134.765"
           id="use2928"
           style="stroke-width:0.98089586;stroke-miterlimit:4;stroke-dasharray:none" />
      </g>
    </g>
  </g>
  <g
     id="g3134"
     transform="matrix(1.4017798,0,0,1.4017798,-258.71325,-59.053699)"
     ns0:preamble="/home/sriranga/Desktop/Ganitarnava/figure/package.tex"
     ns0:text="$17-3$"
     style="stroke-width:0.98089586;stroke-miterlimit:4;stroke-dasharray:none">
    <defs
       id="defs3136">
      <g
         id="g3138">
        <symbol
           id="textext-b834efbd-0"
           overflow="visible"
           style="overflow:visible">
          <path
             id="path3141"
             d=""
             style="stroke:none" />
        </symbol>
        <symbol
           id="textext-b834efbd-1"
           overflow="visible"
           style="overflow:visible">
          <path
             id="path3144"
             d="m 2.9375,-6.375 c 0,-0.25 0,-0.265625 -0.234375,-0.265625 C 2.078125,-6 1.203125,-6 0.890625,-6 l 0,0.3125 c 0.203125,0 0.78125,0 1.296875,-0.265625 l 0,5.171875 c 0,0.359375 -0.03125,0.46875 -0.921875,0.46875 l -0.3125,0 0,0.3125 c 0.34375,-0.03125 1.203125,-0.03125 1.609375,-0.03125 0.390625,0 1.265625,0 1.609375,0.03125 l 0,-0.3125 -0.3125,0 c -0.90625,0 -0.921875,-0.109375 -0.921875,-0.46875 l 0,-5.59375 z m 0,0"
             style="stroke:none" />
        </symbol>
        <symbol
           id="textext-b834efbd-2"
           overflow="visible"
           style="overflow:visible">
          <path
             id="path3147"
             d="m 4.75,-6.078125 c 0.078125,-0.109375 0.078125,-0.125 0.078125,-0.34375 l -2.421875,0 c -1.203125,0 -1.234375,-0.125 -1.265625,-0.3125 l -0.25,0 -0.328125,2.046875 0.25,0 c 0.03125,-0.15625 0.109375,-0.78125 0.25,-0.90625 0.0625,-0.0625 0.84375,-0.0625 0.96875,-0.0625 l 2.0625,0 C 3.984375,-5.5 3.203125,-4.40625 2.984375,-4.078125 2.078125,-2.734375 1.75,-1.34375 1.75,-0.328125 c 0,0.09375 0,0.546875 0.46875,0.546875 0.453125,0 0.453125,-0.453125 0.453125,-0.546875 l 0,-0.515625 c 0,-0.546875 0.03125,-1.09375 0.109375,-1.625 0.046875,-0.234375 0.171875,-1.09375 0.625,-1.703125 L 4.75,-6.078125 z m 0,0"
             style="stroke:none" />
        </symbol>
        <symbol
           id="textext-b834efbd-3"
           overflow="visible"
           style="overflow:visible">
          <path
             id="path3150"
             d="m 2.890625,-3.515625 c 0.8125,-0.265625 1.390625,-0.953125 1.390625,-1.75 0,-0.8125 -0.875,-1.375 -1.828125,-1.375 -1,0 -1.765625,0.59375 -1.765625,1.359375 0,0.328125 0.21875,0.515625 0.515625,0.515625 0.296875,0 0.5,-0.21875 0.5,-0.515625 0,-0.484375 -0.46875,-0.484375 -0.609375,-0.484375 0.296875,-0.5 0.953125,-0.625 1.3125,-0.625 0.421875,0 0.96875,0.21875 0.96875,1.109375 0,0.125 -0.03125,0.703125 -0.28125,1.140625 C 2.796875,-3.65625 2.453125,-3.625 2.203125,-3.625 2.125,-3.609375 1.890625,-3.59375 1.8125,-3.59375 c -0.078125,0.015625 -0.140625,0.03125 -0.140625,0.125 0,0.109375 0.0625,0.109375 0.234375,0.109375 l 0.4375,0 c 0.8125,0 1.1875,0.671875 1.1875,1.65625 0,1.359375 -0.6875,1.640625 -1.125,1.640625 -0.4375,0 -1.1875,-0.171875 -1.53125,-0.75 0.34375,0.046875 0.65625,-0.171875 0.65625,-0.546875 0,-0.359375 -0.265625,-0.5625 -0.546875,-0.5625 -0.25,0 -0.5625,0.140625 -0.5625,0.578125 0,0.90625 0.921875,1.5625 2.015625,1.5625 1.21875,0 2.125,-0.90625 2.125,-1.921875 0,-0.8125 -0.640625,-1.59375 -1.671875,-1.8125 z m 0,0"
             style="stroke:none" />
        </symbol>
        <symbol
           id="textext-b834efbd-4"
           overflow="visible"
           style="overflow:visible">
          <path
             id="path3153"
             d=""
             style="stroke:none" />
        </symbol>
        <symbol
           id="textext-b834efbd-5"
           overflow="visible"
           style="overflow:visible">
          <path
             id="path3156"
             d="m 6.5625,-2.296875 c 0.171875,0 0.359375,0 0.359375,-0.203125 0,-0.1875 -0.1875,-0.1875 -0.359375,-0.1875 l -5.390625,0 c -0.171875,0 -0.34375,0 -0.34375,0.1875 0,0.203125 0.171875,0.203125 0.34375,0.203125 l 5.390625,0 z m 0,0"
             style="stroke:none" />
        </symbol>
      </g>
    </defs>
    <g
       id="textext-b834efbd-6"
       style="stroke-width:0.98089586;stroke-miterlimit:4;stroke-dasharray:none">
      <g
         id="g3159"
         style="fill:#000000;fill-opacity:1;stroke-width:0.98089586;stroke-miterlimit:4;stroke-dasharray:none">
        <use
           id="use3161"
           y="134.765"
           x="223.43201"
           xlink:href="#textext-b834efbd-1"
           width="389.76376"
           height="177.16534"
           style="stroke-width:0.98089586;stroke-miterlimit:4;stroke-dasharray:none" />
        <use
           id="use3163"
           y="134.765"
           x="228.4133"
           xlink:href="#textext-b834efbd-2"
           width="389.76376"
           height="177.16534"
           style="stroke-width:0.98089586;stroke-miterlimit:4;stroke-dasharray:none" />
      </g>
      <g
         id="g3165"
         style="fill:#000000;fill-opacity:1;stroke-width:0.98089586;stroke-miterlimit:4;stroke-dasharray:none">
        <use
           id="use3167"
           y="134.765"
           x="235.60899"
           xlink:href="#textext-b834efbd-5"
           width="389.76376"
           height="177.16534"
           style="stroke-width:0.98089586;stroke-miterlimit:4;stroke-dasharray:none" />
      </g>
      <g
         id="g3169"
         style="fill:#000000;fill-opacity:1;stroke-width:0.98089586;stroke-miterlimit:4;stroke-dasharray:none">
        <use
           id="use3171"
           y="134.765"
           x="245.571"
           xlink:href="#textext-b834efbd-3"
           width="389.76376"
           height="177.16534"
           style="stroke-width:0.98089586;stroke-miterlimit:4;stroke-dasharray:none" />
      </g>
    </g>
  </g>
  <g
     ns0:text="$17-3$"
     ns0:preamble="/home/sriranga/Desktop/Ganitarnava/figure/package.tex"
     transform="matrix(0.80432221,1.1480646,-1.1480646,0.80432221,63.224121,-307.35801)"
     id="g3253"
     style="stroke-width:0.98089587;stroke-miterlimit:4;stroke-dasharray:none">
    <defs
       id="defs3255">
      <g
         id="g3257">
        <symbol
           style="overflow:visible"
           overflow="visible"
           id="symbol3259">
          <path
             style="stroke:none"
             d=""
             id="path3261" />
        </symbol>
        <symbol
           style="overflow:visible"
           overflow="visible"
           id="symbol3263">
          <path
             style="stroke:none"
             d="m 2.9375,-6.375 c 0,-0.25 0,-0.265625 -0.234375,-0.265625 C 2.078125,-6 1.203125,-6 0.890625,-6 l 0,0.3125 c 0.203125,0 0.78125,0 1.296875,-0.265625 l 0,5.171875 c 0,0.359375 -0.03125,0.46875 -0.921875,0.46875 l -0.3125,0 0,0.3125 c 0.34375,-0.03125 1.203125,-0.03125 1.609375,-0.03125 0.390625,0 1.265625,0 1.609375,0.03125 l 0,-0.3125 -0.3125,0 c -0.90625,0 -0.921875,-0.109375 -0.921875,-0.46875 l 0,-5.59375 z m 0,0"
             id="path3265" />
        </symbol>
        <symbol
           style="overflow:visible"
           overflow="visible"
           id="symbol3267">
          <path
             style="stroke:none"
             d="m 4.75,-6.078125 c 0.078125,-0.109375 0.078125,-0.125 0.078125,-0.34375 l -2.421875,0 c -1.203125,0 -1.234375,-0.125 -1.265625,-0.3125 l -0.25,0 -0.328125,2.046875 0.25,0 c 0.03125,-0.15625 0.109375,-0.78125 0.25,-0.90625 0.0625,-0.0625 0.84375,-0.0625 0.96875,-0.0625 l 2.0625,0 C 3.984375,-5.5 3.203125,-4.40625 2.984375,-4.078125 2.078125,-2.734375 1.75,-1.34375 1.75,-0.328125 c 0,0.09375 0,0.546875 0.46875,0.546875 0.453125,0 0.453125,-0.453125 0.453125,-0.546875 l 0,-0.515625 c 0,-0.546875 0.03125,-1.09375 0.109375,-1.625 0.046875,-0.234375 0.171875,-1.09375 0.625,-1.703125 L 4.75,-6.078125 z m 0,0"
             id="path3269" />
        </symbol>
        <symbol
           style="overflow:visible"
           overflow="visible"
           id="symbol3271">
          <path
             style="stroke:none"
             d="m 2.890625,-3.515625 c 0.8125,-0.265625 1.390625,-0.953125 1.390625,-1.75 0,-0.8125 -0.875,-1.375 -1.828125,-1.375 -1,0 -1.765625,0.59375 -1.765625,1.359375 0,0.328125 0.21875,0.515625 0.515625,0.515625 0.296875,0 0.5,-0.21875 0.5,-0.515625 0,-0.484375 -0.46875,-0.484375 -0.609375,-0.484375 0.296875,-0.5 0.953125,-0.625 1.3125,-0.625 0.421875,0 0.96875,0.21875 0.96875,1.109375 0,0.125 -0.03125,0.703125 -0.28125,1.140625 C 2.796875,-3.65625 2.453125,-3.625 2.203125,-3.625 2.125,-3.609375 1.890625,-3.59375 1.8125,-3.59375 c -0.078125,0.015625 -0.140625,0.03125 -0.140625,0.125 0,0.109375 0.0625,0.109375 0.234375,0.109375 l 0.4375,0 c 0.8125,0 1.1875,0.671875 1.1875,1.65625 0,1.359375 -0.6875,1.640625 -1.125,1.640625 -0.4375,0 -1.1875,-0.171875 -1.53125,-0.75 0.34375,0.046875 0.65625,-0.171875 0.65625,-0.546875 0,-0.359375 -0.265625,-0.5625 -0.546875,-0.5625 -0.25,0 -0.5625,0.140625 -0.5625,0.578125 0,0.90625 0.921875,1.5625 2.015625,1.5625 1.21875,0 2.125,-0.90625 2.125,-1.921875 0,-0.8125 -0.640625,-1.59375 -1.671875,-1.8125 z m 0,0"
             id="path3273" />
        </symbol>
        <symbol
           style="overflow:visible"
           overflow="visible"
           id="symbol3275">
          <path
             style="stroke:none"
             d=""
             id="path3277" />
        </symbol>
        <symbol
           style="overflow:visible"
           overflow="visible"
           id="symbol3279">
          <path
             style="stroke:none"
             d="m 6.5625,-2.296875 c 0.171875,0 0.359375,0 0.359375,-0.203125 0,-0.1875 -0.1875,-0.1875 -0.359375,-0.1875 l -5.390625,0 c -0.171875,0 -0.34375,0 -0.34375,0.1875 0,0.203125 0.171875,0.203125 0.34375,0.203125 l 5.390625,0 z m 0,0"
             id="path3281" />
        </symbol>
      </g>
    </defs>
    <g
       id="g3283"
       style="stroke-width:0.98089587;stroke-miterlimit:4;stroke-dasharray:none">
      <g
         style="fill:#000000;fill-opacity:1;stroke-width:0.98089587;stroke-miterlimit:4;stroke-dasharray:none"
         id="g3285">
        <use
           height="177.16534"
           width="389.76376"
           xlink:href="#textext-b834efbd-1"
           x="223.43201"
           y="134.765"
           id="use3287"
           style="stroke-width:0.98089587;stroke-miterlimit:4;stroke-dasharray:none" />
        <use
           height="177.16534"
           width="389.76376"
           xlink:href="#textext-b834efbd-2"
           x="228.4133"
           y="134.765"
           id="use3289"
           style="stroke-width:0.98089587;stroke-miterlimit:4;stroke-dasharray:none" />
      </g>
      <g
         style="fill:#000000;fill-opacity:1;stroke-width:0.98089587;stroke-miterlimit:4;stroke-dasharray:none"
         id="g3291">
        <use
           height="177.16534"
           width="389.76376"
           xlink:href="#textext-b834efbd-5"
           x="235.60899"
           y="134.765"
           id="use3293"
           style="stroke-width:0.98089587;stroke-miterlimit:4;stroke-dasharray:none" />
      </g>
      <g
         style="fill:#000000;fill-opacity:1;stroke-width:0.98089587;stroke-miterlimit:4;stroke-dasharray:none"
         id="g3295">
        <use
           height="177.16534"
           width="389.76376"
           xlink:href="#textext-b834efbd-3"
           x="245.571"
           y="134.765"
           id="use3297"
           style="stroke-width:0.98089587;stroke-miterlimit:4;stroke-dasharray:none" />
      </g>
    </g>
  </g>
  <g
     id="g3299"
     transform="matrix(0.78256093,-1.1630069,1.1630069,0.78256093,-296.20949,242.97935)"
     ns0:preamble="/home/sriranga/Desktop/Ganitarnava/figure/package.tex"
     ns0:text="$17-3$"
     inkscape:transform-center-x="-7.1815533"
     style="stroke-width:0.98089585;stroke-miterlimit:4;stroke-dasharray:none">
    <defs
       id="defs3301">
      <g
         id="g3303">
        <symbol
           id="symbol3305"
           overflow="visible"
           style="overflow:visible">
          <path
             id="path3307"
             d=""
             style="stroke:none" />
        </symbol>
        <symbol
           id="symbol3309"
           overflow="visible"
           style="overflow:visible">
          <path
             id="path3311"
             d="m 2.9375,-6.375 c 0,-0.25 0,-0.265625 -0.234375,-0.265625 C 2.078125,-6 1.203125,-6 0.890625,-6 l 0,0.3125 c 0.203125,0 0.78125,0 1.296875,-0.265625 l 0,5.171875 c 0,0.359375 -0.03125,0.46875 -0.921875,0.46875 l -0.3125,0 0,0.3125 c 0.34375,-0.03125 1.203125,-0.03125 1.609375,-0.03125 0.390625,0 1.265625,0 1.609375,0.03125 l 0,-0.3125 -0.3125,0 c -0.90625,0 -0.921875,-0.109375 -0.921875,-0.46875 l 0,-5.59375 z m 0,0"
             style="stroke:none" />
        </symbol>
        <symbol
           id="symbol3313"
           overflow="visible"
           style="overflow:visible">
          <path
             id="path3315"
             d="m 4.75,-6.078125 c 0.078125,-0.109375 0.078125,-0.125 0.078125,-0.34375 l -2.421875,0 c -1.203125,0 -1.234375,-0.125 -1.265625,-0.3125 l -0.25,0 -0.328125,2.046875 0.25,0 c 0.03125,-0.15625 0.109375,-0.78125 0.25,-0.90625 0.0625,-0.0625 0.84375,-0.0625 0.96875,-0.0625 l 2.0625,0 C 3.984375,-5.5 3.203125,-4.40625 2.984375,-4.078125 2.078125,-2.734375 1.75,-1.34375 1.75,-0.328125 c 0,0.09375 0,0.546875 0.46875,0.546875 0.453125,0 0.453125,-0.453125 0.453125,-0.546875 l 0,-0.515625 c 0,-0.546875 0.03125,-1.09375 0.109375,-1.625 0.046875,-0.234375 0.171875,-1.09375 0.625,-1.703125 L 4.75,-6.078125 z m 0,0"
             style="stroke:none" />
        </symbol>
        <symbol
           id="symbol3317"
           overflow="visible"
           style="overflow:visible">
          <path
             id="path3319"
             d="m 2.890625,-3.515625 c 0.8125,-0.265625 1.390625,-0.953125 1.390625,-1.75 0,-0.8125 -0.875,-1.375 -1.828125,-1.375 -1,0 -1.765625,0.59375 -1.765625,1.359375 0,0.328125 0.21875,0.515625 0.515625,0.515625 0.296875,0 0.5,-0.21875 0.5,-0.515625 0,-0.484375 -0.46875,-0.484375 -0.609375,-0.484375 0.296875,-0.5 0.953125,-0.625 1.3125,-0.625 0.421875,0 0.96875,0.21875 0.96875,1.109375 0,0.125 -0.03125,0.703125 -0.28125,1.140625 C 2.796875,-3.65625 2.453125,-3.625 2.203125,-3.625 2.125,-3.609375 1.890625,-3.59375 1.8125,-3.59375 c -0.078125,0.015625 -0.140625,0.03125 -0.140625,0.125 0,0.109375 0.0625,0.109375 0.234375,0.109375 l 0.4375,0 c 0.8125,0 1.1875,0.671875 1.1875,1.65625 0,1.359375 -0.6875,1.640625 -1.125,1.640625 -0.4375,0 -1.1875,-0.171875 -1.53125,-0.75 0.34375,0.046875 0.65625,-0.171875 0.65625,-0.546875 0,-0.359375 -0.265625,-0.5625 -0.546875,-0.5625 -0.25,0 -0.5625,0.140625 -0.5625,0.578125 0,0.90625 0.921875,1.5625 2.015625,1.5625 1.21875,0 2.125,-0.90625 2.125,-1.921875 0,-0.8125 -0.640625,-1.59375 -1.671875,-1.8125 z m 0,0"
             style="stroke:none" />
        </symbol>
        <symbol
           id="symbol3321"
           overflow="visible"
           style="overflow:visible">
          <path
             id="path3323"
             d=""
             style="stroke:none" />
        </symbol>
        <symbol
           id="symbol3325"
           overflow="visible"
           style="overflow:visible">
          <path
             id="path3327"
             d="m 6.5625,-2.296875 c 0.171875,0 0.359375,0 0.359375,-0.203125 0,-0.1875 -0.1875,-0.1875 -0.359375,-0.1875 l -5.390625,0 c -0.171875,0 -0.34375,0 -0.34375,0.1875 0,0.203125 0.171875,0.203125 0.34375,0.203125 l 5.390625,0 z m 0,0"
             style="stroke:none" />
        </symbol>
      </g>
    </defs>
    <g
       id="g3329"
       style="stroke-width:0.98089585;stroke-miterlimit:4;stroke-dasharray:none">
      <g
         id="g3331"
         style="fill:#000000;fill-opacity:1;stroke-width:0.98089585;stroke-miterlimit:4;stroke-dasharray:none">
        <use
           id="use3333"
           y="134.765"
           x="223.43201"
           xlink:href="#textext-b834efbd-1"
           width="389.76376"
           height="177.16534"
           style="stroke-width:0.98089585;stroke-miterlimit:4;stroke-dasharray:none" />
        <use
           id="use3335"
           y="134.765"
           x="228.4133"
           xlink:href="#textext-b834efbd-2"
           width="389.76376"
           height="177.16534"
           style="stroke-width:0.98089585;stroke-miterlimit:4;stroke-dasharray:none" />
      </g>
      <g
         id="g3337"
         style="fill:#000000;fill-opacity:1;stroke-width:0.98089585;stroke-miterlimit:4;stroke-dasharray:none">
        <use
           id="use3339"
           y="134.765"
           x="235.60899"
           xlink:href="#textext-b834efbd-5"
           width="389.76376"
           height="177.16534"
           style="stroke-width:0.98089585;stroke-miterlimit:4;stroke-dasharray:none" />
      </g>
      <g
         id="g3341"
         style="fill:#000000;fill-opacity:1;stroke-width:0.98089585;stroke-miterlimit:4;stroke-dasharray:none">
        <use
           id="use3343"
           y="134.765"
           x="245.571"
           xlink:href="#textext-b834efbd-3"
           width="389.76376"
           height="177.16534"
           style="stroke-width:0.98089585;stroke-miterlimit:4;stroke-dasharray:none" />
      </g>
    </g>
  </g>
  <path
     style="fill:none;stroke:#000000;stroke-width:1.375;stroke-linecap:butt;stroke-linejoin:miter;stroke-opacity:1;stroke-miterlimit:4;stroke-dasharray:none"
     d="m 146.3932,97.892045 110.48544,0.82864"
     id="path3391" />
  <text
     xml:space="preserve"
     style="font-size:12px;font-style:normal;font-variant:normal;font-weight:normal;font-stretch:normal;line-height:125%;letter-spacing:0px;word-spacing:0px;fill:#000000;fill-opacity:1;stroke:none;font-family:LMRoman10;-inkscape-font-specification:LMRoman10;stroke-width:1.375;stroke-miterlimit:4;stroke-dasharray:none"
     x="200.53107"
     y="109.493"
     id="text3393"
     sodipodi:linespacing="125%"><tspan
       sodipodi:role="line"
       id="tspan3395"
       x="200.53107"
       y="109.493">20</tspan></text>
  <g
     ns0:text="$14-14$"
     ns0:preamble="/home/sriranga/Desktop/Ganitarnava/figure/package.tex"
     transform="matrix(0.80843278,-0.83761125,0.83761125,0.80843278,-68.973151,223.26462)"
     id="g3528"
     style="stroke-width:1.18115808;stroke-miterlimit:4;stroke-dasharray:none">
    <defs
       id="defs3530">
      <g
         id="g3532">
        <symbol
           style="overflow:visible"
           overflow="visible"
           id="textext-93cf578f-0">
          <path
             style="stroke:none"
             d=""
             id="path3535" />
        </symbol>
        <symbol
           style="overflow:visible"
           overflow="visible"
           id="textext-93cf578f-1">
          <path
             style="stroke:none"
             d="m 2.9375,-6.375 c 0,-0.25 0,-0.265625 -0.234375,-0.265625 C 2.078125,-6 1.203125,-6 0.890625,-6 l 0,0.3125 c 0.203125,0 0.78125,0 1.296875,-0.265625 l 0,5.171875 c 0,0.359375 -0.03125,0.46875 -0.921875,0.46875 l -0.3125,0 0,0.3125 c 0.34375,-0.03125 1.203125,-0.03125 1.609375,-0.03125 0.390625,0 1.265625,0 1.609375,0.03125 l 0,-0.3125 -0.3125,0 c -0.90625,0 -0.921875,-0.109375 -0.921875,-0.46875 l 0,-5.59375 z m 0,0"
             id="path3538" />
        </symbol>
        <symbol
           style="overflow:visible"
           overflow="visible"
           id="textext-93cf578f-2">
          <path
             style="stroke:none"
             d="m 2.9375,-1.640625 0,0.859375 c 0,0.359375 -0.03125,0.46875 -0.765625,0.46875 l -0.203125,0 0,0.3125 C 2.375,-0.03125 2.890625,-0.03125 3.3125,-0.03125 c 0.421875,0 0.9375,0 1.359375,0.03125 l 0,-0.3125 -0.21875,0 c -0.734375,0 -0.75,-0.109375 -0.75,-0.46875 l 0,-0.859375 0.984375,0 0,-0.3125 -0.984375,0 0,-4.53125 c 0,-0.203125 0,-0.265625 -0.171875,-0.265625 -0.078125,0 -0.109375,0 -0.1875,0.125 l -3.0625,4.671875 0,0.3125 2.65625,0 z m 0.046875,-0.3125 -2.421875,0 2.421875,-3.71875 0,3.71875 z m 0,0"
             id="path3541" />
        </symbol>
        <symbol
           style="overflow:visible"
           overflow="visible"
           id="textext-93cf578f-3">
          <path
             style="stroke:none"
             d=""
             id="path3544" />
        </symbol>
        <symbol
           style="overflow:visible"
           overflow="visible"
           id="textext-93cf578f-4">
          <path
             style="stroke:none"
             d="m 6.5625,-2.296875 c 0.171875,0 0.359375,0 0.359375,-0.203125 0,-0.1875 -0.1875,-0.1875 -0.359375,-0.1875 l -5.390625,0 c -0.171875,0 -0.34375,0 -0.34375,0.1875 0,0.203125 0.171875,0.203125 0.34375,0.203125 l 5.390625,0 z m 0,0"
             id="path3547" />
        </symbol>
      </g>
    </defs>
    <g
       id="textext-93cf578f-5"
       style="stroke-width:1.18115808;stroke-miterlimit:4;stroke-dasharray:none">
      <g
         style="fill:#000000;fill-opacity:1;stroke-width:1.18115808;stroke-miterlimit:4;stroke-dasharray:none"
         id="g3550">
        <use
           height="177.16534"
           width="389.76376"
           xlink:href="#textext-93cf578f-1"
           x="223.43201"
           y="134.765"
           id="use3552"
           style="stroke-width:1.18115808;stroke-miterlimit:4;stroke-dasharray:none" />
        <use
           height="177.16534"
           width="389.76376"
           xlink:href="#textext-93cf578f-2"
           x="228.4133"
           y="134.765"
           id="use3554"
           style="stroke-width:1.18115808;stroke-miterlimit:4;stroke-dasharray:none" />
      </g>
      <g
         style="fill:#000000;fill-opacity:1;stroke-width:1.18115808;stroke-miterlimit:4;stroke-dasharray:none"
         id="g3556">
        <use
           height="177.16534"
           width="389.76376"
           xlink:href="#textext-93cf578f-4"
           x="235.60899"
           y="134.765"
           id="use3558"
           style="stroke-width:1.18115808;stroke-miterlimit:4;stroke-dasharray:none" />
      </g>
      <g
         style="fill:#000000;fill-opacity:1;stroke-width:1.18115808;stroke-miterlimit:4;stroke-dasharray:none"
         id="g3560">
        <use
           height="177.16534"
           width="389.76376"
           xlink:href="#textext-93cf578f-1"
           x="245.571"
           y="134.765"
           id="use3562"
           style="stroke-width:1.18115808;stroke-miterlimit:4;stroke-dasharray:none" />
        <use
           height="177.16534"
           width="389.76376"
           xlink:href="#textext-93cf578f-2"
           x="250.55231"
           y="134.765"
           id="use3564"
           style="stroke-width:1.18115808;stroke-miterlimit:4;stroke-dasharray:none" />
      </g>
    </g>
  </g>
  <g
     id="g3717"
     transform="matrix(0.80843278,-0.83761125,0.83761125,0.80843278,-116.42072,171.60733)"
     ns0:preamble="/home/sriranga/Desktop/Ganitarnava/figure/package.tex"
     ns0:text="$14-14$"
     style="stroke-width:1.18115808;stroke-miterlimit:4;stroke-dasharray:none">
    <defs
       id="defs3719">
      <g
         id="g3721">
        <symbol
           id="symbol3723"
           overflow="visible"
           style="overflow:visible">
          <path
             id="path3725"
             d=""
             style="stroke:none" />
        </symbol>
        <symbol
           id="symbol3727"
           overflow="visible"
           style="overflow:visible">
          <path
             id="path3729"
             d="m 2.9375,-6.375 c 0,-0.25 0,-0.265625 -0.234375,-0.265625 C 2.078125,-6 1.203125,-6 0.890625,-6 l 0,0.3125 c 0.203125,0 0.78125,0 1.296875,-0.265625 l 0,5.171875 c 0,0.359375 -0.03125,0.46875 -0.921875,0.46875 l -0.3125,0 0,0.3125 c 0.34375,-0.03125 1.203125,-0.03125 1.609375,-0.03125 0.390625,0 1.265625,0 1.609375,0.03125 l 0,-0.3125 -0.3125,0 c -0.90625,0 -0.921875,-0.109375 -0.921875,-0.46875 l 0,-5.59375 z m 0,0"
             style="stroke:none" />
        </symbol>
        <symbol
           id="symbol3731"
           overflow="visible"
           style="overflow:visible">
          <path
             id="path3733"
             d="m 2.9375,-1.640625 0,0.859375 c 0,0.359375 -0.03125,0.46875 -0.765625,0.46875 l -0.203125,0 0,0.3125 C 2.375,-0.03125 2.890625,-0.03125 3.3125,-0.03125 c 0.421875,0 0.9375,0 1.359375,0.03125 l 0,-0.3125 -0.21875,0 c -0.734375,0 -0.75,-0.109375 -0.75,-0.46875 l 0,-0.859375 0.984375,0 0,-0.3125 -0.984375,0 0,-4.53125 c 0,-0.203125 0,-0.265625 -0.171875,-0.265625 -0.078125,0 -0.109375,0 -0.1875,0.125 l -3.0625,4.671875 0,0.3125 2.65625,0 z m 0.046875,-0.3125 -2.421875,0 2.421875,-3.71875 0,3.71875 z m 0,0"
             style="stroke:none" />
        </symbol>
        <symbol
           id="symbol3735"
           overflow="visible"
           style="overflow:visible">
          <path
             id="path3737"
             d=""
             style="stroke:none" />
        </symbol>
        <symbol
           id="symbol3739"
           overflow="visible"
           style="overflow:visible">
          <path
             id="path3741"
             d="m 6.5625,-2.296875 c 0.171875,0 0.359375,0 0.359375,-0.203125 0,-0.1875 -0.1875,-0.1875 -0.359375,-0.1875 l -5.390625,0 c -0.171875,0 -0.34375,0 -0.34375,0.1875 0,0.203125 0.171875,0.203125 0.34375,0.203125 l 5.390625,0 z m 0,0"
             style="stroke:none" />
        </symbol>
      </g>
    </defs>
    <g
       id="g3743"
       style="stroke-width:1.18115808;stroke-miterlimit:4;stroke-dasharray:none">
      <g
         id="g3745"
         style="fill:#000000;fill-opacity:1;stroke-width:1.18115808;stroke-miterlimit:4;stroke-dasharray:none">
        <use
           id="use3747"
           y="134.765"
           x="223.43201"
           xlink:href="#textext-93cf578f-1"
           width="389.76376"
           height="177.16534"
           style="stroke-width:1.18115808;stroke-miterlimit:4;stroke-dasharray:none" />
        <use
           id="use3749"
           y="134.765"
           x="228.4133"
           xlink:href="#textext-93cf578f-2"
           width="389.76376"
           height="177.16534"
           style="stroke-width:1.18115808;stroke-miterlimit:4;stroke-dasharray:none" />
      </g>
      <g
         id="g3751"
         style="fill:#000000;fill-opacity:1;stroke-width:1.18115808;stroke-miterlimit:4;stroke-dasharray:none">
        <use
           id="use3753"
           y="134.765"
           x="235.60899"
           xlink:href="#textext-93cf578f-4"
           width="389.76376"
           height="177.16534"
           style="stroke-width:1.18115808;stroke-miterlimit:4;stroke-dasharray:none" />
      </g>
      <g
         id="g3755"
         style="fill:#000000;fill-opacity:1;stroke-width:1.18115808;stroke-miterlimit:4;stroke-dasharray:none">
        <use
           id="use3757"
           y="134.765"
           x="245.571"
           xlink:href="#textext-93cf578f-1"
           width="389.76376"
           height="177.16534"
           style="stroke-width:1.18115808;stroke-miterlimit:4;stroke-dasharray:none" />
        <use
           id="use3759"
           y="134.765"
           x="250.55231"
           xlink:href="#textext-93cf578f-2"
           width="389.76376"
           height="177.16534"
           style="stroke-width:1.18115808;stroke-miterlimit:4;stroke-dasharray:none" />
      </g>
    </g>
  </g>
  <g
     ns0:text="$14-14$"
     ns0:preamble="/home/sriranga/Desktop/Ganitarnava/figure/package.tex"
     transform="matrix(0.83761125,0.80843278,-0.80843278,0.83761125,140.61202,-237.555)"
     id="g3761"
     style="stroke-width:1.18115808;stroke-miterlimit:4;stroke-dasharray:none">
    <defs
       id="defs3763">
      <g
         id="g3765">
        <symbol
           style="overflow:visible"
           overflow="visible"
           id="symbol3767">
          <path
             style="stroke:none"
             d=""
             id="path3769" />
        </symbol>
        <symbol
           style="overflow:visible"
           overflow="visible"
           id="symbol3771">
          <path
             style="stroke:none"
             d="m 2.9375,-6.375 c 0,-0.25 0,-0.265625 -0.234375,-0.265625 C 2.078125,-6 1.203125,-6 0.890625,-6 l 0,0.3125 c 0.203125,0 0.78125,0 1.296875,-0.265625 l 0,5.171875 c 0,0.359375 -0.03125,0.46875 -0.921875,0.46875 l -0.3125,0 0,0.3125 c 0.34375,-0.03125 1.203125,-0.03125 1.609375,-0.03125 0.390625,0 1.265625,0 1.609375,0.03125 l 0,-0.3125 -0.3125,0 c -0.90625,0 -0.921875,-0.109375 -0.921875,-0.46875 l 0,-5.59375 z m 0,0"
             id="path3773" />
        </symbol>
        <symbol
           style="overflow:visible"
           overflow="visible"
           id="symbol3775">
          <path
             style="stroke:none"
             d="m 2.9375,-1.640625 0,0.859375 c 0,0.359375 -0.03125,0.46875 -0.765625,0.46875 l -0.203125,0 0,0.3125 C 2.375,-0.03125 2.890625,-0.03125 3.3125,-0.03125 c 0.421875,0 0.9375,0 1.359375,0.03125 l 0,-0.3125 -0.21875,0 c -0.734375,0 -0.75,-0.109375 -0.75,-0.46875 l 0,-0.859375 0.984375,0 0,-0.3125 -0.984375,0 0,-4.53125 c 0,-0.203125 0,-0.265625 -0.171875,-0.265625 -0.078125,0 -0.109375,0 -0.1875,0.125 l -3.0625,4.671875 0,0.3125 2.65625,0 z m 0.046875,-0.3125 -2.421875,0 2.421875,-3.71875 0,3.71875 z m 0,0"
             id="path3777" />
        </symbol>
        <symbol
           style="overflow:visible"
           overflow="visible"
           id="symbol3779">
          <path
             style="stroke:none"
             d=""
             id="path3781" />
        </symbol>
        <symbol
           style="overflow:visible"
           overflow="visible"
           id="symbol3783">
          <path
             style="stroke:none"
             d="m 6.5625,-2.296875 c 0.171875,0 0.359375,0 0.359375,-0.203125 0,-0.1875 -0.1875,-0.1875 -0.359375,-0.1875 l -5.390625,0 c -0.171875,0 -0.34375,0 -0.34375,0.1875 0,0.203125 0.171875,0.203125 0.34375,0.203125 l 5.390625,0 z m 0,0"
             id="path3785" />
        </symbol>
      </g>
    </defs>
    <g
       id="g3787"
       style="stroke-width:1.18115808;stroke-miterlimit:4;stroke-dasharray:none">
      <g
         style="fill:#000000;fill-opacity:1;stroke-width:1.18115808;stroke-miterlimit:4;stroke-dasharray:none"
         id="g3789">
        <use
           height="177.16534"
           width="389.76376"
           xlink:href="#textext-93cf578f-1"
           x="223.43201"
           y="134.765"
           id="use3791"
           style="stroke-width:1.18115808;stroke-miterlimit:4;stroke-dasharray:none" />
        <use
           height="177.16534"
           width="389.76376"
           xlink:href="#textext-93cf578f-2"
           x="228.4133"
           y="134.765"
           id="use3793"
           style="stroke-width:1.18115808;stroke-miterlimit:4;stroke-dasharray:none" />
      </g>
      <g
         style="fill:#000000;fill-opacity:1;stroke-width:1.18115808;stroke-miterlimit:4;stroke-dasharray:none"
         id="g3795">
        <use
           height="177.16534"
           width="389.76376"
           xlink:href="#textext-93cf578f-4"
           x="235.60899"
           y="134.765"
           id="use3797"
           style="stroke-width:1.18115808;stroke-miterlimit:4;stroke-dasharray:none" />
      </g>
      <g
         style="fill:#000000;fill-opacity:1;stroke-width:1.18115808;stroke-miterlimit:4;stroke-dasharray:none"
         id="g3799">
        <use
           height="177.16534"
           width="389.76376"
           xlink:href="#textext-93cf578f-1"
           x="245.571"
           y="134.765"
           id="use3801"
           style="stroke-width:1.18115808;stroke-miterlimit:4;stroke-dasharray:none" />
        <use
           height="177.16534"
           width="389.76376"
           xlink:href="#textext-93cf578f-2"
           x="250.55231"
           y="134.765"
           id="use3803"
           style="stroke-width:1.18115808;stroke-miterlimit:4;stroke-dasharray:none" />
      </g>
    </g>
  </g>
  <g
     id="g3805"
     transform="matrix(0.83761125,0.80843278,-0.80843278,0.83761125,76.277708,-172.16374)"
     ns0:preamble="/home/sriranga/Desktop/Ganitarnava/figure/package.tex"
     ns0:text="$14-14$"
     style="stroke-width:1.18115808;stroke-miterlimit:4;stroke-dasharray:none">
    <defs
       id="defs3807">
      <g
         id="g3809">
        <symbol
           id="symbol3811"
           overflow="visible"
           style="overflow:visible">
          <path
             id="path3813"
             d=""
             style="stroke:none" />
        </symbol>
        <symbol
           id="symbol3815"
           overflow="visible"
           style="overflow:visible">
          <path
             id="path3817"
             d="m 2.9375,-6.375 c 0,-0.25 0,-0.265625 -0.234375,-0.265625 C 2.078125,-6 1.203125,-6 0.890625,-6 l 0,0.3125 c 0.203125,0 0.78125,0 1.296875,-0.265625 l 0,5.171875 c 0,0.359375 -0.03125,0.46875 -0.921875,0.46875 l -0.3125,0 0,0.3125 c 0.34375,-0.03125 1.203125,-0.03125 1.609375,-0.03125 0.390625,0 1.265625,0 1.609375,0.03125 l 0,-0.3125 -0.3125,0 c -0.90625,0 -0.921875,-0.109375 -0.921875,-0.46875 l 0,-5.59375 z m 0,0"
             style="stroke:none" />
        </symbol>
        <symbol
           id="symbol3819"
           overflow="visible"
           style="overflow:visible">
          <path
             id="path3821"
             d="m 2.9375,-1.640625 0,0.859375 c 0,0.359375 -0.03125,0.46875 -0.765625,0.46875 l -0.203125,0 0,0.3125 C 2.375,-0.03125 2.890625,-0.03125 3.3125,-0.03125 c 0.421875,0 0.9375,0 1.359375,0.03125 l 0,-0.3125 -0.21875,0 c -0.734375,0 -0.75,-0.109375 -0.75,-0.46875 l 0,-0.859375 0.984375,0 0,-0.3125 -0.984375,0 0,-4.53125 c 0,-0.203125 0,-0.265625 -0.171875,-0.265625 -0.078125,0 -0.109375,0 -0.1875,0.125 l -3.0625,4.671875 0,0.3125 2.65625,0 z m 0.046875,-0.3125 -2.421875,0 2.421875,-3.71875 0,3.71875 z m 0,0"
             style="stroke:none" />
        </symbol>
        <symbol
           id="symbol3823"
           overflow="visible"
           style="overflow:visible">
          <path
             id="path3825"
             d=""
             style="stroke:none" />
        </symbol>
        <symbol
           id="symbol3827"
           overflow="visible"
           style="overflow:visible">
          <path
             id="path3829"
             d="m 6.5625,-2.296875 c 0.171875,0 0.359375,0 0.359375,-0.203125 0,-0.1875 -0.1875,-0.1875 -0.359375,-0.1875 l -5.390625,0 c -0.171875,0 -0.34375,0 -0.34375,0.1875 0,0.203125 0.171875,0.203125 0.34375,0.203125 l 5.390625,0 z m 0,0"
             style="stroke:none" />
        </symbol>
      </g>
    </defs>
    <g
       id="g3831"
       style="stroke-width:1.18115808;stroke-miterlimit:4;stroke-dasharray:none">
      <g
         id="g3833"
         style="fill:#000000;fill-opacity:1;stroke-width:1.18115808;stroke-miterlimit:4;stroke-dasharray:none">
        <use
           id="use3835"
           y="134.765"
           x="223.43201"
           xlink:href="#textext-93cf578f-1"
           width="389.76376"
           height="177.16534"
           style="stroke-width:1.18115808;stroke-miterlimit:4;stroke-dasharray:none" />
        <use
           id="use3837"
           y="134.765"
           x="228.4133"
           xlink:href="#textext-93cf578f-2"
           width="389.76376"
           height="177.16534"
           style="stroke-width:1.18115808;stroke-miterlimit:4;stroke-dasharray:none" />
      </g>
      <g
         id="g3839"
         style="fill:#000000;fill-opacity:1;stroke-width:1.18115808;stroke-miterlimit:4;stroke-dasharray:none">
        <use
           id="use3841"
           y="134.765"
           x="235.60899"
           xlink:href="#textext-93cf578f-4"
           width="389.76376"
           height="177.16534"
           style="stroke-width:1.18115808;stroke-miterlimit:4;stroke-dasharray:none" />
      </g>
      <g
         id="g3843"
         style="fill:#000000;fill-opacity:1;stroke-width:1.18115808;stroke-miterlimit:4;stroke-dasharray:none">
        <use
           id="use3845"
           y="134.765"
           x="245.571"
           xlink:href="#textext-93cf578f-1"
           width="389.76376"
           height="177.16534"
           style="stroke-width:1.18115808;stroke-miterlimit:4;stroke-dasharray:none" />
        <use
           id="use3847"
           y="134.765"
           x="250.55231"
           xlink:href="#textext-93cf578f-2"
           width="389.76376"
           height="177.16534"
           style="stroke-width:1.18115808;stroke-miterlimit:4;stroke-dasharray:none" />
      </g>
    </g>
  </g>
  <g
     id="g4114"
     transform="matrix(0.9523416,0,0,0.9523416,97.840287,21.488155)"
     ns0:preamble="/home/sriranga/Desktop/Ganitarnava/figure/package.tex"
     ns0:text="$11-75$"
     style="stroke-width:1.44380966;stroke-miterlimit:4;stroke-dasharray:none">
    <defs
       id="defs4116">
      <g
         id="g4118">
        <symbol
           id="textext-00274e7a-0"
           overflow="visible"
           style="overflow:visible">
          <path
             id="path4121"
             d=""
             style="stroke:none" />
        </symbol>
        <symbol
           id="textext-00274e7a-1"
           overflow="visible"
           style="overflow:visible">
          <path
             id="path4124"
             d="m 2.9375,-6.375 c 0,-0.25 0,-0.265625 -0.234375,-0.265625 C 2.078125,-6 1.203125,-6 0.890625,-6 l 0,0.3125 c 0.203125,0 0.78125,0 1.296875,-0.265625 l 0,5.171875 c 0,0.359375 -0.03125,0.46875 -0.921875,0.46875 l -0.3125,0 0,0.3125 c 0.34375,-0.03125 1.203125,-0.03125 1.609375,-0.03125 0.390625,0 1.265625,0 1.609375,0.03125 l 0,-0.3125 -0.3125,0 c -0.90625,0 -0.921875,-0.109375 -0.921875,-0.46875 l 0,-5.59375 z m 0,0"
             style="stroke:none" />
        </symbol>
        <symbol
           id="textext-00274e7a-2"
           overflow="visible"
           style="overflow:visible">
          <path
             id="path4127"
             d="m 4.75,-6.078125 c 0.078125,-0.109375 0.078125,-0.125 0.078125,-0.34375 l -2.421875,0 c -1.203125,0 -1.234375,-0.125 -1.265625,-0.3125 l -0.25,0 -0.328125,2.046875 0.25,0 c 0.03125,-0.15625 0.109375,-0.78125 0.25,-0.90625 0.0625,-0.0625 0.84375,-0.0625 0.96875,-0.0625 l 2.0625,0 C 3.984375,-5.5 3.203125,-4.40625 2.984375,-4.078125 2.078125,-2.734375 1.75,-1.34375 1.75,-0.328125 c 0,0.09375 0,0.546875 0.46875,0.546875 0.453125,0 0.453125,-0.453125 0.453125,-0.546875 l 0,-0.515625 c 0,-0.546875 0.03125,-1.09375 0.109375,-1.625 0.046875,-0.234375 0.171875,-1.09375 0.625,-1.703125 L 4.75,-6.078125 z m 0,0"
             style="stroke:none" />
        </symbol>
        <symbol
           id="textext-00274e7a-3"
           overflow="visible"
           style="overflow:visible">
          <path
             id="path4130"
             d="m 4.46875,-2 c 0,-1.1875 -0.8125,-2.1875 -1.890625,-2.1875 -0.46875,0 -0.90625,0.15625 -1.265625,0.515625 l 0,-1.953125 c 0.203125,0.0625 0.53125,0.125 0.84375,0.125 1.234375,0 1.9375,-0.90625 1.9375,-1.03125 0,-0.0625 -0.03125,-0.109375 -0.109375,-0.109375 0,0 -0.03125,0 -0.078125,0.03125 C 3.703125,-6.515625 3.21875,-6.3125 2.546875,-6.3125 2.15625,-6.3125 1.6875,-6.390625 1.21875,-6.59375 1.140625,-6.625 1.125,-6.625 1.109375,-6.625 1,-6.625 1,-6.546875 1,-6.390625 L 1,-3.4375 c 0,0.171875 0,0.25 0.140625,0.25 0.078125,0 0.09375,-0.015625 0.140625,-0.078125 C 1.390625,-3.421875 1.75,-3.96875 2.5625,-3.96875 c 0.515625,0 0.765625,0.453125 0.84375,0.640625 0.15625,0.375 0.1875,0.75 0.1875,1.25 0,0.359375 0,0.953125 -0.25,1.375 C 3.109375,-0.3125 2.734375,-0.0625 2.28125,-0.0625 c -0.71875,0 -1.296875,-0.53125 -1.46875,-1.109375 0.03125,0 0.0625,0.015625 0.171875,0.015625 0.328125,0 0.5,-0.25 0.5,-0.484375 0,-0.25 -0.171875,-0.5 -0.5,-0.5 C 0.84375,-2.140625 0.5,-2.0625 0.5,-1.609375 0.5,-0.75 1.1875,0.21875 2.296875,0.21875 3.453125,0.21875 4.46875,-0.734375 4.46875,-2 z m 0,0"
             style="stroke:none" />
        </symbol>
        <symbol
           id="textext-00274e7a-4"
           overflow="visible"
           style="overflow:visible">
          <path
             id="path4133"
             d=""
             style="stroke:none" />
        </symbol>
        <symbol
           id="textext-00274e7a-5"
           overflow="visible"
           style="overflow:visible">
          <path
             id="path4136"
             d="m 6.5625,-2.296875 c 0.171875,0 0.359375,0 0.359375,-0.203125 0,-0.1875 -0.1875,-0.1875 -0.359375,-0.1875 l -5.390625,0 c -0.171875,0 -0.34375,0 -0.34375,0.1875 0,0.203125 0.171875,0.203125 0.34375,0.203125 l 5.390625,0 z m 0,0"
             style="stroke:none" />
        </symbol>
      </g>
    </defs>
    <g
       id="textext-00274e7a-6"
       style="stroke-width:1.44380966;stroke-miterlimit:4;stroke-dasharray:none">
      <g
         id="g4139"
         style="fill:#000000;fill-opacity:1;stroke-width:1.44380966;stroke-miterlimit:4;stroke-dasharray:none">
        <use
           id="use4141"
           y="134.765"
           x="223.43201"
           xlink:href="#textext-00274e7a-1"
           width="389.76376"
           height="177.16534"
           style="stroke-width:1.44380966;stroke-miterlimit:4;stroke-dasharray:none" />
        <use
           id="use4143"
           y="134.765"
           x="228.4133"
           xlink:href="#textext-00274e7a-1"
           width="389.76376"
           height="177.16534"
           style="stroke-width:1.44380966;stroke-miterlimit:4;stroke-dasharray:none" />
      </g>
      <g
         id="g4145"
         style="fill:#000000;fill-opacity:1;stroke-width:1.44380966;stroke-miterlimit:4;stroke-dasharray:none">
        <use
           id="use4147"
           y="134.765"
           x="235.60899"
           xlink:href="#textext-00274e7a-5"
           width="389.76376"
           height="177.16534"
           style="stroke-width:1.44380966;stroke-miterlimit:4;stroke-dasharray:none" />
      </g>
      <g
         id="g4149"
         style="fill:#000000;fill-opacity:1;stroke-width:1.44380966;stroke-miterlimit:4;stroke-dasharray:none">
        <use
           id="use4151"
           y="134.765"
           x="245.571"
           xlink:href="#textext-00274e7a-2"
           width="389.76376"
           height="177.16534"
           style="stroke-width:1.44380966;stroke-miterlimit:4;stroke-dasharray:none" />
        <use
           id="use4153"
           y="134.765"
           x="250.55231"
           xlink:href="#textext-00274e7a-3"
           width="389.76376"
           height="177.16534"
           style="stroke-width:1.44380966;stroke-miterlimit:4;stroke-dasharray:none" />
      </g>
    </g>
  </g>
  <g
     ns0:text="$11-75$"
     ns0:preamble="/home/sriranga/Desktop/Ganitarnava/figure/package.tex"
     transform="matrix(-0.21606403,-0.92750787,0.92750787,-0.21606403,222.31291,365.97107)"
     id="g4396"
     style="stroke-width:1.44380967;stroke-miterlimit:4;stroke-dasharray:none">
    <defs
       id="defs4398">
      <g
         id="g4400">
        <symbol
           style="overflow:visible"
           overflow="visible"
           id="symbol4402">
          <path
             style="stroke:none"
             d=""
             id="path4404" />
        </symbol>
        <symbol
           style="overflow:visible"
           overflow="visible"
           id="symbol4406">
          <path
             style="stroke:none"
             d="m 2.9375,-6.375 c 0,-0.25 0,-0.265625 -0.234375,-0.265625 C 2.078125,-6 1.203125,-6 0.890625,-6 l 0,0.3125 c 0.203125,0 0.78125,0 1.296875,-0.265625 l 0,5.171875 c 0,0.359375 -0.03125,0.46875 -0.921875,0.46875 l -0.3125,0 0,0.3125 c 0.34375,-0.03125 1.203125,-0.03125 1.609375,-0.03125 0.390625,0 1.265625,0 1.609375,0.03125 l 0,-0.3125 -0.3125,0 c -0.90625,0 -0.921875,-0.109375 -0.921875,-0.46875 l 0,-5.59375 z m 0,0"
             id="path4408" />
        </symbol>
        <symbol
           style="overflow:visible"
           overflow="visible"
           id="symbol4410">
          <path
             style="stroke:none"
             d="m 4.75,-6.078125 c 0.078125,-0.109375 0.078125,-0.125 0.078125,-0.34375 l -2.421875,0 c -1.203125,0 -1.234375,-0.125 -1.265625,-0.3125 l -0.25,0 -0.328125,2.046875 0.25,0 c 0.03125,-0.15625 0.109375,-0.78125 0.25,-0.90625 0.0625,-0.0625 0.84375,-0.0625 0.96875,-0.0625 l 2.0625,0 C 3.984375,-5.5 3.203125,-4.40625 2.984375,-4.078125 2.078125,-2.734375 1.75,-1.34375 1.75,-0.328125 c 0,0.09375 0,0.546875 0.46875,0.546875 0.453125,0 0.453125,-0.453125 0.453125,-0.546875 l 0,-0.515625 c 0,-0.546875 0.03125,-1.09375 0.109375,-1.625 0.046875,-0.234375 0.171875,-1.09375 0.625,-1.703125 L 4.75,-6.078125 z m 0,0"
             id="path4412" />
        </symbol>
        <symbol
           style="overflow:visible"
           overflow="visible"
           id="symbol4414">
          <path
             style="stroke:none"
             d="m 4.46875,-2 c 0,-1.1875 -0.8125,-2.1875 -1.890625,-2.1875 -0.46875,0 -0.90625,0.15625 -1.265625,0.515625 l 0,-1.953125 c 0.203125,0.0625 0.53125,0.125 0.84375,0.125 1.234375,0 1.9375,-0.90625 1.9375,-1.03125 0,-0.0625 -0.03125,-0.109375 -0.109375,-0.109375 0,0 -0.03125,0 -0.078125,0.03125 C 3.703125,-6.515625 3.21875,-6.3125 2.546875,-6.3125 2.15625,-6.3125 1.6875,-6.390625 1.21875,-6.59375 1.140625,-6.625 1.125,-6.625 1.109375,-6.625 1,-6.625 1,-6.546875 1,-6.390625 L 1,-3.4375 c 0,0.171875 0,0.25 0.140625,0.25 0.078125,0 0.09375,-0.015625 0.140625,-0.078125 C 1.390625,-3.421875 1.75,-3.96875 2.5625,-3.96875 c 0.515625,0 0.765625,0.453125 0.84375,0.640625 0.15625,0.375 0.1875,0.75 0.1875,1.25 0,0.359375 0,0.953125 -0.25,1.375 C 3.109375,-0.3125 2.734375,-0.0625 2.28125,-0.0625 c -0.71875,0 -1.296875,-0.53125 -1.46875,-1.109375 0.03125,0 0.0625,0.015625 0.171875,0.015625 0.328125,0 0.5,-0.25 0.5,-0.484375 0,-0.25 -0.171875,-0.5 -0.5,-0.5 C 0.84375,-2.140625 0.5,-2.0625 0.5,-1.609375 0.5,-0.75 1.1875,0.21875 2.296875,0.21875 3.453125,0.21875 4.46875,-0.734375 4.46875,-2 z m 0,0"
             id="path4416" />
        </symbol>
        <symbol
           style="overflow:visible"
           overflow="visible"
           id="symbol4418">
          <path
             style="stroke:none"
             d=""
             id="path4420" />
        </symbol>
        <symbol
           style="overflow:visible"
           overflow="visible"
           id="symbol4422">
          <path
             style="stroke:none"
             d="m 6.5625,-2.296875 c 0.171875,0 0.359375,0 0.359375,-0.203125 0,-0.1875 -0.1875,-0.1875 -0.359375,-0.1875 l -5.390625,0 c -0.171875,0 -0.34375,0 -0.34375,0.1875 0,0.203125 0.171875,0.203125 0.34375,0.203125 l 5.390625,0 z m 0,0"
             id="path4424" />
        </symbol>
      </g>
    </defs>
    <g
       id="g4426"
       style="stroke-width:1.44380967;stroke-miterlimit:4;stroke-dasharray:none">
      <g
         style="fill:#000000;fill-opacity:1;stroke-width:1.44380967;stroke-miterlimit:4;stroke-dasharray:none"
         id="g4428">
        <use
           height="177.16534"
           width="389.76376"
           xlink:href="#textext-00274e7a-1"
           x="223.43201"
           y="134.765"
           id="use4430"
           style="stroke-width:1.44380967;stroke-miterlimit:4;stroke-dasharray:none" />
        <use
           height="177.16534"
           width="389.76376"
           xlink:href="#textext-00274e7a-1"
           x="228.4133"
           y="134.765"
           id="use4432"
           style="stroke-width:1.44380967;stroke-miterlimit:4;stroke-dasharray:none" />
      </g>
      <g
         style="fill:#000000;fill-opacity:1;stroke-width:1.44380967;stroke-miterlimit:4;stroke-dasharray:none"
         id="g4434">
        <use
           height="177.16534"
           width="389.76376"
           xlink:href="#textext-00274e7a-5"
           x="235.60899"
           y="134.765"
           id="use4436"
           style="stroke-width:1.44380967;stroke-miterlimit:4;stroke-dasharray:none" />
      </g>
      <g
         style="fill:#000000;fill-opacity:1;stroke-width:1.44380967;stroke-miterlimit:4;stroke-dasharray:none"
         id="g4438">
        <use
           height="177.16534"
           width="389.76376"
           xlink:href="#textext-00274e7a-2"
           x="245.571"
           y="134.765"
           id="use4440"
           style="stroke-width:1.44380967;stroke-miterlimit:4;stroke-dasharray:none" />
        <use
           height="177.16534"
           width="389.76376"
           xlink:href="#textext-00274e7a-3"
           x="250.55231"
           y="134.765"
           id="use4442"
           style="stroke-width:1.44380967;stroke-miterlimit:4;stroke-dasharray:none" />
      </g>
    </g>
  </g>
  <g
     id="g4444"
     transform="matrix(0.28217791,-0.9095769,0.9095769,0.28217791,173.96038,297.74432)"
     ns0:preamble="/home/sriranga/Desktop/Ganitarnava/figure/package.tex"
     ns0:text="$11-75$"
     style="stroke-width:1.44380967;stroke-miterlimit:4;stroke-dasharray:none">
    <defs
       id="defs4446">
      <g
         id="g4448">
        <symbol
           id="symbol4450"
           overflow="visible"
           style="overflow:visible">
          <path
             id="path4452"
             d=""
             style="stroke:none" />
        </symbol>
        <symbol
           id="symbol4454"
           overflow="visible"
           style="overflow:visible">
          <path
             id="path4456"
             d="m 2.9375,-6.375 c 0,-0.25 0,-0.265625 -0.234375,-0.265625 C 2.078125,-6 1.203125,-6 0.890625,-6 l 0,0.3125 c 0.203125,0 0.78125,0 1.296875,-0.265625 l 0,5.171875 c 0,0.359375 -0.03125,0.46875 -0.921875,0.46875 l -0.3125,0 0,0.3125 c 0.34375,-0.03125 1.203125,-0.03125 1.609375,-0.03125 0.390625,0 1.265625,0 1.609375,0.03125 l 0,-0.3125 -0.3125,0 c -0.90625,0 -0.921875,-0.109375 -0.921875,-0.46875 l 0,-5.59375 z m 0,0"
             style="stroke:none" />
        </symbol>
        <symbol
           id="symbol4458"
           overflow="visible"
           style="overflow:visible">
          <path
             id="path4460"
             d="m 4.75,-6.078125 c 0.078125,-0.109375 0.078125,-0.125 0.078125,-0.34375 l -2.421875,0 c -1.203125,0 -1.234375,-0.125 -1.265625,-0.3125 l -0.25,0 -0.328125,2.046875 0.25,0 c 0.03125,-0.15625 0.109375,-0.78125 0.25,-0.90625 0.0625,-0.0625 0.84375,-0.0625 0.96875,-0.0625 l 2.0625,0 C 3.984375,-5.5 3.203125,-4.40625 2.984375,-4.078125 2.078125,-2.734375 1.75,-1.34375 1.75,-0.328125 c 0,0.09375 0,0.546875 0.46875,0.546875 0.453125,0 0.453125,-0.453125 0.453125,-0.546875 l 0,-0.515625 c 0,-0.546875 0.03125,-1.09375 0.109375,-1.625 0.046875,-0.234375 0.171875,-1.09375 0.625,-1.703125 L 4.75,-6.078125 z m 0,0"
             style="stroke:none" />
        </symbol>
        <symbol
           id="symbol4462"
           overflow="visible"
           style="overflow:visible">
          <path
             id="path4464"
             d="m 4.46875,-2 c 0,-1.1875 -0.8125,-2.1875 -1.890625,-2.1875 -0.46875,0 -0.90625,0.15625 -1.265625,0.515625 l 0,-1.953125 c 0.203125,0.0625 0.53125,0.125 0.84375,0.125 1.234375,0 1.9375,-0.90625 1.9375,-1.03125 0,-0.0625 -0.03125,-0.109375 -0.109375,-0.109375 0,0 -0.03125,0 -0.078125,0.03125 C 3.703125,-6.515625 3.21875,-6.3125 2.546875,-6.3125 2.15625,-6.3125 1.6875,-6.390625 1.21875,-6.59375 1.140625,-6.625 1.125,-6.625 1.109375,-6.625 1,-6.625 1,-6.546875 1,-6.390625 L 1,-3.4375 c 0,0.171875 0,0.25 0.140625,0.25 0.078125,0 0.09375,-0.015625 0.140625,-0.078125 C 1.390625,-3.421875 1.75,-3.96875 2.5625,-3.96875 c 0.515625,0 0.765625,0.453125 0.84375,0.640625 0.15625,0.375 0.1875,0.75 0.1875,1.25 0,0.359375 0,0.953125 -0.25,1.375 C 3.109375,-0.3125 2.734375,-0.0625 2.28125,-0.0625 c -0.71875,0 -1.296875,-0.53125 -1.46875,-1.109375 0.03125,0 0.0625,0.015625 0.171875,0.015625 0.328125,0 0.5,-0.25 0.5,-0.484375 0,-0.25 -0.171875,-0.5 -0.5,-0.5 C 0.84375,-2.140625 0.5,-2.0625 0.5,-1.609375 0.5,-0.75 1.1875,0.21875 2.296875,0.21875 3.453125,0.21875 4.46875,-0.734375 4.46875,-2 z m 0,0"
             style="stroke:none" />
        </symbol>
        <symbol
           id="symbol4466"
           overflow="visible"
           style="overflow:visible">
          <path
             id="path4468"
             d=""
             style="stroke:none" />
        </symbol>
        <symbol
           id="symbol4470"
           overflow="visible"
           style="overflow:visible">
          <path
             id="path4472"
             d="m 6.5625,-2.296875 c 0.171875,0 0.359375,0 0.359375,-0.203125 0,-0.1875 -0.1875,-0.1875 -0.359375,-0.1875 l -5.390625,0 c -0.171875,0 -0.34375,0 -0.34375,0.1875 0,0.203125 0.171875,0.203125 0.34375,0.203125 l 5.390625,0 z m 0,0"
             style="stroke:none" />
        </symbol>
      </g>
    </defs>
    <g
       id="g4474"
       style="stroke-width:1.44380967;stroke-miterlimit:4;stroke-dasharray:none">
      <g
         id="g4476"
         style="fill:#000000;fill-opacity:1;stroke-width:1.44380967;stroke-miterlimit:4;stroke-dasharray:none">
        <use
           id="use4478"
           y="134.765"
           x="223.43201"
           xlink:href="#textext-00274e7a-1"
           width="389.76376"
           height="177.16534"
           style="stroke-width:1.44380967;stroke-miterlimit:4;stroke-dasharray:none" />
        <use
           id="use4480"
           y="134.765"
           x="228.4133"
           xlink:href="#textext-00274e7a-1"
           width="389.76376"
           height="177.16534"
           style="stroke-width:1.44380967;stroke-miterlimit:4;stroke-dasharray:none" />
      </g>
      <g
         id="g4482"
         style="fill:#000000;fill-opacity:1;stroke-width:1.44380967;stroke-miterlimit:4;stroke-dasharray:none">
        <use
           id="use4484"
           y="134.765"
           x="235.60899"
           xlink:href="#textext-00274e7a-5"
           width="389.76376"
           height="177.16534"
           style="stroke-width:1.44380967;stroke-miterlimit:4;stroke-dasharray:none" />
      </g>
      <g
         id="g4486"
         style="fill:#000000;fill-opacity:1;stroke-width:1.44380967;stroke-miterlimit:4;stroke-dasharray:none">
        <use
           id="use4488"
           y="134.765"
           x="245.571"
           xlink:href="#textext-00274e7a-2"
           width="389.76376"
           height="177.16534"
           style="stroke-width:1.44380967;stroke-miterlimit:4;stroke-dasharray:none" />
        <use
           id="use4490"
           y="134.765"
           x="250.55231"
           xlink:href="#textext-00274e7a-3"
           width="389.76376"
           height="177.16534"
           style="stroke-width:1.44380967;stroke-miterlimit:4;stroke-dasharray:none" />
      </g>
    </g>
  </g>
  <g
     ns0:text="$11-75$"
     ns0:preamble="/home/sriranga/Desktop/Ganitarnava/figure/package.tex"
     transform="matrix(0.83325526,-0.46112927,0.46112927,0.83325526,45.818243,66.871692)"
     id="g4492"
     style="stroke-width:1.44380965;stroke-miterlimit:4;stroke-dasharray:none">
    <defs
       id="defs4494">
      <g
         id="g4496">
        <symbol
           style="overflow:visible"
           overflow="visible"
           id="symbol4498">
          <path
             style="stroke:none"
             d=""
             id="path4500" />
        </symbol>
        <symbol
           style="overflow:visible"
           overflow="visible"
           id="symbol4502">
          <path
             style="stroke:none"
             d="m 2.9375,-6.375 c 0,-0.25 0,-0.265625 -0.234375,-0.265625 C 2.078125,-6 1.203125,-6 0.890625,-6 l 0,0.3125 c 0.203125,0 0.78125,0 1.296875,-0.265625 l 0,5.171875 c 0,0.359375 -0.03125,0.46875 -0.921875,0.46875 l -0.3125,0 0,0.3125 c 0.34375,-0.03125 1.203125,-0.03125 1.609375,-0.03125 0.390625,0 1.265625,0 1.609375,0.03125 l 0,-0.3125 -0.3125,0 c -0.90625,0 -0.921875,-0.109375 -0.921875,-0.46875 l 0,-5.59375 z m 0,0"
             id="path4504" />
        </symbol>
        <symbol
           style="overflow:visible"
           overflow="visible"
           id="symbol4506">
          <path
             style="stroke:none"
             d="m 4.75,-6.078125 c 0.078125,-0.109375 0.078125,-0.125 0.078125,-0.34375 l -2.421875,0 c -1.203125,0 -1.234375,-0.125 -1.265625,-0.3125 l -0.25,0 -0.328125,2.046875 0.25,0 c 0.03125,-0.15625 0.109375,-0.78125 0.25,-0.90625 0.0625,-0.0625 0.84375,-0.0625 0.96875,-0.0625 l 2.0625,0 C 3.984375,-5.5 3.203125,-4.40625 2.984375,-4.078125 2.078125,-2.734375 1.75,-1.34375 1.75,-0.328125 c 0,0.09375 0,0.546875 0.46875,0.546875 0.453125,0 0.453125,-0.453125 0.453125,-0.546875 l 0,-0.515625 c 0,-0.546875 0.03125,-1.09375 0.109375,-1.625 0.046875,-0.234375 0.171875,-1.09375 0.625,-1.703125 L 4.75,-6.078125 z m 0,0"
             id="path4508" />
        </symbol>
        <symbol
           style="overflow:visible"
           overflow="visible"
           id="symbol4510">
          <path
             style="stroke:none"
             d="m 4.46875,-2 c 0,-1.1875 -0.8125,-2.1875 -1.890625,-2.1875 -0.46875,0 -0.90625,0.15625 -1.265625,0.515625 l 0,-1.953125 c 0.203125,0.0625 0.53125,0.125 0.84375,0.125 1.234375,0 1.9375,-0.90625 1.9375,-1.03125 0,-0.0625 -0.03125,-0.109375 -0.109375,-0.109375 0,0 -0.03125,0 -0.078125,0.03125 C 3.703125,-6.515625 3.21875,-6.3125 2.546875,-6.3125 2.15625,-6.3125 1.6875,-6.390625 1.21875,-6.59375 1.140625,-6.625 1.125,-6.625 1.109375,-6.625 1,-6.625 1,-6.546875 1,-6.390625 L 1,-3.4375 c 0,0.171875 0,0.25 0.140625,0.25 0.078125,0 0.09375,-0.015625 0.140625,-0.078125 C 1.390625,-3.421875 1.75,-3.96875 2.5625,-3.96875 c 0.515625,0 0.765625,0.453125 0.84375,0.640625 0.15625,0.375 0.1875,0.75 0.1875,1.25 0,0.359375 0,0.953125 -0.25,1.375 C 3.109375,-0.3125 2.734375,-0.0625 2.28125,-0.0625 c -0.71875,0 -1.296875,-0.53125 -1.46875,-1.109375 0.03125,0 0.0625,0.015625 0.171875,0.015625 0.328125,0 0.5,-0.25 0.5,-0.484375 0,-0.25 -0.171875,-0.5 -0.5,-0.5 C 0.84375,-2.140625 0.5,-2.0625 0.5,-1.609375 0.5,-0.75 1.1875,0.21875 2.296875,0.21875 3.453125,0.21875 4.46875,-0.734375 4.46875,-2 z m 0,0"
             id="path4512" />
        </symbol>
        <symbol
           style="overflow:visible"
           overflow="visible"
           id="symbol4514">
          <path
             style="stroke:none"
             d=""
             id="path4516" />
        </symbol>
        <symbol
           style="overflow:visible"
           overflow="visible"
           id="symbol4518">
          <path
             style="stroke:none"
             d="m 6.5625,-2.296875 c 0.171875,0 0.359375,0 0.359375,-0.203125 0,-0.1875 -0.1875,-0.1875 -0.359375,-0.1875 l -5.390625,0 c -0.171875,0 -0.34375,0 -0.34375,0.1875 0,0.203125 0.171875,0.203125 0.34375,0.203125 l 5.390625,0 z m 0,0"
             id="path4520" />
        </symbol>
      </g>
    </defs>
    <g
       id="g4522"
       style="stroke-width:1.44380965;stroke-miterlimit:4;stroke-dasharray:none">
      <g
         style="fill:#000000;fill-opacity:1;stroke-width:1.44380965;stroke-miterlimit:4;stroke-dasharray:none"
         id="g4524">
        <use
           height="177.16534"
           width="389.76376"
           xlink:href="#textext-00274e7a-1"
           x="223.43201"
           y="134.765"
           id="use4526"
           style="stroke-width:1.44380965;stroke-miterlimit:4;stroke-dasharray:none" />
        <use
           height="177.16534"
           width="389.76376"
           xlink:href="#textext-00274e7a-1"
           x="228.4133"
           y="134.765"
           id="use4528"
           style="stroke-width:1.44380965;stroke-miterlimit:4;stroke-dasharray:none" />
      </g>
      <g
         style="fill:#000000;fill-opacity:1;stroke-width:1.44380965;stroke-miterlimit:4;stroke-dasharray:none"
         id="g4530">
        <use
           height="177.16534"
           width="389.76376"
           xlink:href="#textext-00274e7a-5"
           x="235.60899"
           y="134.765"
           id="use4532"
           style="stroke-width:1.44380965;stroke-miterlimit:4;stroke-dasharray:none" />
      </g>
      <g
         style="fill:#000000;fill-opacity:1;stroke-width:1.44380965;stroke-miterlimit:4;stroke-dasharray:none"
         id="g4534">
        <use
           height="177.16534"
           width="389.76376"
           xlink:href="#textext-00274e7a-2"
           x="245.571"
           y="134.765"
           id="use4536"
           style="stroke-width:1.44380965;stroke-miterlimit:4;stroke-dasharray:none" />
        <use
           height="177.16534"
           width="389.76376"
           xlink:href="#textext-00274e7a-3"
           x="250.55231"
           y="134.765"
           id="use4538"
           style="stroke-width:1.44380965;stroke-miterlimit:4;stroke-dasharray:none" />
      </g>
    </g>
  </g>
  <g
     id="g4540"
     transform="matrix(0.79461051,0.52492732,-0.52492732,0.79461051,227.97022,-163.38975)"
     ns0:preamble="/home/sriranga/Desktop/Ganitarnava/figure/package.tex"
     ns0:text="$11-75$"
     style="stroke-width:1.44380963;stroke-miterlimit:4;stroke-dasharray:none">
    <defs
       id="defs4542">
      <g
         id="g4544">
        <symbol
           id="symbol4546"
           overflow="visible"
           style="overflow:visible">
          <path
             id="path4548"
             d=""
             style="stroke:none" />
        </symbol>
        <symbol
           id="symbol4550"
           overflow="visible"
           style="overflow:visible">
          <path
             id="path4552"
             d="m 2.9375,-6.375 c 0,-0.25 0,-0.265625 -0.234375,-0.265625 C 2.078125,-6 1.203125,-6 0.890625,-6 l 0,0.3125 c 0.203125,0 0.78125,0 1.296875,-0.265625 l 0,5.171875 c 0,0.359375 -0.03125,0.46875 -0.921875,0.46875 l -0.3125,0 0,0.3125 c 0.34375,-0.03125 1.203125,-0.03125 1.609375,-0.03125 0.390625,0 1.265625,0 1.609375,0.03125 l 0,-0.3125 -0.3125,0 c -0.90625,0 -0.921875,-0.109375 -0.921875,-0.46875 l 0,-5.59375 z m 0,0"
             style="stroke:none" />
        </symbol>
        <symbol
           id="symbol4554"
           overflow="visible"
           style="overflow:visible">
          <path
             id="path4556"
             d="m 4.75,-6.078125 c 0.078125,-0.109375 0.078125,-0.125 0.078125,-0.34375 l -2.421875,0 c -1.203125,0 -1.234375,-0.125 -1.265625,-0.3125 l -0.25,0 -0.328125,2.046875 0.25,0 c 0.03125,-0.15625 0.109375,-0.78125 0.25,-0.90625 0.0625,-0.0625 0.84375,-0.0625 0.96875,-0.0625 l 2.0625,0 C 3.984375,-5.5 3.203125,-4.40625 2.984375,-4.078125 2.078125,-2.734375 1.75,-1.34375 1.75,-0.328125 c 0,0.09375 0,0.546875 0.46875,0.546875 0.453125,0 0.453125,-0.453125 0.453125,-0.546875 l 0,-0.515625 c 0,-0.546875 0.03125,-1.09375 0.109375,-1.625 0.046875,-0.234375 0.171875,-1.09375 0.625,-1.703125 L 4.75,-6.078125 z m 0,0"
             style="stroke:none" />
        </symbol>
        <symbol
           id="symbol4558"
           overflow="visible"
           style="overflow:visible">
          <path
             id="path4560"
             d="m 4.46875,-2 c 0,-1.1875 -0.8125,-2.1875 -1.890625,-2.1875 -0.46875,0 -0.90625,0.15625 -1.265625,0.515625 l 0,-1.953125 c 0.203125,0.0625 0.53125,0.125 0.84375,0.125 1.234375,0 1.9375,-0.90625 1.9375,-1.03125 0,-0.0625 -0.03125,-0.109375 -0.109375,-0.109375 0,0 -0.03125,0 -0.078125,0.03125 C 3.703125,-6.515625 3.21875,-6.3125 2.546875,-6.3125 2.15625,-6.3125 1.6875,-6.390625 1.21875,-6.59375 1.140625,-6.625 1.125,-6.625 1.109375,-6.625 1,-6.625 1,-6.546875 1,-6.390625 L 1,-3.4375 c 0,0.171875 0,0.25 0.140625,0.25 0.078125,0 0.09375,-0.015625 0.140625,-0.078125 C 1.390625,-3.421875 1.75,-3.96875 2.5625,-3.96875 c 0.515625,0 0.765625,0.453125 0.84375,0.640625 0.15625,0.375 0.1875,0.75 0.1875,1.25 0,0.359375 0,0.953125 -0.25,1.375 C 3.109375,-0.3125 2.734375,-0.0625 2.28125,-0.0625 c -0.71875,0 -1.296875,-0.53125 -1.46875,-1.109375 0.03125,0 0.0625,0.015625 0.171875,0.015625 0.328125,0 0.5,-0.25 0.5,-0.484375 0,-0.25 -0.171875,-0.5 -0.5,-0.5 C 0.84375,-2.140625 0.5,-2.0625 0.5,-1.609375 0.5,-0.75 1.1875,0.21875 2.296875,0.21875 3.453125,0.21875 4.46875,-0.734375 4.46875,-2 z m 0,0"
             style="stroke:none" />
        </symbol>
        <symbol
           id="symbol4562"
           overflow="visible"
           style="overflow:visible">
          <path
             id="path4564"
             d=""
             style="stroke:none" />
        </symbol>
        <symbol
           id="symbol4566"
           overflow="visible"
           style="overflow:visible">
          <path
             id="path4568"
             d="m 6.5625,-2.296875 c 0.171875,0 0.359375,0 0.359375,-0.203125 0,-0.1875 -0.1875,-0.1875 -0.359375,-0.1875 l -5.390625,0 c -0.171875,0 -0.34375,0 -0.34375,0.1875 0,0.203125 0.171875,0.203125 0.34375,0.203125 l 5.390625,0 z m 0,0"
             style="stroke:none" />
        </symbol>
      </g>
    </defs>
    <g
       id="g4570"
       style="stroke-width:1.44380963;stroke-miterlimit:4;stroke-dasharray:none">
      <g
         id="g4572"
         style="fill:#000000;fill-opacity:1;stroke-width:1.44380963;stroke-miterlimit:4;stroke-dasharray:none">
        <use
           id="use4574"
           y="134.765"
           x="223.43201"
           xlink:href="#textext-00274e7a-1"
           width="389.76376"
           height="177.16534"
           style="stroke-width:1.44380963;stroke-miterlimit:4;stroke-dasharray:none" />
        <use
           id="use4576"
           y="134.765"
           x="228.4133"
           xlink:href="#textext-00274e7a-1"
           width="389.76376"
           height="177.16534"
           style="stroke-width:1.44380963;stroke-miterlimit:4;stroke-dasharray:none" />
      </g>
      <g
         id="g4578"
         style="fill:#000000;fill-opacity:1;stroke-width:1.44380963;stroke-miterlimit:4;stroke-dasharray:none">
        <use
           id="use4580"
           y="134.765"
           x="235.60899"
           xlink:href="#textext-00274e7a-5"
           width="389.76376"
           height="177.16534"
           style="stroke-width:1.44380963;stroke-miterlimit:4;stroke-dasharray:none" />
      </g>
      <g
         id="g4582"
         style="fill:#000000;fill-opacity:1;stroke-width:1.44380963;stroke-miterlimit:4;stroke-dasharray:none">
        <use
           id="use4584"
           y="134.765"
           x="245.571"
           xlink:href="#textext-00274e7a-2"
           width="389.76376"
           height="177.16534"
           style="stroke-width:1.44380963;stroke-miterlimit:4;stroke-dasharray:none" />
        <use
           id="use4586"
           y="134.765"
           x="250.55231"
           xlink:href="#textext-00274e7a-3"
           width="389.76376"
           height="177.16534"
           style="stroke-width:1.44380963;stroke-miterlimit:4;stroke-dasharray:none" />
      </g>
    </g>
  </g>
  <path
     style="fill:none;stroke:#000000;stroke-width:1.375;stroke-linecap:butt;stroke-linejoin:miter;stroke-opacity:1;stroke-miterlimit:4;stroke-dasharray:none"
     d="m 272.65625,96.305969 111.32813,0"
     id="path4592" />
  <text
     sodipodi:linespacing="125%"
     id="text3145"
     y="109.493"
     x="320.53107"
     style="font-size:12px;font-style:normal;font-variant:normal;font-weight:normal;font-stretch:normal;line-height:125%;letter-spacing:0px;word-spacing:0px;fill:#000000;fill-opacity:1;stroke:none;font-family:LMRoman10;-inkscape-font-specification:LMRoman10"
     xml:space="preserve"><tspan
       y="109.493"
       x="320.53107"
       id="tspan3147"
       sodipodi:role="line">20</tspan></text>
</svg>
