<?xml version="1.0" encoding="UTF-8" standalone="no"?>
<!-- Created with Inkscape (http://www.inkscape.org/) -->

<svg
   xmlns:dc="http://purl.org/dc/elements/1.1/"
   xmlns:cc="http://creativecommons.org/ns#"
   xmlns:rdf="http://www.w3.org/1999/02/22-rdf-syntax-ns#"
   xmlns:svg="http://www.w3.org/2000/svg"
   xmlns="http://www.w3.org/2000/svg"
   xmlns:sodipodi="http://sodipodi.sourceforge.net/DTD/sodipodi-0.dtd"
   xmlns:inkscape="http://www.inkscape.org/namespaces/inkscape"
   width="177.16534"
   height="177.16534"
   id="svg2"
   version="1.1"
   inkscape:version="0.47 r22583"
   sodipodi:docname="fig40.eps">
  <defs
     id="defs4">
    <inkscape:perspective
       sodipodi:type="inkscape:persp3d"
       inkscape:vp_x="0 : 526.18109 : 1"
       inkscape:vp_y="0 : 1000 : 0"
       inkscape:vp_z="744.09448 : 526.18109 : 1"
       inkscape:persp3d-origin="372.04724 : 350.78739 : 1"
       id="perspective10" />
  </defs>
  <sodipodi:namedview
     id="base"
     pagecolor="#ffffff"
     bordercolor="#666666"
     borderopacity="1.0"
     inkscape:pageopacity="0.0"
     inkscape:pageshadow="2"
     inkscape:zoom="1.979899"
     inkscape:cx="104.10098"
     inkscape:cy="75.548186"
     inkscape:document-units="px"
     inkscape:current-layer="layer1"
     showgrid="false"
     units="cm"
     inkscape:window-width="1024"
     inkscape:window-height="689"
     inkscape:window-x="0"
     inkscape:window-y="27"
     inkscape:window-maximized="1" />
  <metadata
     id="metadata7">
    <rdf:RDF>
      <cc:Work
         rdf:about="">
        <dc:format>image/svg+xml</dc:format>
        <dc:type
           rdf:resource="http://purl.org/dc/dcmitype/StillImage" />
        <dc:title></dc:title>
      </cc:Work>
    </rdf:RDF>
  </metadata>
  <g
     inkscape:label="Layer 1"
     inkscape:groupmode="layer"
     id="layer1"
     transform="translate(0,-875.19552)">
    <path
       sodipodi:type="arc"
       style="fill:none;stroke:#000000;stroke-width:2.15073538;stroke-linecap:round;stroke-linejoin:miter;stroke-miterlimit:4;stroke-opacity:1;stroke-dasharray:none;stroke-dashoffset:0"
       id="path3592"
       sodipodi:cx="39.648487"
       sodipodi:cy="52.664043"
       sodipodi:rx="9.8489876"
       sodipodi:ry="9.8489876"
       d="m 49.497475,52.664043 a 9.8489876,9.8489876 0 1 1 -19.697975,0 9.8489876,9.8489876 0 1 1 19.697975,0 z"
       transform="matrix(0.87179488,0,0,0.87179488,57.921974,859.37245)" />
    <path
       transform="matrix(0.87179488,0,0,0.87179488,47.315373,880.68463)"
       d="m 49.497475,52.664043 a 9.8489876,9.8489876 0 1 1 -19.697975,0 9.8489876,9.8489876 0 1 1 19.697975,0 z"
       sodipodi:ry="9.8489876"
       sodipodi:rx="9.8489876"
       sodipodi:cy="52.664043"
       sodipodi:cx="39.648487"
       id="path3594"
       style="fill:none;stroke:#000000;stroke-width:2.15073538;stroke-linecap:round;stroke-linejoin:miter;stroke-miterlimit:4;stroke-opacity:1;stroke-dasharray:none;stroke-dashoffset:0"
       sodipodi:type="arc" />
    <path
       sodipodi:type="arc"
       style="fill:none;stroke:#000000;stroke-width:2.15073538;stroke-linecap:round;stroke-linejoin:miter;stroke-miterlimit:4;stroke-opacity:1;stroke-dasharray:none;stroke-dashoffset:0"
       id="path3596"
       sodipodi:cx="39.648487"
       sodipodi:cy="52.664043"
       sodipodi:rx="9.8489876"
       sodipodi:ry="9.8489876"
       d="m 49.497475,52.664043 a 9.8489876,9.8489876 0 1 1 -19.697975,0 9.8489876,9.8489876 0 1 1 19.697975,0 z"
       transform="matrix(0.87179488,0,0,0.87179488,69.315373,880.68463)" />
    <path
       transform="matrix(0.87179488,0,0,0.87179488,36.325525,902.68463)"
       d="m 49.497475,52.664043 a 9.8489876,9.8489876 0 1 1 -19.697975,0 9.8489876,9.8489876 0 1 1 19.697975,0 z"
       sodipodi:ry="9.8489876"
       sodipodi:rx="9.8489876"
       sodipodi:cy="52.664043"
       sodipodi:cx="39.648487"
       id="path3598"
       style="fill:none;stroke:#000000;stroke-width:2.15073538;stroke-linecap:round;stroke-linejoin:miter;stroke-miterlimit:4;stroke-opacity:1;stroke-dasharray:none;stroke-dashoffset:0"
       sodipodi:type="arc" />
    <path
       sodipodi:type="arc"
       style="fill:none;stroke:#000000;stroke-width:2.15073538;stroke-linecap:round;stroke-linejoin:miter;stroke-miterlimit:4;stroke-opacity:1;stroke-dasharray:none;stroke-dashoffset:0"
       id="path3600"
       sodipodi:cx="39.648487"
       sodipodi:cy="52.664043"
       sodipodi:rx="9.8489876"
       sodipodi:ry="9.8489876"
       d="m 49.497475,52.664043 a 9.8489876,9.8489876 0 1 1 -19.697975,0 9.8489876,9.8489876 0 1 1 19.697975,0 z"
       transform="matrix(0.87179488,0,0,0.87179488,58.325525,902.68463)" />
    <path
       transform="matrix(0.87179488,0,0,0.87179488,80.325525,902.68463)"
       d="m 49.497475,52.664043 a 9.8489876,9.8489876 0 1 1 -19.697975,0 9.8489876,9.8489876 0 1 1 19.697975,0 z"
       sodipodi:ry="9.8489876"
       sodipodi:rx="9.8489876"
       sodipodi:cy="52.664043"
       sodipodi:cx="39.648487"
       id="path3602"
       style="fill:none;stroke:#000000;stroke-width:2.15073538;stroke-linecap:round;stroke-linejoin:miter;stroke-miterlimit:4;stroke-opacity:1;stroke-dasharray:none;stroke-dashoffset:0"
       sodipodi:type="arc" />
    <path
       sodipodi:type="arc"
       style="fill:none;stroke:#000000;stroke-width:2.15073538;stroke-linecap:round;stroke-linejoin:miter;stroke-miterlimit:4;stroke-opacity:1;stroke-dasharray:none;stroke-dashoffset:0"
       id="path3608"
       sodipodi:cx="39.648487"
       sodipodi:cy="52.664043"
       sodipodi:rx="9.8489876"
       sodipodi:ry="9.8489876"
       d="m 49.497475,52.664043 a 9.8489876,9.8489876 0 1 1 -19.697975,0 9.8489876,9.8489876 0 1 1 19.697975,0 z"
       transform="matrix(0.87179488,0,0,0.87179488,25.820449,924.68463)" />
    <path
       transform="matrix(0.87179488,0,0,0.87179488,47.820449,924.68463)"
       d="m 49.497475,52.664043 a 9.8489876,9.8489876 0 1 1 -19.697975,0 9.8489876,9.8489876 0 1 1 19.697975,0 z"
       sodipodi:ry="9.8489876"
       sodipodi:rx="9.8489876"
       sodipodi:cy="52.664043"
       sodipodi:cx="39.648487"
       id="path3610"
       style="fill:none;stroke:#000000;stroke-width:2.15073538;stroke-linecap:round;stroke-linejoin:miter;stroke-miterlimit:4;stroke-opacity:1;stroke-dasharray:none;stroke-dashoffset:0"
       sodipodi:type="arc" />
    <path
       sodipodi:type="arc"
       style="fill:none;stroke:#000000;stroke-width:2.15073538;stroke-linecap:round;stroke-linejoin:miter;stroke-miterlimit:4;stroke-opacity:1;stroke-dasharray:none;stroke-dashoffset:0"
       id="path3612"
       sodipodi:cx="39.648487"
       sodipodi:cy="52.664043"
       sodipodi:rx="9.8489876"
       sodipodi:ry="9.8489876"
       d="m 49.497475,52.664043 a 9.8489876,9.8489876 0 1 1 -19.697975,0 9.8489876,9.8489876 0 1 1 19.697975,0 z"
       transform="matrix(0.87179488,0,0,0.87179488,69.820449,924.68463)" />
    <path
       transform="matrix(0.87179488,0,0,0.87179488,91.820449,924.68463)"
       d="m 49.497475,52.664043 a 9.8489876,9.8489876 0 1 1 -19.697975,0 9.8489876,9.8489876 0 1 1 19.697975,0 z"
       sodipodi:ry="9.8489876"
       sodipodi:rx="9.8489876"
       sodipodi:cy="52.664043"
       sodipodi:cx="39.648487"
       id="path3614"
       style="fill:none;stroke:#000000;stroke-width:2.15073538;stroke-linecap:round;stroke-linejoin:miter;stroke-miterlimit:4;stroke-opacity:1;stroke-dasharray:none;stroke-dashoffset:0"
       sodipodi:type="arc" />
    <path
       transform="matrix(0.87179488,0,0,0.87179488,13.820449,946.68463)"
       d="m 49.497475,52.664043 a 9.8489876,9.8489876 0 1 1 -19.697975,0 9.8489876,9.8489876 0 1 1 19.697975,0 z"
       sodipodi:ry="9.8489876"
       sodipodi:rx="9.8489876"
       sodipodi:cy="52.664043"
       sodipodi:cx="39.648487"
       id="path3618"
       style="fill:none;stroke:#000000;stroke-width:2.15073538;stroke-linecap:round;stroke-linejoin:miter;stroke-miterlimit:4;stroke-opacity:1;stroke-dasharray:none;stroke-dashoffset:0"
       sodipodi:type="arc" />
    <path
       sodipodi:type="arc"
       style="fill:none;stroke:#000000;stroke-width:2.15073538;stroke-linecap:round;stroke-linejoin:miter;stroke-miterlimit:4;stroke-opacity:1;stroke-dasharray:none;stroke-dashoffset:0"
       id="path3620"
       sodipodi:cx="39.648487"
       sodipodi:cy="52.664043"
       sodipodi:rx="9.8489876"
       sodipodi:ry="9.8489876"
       d="m 49.497475,52.664043 a 9.8489876,9.8489876 0 1 1 -19.697975,0 9.8489876,9.8489876 0 1 1 19.697975,0 z"
       transform="matrix(0.87179488,0,0,0.87179488,35.820449,946.68463)" />
    <path
       transform="matrix(0.87179488,0,0,0.87179488,57.820449,946.68463)"
       d="m 49.497475,52.664043 a 9.8489876,9.8489876 0 1 1 -19.697975,0 9.8489876,9.8489876 0 1 1 19.697975,0 z"
       sodipodi:ry="9.8489876"
       sodipodi:rx="9.8489876"
       sodipodi:cy="52.664043"
       sodipodi:cx="39.648487"
       id="path3622"
       style="fill:none;stroke:#000000;stroke-width:2.15073538;stroke-linecap:round;stroke-linejoin:miter;stroke-miterlimit:4;stroke-opacity:1;stroke-dasharray:none;stroke-dashoffset:0"
       sodipodi:type="arc" />
    <path
       sodipodi:type="arc"
       style="fill:none;stroke:#000000;stroke-width:2.15073538;stroke-linecap:round;stroke-linejoin:miter;stroke-miterlimit:4;stroke-opacity:1;stroke-dasharray:none;stroke-dashoffset:0"
       id="path3624"
       sodipodi:cx="39.648487"
       sodipodi:cy="52.664043"
       sodipodi:rx="9.8489876"
       sodipodi:ry="9.8489876"
       d="m 49.497475,52.664043 a 9.8489876,9.8489876 0 1 1 -19.697975,0 9.8489876,9.8489876 0 1 1 19.697975,0 z"
       transform="matrix(0.87179488,0,0,0.87179488,79.820449,946.68463)" />
    <path
       transform="matrix(0.87179488,0,0,0.87179488,101.82045,946.68463)"
       d="m 49.497475,52.664043 a 9.8489876,9.8489876 0 1 1 -19.697975,0 9.8489876,9.8489876 0 1 1 19.697975,0 z"
       sodipodi:ry="9.8489876"
       sodipodi:rx="9.8489876"
       sodipodi:cy="52.664043"
       sodipodi:cx="39.648487"
       id="path3626"
       style="fill:none;stroke:#000000;stroke-width:2.15073538;stroke-linecap:round;stroke-linejoin:miter;stroke-miterlimit:4;stroke-opacity:1;stroke-dasharray:none;stroke-dashoffset:0"
       sodipodi:type="arc" />
    <path
       sodipodi:type="arc"
       style="fill:none;stroke:#000000;stroke-width:2.15073538;stroke-linecap:round;stroke-linejoin:miter;stroke-miterlimit:4;stroke-opacity:1;stroke-dasharray:none;stroke-dashoffset:0"
       id="path3628"
       sodipodi:cx="39.648487"
       sodipodi:cy="52.664043"
       sodipodi:rx="9.8489876"
       sodipodi:ry="9.8489876"
       d="m 49.497475,52.664043 a 9.8489876,9.8489876 0 1 1 -19.697975,0 9.8489876,9.8489876 0 1 1 19.697975,0 z"
       transform="matrix(0.87179488,0,0,0.87179488,3.8204486,968.68463)" />
    <path
       transform="matrix(0.87179488,0,0,0.87179488,25.820449,968.68463)"
       d="m 49.497475,52.664043 a 9.8489876,9.8489876 0 1 1 -19.697975,0 9.8489876,9.8489876 0 1 1 19.697975,0 z"
       sodipodi:ry="9.8489876"
       sodipodi:rx="9.8489876"
       sodipodi:cy="52.664043"
       sodipodi:cx="39.648487"
       id="path3630"
       style="fill:none;stroke:#000000;stroke-width:2.15073538;stroke-linecap:round;stroke-linejoin:miter;stroke-miterlimit:4;stroke-opacity:1;stroke-dasharray:none;stroke-dashoffset:0"
       sodipodi:type="arc" />
    <path
       sodipodi:type="arc"
       style="fill:none;stroke:#000000;stroke-width:2.15073538;stroke-linecap:round;stroke-linejoin:miter;stroke-miterlimit:4;stroke-opacity:1;stroke-dasharray:none;stroke-dashoffset:0"
       id="path3632"
       sodipodi:cx="39.648487"
       sodipodi:cy="52.664043"
       sodipodi:rx="9.8489876"
       sodipodi:ry="9.8489876"
       d="m 49.497475,52.664043 a 9.8489876,9.8489876 0 1 1 -19.697975,0 9.8489876,9.8489876 0 1 1 19.697975,0 z"
       transform="matrix(0.87179488,0,0,0.87179488,47.820449,968.68463)" />
    <path
       transform="matrix(0.87179488,0,0,0.87179488,69.820449,968.68463)"
       d="m 49.497475,52.664043 a 9.8489876,9.8489876 0 1 1 -19.697975,0 9.8489876,9.8489876 0 1 1 19.697975,0 z"
       sodipodi:ry="9.8489876"
       sodipodi:rx="9.8489876"
       sodipodi:cy="52.664043"
       sodipodi:cx="39.648487"
       id="path3634"
       style="fill:none;stroke:#000000;stroke-width:2.15073538;stroke-linecap:round;stroke-linejoin:miter;stroke-miterlimit:4;stroke-opacity:1;stroke-dasharray:none;stroke-dashoffset:0"
       sodipodi:type="arc" />
    <path
       sodipodi:type="arc"
       style="fill:none;stroke:#000000;stroke-width:2.15073538;stroke-linecap:round;stroke-linejoin:miter;stroke-miterlimit:4;stroke-opacity:1;stroke-dasharray:none;stroke-dashoffset:0"
       id="path3636"
       sodipodi:cx="39.648487"
       sodipodi:cy="52.664043"
       sodipodi:rx="9.8489876"
       sodipodi:ry="9.8489876"
       d="m 49.497475,52.664043 a 9.8489876,9.8489876 0 1 1 -19.697975,0 9.8489876,9.8489876 0 1 1 19.697975,0 z"
       transform="matrix(0.87179488,0,0,0.87179488,91.820449,968.68463)" />
    <path
       transform="matrix(0.87179488,0,0,0.87179488,113.82045,968.68463)"
       d="m 49.497475,52.664043 a 9.8489876,9.8489876 0 1 1 -19.697975,0 9.8489876,9.8489876 0 1 1 19.697975,0 z"
       sodipodi:ry="9.8489876"
       sodipodi:rx="9.8489876"
       sodipodi:cy="52.664043"
       sodipodi:cx="39.648487"
       id="path3680"
       style="fill:none;stroke:#000000;stroke-width:2.15073538;stroke-linecap:round;stroke-linejoin:miter;stroke-miterlimit:4;stroke-opacity:1;stroke-dasharray:none;stroke-dashoffset:0"
       sodipodi:type="arc" />
  </g>
</svg>
