<?xml version="1.0" encoding="UTF-8" standalone="no"?>
<!-- Created with Inkscape (http://www.inkscape.org/) -->

<svg
   xmlns:ns0="http://www.iki.fi/pav/software/textext/"
   xmlns:dc="http://purl.org/dc/elements/1.1/"
   xmlns:cc="http://creativecommons.org/ns#"
   xmlns:rdf="http://www.w3.org/1999/02/22-rdf-syntax-ns#"
   xmlns:svg="http://www.w3.org/2000/svg"
   xmlns="http://www.w3.org/2000/svg"
   xmlns:xlink="http://www.w3.org/1999/xlink"
   xmlns:sodipodi="http://sodipodi.sourceforge.net/DTD/sodipodi-0.dtd"
   xmlns:inkscape="http://www.inkscape.org/namespaces/inkscape"
   width="177.16534"
   height="177.16534"
   id="svg2"
   version="1.1"
   inkscape:version="0.47 r22583"
   sodipodi:docname="New document 1">
  <sodipodi:namedview
     id="base"
     pagecolor="#ffffff"
     bordercolor="#666666"
     borderopacity="1.0"
     inkscape:pageopacity="0.0"
     inkscape:pageshadow="2"
     inkscape:zoom="2.8"
     inkscape:cx="123.02414"
     inkscape:cy="81.477681"
     inkscape:document-units="px"
     inkscape:current-layer="textext-e9e99471-20"
     showgrid="false"
     units="cm"
     inkscape:window-width="1024"
     inkscape:window-height="689"
     inkscape:window-x="0"
     inkscape:window-y="27"
     inkscape:window-maximized="1" />
  <defs
     id="defs4">
    <inkscape:perspective
       id="perspective10"
       inkscape:persp3d-origin="372.04724 : 350.78739 : 1"
       inkscape:vp_z="744.09448 : 526.18109 : 1"
       inkscape:vp_y="0 : 1000 : 0"
       inkscape:vp_x="0 : 526.18109 : 1"
       sodipodi:type="inkscape:persp3d" />
  </defs>
  <metadata
     id="metadata7">
    <rdf:RDF>
      <cc:Work
         rdf:about="">
        <dc:format>image/svg+xml</dc:format>
        <dc:type
           rdf:resource="http://purl.org/dc/dcmitype/StillImage" />
        <dc:title></dc:title>
      </cc:Work>
    </rdf:RDF>
  </metadata>
  <g
     transform="translate(0,-875.19552)"
     id="layer1"
     inkscape:groupmode="layer"
     inkscape:label="Layer 1">
    <path
       transform="matrix(1.0745856,0,0,1.0745856,-11.6035,858.17811)"
       d="m 138.64344,124.88995 c 0,25.24461 -20.4648,45.70941 -45.709404,45.70941 -25.244606,0 -45.709404,-20.4648 -45.709404,-45.70941 0,-25.244603 20.464798,-45.7094 45.709404,-45.7094 25.244604,0 45.709404,20.464797 45.709404,45.7094 z"
       sodipodi:ry="45.709404"
       sodipodi:rx="45.709404"
       sodipodi:cy="124.88995"
       sodipodi:cx="92.934036"
       id="path2816"
       style="fill:none;stroke:#000000;stroke-width:1.74485862;stroke-linecap:round;stroke-linejoin:miter;stroke-miterlimit:4;stroke-opacity:1;stroke-dasharray:none;stroke-dashoffset:0"
       sodipodi:type="arc" />
    <g
       id="g2825"
       ns0:preamble="/home/sriranga/Desktop/Ganitarnava/figure/package.tex"
       ns0:text="paridhi parxmANa {\\rm 60} aMgulavu."
       transform="matrix(1.1557923,0,0,1.1557923,-212.06476,775.68923)">
      <defs
         id="defs2827">
        <g
           id="g2829">
          <symbol
             id="textext-e9e99471-0"
             overflow="visible"
             style="overflow:visible">
            <path
               id="path2832"
               d=""
               style="stroke:none" />
          </symbol>
          <symbol
             id="textext-e9e99471-1"
             overflow="visible"
             style="overflow:visible">
            <path
               id="path2835"
               d="m 0.484375,-4.234375 0,0.640625 4.015625,0 0,-0.640625 -4.015625,0 z M 2.78125,-3.34375 c -0.0625,0.015625 -0.125,0.03125 -0.1875,0.078125 -0.0625,0.03125 -0.125,0.078125 -0.15625,0.140625 -0.171875,0.21875 -0.0625,0.546875 0.140625,0.703125 0.109375,0.0625 0.25,0.09375 0.375,0.078125 0.34375,-0.03125 0.53125,-0.453125 0.359375,-0.75 -0.109375,-0.203125 -0.328125,-0.28125 -0.53125,-0.25 z m 0.1875,1.734375 C 2.875,-1.453125 2.765625,-1.28125 2.625,-1.140625 c -0.328125,0.328125 -0.84375,0.5 -1.3125,0.375 C 1,-0.84375 0.671875,-1 0.625,-1.359375 0.625,-1.40625 0.625,-1.453125 0.640625,-1.5 0.6875,-1.828125 1,-1.984375 1.296875,-1.984375 c 0.171875,0 0.375,0.078125 0.46875,0.234375 0.09375,0.140625 -0.046875,0.328125 -0.15625,0.4375 -0.0625,0.0625 -0.125,0.109375 -0.109375,0.21875 0.171875,0 0.359375,-0.078125 0.484375,-0.21875 0.203125,-0.25 0.15625,-0.703125 -0.109375,-0.890625 -0.140625,-0.09375 -0.328125,-0.125 -0.5,-0.125 -0.09375,0 -0.1875,0 -0.28125,0.03125 -0.25,0.046875 -0.4375,0.21875 -0.53125,0.4375 -0.0625,0.171875 -0.078125,0.34375 -0.078125,0.53125 0,0.390625 0.09375,0.8125 0.4375,1.0625 0.25,0.171875 0.546875,0.21875 0.859375,0.21875 C 2.015625,-0.0625 2.265625,-0.125 2.484375,-0.25 2.734375,-0.421875 2.875,-0.703125 2.953125,-0.984375 2.984375,-0.890625 3,-0.8125 3.046875,-0.75 c 0.078125,0.1875 0.1875,0.34375 0.359375,0.453125 0.109375,0.09375 0.234375,0.140625 0.359375,0.1875 0.453125,0.140625 1.0625,0.046875 1.390625,-0.3125 0.234375,-0.265625 0.25,-0.609375 0.25,-0.9375 C 5.390625,-1.765625 5.375,-2.171875 5.265625,-2.578125 5.21875,-2.734375 5.15625,-2.890625 5.078125,-3.03125 5.046875,-3.09375 5,-3.171875 4.9375,-3.203125 4.84375,-3.28125 4.734375,-3.234375 4.671875,-3.15625 c -0.0625,0.09375 -0.078125,0.21875 -0.0625,0.328125 0.03125,0.0625 0.0625,0.109375 0.109375,0.171875 0.0625,0.078125 0.109375,0.140625 0.15625,0.203125 0.203125,0.28125 0.421875,0.65625 0.34375,1.015625 C 5.171875,-1.234375 5.03125,-1.078125 4.875,-0.96875 4.671875,-0.8125 4.40625,-0.75 4.15625,-0.734375 c -0.21875,0.015625 -0.421875,0 -0.625,-0.109375 -0.1875,-0.125 -0.34375,-0.328125 -0.453125,-0.515625 -0.03125,-0.09375 -0.0625,-0.171875 -0.109375,-0.25 z m 0,0"
               style="stroke:none" />
          </symbol>
          <symbol
             id="textext-e9e99471-2"
             overflow="visible"
             style="overflow:visible">
            <path
               id="path2838"
               d="m 1,-5.875 c 0.09375,0.078125 0.171875,0.15625 0.21875,0.25 0.1875,0.234375 0.34375,0.625 0.203125,0.921875 -0.0625,0.09375 -0.140625,0.171875 -0.234375,0.25 C 1.109375,-4.375 1.03125,-4.3125 0.921875,-4.28125 0.8125,-4.234375 0.671875,-4.234375 0.5625,-4.234375 l -0.5625,0 0,0.640625 0.484375,0 c 0.140625,0 0.265625,0 0.40625,-0.03125 0.25,-0.046875 0.5,-0.15625 0.671875,-0.34375 0.234375,-0.234375 0.375,-0.59375 0.328125,-0.921875 -0.03125,-0.171875 -0.09375,-0.34375 -0.1875,-0.5 C 1.625,-5.515625 1.5,-5.671875 1.359375,-5.765625 1.265625,-5.828125 1.125,-5.859375 1,-5.875 z m 0,0"
               style="stroke:none" />
          </symbol>
          <symbol
             id="textext-e9e99471-3"
             overflow="visible"
             style="overflow:visible">
            <path
               id="path2841"
               d="M 1.328125,-3.46875 C 1.03125,-3.234375 0.734375,-2.9375 0.59375,-2.578125 0.25,-1.6875 0.703125,-0.640625 1.546875,-0.203125 2.140625,0.078125 2.90625,0.0625 3.46875,-0.265625 3.625,-0.34375 3.765625,-0.453125 3.875,-0.5625 c 0.109375,-0.109375 0.1875,-0.203125 0.265625,-0.328125 0.328125,-0.5 0.359375,-1.125 0.21875,-1.6875 -0.0625,-0.3125 -0.1875,-0.609375 -0.34375,-0.890625 -0.359375,-0.640625 -0.9375,-1.203125 -1.6875,-1.359375 -0.171875,-0.03125 -0.3125,-0.0625 -0.46875,-0.0625 -0.171875,0 -0.34375,0.015625 -0.515625,0.0625 -0.359375,0.09375 -0.71875,0.3125 -0.765625,0.71875 -0.015625,0.125 0,0.265625 0.09375,0.375 0.171875,0.1875 0.421875,0.21875 0.65625,0.265625 z M 3.9375,-3.109375 C 3.6875,-3.390625 3.375,-3.625 3.015625,-3.734375 2.828125,-3.78125 2.59375,-3.796875 2.375,-3.765625 c -0.28125,0.03125 -0.578125,0.0625 -0.859375,0.078125 -0.125,0.015625 -0.296875,0.015625 -0.375,-0.125 C 1.0625,-3.953125 1.171875,-4.15625 1.28125,-4.25 c 0.234375,-0.1875 0.578125,-0.1875 0.859375,-0.171875 0.578125,0.03125 1.15625,0.375 1.515625,0.828125 0.109375,0.140625 0.21875,0.296875 0.28125,0.484375 z M 0.84375,-2.09375 C 0.765625,-2.90625 1.5625,-3.5625 2.3125,-3.609375 c 0.515625,-0.03125 1,0.171875 1.375,0.53125 0.203125,0.203125 0.34375,0.46875 0.375,0.75 0.078125,0.84375 -0.75,1.5625 -1.546875,1.59375 C 1.921875,-0.703125 1.28125,-1 1,-1.53125 0.90625,-1.703125 0.875,-1.90625 0.84375,-2.09375 z m 0,0"
               style="stroke:none" />
          </symbol>
          <symbol
             id="textext-e9e99471-4"
             overflow="visible"
             style="overflow:visible">
            <path
               id="path2844"
               d="m 1.65625,-3.453125 0,0.015625 C 1.5,-3.375 1.359375,-3.265625 1.25,-3.15625 1.09375,-3.015625 0.921875,-2.84375 0.8125,-2.671875 0.546875,-2.265625 0.453125,-1.78125 0.484375,-1.3125 c 0.03125,0.375 0.171875,0.78125 0.46875,1.03125 0.25,0.234375 0.609375,0.296875 0.9375,0.265625 0.15625,-0.03125 0.296875,-0.0625 0.4375,-0.140625 0.328125,-0.1875 0.578125,-0.546875 0.65625,-0.90625 0.140625,0.34375 0.328125,0.6875 0.65625,0.890625 0.390625,0.234375 0.9375,0.21875 1.328125,-0.03125 0.203125,-0.15625 0.359375,-0.359375 0.4375,-0.59375 0.109375,-0.265625 0.140625,-0.53125 0.125,-0.8125 -0.015625,-0.21875 -0.015625,-0.421875 -0.046875,-0.609375 -0.125,-0.734375 -0.46875,-1.453125 -1,-1.984375 -0.21875,-0.21875 -0.46875,-0.40625 -0.75,-0.53125 -0.28125,-0.125 -0.578125,-0.203125 -0.890625,-0.234375 -0.125,0 -0.25,0 -0.375,0 -0.3125,0 -0.640625,0.046875 -0.921875,0.15625 C 1.34375,-4.75 1.140625,-4.640625 1,-4.46875 c -0.203125,0.265625 -0.25,0.734375 0.09375,0.921875 0.171875,0.09375 0.375,0.09375 0.5625,0.09375 z M 4.921875,-3.09375 C 4.65625,-3.34375 4.34375,-3.5625 4,-3.671875 3.59375,-3.8125 3.140625,-3.8125 2.71875,-3.765625 c -0.140625,0.015625 -0.3125,0.03125 -0.453125,0.0625 -0.15625,0.015625 -0.296875,0.03125 -0.4375,0.03125 -0.109375,-0.03125 -0.25,-0.03125 -0.3125,-0.140625 -0.09375,-0.15625 0.03125,-0.328125 0.15625,-0.4375 0.1875,-0.15625 0.4375,-0.203125 0.6875,-0.25 0.078125,0 0.1875,-0.015625 0.265625,-0.015625 0.203125,0 0.390625,0 0.578125,0.046875 0.3125,0.0625 0.59375,0.203125 0.859375,0.375 0.375,0.25 0.6875,0.5625 0.859375,1 z M 3,-1.625 C 2.9375,-1.53125 2.890625,-1.421875 2.84375,-1.328125 2.703125,-1.109375 2.515625,-0.890625 2.25,-0.796875 2.125,-0.75 1.96875,-0.734375 1.828125,-0.734375 1.71875,-0.734375 1.59375,-0.75 1.484375,-0.78125 1.390625,-0.8125 1.3125,-0.875 1.234375,-0.921875 0.6875,-1.359375 0.78125,-2.21875 1.140625,-2.734375 c 0.28125,-0.421875 0.71875,-0.6875 1.1875,-0.796875 0.21875,-0.0625 0.453125,-0.078125 0.6875,-0.078125 0.359375,0 0.703125,0.046875 1.03125,0.203125 0.625,0.28125 1.109375,0.890625 1.109375,1.578125 0,0.109375 0,0.21875 -0.015625,0.3125 C 5.078125,-1.25 4.890625,-1 4.671875,-0.859375 4.375,-0.671875 3.9375,-0.6875 3.640625,-0.84375 3.34375,-1 3.125,-1.328125 3,-1.625 z M 2.953125,-0.3125 C 2.9375,-0.296875 2.921875,-0.25 2.90625,-0.203125 2.875,-0.125 2.84375,-0.015625 2.828125,0.0625 2.765625,0.28125 2.6875,0.484375 2.625,0.6875 2.578125,0.875 2.515625,1.0625 2.578125,1.25 c 0.0625,0.3125 0.46875,0.40625 0.71875,0.21875 0.15625,-0.140625 0.15625,-0.3125 0.125,-0.515625 C 3.375,0.65625 3.28125,0.375 3.1875,0.09375 3.140625,-0.015625 3.109375,-0.15625 3.0625,-0.265625 3.046875,-0.3125 3.015625,-0.359375 2.953125,-0.3125 z m 0,0"
               style="stroke:none" />
          </symbol>
          <symbol
             id="textext-e9e99471-5"
             overflow="visible"
             style="overflow:visible">
            <path
               id="path2847"
               d="m -4.3125,1.5625 c 0.0625,0.109375 0.109375,0.203125 0.1875,0.296875 0.171875,0.28125 0.390625,0.546875 0.6875,0.71875 0.25,0.15625 0.5625,0.25 0.859375,0.3125 0.484375,0.09375 1,0.109375 1.46875,-0.046875 C -0.84375,2.75 -0.625,2.625 -0.40625,2.453125 -0.203125,2.328125 -0.046875,2.15625 0.078125,1.96875 0.265625,1.6875 0.34375,1.390625 0.375,1.078125 0.390625,0.890625 0.390625,0.703125 0.328125,0.515625 0.28125,0.328125 0.15625,0.171875 -0.015625,0.0625 -0.0625,0.046875 -0.109375,0 -0.171875,-0.015625 c -0.0625,0 -0.125,0 -0.171875,0.046875 -0.0625,0.03125 -0.09375,0.140625 -0.0625,0.203125 0.046875,0.078125 0.140625,0.125 0.21875,0.1875 0.09375,0.078125 0.171875,0.1875 0.25,0.296875 0.03125,0.046875 0.09375,0.125 0.09375,0.171875 0.015625,0.0625 0,0.125 0,0.171875 C 0.125,1.203125 0.0625,1.328125 -0.015625,1.453125 -0.296875,1.875 -0.78125,2.140625 -1.25,2.296875 -1.671875,2.4375 -2.09375,2.46875 -2.515625,2.421875 -2.828125,2.390625 -3.125,2.34375 -3.390625,2.203125 -3.546875,2.109375 -3.703125,2.03125 -3.84375,1.890625 -3.90625,1.828125 -3.96875,1.75 -4.015625,1.6875 -4.046875,1.640625 -4.078125,1.59375 -4.109375,1.578125 -4.171875,1.5625 -4.25,1.5625 -4.3125,1.5625 z m 0,0"
               style="stroke:none" />
          </symbol>
          <symbol
             id="textext-e9e99471-6"
             overflow="visible"
             style="overflow:visible">
            <path
               id="path2850"
               d="m 0.484375,-4.234375 0,0.640625 1.78125,0 0.53125,0 c 0.09375,0 0.203125,-0.015625 0.296875,0 0.421875,0.03125 0.796875,0.171875 1.140625,0.390625 C 4.6875,-2.90625 5.0625,-2.46875 5.140625,-1.9375 5.15625,-1.8125 5.171875,-1.671875 5.15625,-1.5625 5.078125,-1.0625 4.625,-0.78125 4.171875,-0.75 3.984375,-0.734375 3.78125,-0.75 3.625,-0.84375 3.40625,-0.953125 3.265625,-1.125 3.140625,-1.328125 3.09375,-1.4375 3.046875,-1.53125 3,-1.640625 2.90625,-1.46875 2.796875,-1.296875 2.65625,-1.15625 c -0.34375,0.34375 -0.875,0.515625 -1.359375,0.375 -0.28125,-0.078125 -0.578125,-0.25 -0.625,-0.546875 -0.015625,-0.0625 -0.015625,-0.125 0,-0.171875 0.03125,-0.328125 0.34375,-0.5 0.65625,-0.5 0.171875,0 0.34375,0.0625 0.453125,0.203125 0.015625,0.03125 0.0625,0.078125 0.0625,0.125 0,0.046875 -0.015625,0.09375 -0.03125,0.109375 C 1.78125,-1.484375 1.71875,-1.40625 1.671875,-1.34375 1.625,-1.3125 1.546875,-1.25 1.53125,-1.203125 c 0,0.03125 0,0.0625 0,0.09375 0.1875,0 0.375,-0.078125 0.5,-0.234375 0.078125,-0.109375 0.109375,-0.21875 0.109375,-0.34375 0,-0.203125 -0.0625,-0.40625 -0.234375,-0.53125 C 1.625,-2.390625 1.203125,-2.40625 0.921875,-2.25 0.75,-2.140625 0.625,-2 0.5625,-1.8125 0.5,-1.671875 0.484375,-1.5 0.484375,-1.34375 c 0,0.359375 0.09375,0.765625 0.390625,1.03125 C 1.140625,-0.078125 1.515625,0 1.859375,-0.046875 2.109375,-0.0625 2.34375,-0.125 2.546875,-0.28125 2.765625,-0.453125 2.90625,-0.734375 2.984375,-1 l 0,0 c 0.03125,0.109375 0.09375,0.21875 0.140625,0.328125 0.078125,0.15625 0.203125,0.296875 0.359375,0.40625 0.4375,0.328125 1.109375,0.3125 1.546875,-0.03125 C 5.4375,-0.59375 5.5625,-1.09375 5.546875,-1.578125 5.53125,-1.8125 5.5,-2.046875 5.390625,-2.265625 5.25,-2.5625 5.03125,-2.8125 4.78125,-3.015625 4.578125,-3.1875 4.359375,-3.3125 4.140625,-3.421875 4.015625,-3.484375 3.875,-3.5625 3.75,-3.59375 l 0,0 0.390625,0 0,-0.640625 -3.65625,0 z m 0,0"
               style="stroke:none" />
          </symbol>
          <symbol
             id="textext-e9e99471-7"
             overflow="visible"
             style="overflow:visible">
            <path
               id="path2853"
               d="m 0,-4.234375 0,0.640625 c 0.265625,0 0.515625,-0.03125 0.734375,0.09375 0.21875,0.109375 0.375,0.28125 0.515625,0.453125 0.34375,0.4375 0.578125,1 0.4375,1.546875 -0.03125,0.109375 -0.078125,0.21875 -0.125,0.3125 C 1.5,-1.0625 1.421875,-0.953125 1.3125,-0.859375 1.0625,-0.640625 0.703125,-0.5625 0.40625,-0.75 0.296875,-0.84375 0.1875,-0.96875 0.125,-1.09375 0.0625,-1.203125 0.015625,-1.296875 -0.015625,-1.40625 c -0.03125,-0.0625 -0.03125,-0.125 -0.0625,-0.171875 -0.03125,-0.046875 -0.078125,-0.0625 -0.125,-0.0625 C -0.28125,-1.625 -0.3125,-1.5625 -0.3125,-1.5 c 0.015625,0.109375 0.078125,0.234375 0.109375,0.34375 0.046875,0.140625 0.109375,0.28125 0.15625,0.421875 0.03125,0.09375 0.03125,0.203125 0.0625,0.265625 0.03125,0.046875 0.078125,0.09375 0.125,0.125 0.09375,0.09375 0.21875,0.171875 0.34375,0.21875 0.40625,0.1875 0.96875,0.109375 1.296875,-0.203125 0.234375,-0.21875 0.359375,-0.53125 0.390625,-0.84375 0.046875,-0.25 0.046875,-0.5 0.015625,-0.734375 C 2.109375,-2.40625 1.859375,-2.84375 1.5,-3.203125 1.359375,-3.34375 1.1875,-3.5 1,-3.59375 l 0,0 0.09375,0 0,-0.640625 -1.09375,0 z m 0,0"
               style="stroke:none" />
          </symbol>
          <symbol
             id="textext-e9e99471-8"
             overflow="visible"
             style="overflow:visible">
            <path
               id="path2856"
               d="m -0.03125,-4.234375 0,0.640625 2.546875,0 0.515625,0 c 0.09375,0 0.1875,-0.015625 0.28125,0 0.25,0.03125 0.5,0.09375 0.703125,0.21875 0.265625,0.15625 0.5,0.375 0.65625,0.640625 0.125,0.25 0.171875,0.53125 0.171875,0.8125 0,0.453125 -0.140625,0.90625 -0.546875,1.140625 -0.203125,0.125 -0.4375,0.171875 -0.671875,0.1875 -0.296875,0.03125 -0.59375,0 -0.84375,-0.15625 C 2.671875,-0.8125 2.578125,-0.890625 2.515625,-1 2.40625,-1.28125 2.5,-1.640625 2.765625,-1.78125 2.75,-1.671875 2.734375,-1.5625 2.75,-1.453125 c 0.015625,0.15625 0.15625,0.296875 0.296875,0.34375 0.078125,0.015625 0.15625,0.015625 0.25,0 C 3.375,-1.125 3.46875,-1.15625 3.53125,-1.21875 c 0.1875,-0.171875 0.171875,-0.5625 0,-0.734375 -0.0625,-0.078125 -0.15625,-0.125 -0.265625,-0.125 C 3.1875,-2.109375 3.09375,-2.09375 3,-2.078125 c -0.078125,0 -0.15625,0.03125 -0.234375,0.046875 -0.40625,0.203125 -0.546875,0.703125 -0.46875,1.109375 0.109375,0.5 0.53125,0.859375 1.046875,0.890625 0.171875,0.015625 0.328125,-0.015625 0.5,-0.03125 C 3.984375,-0.09375 4.109375,-0.15625 4.25,-0.203125 4.34375,-0.265625 4.421875,-0.3125 4.484375,-0.375 4.9375,-0.78125 5.03125,-1.421875 5.03125,-2 c 0,-0.21875 0,-0.421875 -0.0625,-0.625 C 4.9375,-2.828125 4.890625,-3.015625 4.796875,-3.203125 4.6875,-3.40625 4.5625,-3.59375 4.390625,-3.765625 4.109375,-4.015625 3.75,-4.171875 3.375,-4.234375 c -0.25,-0.015625 -0.515625,0 -0.765625,0 l -2.640625,0 z m 0,0"
               style="stroke:none" />
          </symbol>
          <symbol
             id="textext-e9e99471-9"
             overflow="visible"
             style="overflow:visible">
            <path
               id="path2859"
               d="m 1.28125,-1.9375 c -0.1875,0.078125 -0.40625,0.15625 -0.546875,0.328125 -0.109375,0.125 -0.1875,0.28125 -0.21875,0.4375 -0.0625,0.265625 -0.078125,0.546875 0.078125,0.78125 0.28125,0.4375 0.96875,0.5 1.359375,0.1875 0.15625,-0.109375 0.265625,-0.3125 0.3125,-0.5 C 2.046875,-0.578125 1.859375,-0.4375 1.59375,-0.4375 1.5,-0.4375 1.421875,-0.453125 1.328125,-0.484375 1,-0.609375 0.875,-0.984375 1,-1.3125 1.09375,-1.5625 1.328125,-1.75 1.5625,-1.890625 1.671875,-1.9375 1.78125,-2 1.859375,-2.0625 c -0.125,-0.03125 -0.25,-0.046875 -0.375,-0.09375 C 1.296875,-2.21875 1.109375,-2.3125 1,-2.46875 0.953125,-2.515625 0.921875,-2.578125 0.90625,-2.625 0.78125,-2.96875 1,-3.3125 1.296875,-3.484375 c 0.359375,-0.1875 0.8125,-0.125 1.140625,0.125 0.28125,0.21875 0.421875,0.515625 0.546875,0.84375 0.078125,-0.109375 0.125,-0.25 0.1875,-0.375 0.140625,-0.28125 0.34375,-0.5625 0.65625,-0.640625 0.125,-0.046875 0.265625,-0.0625 0.40625,-0.0625 0.671875,0 1.328125,0.421875 1.578125,1.046875 0.125,0.34375 0.125,0.734375 0,1.078125 -0.09375,0.234375 -0.25,0.4375 -0.421875,0.625 -0.171875,0.171875 -0.375,0.3125 -0.609375,0.359375 C 4.5625,-0.421875 4.3125,-0.453125 4.109375,-0.53125 3.9375,-0.578125 3.78125,-0.671875 3.65625,-0.8125 3.609375,-0.875 3.5625,-0.921875 3.546875,-1 3.515625,-1.0625 3.5,-1.140625 3.5,-1.203125 3.484375,-1.5 3.765625,-1.734375 4.03125,-1.796875 c 0.203125,-0.03125 0.390625,0.015625 0.53125,0.140625 0.109375,0.078125 0.15625,0.1875 0.125,0.328125 C 4.65625,-1.1875 4.5,-1.078125 4.375,-1 l 0.015625,0.09375 c 0.140625,0 0.296875,-0.03125 0.421875,-0.125 C 5,-1.203125 5.03125,-1.5625 4.921875,-1.78125 4.875,-1.859375 4.8125,-1.9375 4.71875,-2 4.5,-2.15625 4.203125,-2.21875 3.953125,-2.125 c -0.28125,0.09375 -0.53125,0.375 -0.609375,0.65625 -0.109375,0.421875 0.0625,0.875 0.40625,1.15625 0.140625,0.109375 0.296875,0.203125 0.484375,0.25 0.359375,0.109375 0.796875,0.046875 1.125,-0.171875 0.203125,-0.140625 0.359375,-0.34375 0.46875,-0.5625 0.1875,-0.34375 0.25,-0.765625 0.265625,-1.15625 0,-0.125 0,-0.265625 0,-0.40625 -0.03125,-0.34375 -0.140625,-0.6875 -0.296875,-0.984375 -0.1875,-0.328125 -0.4375,-0.625 -0.78125,-0.765625 -0.1875,-0.09375 -0.375,-0.109375 -0.5625,-0.109375 -0.265625,0 -0.53125,0.046875 -0.765625,0.171875 -0.234375,0.140625 -0.40625,0.34375 -0.546875,0.578125 -0.046875,0.09375 -0.09375,0.203125 -0.125,0.3125 C 2.96875,-3.234375 2.953125,-3.34375 2.90625,-3.421875 2.8125,-3.625 2.671875,-3.8125 2.484375,-3.96875 2.375,-4.046875 2.265625,-4.109375 2.140625,-4.15625 2,-4.203125 1.84375,-4.21875 1.6875,-4.21875 c -0.390625,0 -0.828125,0.125 -1.0625,0.484375 -0.140625,0.21875 -0.171875,0.5 -0.140625,0.765625 0.03125,0.140625 0.078125,0.3125 0.140625,0.4375 0.15625,0.265625 0.390625,0.4375 0.65625,0.59375 z m 0,0"
               style="stroke:none" />
          </symbol>
          <symbol
             id="textext-e9e99471-10"
             overflow="visible"
             style="overflow:visible">
            <path
               id="path2862"
               d="m 4,-2.796875 0,0.015625 -1.515625,0 0,0.625 1.46875,0 0.4375,0 0.1875,-0.015625 0.203125,-0.1875 0.375,-0.40625 c 0,0.109375 0.015625,0.25 0,0.359375 -0.015625,0.25 -0.09375,0.484375 -0.21875,0.6875 -0.46875,0.765625 -1.40625,1.046875 -2.25,0.984375 -0.25,0 -0.5,-0.046875 -0.734375,-0.125 -0.53125,-0.171875 -1.0625,-0.5625 -1.234375,-1.109375 -0.0625,-0.203125 -0.0625,-0.40625 -0.046875,-0.609375 0,-0.203125 0.046875,-0.4375 0.109375,-0.625 0.0625,0.21875 0.09375,0.453125 0.234375,0.625 0.28125,0.296875 0.765625,0.109375 0.953125,-0.1875 0.1875,-0.28125 0.1875,-0.65625 0.140625,-1 C 2.078125,-3.921875 2.03125,-4.09375 1.890625,-4.1875 1.75,-4.3125 1.578125,-4.328125 1.40625,-4.328125 c -0.109375,0 -0.21875,0.03125 -0.3125,0.078125 -0.171875,0.09375 -0.28125,0.25 -0.375,0.40625 -0.125,0.25 -0.1875,0.546875 -0.21875,0.828125 -0.015625,0.1875 -0.015625,0.359375 -0.015625,0.53125 0,0.53125 0.078125,1.0625 0.359375,1.5 0.109375,0.171875 0.234375,0.296875 0.375,0.421875 0.109375,0.109375 0.25,0.203125 0.40625,0.28125 0.3125,0.15625 0.671875,0.234375 1.03125,0.265625 0.296875,0.015625 0.578125,0 0.875,-0.046875 0.515625,-0.125 1,-0.421875 1.3125,-0.84375 0.359375,-0.484375 0.484375,-1.0625 0.5,-1.65625 C 5.359375,-3.125 5.296875,-3.75 4.859375,-4.171875 4.78125,-4.25 4.65625,-4.3125 4.53125,-4.34375 c -0.265625,-0.046875 -0.59375,0 -0.765625,0.234375 -0.140625,0.15625 -0.234375,0.40625 -0.234375,0.625 0.015625,0.078125 0.03125,0.171875 0.0625,0.25 C 3.625,-3.125 3.671875,-3.015625 3.75,-2.9375 3.8125,-2.875 3.921875,-2.828125 4,-2.796875 z m 1.15625,0.015625 -0.4375,0 c -0.0625,0 -0.140625,0.015625 -0.203125,-0.015625 -0.09375,-0.03125 -0.171875,-0.125 -0.234375,-0.1875 C 4.09375,-3.1875 3.890625,-3.5 4.0625,-3.765625 c 0.03125,-0.046875 0.046875,-0.078125 0.09375,-0.125 0.109375,-0.09375 0.296875,-0.125 0.4375,-0.09375 0.09375,0.03125 0.1875,0.109375 0.25,0.1875 0.09375,0.09375 0.125,0.234375 0.1875,0.359375 0.078125,0.21875 0.125,0.421875 0.125,0.65625 z M 1.03125,-3.3125 C 1,-3.453125 1.046875,-3.65625 1.15625,-3.75 c 0.0625,-0.0625 0.15625,-0.09375 0.234375,-0.09375 0.078125,-0.015625 0.171875,-0.03125 0.25,0 0.15625,0.046875 0.265625,0.203125 0.296875,0.375 0.015625,0.140625 0,0.28125 -0.109375,0.390625 C 1.578125,-2.875 1.09375,-2.984375 1.03125,-3.3125 z m 0,0"
               style="stroke:none" />
          </symbol>
          <symbol
             id="textext-e9e99471-11"
             overflow="visible"
             style="overflow:visible">
            <path
               id="path2865"
               d="M 1.890625,-3.953125 C 1.71875,-3.921875 1.5625,-3.890625 1.40625,-3.8125 1.0625,-3.65625 0.828125,-3.359375 0.671875,-3.015625 0.5625,-2.75 0.515625,-2.46875 0.484375,-2.15625 0.453125,-1.765625 0.515625,-1.375 0.671875,-1 c 0.140625,0.328125 0.375,0.625 0.6875,0.8125 0.25,0.140625 0.5625,0.203125 0.859375,0.171875 C 2.375,-0.03125 2.515625,-0.0625 2.671875,-0.125 2.796875,-0.171875 2.90625,-0.234375 3,-0.3125 3.671875,-0.859375 3.8125,-1.796875 3.640625,-2.609375 3.515625,-3.125 3.234375,-3.59375 2.734375,-3.8125 2.640625,-3.875 2.546875,-3.890625 2.4375,-3.921875 2.265625,-3.953125 2.078125,-3.953125 1.890625,-3.953125 z m -1.234375,2.03125 c -0.015625,-0.125 0,-0.234375 0.03125,-0.359375 C 0.75,-2.625 1,-2.875 1.296875,-3.046875 2,-3.421875 3.046875,-3.234375 3.40625,-2.5 c 0.046875,0.125 0.078125,0.234375 0.109375,0.359375 0,0.140625 0,0.296875 -0.03125,0.4375 C 3.4375,-1.5625 3.375,-1.421875 3.296875,-1.3125 2.984375,-0.859375 2.4375,-0.671875 1.90625,-0.734375 1.671875,-0.75 1.4375,-0.8125 1.234375,-0.953125 1.0625,-1.0625 0.921875,-1.21875 0.828125,-1.390625 0.734375,-1.5625 0.671875,-1.734375 0.65625,-1.921875 z m 0,0"
               style="stroke:none" />
          </symbol>
          <symbol
             id="textext-e9e99471-12"
             overflow="visible"
             style="overflow:visible">
            <path
               id="path2868"
               d="m 0.484375,-4.234375 0,0.640625 1.34375,0 0,0 c -0.171875,0.078125 -0.359375,0.25 -0.5,0.390625 -0.125,0.125 -0.234375,0.265625 -0.34375,0.4375 C 0.46875,-1.9375 0.5625,-0.953125 0.5625,-0.03125 l 0.65625,0 c 0,-0.46875 -0.015625,-0.921875 0,-1.390625 C 1.25,-1.890625 1.3125,-2.375 1.5,-2.796875 c 0.171875,-0.359375 0.4375,-0.75 0.859375,-0.8125 C 2.84375,-3.65625 3.203125,-3.25 3.40625,-2.875 c 0.25,0.453125 0.328125,0.96875 0.359375,1.453125 0.015625,0.171875 0,0.328125 0,0.5 l 0,0.890625 0.671875,0 0,-0.875 c 0,-0.15625 0.015625,-0.3125 0,-0.46875 -0.03125,-0.375 -0.125,-0.765625 -0.296875,-1.109375 -0.15625,-0.3125 -0.375,-0.609375 -0.65625,-0.84375 -0.078125,-0.078125 -0.1875,-0.15625 -0.28125,-0.203125 -0.046875,-0.03125 -0.125,-0.0625 -0.15625,-0.125 -0.015625,-0.046875 0,-0.125 0,-0.1875 l 0,-0.390625 -2.5625,0 z m 0,0"
               style="stroke:none" />
          </symbol>
          <symbol
             id="textext-e9e99471-13"
             overflow="visible"
             style="overflow:visible">
            <path
               id="path2871"
               d="m -0.3125,-1.640625 c 0,0.390625 0.125,0.765625 0.28125,1.109375 0.0625,0.125 0.078125,0.25 0.1875,0.359375 0.109375,0.078125 0.25,0.125 0.375,0.140625 C 0.8125,0.015625 1.125,-0.046875 1.359375,-0.1875 1.703125,-0.390625 1.90625,-0.765625 2.015625,-1.140625 2.0625,-1.3125 2.09375,-1.5 2.109375,-1.671875 c 0.015625,-0.3125 0,-0.625 -0.078125,-0.921875 C 1.9375,-2.875 1.78125,-3.15625 1.59375,-3.390625 1.3125,-3.734375 0.953125,-3.984375 0.515625,-4.03125 0.390625,-4.0625 0.21875,-4.0625 0.09375,-4.03125 0.03125,-4 0.015625,-3.921875 0,-3.859375 c -0.015625,0.140625 0.03125,0.3125 0.15625,0.375 0.109375,0.0625 0.25,0.0625 0.359375,0.0625 C 0.59375,-3.40625 0.671875,-3.40625 0.75,-3.375 1.0625,-3.3125 1.3125,-3.125 1.546875,-2.921875 1.71875,-2.75 1.875,-2.53125 1.921875,-2.28125 2,-1.84375 1.78125,-1.390625 1.46875,-1.078125 1.3125,-0.921875 1.109375,-0.796875 0.890625,-0.75 0.65625,-0.703125 0.40625,-0.734375 0.203125,-0.875 0.140625,-0.90625 0.0625,-0.96875 0.015625,-1.03125 -0.015625,-1.078125 -0.015625,-1.140625 -0.03125,-1.203125 -0.046875,-1.296875 -0.09375,-1.375 -0.109375,-1.46875 -0.125,-1.5 -0.125,-1.578125 -0.171875,-1.609375 -0.203125,-1.640625 -0.28125,-1.640625 -0.3125,-1.640625 z m 0,0"
               style="stroke:none" />
          </symbol>
          <symbol
             id="textext-e9e99471-14"
             overflow="visible"
             style="overflow:visible">
            <path
               id="path2874"
               d="m 1.640625,-3.71875 c -0.25,0.375 -0.28125,0.9375 0.046875,1.28125 0.109375,0.109375 0.25,0.1875 0.40625,0.1875 0.4375,-0.015625 0.703125,-0.453125 0.75,-0.84375 0.0625,-0.484375 -0.125,-1.109375 -0.65625,-1.21875 -0.140625,-0.03125 -0.296875,-0.03125 -0.421875,0 -0.375,0.0625 -0.65625,0.328125 -0.859375,0.640625 C 0.640625,-3.3125 0.515625,-2.875 0.484375,-2.421875 0.453125,-2.078125 0.5,-1.75 0.625,-1.421875 0.90625,-0.75 1.5625,-0.28125 2.265625,-0.09375 2.578125,-0.015625 2.90625,0 3.234375,-0.015625 3.546875,-0.046875 3.875,-0.09375 4.15625,-0.234375 c 0.1875,-0.078125 0.359375,-0.1875 0.515625,-0.3125 0.359375,-0.3125 0.609375,-0.734375 0.71875,-1.1875 C 5.4375,-1.96875 5.4375,-2.1875 5.4375,-2.40625 c 0,-0.25 -0.03125,-0.515625 -0.09375,-0.75 -0.109375,-0.390625 -0.328125,-0.734375 -0.625,-1 C 4.578125,-4.265625 4.453125,-4.390625 4.25,-4.375 4.109375,-4.359375 3.984375,-4.234375 3.984375,-4.078125 3.984375,-4 4.03125,-3.921875 4.09375,-3.875 c 0.140625,0.140625 0.328125,0.203125 0.484375,0.3125 0.28125,0.1875 0.515625,0.484375 0.609375,0.8125 0.109375,0.328125 0.09375,0.703125 -0.078125,1 -0.140625,0.25 -0.34375,0.4375 -0.578125,0.609375 -0.421875,0.28125 -0.921875,0.46875 -1.4375,0.5 -0.25,0 -0.5,-0.03125 -0.734375,-0.0625 C 1.796875,-0.8125 1.203125,-1.09375 0.875,-1.578125 0.75,-1.78125 0.640625,-2.046875 0.65625,-2.265625 0.671875,-2.453125 0.71875,-2.625 0.78125,-2.78125 0.875,-2.953125 0.984375,-3.125 1.109375,-3.28125 1.25,-3.453125 1.4375,-3.609375 1.640625,-3.71875 z M 2.65625,-3.1875 c -0.0625,0.46875 -0.859375,0.5625 -0.96875,0.0625 -0.015625,-0.046875 -0.015625,-0.109375 0,-0.15625 0.015625,-0.1875 0.125,-0.375 0.3125,-0.453125 0.25,-0.109375 0.578125,0 0.65625,0.28125 0.015625,0.09375 0.03125,0.1875 0,0.265625 z m 0,0"
               style="stroke:none" />
          </symbol>
          <symbol
             id="textext-e9e99471-15"
             overflow="visible"
             style="overflow:visible">
            <path
               id="path2877"
               d="M -3.140625,-0.1875 C -3.09375,0.046875 -3,0.265625 -2.875,0.46875 c 0.140625,0.21875 0.296875,0.421875 0.484375,0.59375 0.421875,0.359375 0.96875,0.5 1.5,0.5 0.375,0 0.765625,-0.09375 1.078125,-0.28125 C 0.453125,1.109375 0.625,0.8125 0.75,0.546875 0.890625,0.3125 0.921875,0.0625 0.953125,-0.1875 c 0.015625,-0.203125 0,-0.390625 -0.03125,-0.59375 C 0.890625,-0.953125 0.84375,-1.109375 0.8125,-1.28125 0.703125,-1.65625 0.625,-2.03125 0.5,-2.40625 0.390625,-2.75 0.265625,-3.109375 0.1875,-3.46875 c -0.09375,0.046875 -0.125,0.203125 -0.125,0.28125 0,0.28125 0.0625,0.5625 0.125,0.828125 C 0.3125,-1.8125 0.453125,-1.28125 0.5,-0.71875 0.53125,-0.265625 0.453125,0.21875 0.109375,0.546875 -0.0625,0.71875 -0.296875,0.8125 -0.53125,0.875 c -0.171875,0.015625 -0.34375,0.046875 -0.5,0.046875 -0.171875,0 -0.34375,-0.03125 -0.515625,-0.0625 -0.234375,-0.046875 -0.4375,-0.125 -0.625,-0.265625 C -2.359375,0.453125 -2.515625,0.296875 -2.6875,0.125 -2.734375,0.0625 -2.796875,0 -2.859375,-0.0625 c -0.03125,-0.046875 -0.0625,-0.09375 -0.09375,-0.109375 -0.0625,-0.03125 -0.140625,-0.015625 -0.1875,-0.015625 z m 0,0"
               style="stroke:none" />
          </symbol>
          <symbol
             id="textext-e9e99471-16"
             overflow="visible"
             style="overflow:visible">
            <path
               id="path2880"
               d=""
               style="stroke:none" />
          </symbol>
          <symbol
             id="textext-e9e99471-17"
             overflow="visible"
             style="overflow:visible">
            <path
               id="path2883"
               d="m 1.3125,-3.265625 0,-0.25 c 0,-2.515625 1.234375,-2.875 1.75,-2.875 0.234375,0 0.65625,0.0625 0.875,0.40625 -0.15625,0 -0.546875,0 -0.546875,0.4375 0,0.3125 0.234375,0.46875 0.453125,0.46875 0.15625,0 0.46875,-0.09375 0.46875,-0.484375 0,-0.59375 -0.4375,-1.078125 -1.265625,-1.078125 -1.28125,0 -2.625,1.28125 -2.625,3.484375 0,2.671875 1.15625,3.375 2.078125,3.375 1.109375,0 2.0625,-0.9375 2.0625,-2.25 0,-1.265625 -0.890625,-2.21875 -2,-2.21875 -0.671875,0 -1.046875,0.5 -1.25,0.984375 z M 2.5,-0.0625 c -0.625,0 -0.921875,-0.59375 -0.984375,-0.75 -0.1875,-0.46875 -0.1875,-1.265625 -0.1875,-1.4375 0,-0.78125 0.328125,-1.78125 1.21875,-1.78125 0.171875,0 0.625,0 0.9375,0.625 0.171875,0.359375 0.171875,0.875 0.171875,1.359375 0,0.484375 0,0.984375 -0.171875,1.34375 C 3.1875,-0.109375 2.734375,-0.0625 2.5,-0.0625 z m 0,0"
               style="stroke:none" />
          </symbol>
          <symbol
             id="textext-e9e99471-18"
             overflow="visible"
             style="overflow:visible">
            <path
               id="path2886"
               d="m 4.578125,-3.1875 c 0,-0.796875 -0.046875,-1.59375 -0.390625,-2.328125 -0.453125,-0.96875 -1.28125,-1.125 -1.6875,-1.125 -0.609375,0 -1.328125,0.265625 -1.75,1.1875 -0.3125,0.6875 -0.359375,1.46875 -0.359375,2.265625 0,0.75 0.03125,1.640625 0.453125,2.40625 0.421875,0.796875 1.15625,1 1.640625,1 0.53125,0 1.296875,-0.203125 1.734375,-1.15625 0.3125,-0.6875 0.359375,-1.46875 0.359375,-2.25 z M 2.484375,0 C 2.09375,0 1.5,-0.25 1.328125,-1.203125 1.21875,-1.796875 1.21875,-2.71875 1.21875,-3.3125 c 0,-0.640625 0,-1.296875 0.078125,-1.828125 0.1875,-1.1875 0.9375,-1.28125 1.1875,-1.28125 0.328125,0 0.984375,0.1875 1.171875,1.171875 0.109375,0.5625 0.109375,1.3125 0.109375,1.9375 0,0.75 0,1.421875 -0.109375,2.0625 C 3.5,-0.296875 2.9375,0 2.484375,0 z m 0,0"
               style="stroke:none" />
          </symbol>
          <symbol
             id="textext-e9e99471-19"
             overflow="visible"
             style="overflow:visible">
            <path
               id="path2889"
               d="m 1.90625,-0.53125 c 0,-0.28125 -0.234375,-0.53125 -0.515625,-0.53125 -0.296875,0 -0.53125,0.25 -0.53125,0.53125 C 0.859375,-0.234375 1.09375,0 1.390625,0 1.671875,0 1.90625,-0.234375 1.90625,-0.53125 z m 0,0"
               style="stroke:none" />
          </symbol>
        </g>
      </defs>
      <g
         id="textext-e9e99471-20">
        <g
           id="g2892"
           style="fill:#000000;fill-opacity:1"
           transform="translate(0.61800526,2.1630184)">
          <use
             id="use2894"
             y="134.765"
             x="223.43201"
             xlink:href="#textext-e9e99471-1"
             width="177.16534"
             height="177.16534"
             transform="translate(27.346733,0.92700788)" />
          <use
             id="use2896"
             y="134.765"
             x="227.2417"
             xlink:href="#textext-e9e99471-2"
             width="177.16534"
             height="177.16534"
             transform="translate(27.346733,0.92700788)" />
          <use
             id="use2898"
             y="134.765"
             x="229.44542"
             xlink:href="#textext-e9e99471-3"
             width="177.16534"
             height="177.16534"
             transform="translate(27.346733,0.92700788)" />
          <use
             id="use2900"
             y="134.765"
             x="234.36197"
             xlink:href="#textext-e9e99471-4"
             width="177.16534"
             height="177.16534"
             transform="translate(27.346733,0.92700788)" />
        </g>
        <g
           id="g3031"
           transform="matrix(0.82377783,0.56691276,-0.56691276,0.82377783,126.24635,-127.93706)">
          <g
             transform="translate(27.346733,0.92700788)"
             style="fill:#000000;fill-opacity:1"
             id="g2902">
            <use
               height="177.16534"
               width="177.16534"
               xlink:href="#textext-e9e99471-1"
               x="243.09518"
               y="134.765"
               id="use2904" />
            <use
               height="177.16534"
               width="177.16534"
               xlink:href="#textext-e9e99471-2"
               x="246.90488"
               y="134.765"
               id="use2906" />
            <use
               height="177.16534"
               width="177.16534"
               xlink:href="#textext-e9e99471-5"
               x="249.10861"
               y="134.765"
               id="use2908" />
            <use
               height="177.16534"
               width="177.16534"
               xlink:href="#textext-e9e99471-6"
               x="250.07597"
               y="134.765"
               id="use2910" />
            <use
               height="177.16534"
               width="177.16534"
               xlink:href="#textext-e9e99471-2"
               x="253.99527"
               y="134.765"
               id="use2912" />
            <use
               height="177.16534"
               width="177.16534"
               xlink:href="#textext-e9e99471-7"
               x="256.19901"
               y="134.765"
               id="use2914" />
          </g>
          <g
             transform="translate(27.346733,0.92700788)"
             style="fill:#000000;fill-opacity:1"
             id="g2916">
            <use
               height="177.16534"
               width="177.16534"
               xlink:href="#textext-e9e99471-8"
               x="256.24979"
               y="134.765"
               id="use2918" />
            <use
               height="177.16534"
               width="177.16534"
               xlink:href="#textext-e9e99471-9"
               x="261.7641"
               y="134.765"
               id="use2920" />
          </g>
        </g>
        <g
           id="g2922"
           style="fill:#000000;fill-opacity:1"
           transform="matrix(0.64018979,0.76821678,-0.76821678,0.64018979,223.59753,-140.16804)">
          <use
             id="use2924"
             y="134.765"
             x="271.06299"
             xlink:href="#textext-e9e99471-17"
             width="177.16534"
             height="177.16534" />
          <use
             id="use2926"
             y="134.765"
             x="276.04431"
             xlink:href="#textext-e9e99471-18"
             width="177.16534"
             height="177.16534" />
        </g>
        <g
           id="g3057"
           transform="matrix(0.29877583,0.95432334,-0.95432334,0.29877583,324.29885,-171.90369)">
          <g
             id="g3043">
            <g
               id="g2928"
               style="fill:#000000;fill-opacity:1"
               transform="translate(30.282258,-14.214121)">
              <use
                 id="use2930"
                 y="134.765"
                 x="283.75"
                 xlink:href="#textext-e9e99471-10"
                 width="177.16534"
                 height="177.16534" />
              <use
                 id="use2932"
                 y="134.765"
                 x="289.57413"
                 xlink:href="#textext-e9e99471-11"
                 width="177.16534"
                 height="177.16534" />
              <use
                 id="use2934"
                 y="134.765"
                 x="293.75244"
                 xlink:href="#textext-e9e99471-12"
                 width="177.16534"
                 height="177.16534" />
              <use
                 id="use2936"
                 y="134.765"
                 x="296.62466"
                 xlink:href="#textext-e9e99471-2"
                 width="177.16534"
                 height="177.16534" />
              <use
                 id="use2938"
                 y="134.765"
                 x="298.8284"
                 xlink:href="#textext-e9e99471-13"
                 width="177.16534"
                 height="177.16534" />
              <use
                 id="use2940"
                 y="134.765"
                 x="301.42065"
                 xlink:href="#textext-e9e99471-14"
                 width="177.16534"
                 height="177.16534" />
              <use
                 id="use2942"
                 y="134.765"
                 x="307.34442"
                 xlink:href="#textext-e9e99471-6"
                 width="177.16534"
                 height="177.16534" />
              <use
                 id="use2944"
                 y="134.765"
                 x="311.2637"
                 xlink:href="#textext-e9e99471-2"
                 width="177.16534"
                 height="177.16534" />
              <use
                 id="use2946"
                 y="134.765"
                 x="313.46744"
                 xlink:href="#textext-e9e99471-15"
                 width="177.16534"
                 height="177.16534" />
            </g>
            <g
               id="g2948"
               style="fill:#000000;fill-opacity:1"
               transform="translate(30.282258,-14.214121)">
              <use
                 id="use2950"
                 y="134.765"
                 x="314.93301"
                 xlink:href="#textext-e9e99471-19"
                 width="177.16534"
                 height="177.16534" />
            </g>
          </g>
        </g>
      </g>
    </g>
  </g>
</svg>
